<svg width="20" height="20" viewBox="0 0 20 20" fill="none" xmlns="http://www.w3.org/2000/svg">
<path d="M16 10H17.874C18.474 10 18.961 10.487 18.961 11.087V18.163C18.961 18.763 18.474 19.25 17.874 19.25H16.001C15.401 19.25 14.914 18.763 14.914 18.163V11.087C14.914 10.487 15.4 10 16 10ZM9.063 5.375H10.937C11.537 5.375 12.023 5.862 12.023 6.462V18.163C12.023 18.763 11.537 19.25 10.937 19.25H9.063C8.463 19.25 7.977 18.763 7.977 18.163V6.462C7.977 5.862 8.463 5.375 9.063 5.375ZM2.126 0.75H3.999C4.599 0.75 5.086 1.237 5.086 1.837V18.163C5.086 18.763 4.599 19.25 3.999 19.25H2.126C1.526 19.25 1.039 18.763 1.039 18.163V1.837C1.039 1.237 1.526 0.75 2.126 0.75Z" stroke="#2A2C33" stroke-width="1.5" stroke-linecap="round" stroke-linejoin="round"/>
</svg>
