<svg width="24" height="24" viewBox="0 0 24 24" fill="none" xmlns="http://www.w3.org/2000/svg">
<path d="M20.25 21V12H14.25V21H11.25V9H5.25V21H3V1.5H1.5V21C1.5 21.3978 1.65804 21.7794 1.93934 22.0607C2.22064 22.342 2.60218 22.5 3 22.5H22.5V21H20.25ZM9.75 21H6.75V10.5H9.75V21ZM18.75 21H15.75V13.5H18.75V21Z" fill="#2A2C33"/>
<path d="M17.0895 10.5C16.7712 10.5005 16.461 10.399 16.2045 10.2105L8.40375 4.49026L6.1815 7.50001L4.97775 6.60451L7.21425 3.60451C7.44681 3.29141 7.79227 3.08132 8.17725 3.01886C8.56223 2.9564 8.95639 3.0465 9.276 3.27001L17.0918 9.00001L19.7955 5.35501L21 6.24751L18.297 9.89401C18.1571 10.0824 17.975 10.2353 17.7653 10.3406C17.5556 10.4458 17.3241 10.5004 17.0895 10.5Z" fill="#2A2C33"/>
</svg>
