<svg width="24" height="24" viewBox="0 0 24 24" fill="none" xmlns="http://www.w3.org/2000/svg">
<path d="M12 22.5C9.2162 22.4968 6.54733 21.3896 4.57889 19.4211C2.78794 17.6302 1.70986 15.2594 1.52761 12.7498C1.4976 12.3366 1.83612 12 2.25043 12C2.66441 12 2.99676 12.3362 3.03119 12.7487C3.15775 14.2648 3.66705 15.7284 4.51677 17.0001C5.50571 18.4802 6.91131 19.6337 8.55585 20.3149C10.2004 20.9961 12.01 21.1743 13.7558 20.8271C15.5016 20.4798 17.1053 19.6226 18.364 18.364C19.6226 17.1053 20.4798 15.5016 20.8271 13.7558C21.1743 12.01 20.9961 10.2004 20.3149 8.55585C19.6337 6.91131 18.4802 5.50571 17.0001 4.51677C15.7286 3.66713 14.2651 3.15784 12.7492 3.03123C12.3364 2.99675 12 2.66421 12 2.25C12 1.83579 12.3363 1.49721 12.7494 1.52676C15.2603 1.70632 17.6329 2.78364 19.4246 4.57538C21.3938 6.54451 22.5 9.21523 22.5 12C22.5 14.7848 21.3938 17.4555 19.4246 19.4246C17.4555 21.3938 14.7848 22.5 12 22.5Z" fill="#2A2C33"/>
<path d="M12 19.5C10.0116 19.4976 8.10534 18.7067 6.69933 17.3007C5.47103 16.0724 4.71215 14.4623 4.53835 12.7492C4.49653 12.337 4.83613 12 5.25045 12C5.66441 12 5.99517 12.3369 6.04676 12.7476C6.16251 13.6694 6.49126 14.5553 7.01118 15.3334C7.67047 16.3201 8.60754 17.0892 9.7039 17.5433C10.8003 17.9974 12.0067 18.1162 13.1705 17.8847C14.3344 17.6532 15.4035 17.0818 16.2426 16.2426C17.0818 15.4035 17.6532 14.3344 17.8847 13.1705C18.1162 12.0067 17.9974 10.8003 17.5433 9.7039C17.0892 8.60754 16.3201 7.67047 15.3334 7.01118C14.5554 6.49135 13.6697 6.16262 12.7481 6.04681C12.3371 5.99517 12 5.66421 12 5.25C12 4.83579 12.3366 4.49611 12.7488 4.53745C14.4629 4.70938 16.0744 5.46778 17.3033 6.6967C18.7098 8.10322 19.5 10.0109 19.5 12C19.5 13.9891 18.7098 15.8968 17.3033 17.3033C15.8968 18.7098 13.9891 19.5 12 19.5Z" fill="#2A2C33"/>
<path d="M12 16.5C10.807 16.4986 9.66317 16.0241 8.81955 15.1804C8.15411 14.515 7.71829 13.6628 7.56321 12.7469C7.49404 12.3384 7.83612 12 8.25044 12C8.66441 12 8.99079 12.3407 9.09316 12.7418C9.17679 13.0695 9.31569 13.3825 9.50559 13.6667C9.83524 14.1601 10.3038 14.5446 10.8519 14.7716C11.4001 14.9987 12.0033 15.0581 12.5853 14.9424C13.1672 14.8266 13.7018 14.5409 14.1213 14.1213C14.5409 13.7018 14.8266 13.1672 14.9424 12.5853C15.0581 12.0033 14.9987 11.4001 14.7716 10.8519C14.5446 10.3038 14.1601 9.83524 13.6667 9.50559C13.3826 9.31577 13.0698 9.17691 12.7422 9.09327C12.3409 8.99078 12 8.66421 12 8.25C12 7.83579 12.3381 7.49362 12.7466 7.56234C13.6631 7.71653 14.5161 8.15217 15.182 8.81802C16.0259 9.66193 16.5 10.8065 16.5 12C16.5 13.1935 16.0259 14.3381 15.182 15.182C14.3381 16.0259 13.1935 16.5 12 16.5Z" fill="#2A2C33"/>
</svg>
