<svg width="15" height="16" viewBox="0 0 15 16" fill="none" xmlns="http://www.w3.org/2000/svg">
<g id="icon / ionicons / filled / alert-circle">
<path id="Vector" d="M7.5 1.90625C4.13994 1.90625 1.40625 4.63994 1.40625 8C1.40625 11.3601 4.13994 14.0938 7.5 14.0938C10.8601 14.0938 13.5938 11.3601 13.5938 8C13.5938 4.63994 10.8601 1.90625 7.5 1.90625ZM7.5 11.2786C7.38411 11.2786 7.27083 11.2442 7.17447 11.1799C7.07811 11.1155 7.00301 11.024 6.95866 10.9169C6.91432 10.8098 6.90271 10.692 6.92532 10.5784C6.94793 10.4647 7.00373 10.3603 7.08568 10.2784C7.16762 10.1964 7.27203 10.1406 7.38569 10.118C7.49935 10.0954 7.61716 10.107 7.72423 10.1513C7.83129 10.1957 7.92281 10.2708 7.98719 10.3671C8.05157 10.4635 8.08594 10.5768 8.08594 10.6927C8.08594 10.8481 8.02421 10.9971 7.91432 11.107C7.80444 11.2169 7.6554 11.2786 7.5 11.2786ZM8.13633 5.38555L7.96816 8.95977C7.96816 9.08409 7.91878 9.20331 7.83087 9.29122C7.74296 9.37913 7.62373 9.42852 7.49941 9.42852C7.37509 9.42852 7.25587 9.37913 7.16796 9.29122C7.08005 9.20331 7.03066 9.08409 7.03066 8.95977L6.8625 5.3873V5.38584C6.85881 5.29998 6.87254 5.21426 6.90286 5.13384C6.93318 5.05343 6.97945 4.97998 7.03891 4.91792C7.09836 4.85586 7.16975 4.80648 7.2488 4.77274C7.32784 4.739 7.41289 4.72161 7.49883 4.72161C7.58477 4.72161 7.66982 4.739 7.74886 4.77274C7.8279 4.80648 7.8993 4.85586 7.95875 4.91792C8.0182 4.97998 8.06448 5.05343 8.0948 5.13384C8.12511 5.21426 8.13884 5.29998 8.13516 5.38584L8.13633 5.38555Z" fill="#FF9843"/>
</g>
</svg>
