<svg xmlns="http://www.w3.org/2000/svg" width="183" height="57" viewBox="0 0 183 57" fill="none">
	<path d="M25.36 31C16.86 20.6533 8.40667 10.36 0 0.12L0.13 0L22.35 21L23.65 19.44C25.4 17.32 27.14 15.2 28.9 13.1C29.1151 12.838 29.4233 12.6695 29.76 12.63C33.14 12.63 36.52 12.63 39.9 12.63C40.05 12.63 40.19 12.63 40.46 12.7L25.36 31Z" fill="#E25E3E" />
	<path d="M21.64 35.6399C20.64 36.8199 19.73 37.9299 18.81 39.0499C17.55 40.5699 16.3 42.0999 15 43.6099C14.811 43.835 14.5423 43.9783 14.25 44.0099C10.78 44.0099 7.31004 44.0099 3.84004 44.0099C3.73993 44.0138 3.63967 44.0105 3.54004 43.9999L18.63 25.6699C27.11 36.0033 35.5667 46.2899 44 56.5299L43.89 56.6499L21.64 35.6399Z" fill="#071952" />
	<path d="M55.7593 21.6311C56.7373 21.6311 57.6073 21.8291 58.3693 22.2251C59.1373 22.6151 59.7553 23.1491 60.2233 23.8271C60.6973 24.5051 60.9763 25.2701 61.0603 26.1221H58.3063C58.2223 25.6721 58.0693 25.2731 57.8473 24.9251C57.6253 24.5711 57.3343 24.2951 56.9743 24.0971C56.6143 23.8931 56.1823 23.7911 55.6783 23.7911C55.0723 23.7911 54.5503 23.9381 54.1123 24.2321C53.6743 24.5261 53.3383 25.0001 53.1043 25.6541C52.8703 26.3081 52.7533 27.1721 52.7533 28.2461C52.7533 29.8661 53.0113 31.0391 53.5273 31.7651C54.0493 32.4851 54.7663 32.8451 55.6783 32.8451C56.1823 32.8451 56.6143 32.7311 56.9743 32.5031C57.3343 32.2691 57.6253 31.9631 57.8473 31.5851C58.0693 31.2011 58.2223 30.7811 58.3063 30.3251H61.0603C60.9823 30.9431 60.8323 31.5341 60.6103 32.0981C60.3883 32.6561 60.0733 33.1541 59.6653 33.5921C59.2573 34.0301 58.7323 34.3751 58.0903 34.6271C57.4483 34.8791 56.6713 35.0051 55.7593 35.0051C54.5473 35.0051 53.5003 34.7231 52.6183 34.1591C51.7363 33.5951 51.0553 32.8031 50.5753 31.7831C50.1013 30.7631 49.8643 29.5721 49.8643 28.2101C49.8643 26.8421 50.1013 25.6691 50.5753 24.6911C51.0493 23.7071 51.7273 22.9511 52.6093 22.4231C53.4913 21.8951 54.5413 21.6311 55.7593 21.6311ZM73.4762 34.8251H70.7492L68.6342 29.8121H65.9972V34.8251H63.3782V21.8111H68.8682C69.9062 21.8111 70.7552 21.9761 71.4152 22.3061C72.0752 22.6361 72.5612 23.0951 72.8732 23.6831C73.1852 24.2651 73.3412 24.9371 73.3412 25.6991C73.3412 26.3831 73.2332 26.9621 73.0172 27.4361C72.8072 27.9041 72.5282 28.2941 72.1802 28.6061C71.8382 28.9181 71.4632 29.1731 71.0552 29.3711L73.4762 34.8251ZM68.4002 27.7871C69.1022 27.7871 69.6572 27.5981 70.0652 27.2201C70.4792 26.8421 70.6862 26.3561 70.6862 25.7621C70.6862 25.1621 70.4882 24.6881 70.0922 24.3401C69.6962 23.9921 69.1952 23.8181 68.5892 23.8181H65.9972V27.7871H68.4002ZM81.0392 35.0051C79.8092 35.0051 78.7442 34.7381 77.8442 34.2041C76.9502 33.6641 76.2572 32.8991 75.7652 31.9091C75.2792 30.9131 75.0362 29.7251 75.0362 28.3451C75.0362 26.9591 75.2822 25.7651 75.7742 24.7631C76.2722 23.7611 76.9712 22.9901 77.8712 22.4501C78.7712 21.9041 79.8272 21.6311 81.0392 21.6311C82.2452 21.6311 83.2952 21.9011 84.1892 22.4411C85.0832 22.9811 85.7732 23.7521 86.2592 24.7541C86.7512 25.7561 86.9972 26.9531 86.9972 28.3451C86.9972 29.7191 86.7542 30.9041 86.2682 31.9001C85.7882 32.8961 85.1012 33.6641 84.2072 34.2041C83.3132 34.7381 82.2572 35.0051 81.0392 35.0051ZM81.0392 32.8451C81.6752 32.8451 82.2242 32.6951 82.6862 32.3951C83.1542 32.0891 83.5142 31.6091 83.7662 30.9551C84.0182 30.2951 84.1442 29.4371 84.1442 28.3811C84.1442 27.2951 84.0152 26.4161 83.7572 25.7441C83.5052 25.0721 83.1452 24.5801 82.6772 24.2681C82.2152 23.9501 81.6692 23.7911 81.0392 23.7911C80.4092 23.7911 79.8602 23.9501 79.3922 24.2681C78.9242 24.5801 78.5612 25.0751 78.3032 25.7531C78.0452 26.4251 77.9162 27.3011 77.9162 28.3811C77.9162 29.4431 78.0452 30.3011 78.3032 30.9551C78.5612 31.6091 78.9242 32.0891 79.3922 32.3951C79.8602 32.6951 80.4092 32.8451 81.0392 32.8451ZM94.2808 35.0051C93.6388 35.0051 93.0088 34.9241 92.3908 34.7621C91.7728 34.6001 91.2088 34.3571 90.6988 34.0331C90.1888 33.7091 89.7658 33.3041 89.4298 32.8181C89.0998 32.3321 88.9018 31.7621 88.8358 31.1081H91.5268C91.6168 31.5041 91.7878 31.8371 92.0398 32.1071C92.2918 32.3771 92.6098 32.5841 92.9938 32.7281C93.3778 32.8721 93.8038 32.9441 94.2718 32.9441C94.7518 32.9441 95.1898 32.8841 95.5858 32.7641C95.9818 32.6441 96.2998 32.4641 96.5398 32.2241C96.7798 31.9781 96.8998 31.6721 96.8998 31.3061C96.8998 30.9761 96.8008 30.7061 96.6028 30.4961C96.4108 30.2861 96.1498 30.1151 95.8198 29.9831C95.4898 29.8511 95.1148 29.7431 94.6948 29.6591L92.4448 29.2001C91.4608 29.0141 90.6808 28.6241 90.1048 28.0301C89.5288 27.4301 89.2318 26.6321 89.2138 25.6361C89.2078 24.8201 89.4238 24.1151 89.8618 23.5211C90.3058 22.9211 90.9058 22.4591 91.6618 22.1351C92.4238 21.8111 93.2758 21.6491 94.2178 21.6491C95.3398 21.6491 96.2818 21.8261 97.0438 22.1801C97.8118 22.5281 98.3938 23.0021 98.7898 23.6021C99.1918 24.1961 99.3988 24.8591 99.4108 25.5911H96.7738C96.7258 25.1351 96.5878 24.7721 96.3598 24.5021C96.1318 24.2321 95.8378 24.0371 95.4778 23.9171C95.1238 23.7971 94.7188 23.7371 94.2628 23.7371C93.9148 23.7371 93.5968 23.7761 93.3088 23.8541C93.0268 23.9321 92.7868 24.0431 92.5888 24.1871C92.3908 24.3251 92.2378 24.4901 92.1298 24.6821C92.0218 24.8741 91.9678 25.0901 91.9678 25.3301C91.9678 25.7081 92.0938 26.0141 92.3458 26.2481C92.5978 26.4821 93.0688 26.6741 93.7588 26.8241L95.9908 27.2831C96.7888 27.4391 97.4218 27.6701 97.8898 27.9761C98.3638 28.2821 98.7178 28.6271 98.9518 29.0111C99.1918 29.3951 99.3478 29.7881 99.4198 30.1901C99.4978 30.5861 99.5368 30.9521 99.5368 31.2881C99.5368 31.9901 99.3148 32.6231 98.8708 33.1871C98.4328 33.7451 97.8208 34.1891 97.0348 34.5191C96.2488 34.8431 95.3308 35.0051 94.2808 35.0051ZM106.919 35.0051C106.277 35.0051 105.647 34.9241 105.029 34.7621C104.411 34.6001 103.847 34.3571 103.337 34.0331C102.827 33.7091 102.404 33.3041 102.068 32.8181C101.738 32.3321 101.54 31.7621 101.474 31.1081H104.165C104.255 31.5041 104.426 31.8371 104.678 32.1071C104.93 32.3771 105.248 32.5841 105.632 32.7281C106.016 32.8721 106.442 32.9441 106.91 32.9441C107.39 32.9441 107.828 32.8841 108.224 32.7641C108.62 32.6441 108.938 32.4641 109.178 32.2241C109.418 31.9781 109.538 31.6721 109.538 31.3061C109.538 30.9761 109.439 30.7061 109.241 30.4961C109.049 30.2861 108.788 30.1151 108.458 29.9831C108.128 29.8511 107.753 29.7431 107.333 29.6591L105.083 29.2001C104.099 29.0141 103.319 28.6241 102.743 28.0301C102.167 27.4301 101.87 26.6321 101.852 25.6361C101.846 24.8201 102.062 24.1151 102.5 23.5211C102.944 22.9211 103.544 22.4591 104.3 22.1351C105.062 21.8111 105.914 21.6491 106.856 21.6491C107.978 21.6491 108.92 21.8261 109.682 22.1801C110.45 22.5281 111.032 23.0021 111.428 23.6021C111.83 24.1961 112.037 24.8591 112.049 25.5911H109.412C109.364 25.1351 109.226 24.7721 108.998 24.5021C108.77 24.2321 108.476 24.0371 108.116 23.9171C107.762 23.7971 107.357 23.7371 106.901 23.7371C106.553 23.7371 106.235 23.7761 105.947 23.8541C105.665 23.9321 105.425 24.0431 105.227 24.1871C105.029 24.3251 104.876 24.4901 104.768 24.6821C104.66 24.8741 104.606 25.0901 104.606 25.3301C104.606 25.7081 104.732 26.0141 104.984 26.2481C105.236 26.4821 105.707 26.6741 106.397 26.8241L108.629 27.2831C109.427 27.4391 110.06 27.6701 110.528 27.9761C111.002 28.2821 111.356 28.6271 111.59 29.0111C111.83 29.3951 111.986 29.7881 112.058 30.1901C112.136 30.5861 112.175 30.9521 112.175 31.2881C112.175 31.9901 111.953 32.6231 111.509 33.1871C111.071 33.7451 110.459 34.1891 109.673 34.5191C108.887 34.8431 107.969 35.0051 106.919 35.0051Z" fill="#071952" />
	<path d="M123.628 21.6311C124.606 21.6311 125.476 21.8291 126.238 22.2251C127.006 22.6151 127.624 23.1491 128.092 23.8271C128.566 24.5051 128.845 25.2701 128.929 26.1221H126.175C126.091 25.6721 125.938 25.2731 125.716 24.9251C125.494 24.5711 125.203 24.2951 124.843 24.0971C124.483 23.8931 124.051 23.7911 123.547 23.7911C122.941 23.7911 122.419 23.9381 121.981 24.2321C121.543 24.5261 121.207 25.0001 120.973 25.6541C120.739 26.3081 120.622 27.1721 120.622 28.2461C120.622 29.8661 120.88 31.0391 121.396 31.7651C121.918 32.4851 122.635 32.8451 123.547 32.8451C124.051 32.8451 124.483 32.7311 124.843 32.5031C125.203 32.2691 125.494 31.9631 125.716 31.5851C125.938 31.2011 126.091 30.7811 126.175 30.3251H128.929C128.851 30.9431 128.701 31.5341 128.479 32.0981C128.257 32.6561 127.942 33.1541 127.534 33.5921C127.126 34.0301 126.601 34.3751 125.959 34.6271C125.317 34.8791 124.54 35.0051 123.628 35.0051C122.416 35.0051 121.369 34.7231 120.487 34.1591C119.605 33.5951 118.924 32.8031 118.444 31.7831C117.97 30.7631 117.733 29.5721 117.733 28.2101C117.733 26.8421 117.97 25.6691 118.444 24.6911C118.918 23.7071 119.596 22.9511 120.478 22.4231C121.36 21.8951 122.41 21.6311 123.628 21.6311ZM139.563 29.2361H133.866V34.8251H131.247V21.8111H133.866V27.0311H139.563V21.8111H142.191V34.8251H139.563V29.2361ZM145.099 34.8251V21.8111H154.036L154.027 24.0251H147.736V27.1841H153.199V29.3531H147.718V32.5841L154.126 32.5931V34.8251H145.099ZM161.755 21.6311C162.733 21.6311 163.603 21.8291 164.365 22.2251C165.133 22.6151 165.751 23.1491 166.219 23.8271C166.693 24.5051 166.972 25.2701 167.056 26.1221H164.302C164.218 25.6721 164.065 25.2731 163.843 24.9251C163.621 24.5711 163.33 24.2951 162.97 24.0971C162.61 23.8931 162.178 23.7911 161.674 23.7911C161.068 23.7911 160.546 23.9381 160.108 24.2321C159.67 24.5261 159.334 25.0001 159.1 25.6541C158.866 26.3081 158.749 27.1721 158.749 28.2461C158.749 29.8661 159.007 31.0391 159.523 31.7651C160.045 32.4851 160.762 32.8451 161.674 32.8451C162.178 32.8451 162.61 32.7311 162.97 32.5031C163.33 32.2691 163.621 31.9631 163.843 31.5851C164.065 31.2011 164.218 30.7811 164.302 30.3251H167.056C166.978 30.9431 166.828 31.5341 166.606 32.0981C166.384 32.6561 166.069 33.1541 165.661 33.5921C165.253 34.0301 164.728 34.3751 164.086 34.6271C163.444 34.8791 162.667 35.0051 161.755 35.0051C160.543 35.0051 159.496 34.7231 158.614 34.1591C157.732 33.5951 157.051 32.8031 156.571 31.7831C156.097 30.7631 155.86 29.5721 155.86 28.2101C155.86 26.8421 156.097 25.6691 156.571 24.6911C157.045 23.7071 157.723 22.9511 158.605 22.4231C159.487 21.8951 160.537 21.6311 161.755 21.6311ZM180.336 34.8251H177.474L174.027 28.7681L172.101 31.0901V34.8251H169.374V21.8111H172.101V27.7691L176.844 21.8111H179.859L175.908 26.8511L180.336 34.8251Z" fill="#E25E3E" />
</svg>
