<svg width="14" height="16" viewBox="0 0 14 16" fill="none" xmlns="http://www.w3.org/2000/svg">
<path fill-rule="evenodd" clip-rule="evenodd" d="M6.03097 0.213646C6.09853 0.145923 6.17878 0.0921929 6.26712 0.0555319C6.35547 0.018871 6.45019 0 6.54584 0C6.6415 0 6.73621 0.018871 6.82456 0.0555319C6.91291 0.0921929 6.99316 0.145923 7.06071 0.213646L12.8784 6.03136C13.015 6.16791 13.0917 6.35311 13.0917 6.54622C13.0917 6.73934 13.015 6.92454 12.8784 7.06109C12.7419 7.19764 12.5567 7.27436 12.3636 7.27436C12.1704 7.27436 11.9852 7.19764 11.8487 7.06109L7.27306 2.48401V15.2728C7.27306 15.4657 7.19644 15.6506 7.06006 15.787C6.92368 15.9234 6.73871 16 6.54584 16C6.35297 16 6.168 15.9234 6.03162 15.787C5.89525 15.6506 5.81863 15.4657 5.81863 15.2728V2.48401L1.243 7.06109C1.17539 7.1287 1.09512 7.18234 1.00678 7.21893C0.918435 7.25552 0.823752 7.27436 0.728132 7.27436C0.632513 7.27436 0.537829 7.25552 0.449488 7.21893C0.361147 7.18234 0.280878 7.1287 0.213265 7.06109C0.145652 6.99348 0.0920179 6.91321 0.0554258 6.82487C0.0188338 6.73653 -1.42484e-09 6.64184 0 6.54622C1.42484e-09 6.4506 0.0188337 6.35592 0.0554258 6.26758C0.0920179 6.17924 0.145651 6.09897 0.213265 6.03136L6.03097 0.213646Z" fill="#11103D"/>
</svg>
