<svg xmlns="http://www.w3.org/2000/svg" width="14" height="15" viewBox="0 0 14 15" fill="none">
	<path d="M12.8989 7.28887L7.15519 13.0326C6.45156 13.7363 5.4972 14.1316 4.50209 14.1316C3.50697 14.1316 2.55261 13.7363 1.84896 13.0326C1.14531 12.329 0.75 11.3746 0.75 10.3795C0.75 9.38438 1.14531 8.43006 1.84896 7.72637L7.59269 1.98264C8.06181 1.51354 8.69806 1.25 9.36144 1.25C10.0249 1.25 10.6611 1.51354 11.1302 1.98264C11.5993 2.45174 11.8629 3.08798 11.8629 3.75139C11.8629 4.4148 11.5993 5.05104 11.1302 5.52014L5.38021 11.2639C5.14566 11.4984 4.82754 11.6302 4.49584 11.6302C4.16413 11.6302 3.84601 11.4984 3.61146 11.2639C3.37691 11.0293 3.24514 10.7113 3.24514 10.3795C3.24514 10.0478 3.37691 9.72969 3.61146 9.49512L8.91769 4.19514" stroke="#2A2C33" strokeLinecap="round" strokeLinejoin="round" />
</svg>
