<svg width="16" height="16" viewBox="0 0 16 16" fill="none" xmlns="http://www.w3.org/2000/svg">
	<path d="M14.575 8.08395L8.62979 14.0291C7.90149 14.7575 6.91367 15.1666 5.88366 15.1666C4.85365 15.1666 3.86582 14.7575 3.1375 14.0291C2.40917 13.3008 2 12.313 2 11.2829C2 10.2529 2.40917 9.26515 3.1375 8.53679L9.08263 2.59164C9.56821 2.10609 10.2268 1.83331 10.9134 1.83331C11.6001 1.83331 12.2587 2.10609 12.7442 2.59164C13.2298 3.0772 13.5026 3.73575 13.5026 4.42241C13.5026 5.10909 13.2298 5.76764 12.7442 6.25319L6.79258 12.1983C6.5498 12.4411 6.22052 12.5775 5.87719 12.5775C5.53385 12.5775 5.20458 12.4411 4.9618 12.1983C4.71903 11.9555 4.58263 11.6263 4.58263 11.2829C4.58263 10.9396 4.71903 10.6104 4.9618 10.3676L10.4541 4.88173" stroke="#2A2C33" stroke-linecap="round" stroke-linejoin="round" />
</svg>
