<svg version="1.0" xmlns="http://www.w3.org/2000/svg" width="20px" height="20px" viewBox="0 0 100.000000 100.000000" preserveAspectRatio="xMidYMid meet">
	<g transform="translate(0.000000,100.000000) scale(0.100000,-0.100000)" fill="#000000" stroke="none">
		<path d="M295 806 c-17 -7 -43 -28 -58 -45 -58 -69 -50 -120 40 -282 83 -148
113 -173 201 -165 44 4 52 2 52 -12 0 -31 30 -62 59 -62 37 0 61 28 61 72 0
58 49 87 83 50 27 -30 21 -65 -18 -102 -39 -38 -44 -64 -16 -80 30 -15 38 -12
13 6 -30 21 -28 35 13 71 41 37 47 81 15 113 -42 42 -100 9 -100 -58 0 -45
-14 -62 -52 -62 -52 0 -65 66 -19 99 36 26 66 99 58 143 -8 47 -139 278 -172
301 -35 26 -119 33 -160 13z m142 -26 c39 -23 67 -72 51 -88 -7 -7 -5 -10 7
-9 11 2 32 -27 67 -93 42 -79 49 -101 45 -133 -7 -51 -30 -83 -77 -107 -92
-47 -147 -19 -220 110 -28 51 -50 93 -48 95 2 1 49 28 106 60 100 56 141 85
62 45 -44 -22 -60 -20 -60 10 0 28 -21 70 -35 70 -18 0 -37 47 -22 54 29 11
94 5 124 -14z m-127 -46 c0 -34 20 -72 41 -77 33 -9 20 -31 -34 -59 -29 -16
-56 -28 -59 -28 -19 0 -40 65 -35 107 9 81 87 132 87 57z m42 -29 c6 -14 8
-28 4 -33 -9 -8 -36 26 -36 45 0 22 20 14 32 -12z" />
	</g>
</svg>
