<svg width="251" height="250" viewBox="0 0 251 250" fill="none" xmlns="http://www.w3.org/2000/svg">
	<g filter="url(#filter0_d_14735_89234)">
		<path d="M240.433 52.9785H59.8247C55.291 52.9785 51.6152 56.6538 51.6152 61.188V126.863C51.6152 131.396 55.2905 135.072 59.8247 135.072H121.396C123.663 135.072 125.5 136.91 125.5 139.177V149.791C125.5 153.447 129.922 155.279 132.508 152.693L148.927 136.274C149.697 135.505 150.741 135.072 151.829 135.072H240.433C244.966 135.072 248.642 131.397 248.642 126.863V61.188C248.642 56.6538 244.967 52.9785 240.433 52.9785Z" fill="url(#paint0_linear_14735_89234)" />
	</g>
	<path d="M170.436 40.2705C168.383 40.2705 166.72 38.6064 166.72 36.5537V3.77783C166.72 2.15137 167.777 0.713867 169.33 0.22998C170.883 -0.254395 172.57 0.328125 173.494 1.6665L189.629 25.0308L189.423 3.75293C189.403 1.7002 191.051 0.0205078 193.104 0.000488281C193.116 0 193.128 0 193.141 0C195.176 0 196.836 1.64014 196.856 3.68066L197.163 35.4116C197.163 37.4868 196.012 39.1636 194.23 39.7202C192.488 40.2646 190.647 39.582 189.54 37.9814L174.152 15.6997V36.5537C174.153 38.6064 172.489 40.2705 170.436 40.2705Z" />
	<path d="M120.277 40.2696C118.359 40.2696 116.662 39.0513 116.051 37.2315C116.036 37.1876 116.023 37.1436 116.009 37.0992L110.18 17.3394L106.639 36.9566C106.275 38.9766 104.343 40.3184 102.322 39.9542C100.302 39.5894 98.9597 37.6563 99.3244 35.6368L105.096 3.65927C105.487 1.62899 107.164 0.146572 109.183 0.0113185C111.203 -0.120029 113.064 1.12118 113.708 3.04013C113.723 3.08407 113.737 3.12802 113.75 3.17245L120.228 25.1314L126.478 3.21054C126.49 3.16757 126.503 3.12509 126.516 3.08261C127.14 1.15829 128.985 -0.105381 131.008 0.00692398C133.028 0.120693 134.721 1.58456 135.126 3.56747L141.248 35.6002C141.633 37.6163 140.311 39.5631 138.295 39.9483C136.279 40.3341 134.332 39.0118 133.946 36.9952L130.185 17.3155L124.556 37.0601C124.544 37.1031 124.531 37.1461 124.517 37.1886C123.922 39.0221 122.227 40.2603 120.3 40.2706C120.292 40.2696 120.284 40.2696 120.277 40.2696Z" />
	<path d="M154.017 40.2705C151.964 40.2705 150.3 38.6064 150.3 36.5537V3.71631C150.3 1.66357 151.964 0 154.017 0C156.069 0 157.733 1.66406 157.733 3.71631V36.5537C157.733 38.6064 156.069 40.2705 154.017 40.2705Z" />
	<path d="M226.286 40.2705C215.184 40.2705 206.151 31.2378 206.151 20.1353C206.15 9.03271 215.184 0 226.286 0C230.321 0 234.215 1.18994 237.547 3.44141C239.248 4.59033 239.695 6.90088 238.546 8.60156C237.397 10.3027 235.086 10.75 233.386 9.60059C231.288 8.18311 228.833 7.43359 226.286 7.43359C219.282 7.43359 213.584 13.1318 213.584 20.1357C213.584 27.1396 219.282 32.8379 226.286 32.8379C232.397 32.8379 235.387 28.5474 236.367 23.8525H230.637C228.584 23.8525 226.92 22.1885 226.92 20.1362C226.92 18.0835 228.584 16.4199 230.637 16.4199H240.46C242.513 16.4199 244.177 18.084 244.177 20.1362C244.176 31.9902 236.82 40.2705 226.286 40.2705Z" />
	<path d="M26.9648 40.2705C15.8623 40.2705 6.82959 31.2378 6.82959 20.1353C6.82959 9.03271 15.8623 0 26.9648 0C30.9995 0 34.8936 1.18994 38.2256 3.44141C39.9263 4.59033 40.3735 6.90088 39.2246 8.60156C38.0757 10.3027 35.7651 10.75 34.0645 9.60059C31.9663 8.18311 29.5112 7.43359 26.9653 7.43359C19.9614 7.43359 14.2632 13.1318 14.2632 20.1357C14.2632 27.1396 19.9614 32.8379 26.9653 32.8379C29.5767 32.8379 31.7769 32.0576 33.5049 30.519C33.8413 30.2197 34.1636 29.8867 34.4624 29.5308C35.7817 27.958 38.1255 27.7534 39.6982 29.0728C41.271 30.3921 41.4756 32.7363 40.1567 34.3086C39.6274 34.939 39.0527 35.5317 38.4487 36.0698C35.3618 38.8174 31.3911 40.2705 26.9648 40.2705Z" />
	<path d="M70.1445 40.2705C59.042 40.2705 50.0093 31.2378 50.0093 20.1353C50.0093 9.03271 59.042 0 70.1445 0C81.2471 0 90.2798 9.03271 90.2798 20.1353C90.2803 31.2378 81.2476 40.2705 70.1445 40.2705ZM70.1445 7.43311C63.1406 7.43311 57.4424 13.1313 57.4424 20.1353C57.4424 27.1392 63.1406 32.8374 70.1445 32.8374C77.1484 32.8374 82.8467 27.1392 82.8467 20.1353C82.8472 13.1313 77.1489 7.43311 70.1445 7.43311Z" />
	<path d="M233.171 77.5748C233.152 75.5343 231.492 73.8942 229.456 73.8942C229.444 73.8942 229.432 73.8942 229.419 73.8947C227.367 73.9147 225.719 75.5944 225.739 77.6471L225.945 98.9254L209.81 75.5607C208.885 74.2223 207.198 73.6403 205.646 74.1241C204.093 74.6085 203.035 76.046 203.035 77.6725V110.448C203.035 112.501 204.699 114.165 206.751 114.165C208.804 114.165 210.468 112.501 210.468 110.448V89.5944L225.856 111.876C226.963 113.476 228.805 114.158 230.547 113.614C232.328 113.058 233.479 111.38 233.479 109.306L233.171 77.5748Z" fill="#F2F2F2" />
	<path d="M86.0757 90.797C81.9814 89.2868 78.1743 87.6408 77.0703 87.1569C76.3047 86.5597 75.937 85.632 76.0815 84.6286C76.1753 83.9752 76.644 82.38 78.9653 81.6808C83.8047 80.2243 88.2485 83.7516 88.3603 83.8419C89.9311 85.1466 92.2637 84.9396 93.5796 83.3737C94.9004 81.8024 94.6972 79.4581 93.126 78.1373C92.8227 77.8825 85.5932 71.9205 76.8218 74.5636C72.4346 75.8849 69.332 79.3366 68.7241 83.5719C68.1548 87.5363 69.8725 91.3497 73.207 93.5236C73.3711 93.6305 73.5434 93.7243 73.7226 93.8043C73.9121 93.8888 78.4233 95.8966 83.5039 97.7706C85.0351 98.3356 88.5444 99.944 88.0571 102.673C87.7011 104.666 85.3154 106.727 81.9389 106.727C78.5674 106.727 75.3188 105.364 73.2495 103.08C71.8711 101.56 69.521 101.443 68 102.822C66.479 104.201 66.3637 106.551 67.7422 108.072C71.1972 111.884 76.5044 114.16 81.9394 114.16C88.6714 114.16 94.3218 109.879 95.375 103.98C96.164 99.5568 94.1362 93.7702 86.0757 90.797Z" fill="#F2F2F2" />
	<path d="M124.658 73.8844C113.555 73.8844 104.522 82.9171 104.522 94.0197C104.522 105.122 113.555 114.155 124.658 114.155C135.76 114.155 144.793 105.122 144.793 94.0197C144.793 82.9171 135.76 73.8844 124.658 73.8844ZM124.658 106.722C117.654 106.722 111.956 101.024 111.956 94.0197C111.956 87.0157 117.654 81.3175 124.658 81.3175C131.662 81.3175 137.36 87.0157 137.36 94.0197C137.36 101.024 131.662 106.722 124.658 106.722Z" fill="#F2F2F2" />
	<path d="M173.914 73.8844C162.812 73.8844 153.779 82.9171 153.779 94.0197C153.779 105.122 162.812 114.155 173.914 114.155C185.017 114.155 194.049 105.122 194.049 94.0197C194.049 82.9171 185.017 73.8844 173.914 73.8844ZM173.914 106.722C166.91 106.722 161.212 101.024 161.212 94.0197C161.212 87.0157 166.91 81.3175 173.914 81.3175C180.918 81.3175 186.616 87.0157 186.616 94.0197C186.616 101.024 180.918 106.722 173.914 106.722Z" fill="#F2F2F2" />
	<g filter="url(#filter1_d_14735_89234)">
		<path d="M24.209 208.957H10.5679C6.03369 208.957 2.3584 205.281 2.3584 200.747V192.538C2.3584 188.004 6.03369 184.328 10.5679 184.328H24.209V208.957Z" fill="#F2F2F2" />
		<path d="M47.5103 212.852V245.895C47.5103 248.162 45.6724 250 43.4058 250H35.1963C32.9292 250 31.0918 248.162 31.0918 245.895V212.852H47.5103Z" fill="#F2F2F2" />
		<path d="M36.1133 212.852V245.895C36.1133 247.596 35.0776 249.056 33.6025 249.678C34.0928 249.885 34.6313 250 35.1968 250H43.4063C45.6733 250 47.5107 248.162 47.5107 245.895V212.852H36.1133V212.852Z" fill="#A8A8A8" />
		<path d="M7.38086 184.97V208.313C8.36084 208.727 9.43799 208.956 10.5688 208.956H24.21V184.328H10.5688C9.43799 184.328 8.36084 184.557 7.38086 184.97Z" fill="#A8A8A8" />
		<path d="M59.8247 217.163L90.4732 240.149C91.8941 241.215 93.6226 241.791 95.3989 241.791H100.872C105.406 241.791 109.082 238.116 109.082 233.582V159.698C109.082 155.164 105.406 151.488 100.872 151.488H95.3989C93.6226 151.488 91.8941 152.064 90.4732 153.13L59.8247 176.117L55.293 196.64L59.8247 217.163Z" fill="#F2F2F2" />
		<path d="M100.872 151.488H95.3984C94.3779 151.488 93.376 151.684 92.4365 152.048C95.5044 153.237 97.6836 156.209 97.6836 159.697V233.581C97.6836 237.069 95.5044 240.042 92.4365 241.23C93.376 241.594 94.3784 241.79 95.3984 241.79H100.872C105.406 241.79 109.081 238.115 109.081 233.581V159.698C109.081 155.164 105.406 151.488 100.872 151.488Z" fill="#A8A8A8" />
		<path d="M88.9453 154.276V239.004L90.4727 240.149C91.8936 241.215 93.6221 241.791 95.3984 241.791H96.3784V151.488H95.3984C93.6221 151.488 91.8936 152.064 90.4727 153.13L88.9453 154.276Z" fill="#D7D7D7" />
		<path d="M59.8242 217.16H22.6836C20.5264 217.16 18.7773 215.411 18.7773 213.254V180.02C18.7773 177.862 20.5264 176.113 22.6836 176.113H59.8247L59.8242 217.16Z" fill="#A8A8A8" />
		<path d="M43.4043 200.355H35.1948C33.1421 200.355 31.4785 198.691 31.4785 196.638C31.4785 194.585 33.1426 192.922 35.1948 192.922H43.4043C45.457 192.922 47.1211 194.586 47.1211 196.638C47.1206 198.691 45.4565 200.355 43.4043 200.355Z" fill="#D9D9D9" />
	</g>
	<g filter="url(#filter2_d_14735_89234)">
		<path d="M201.703 197.809C200.252 196.358 197.899 196.358 196.448 197.809C194.996 199.26 194.996 201.614 196.448 203.065L208.057 214.675C208.783 215.4 209.734 215.763 210.685 215.763C211.637 215.763 212.588 215.4 213.313 214.675C214.765 213.224 214.765 210.87 213.313 209.419L201.703 197.809Z" fill="url(#paint1_linear_14735_89234)" />
	</g>
	<g filter="url(#filter3_d_14735_89234)">
		<path d="M158.503 224.969C157.972 222.987 155.934 221.811 153.951 222.341C151.968 222.872 150.792 224.91 151.323 226.893L155.572 242.753C156.017 244.413 157.519 245.508 159.16 245.508C159.478 245.508 159.802 245.467 160.124 245.381C162.107 244.849 163.283 242.811 162.752 240.829L158.503 224.969Z" fill="url(#paint2_linear_14735_89234)" />
	</g>
	<g filter="url(#filter4_d_14735_89234)">
		<path d="M241.393 156.932L225.534 152.683C223.554 152.153 221.513 153.328 220.982 155.311C220.451 157.293 221.628 159.331 223.61 159.863L239.47 164.112C239.792 164.199 240.115 164.24 240.434 164.24C242.075 164.24 243.577 163.144 244.022 161.484C244.552 159.501 243.376 157.464 241.393 156.932Z" fill="url(#paint3_linear_14735_89234)" />
	</g>
	<defs>
		<filter id="filter0_d_14735_89234" x="47.6152" y="52.9785" width="205.027" height="108.925" filterUnits="userSpaceOnUse" colorInterpolationFilters="sRGB">
			<feFlood floodOpacity="0" result="BackgroundImageFix" />
			<feColorMatrix in="SourceAlpha" type="matrix" values="0 0 0 0 0 0 0 0 0 0 0 0 0 0 0 0 0 0 127 0" result="hardAlpha" />
			<feOffset dy="4" />
			<feGaussianBlur stdDeviation="2" />
			<feComposite in2="hardAlpha" operator="out" />
			<feColorMatrix type="matrix" values="0 0 0 0 0.886275 0 0 0 0 0.368627 0 0 0 0 0.243137 0 0 0 0.1 0" />
			<feBlend mode="normal" in2="BackgroundImageFix" result="effect1_dropShadow_14735_89234" />
			<feBlend mode="normal" in="SourceGraphic" in2="effect1_dropShadow_14735_89234" result="shape" />
		</filter>
		<filter id="filter1_d_14735_89234" x="-1.6416" y="151.488" width="114.723" height="106.511" filterUnits="userSpaceOnUse" colorInterpolationFilters="sRGB">
			<feFlood floodOpacity="0" result="BackgroundImageFix" />
			<feColorMatrix in="SourceAlpha" type="matrix" values="0 0 0 0 0 0 0 0 0 0 0 0 0 0 0 0 0 0 127 0" result="hardAlpha" />
			<feOffset dy="4" />
			<feGaussianBlur stdDeviation="2" />
			<feComposite in2="hardAlpha" operator="out" />
			<feColorMatrix type="matrix" values="0 0 0 0 0 0 0 0 0 0 0 0 0 0 0 0 0 0 0.25 0" />
			<feBlend mode="normal" in2="BackgroundImageFix" result="effect1_dropShadow_14735_89234" />
			<feBlend mode="normal" in="SourceGraphic" in2="effect1_dropShadow_14735_89234" result="shape" />
		</filter>
		<filter id="filter2_d_14735_89234" x="191.359" y="196.721" width="27.0435" height="27.0425" filterUnits="userSpaceOnUse" colorInterpolationFilters="sRGB">
			<feFlood floodOpacity="0" result="BackgroundImageFix" />
			<feColorMatrix in="SourceAlpha" type="matrix" values="0 0 0 0 0 0 0 0 0 0 0 0 0 0 0 0 0 0 127 0" result="hardAlpha" />
			<feOffset dy="4" />
			<feGaussianBlur stdDeviation="2" />
			<feComposite in2="hardAlpha" operator="out" />
			<feColorMatrix type="matrix" values="0 0 0 0 0.886275 0 0 0 0 0.368627 0 0 0 0 0.243137 0 0 0 0.1 0" />
			<feBlend mode="normal" in2="BackgroundImageFix" result="effect1_dropShadow_14735_89234" />
			<feBlend mode="normal" in="SourceGraphic" in2="effect1_dropShadow_14735_89234" result="shape" />
		</filter>
		<filter id="filter3_d_14735_89234" x="147.195" y="222.214" width="19.6841" height="31.2942" filterUnits="userSpaceOnUse" colorInterpolationFilters="sRGB">
			<feFlood floodOpacity="0" result="BackgroundImageFix" />
			<feColorMatrix in="SourceAlpha" type="matrix" values="0 0 0 0 0 0 0 0 0 0 0 0 0 0 0 0 0 0 127 0" result="hardAlpha" />
			<feOffset dy="4" />
			<feGaussianBlur stdDeviation="2" />
			<feComposite in2="hardAlpha" operator="out" />
			<feColorMatrix type="matrix" values="0 0 0 0 0.886275 0 0 0 0 0.368627 0 0 0 0 0.243137 0 0 0 0.1 0" />
			<feBlend mode="normal" in2="BackgroundImageFix" result="effect1_dropShadow_14735_89234" />
			<feBlend mode="normal" in="SourceGraphic" in2="effect1_dropShadow_14735_89234" result="shape" />
		</filter>
		<filter id="filter4_d_14735_89234" x="216.854" y="152.556" width="31.2949" height="19.684" filterUnits="userSpaceOnUse" colorInterpolationFilters="sRGB">
			<feFlood floodOpacity="0" result="BackgroundImageFix" />
			<feColorMatrix in="SourceAlpha" type="matrix" values="0 0 0 0 0 0 0 0 0 0 0 0 0 0 0 0 0 0 127 0" result="hardAlpha" />
			<feOffset dy="4" />
			<feGaussianBlur stdDeviation="2" />
			<feComposite in2="hardAlpha" operator="out" />
			<feColorMatrix type="matrix" values="0 0 0 0 0.886275 0 0 0 0 0.368627 0 0 0 0 0.243137 0 0 0 0.1 0" />
			<feBlend mode="normal" in2="BackgroundImageFix" result="effect1_dropShadow_14735_89234" />
			<feBlend mode="normal" in="SourceGraphic" in2="effect1_dropShadow_14735_89234" result="shape" />
		</filter>
		<linearGradient id="paint0_linear_14735_89234" x1="51.6152" y1="153.903" x2="256.314" y2="121.235" gradientUnits="userSpaceOnUse">
			<stop stopColor="#E25E3E" />
			<stop offset="0.5" stopColor="#E24872" />
			<stop offset="1" stopColor="#A44E86" />
		</linearGradient>
		<linearGradient id="paint1_linear_14735_89234" x1="195.359" y1="215.763" x2="215.513" y2="214.116" gradientUnits="userSpaceOnUse">
			<stop stopColor="#E25E3E" />
			<stop offset="0.5" stopColor="#E24872" />
			<stop offset="1" stopColor="#A44E86" />
		</linearGradient>
		<linearGradient id="paint2_linear_14735_89234" x1="151.195" y1="245.508" x2="163.623" y2="244.998" gradientUnits="userSpaceOnUse">
			<stop stopColor="#E25E3E" />
			<stop offset="0.5" stopColor="#E24872" />
			<stop offset="1" stopColor="#A44E86" />
		</linearGradient>
		<linearGradient id="paint3_linear_14735_89234" x1="220.854" y1="164.24" x2="245.03" y2="160.299" gradientUnits="userSpaceOnUse">
			<stop stopColor="#E25E3E" />
			<stop offset="0.5" stopColor="#E24872" />
			<stop offset="1" stopColor="#A44E86" />
		</linearGradient>
	</defs>
</svg>
