<svg xmlns="http://www.w3.org/2000/svg" width="16" height="16" viewBox="0 0 16 16" fill="none">
	<g clipPath="url(#clip0_12629_105607)">
		<path d="M3.99968 13.8233C3.79669 13.7061 3.62819 13.5375 3.51115 13.3344C3.39411 13.1314 3.33266 12.901 3.33301 12.6667V3.33333C3.33301 2.97971 3.47348 2.64057 3.72353 2.39052C3.97358 2.14048 4.31272 2 4.66634 2H9.33301L12.6663 5.33333V12.6667C12.6663 13.0203 12.5259 13.3594 12.2758 13.6095C12.0258 13.8595 11.6866 14 11.333 14H10.6663" stroke="#2A2C33" strokeLinecap="round" strokeLinejoin="round" />
		<path d="M7.33333 11.3333C7.68696 11.3333 8.02609 11.4738 8.27614 11.7238C8.52619 11.9739 8.66667 12.313 8.66667 12.6666V14C8.66667 14.1768 8.59643 14.3464 8.4714 14.4714C8.34638 14.5964 8.17681 14.6666 8 14.6666H6.66667C6.48986 14.6666 6.32029 14.5964 6.19526 14.4714C6.07024 14.3464 6 14.1768 6 14V12.6666C6 12.313 6.14048 11.9739 6.39052 11.7238C6.64057 11.4738 6.97971 11.3333 7.33333 11.3333Z" stroke="#2A2C33" strokeLinecap="round" strokeLinejoin="round" />
		<path d="M7.33366 3.33331H6.66699" stroke="#2A2C33" strokeLinecap="round" strokeLinejoin="round" />
		<path d="M8.66667 4.66669H8" stroke="#2A2C33" strokeLinecap="round" strokeLinejoin="round" />
		<path d="M7.33366 6H6.66699" stroke="#2A2C33" strokeLinecap="round" strokeLinejoin="round" />
		<path d="M8.66667 7.33331H8" stroke="#2A2C33" strokeLinecap="round" strokeLinejoin="round" />
		<path d="M7.33366 8.66669H6.66699" stroke="#2A2C33" strokeLinecap="round" strokeLinejoin="round" />
		<path d="M8.66667 10H8" stroke="#2A2C33" strokeLinecap="round" strokeLinejoin="round" />
	</g>
	<defs>
		<clipPath id="clip0_12629_105607">
			<rect width="16" height="16" fill="white" />
		</clipPath>
	</defs>
</svg>
