<svg width="287" height="257" viewBox="0 0 287 257" fill="none" xmlns="http://www.w3.org/2000/svg">
	<path d="M236.871 91.9966C236.9 93.6118 235.413 94.8304 233.835 94.4839L195.639 86.0978C193.599 85.6499 192.975 83.046 194.591 81.7222L199.47 77.724C201.816 75.8024 202.177 72.304 200.168 69.9778C187.73 55.5727 178.029 50.1455 166.702 47.9313C165.512 47.6988 164.72 46.8394 164.469 45.9174C164.23 45.0381 164.481 44.1598 165.392 43.6033C173.196 38.8347 181.746 36.0331 190.748 37.1031C199.735 38.1712 209.412 43.1261 219.428 54.335C221.404 56.5469 224.83 56.9453 227.196 55.0072L232.075 51.009C233.691 49.6852 236.121 50.8089 236.159 52.8973L236.871 91.9966Z" stroke="#8B909A" stroke-width="3" stroke-linejoin="round" />
	<path d="M48.5823 172.003C48.5529 170.388 50.0401 169.17 51.618 169.516L89.814 177.902C91.8541 178.35 92.478 180.954 90.8623 182.278L85.9826 186.276C83.6374 188.198 83.276 191.696 85.2846 194.022C97.723 208.427 107.424 213.854 118.751 216.069C119.941 216.301 120.733 217.161 120.984 218.083C121.222 218.962 120.972 219.84 120.061 220.397C112.257 225.165 103.707 227.967 94.7044 226.897C85.7177 225.829 76.0412 220.874 66.0253 209.665C64.0488 207.453 60.6227 207.055 58.2572 208.993L53.3775 212.991C51.7618 214.315 49.3314 213.191 49.2934 211.103L48.5823 172.003Z" stroke="#8B909A" stroke-width="3" stroke-linejoin="round" />
	<g filter="url(#filter0_d_22272_90183)">
		<rect x="10" y="10.9274" width="144.183" height="144.183" rx="20" fill="white" />
		<path d="M88.593 88.1854C72.1638 68.1868 55.8248 48.2913 39.5759 28.4989L39.8272 28.267L82.7752 68.8569L85.2879 65.8416C88.6703 61.744 92.0335 57.6464 95.4353 53.5874C95.8511 53.081 96.4468 52.7553 97.0976 52.6789C103.631 52.6789 110.164 52.6789 116.697 52.6789C116.987 52.6789 117.257 52.6789 117.779 52.8142L88.593 88.1854Z" fill="#E25E3E" />
		<path d="M81.401 97.1534C79.4682 99.4342 77.7093 101.58 75.9311 103.744C73.4957 106.682 71.0796 109.64 68.5669 112.558C68.2016 112.993 67.6822 113.27 67.1173 113.331C60.4103 113.331 53.7034 113.331 46.9964 113.331C46.8029 113.339 46.6091 113.333 46.4165 113.312L75.5832 77.8829C91.9737 97.8558 108.319 117.738 124.62 137.531L124.407 137.763L81.401 97.1534Z" fill="#071952" />
	</g>
	<g filter="url(#filter1_d_22272_90183)">
		<rect x="132.249" y="102.67" width="144.183" height="144.183" rx="20" fill="white" />
		<g clip-path="url(#clip0_22272_90183)">
			<path d="M191.597 176.507C186.44 176.507 182.257 180.689 182.257 185.846V209.208C182.257 214.365 186.44 218.548 191.597 218.548C196.754 218.548 200.936 214.365 200.936 209.208V185.846C200.932 180.689 196.75 176.507 191.597 176.507Z" fill="#E91E63" />
			<path d="M158.906 185.846C158.906 191.007 163.093 195.193 168.253 195.193C173.414 195.193 177.6 191.007 177.6 185.846V176.499H168.261C168.257 176.499 168.257 176.499 168.253 176.499C163.093 176.499 158.906 180.686 158.906 185.846Z" fill="#E91E63" />
			<path d="M191.608 129.635C191.604 129.635 191.6 129.635 191.596 129.635C186.436 129.635 182.25 133.821 182.25 138.982C182.25 144.142 186.436 148.329 191.596 148.329H200.936V138.982C200.936 138.978 200.936 138.971 200.936 138.963C200.932 133.81 196.757 129.635 191.608 129.635Z" fill="#00BCD4" />
			<path d="M168.19 171.761H191.596C196.757 171.761 200.943 167.575 200.943 162.414C200.943 157.253 196.757 153.067 191.596 153.067H168.19C163.03 153.067 158.843 157.253 158.843 162.414C158.843 167.575 163.03 171.761 168.19 171.761Z" fill="#00BCD4" />
			<path d="M238.327 153.063C233.174 153.063 228.999 157.239 228.999 162.392V162.41V171.757H238.339C243.499 171.757 247.686 167.571 247.686 162.41C247.686 157.25 243.499 153.063 238.339 153.063C238.335 153.063 238.331 153.063 238.327 153.063Z" fill="#4CAF50" />
			<path d="M205.667 138.982V162.414C205.667 167.571 209.85 171.754 215.007 171.754C220.163 171.754 224.346 167.571 224.346 162.414V138.982C224.346 133.825 220.163 129.642 215.007 129.642C209.85 129.642 205.667 133.825 205.667 138.982Z" fill="#4CAF50" />
			<path d="M224.342 209.201C224.342 204.044 220.16 199.861 215.003 199.861H205.663V209.208C205.667 214.361 209.846 218.54 215.003 218.54C220.16 218.54 224.342 214.357 224.342 209.201Z" fill="#FF9800" />
			<path d="M238.409 176.499H215.003C209.842 176.499 205.656 180.686 205.656 185.846C205.656 191.007 209.842 195.193 215.003 195.193H238.409C243.57 195.193 247.756 191.007 247.756 185.846C247.756 180.686 243.57 176.499 238.409 176.499Z" fill="#FF9800" />
		</g>
	</g>
	<defs>
		<filter id="filter0_d_22272_90183" x="0" y="0.927399" width="164.183" height="164.183" filterUnits="userSpaceOnUse" color-interpolation-filters="sRGB">
			<feFlood flood-opacity="0" result="BackgroundImageFix" />
			<feColorMatrix in="SourceAlpha" type="matrix" values="0 0 0 0 0 0 0 0 0 0 0 0 0 0 0 0 0 0 127 0" result="hardAlpha" />
			<feOffset />
			<feGaussianBlur stdDeviation="5" />
			<feComposite in2="hardAlpha" operator="out" />
			<feColorMatrix type="matrix" values="0 0 0 0 0 0 0 0 0 0 0 0 0 0 0 0 0 0 0.25 0" />
			<feBlend mode="normal" in2="BackgroundImageFix" result="effect1_dropShadow_22272_90183" />
			<feBlend mode="normal" in="SourceGraphic" in2="effect1_dropShadow_22272_90183" result="shape" />
		</filter>
		<filter id="filter1_d_22272_90183" x="122.249" y="92.6702" width="164.183" height="164.183" filterUnits="userSpaceOnUse" color-interpolation-filters="sRGB">
			<feFlood flood-opacity="0" result="BackgroundImageFix" />
			<feColorMatrix in="SourceAlpha" type="matrix" values="0 0 0 0 0 0 0 0 0 0 0 0 0 0 0 0 0 0 127 0" result="hardAlpha" />
			<feOffset />
			<feGaussianBlur stdDeviation="5" />
			<feComposite in2="hardAlpha" operator="out" />
			<feColorMatrix type="matrix" values="0 0 0 0 0 0 0 0 0 0 0 0 0 0 0 0 0 0 0.25 0" />
			<feBlend mode="normal" in2="BackgroundImageFix" result="effect1_dropShadow_22272_90183" />
			<feBlend mode="normal" in="SourceGraphic" in2="effect1_dropShadow_22272_90183" result="shape" />
		</filter>
		<clipPath id="clip0_22272_90183">
			<rect width="88.9127" height="88.9127" fill="white" transform="translate(158.836 129.639)" />
		</clipPath>
	</defs>
</svg>
