<svg xmlns="http://www.w3.org/2000/svg" width="18" height="19" viewBox="0 0 18 19" fill="none">
	<path fillRule="evenodd" clipRule="evenodd" d="M1.6875 9.5C1.6875 5.46278 4.96278 2.1875 9 2.1875C13.0372 2.1875 16.3125 5.46278 16.3125 9.5C16.3125 13.5372 13.0372 16.8125 9 16.8125C4.96278 16.8125 1.6875 13.5372 1.6875 9.5ZM9 3.3125C5.5841 3.3125 2.8125 6.0841 2.8125 9.5C2.8125 12.9159 5.5841 15.6875 9 15.6875C12.4159 15.6875 15.1875 12.9159 15.1875 9.5C15.1875 6.0841 12.4159 3.3125 9 3.3125Z" fill="#F80101" />
	<path fillRule="evenodd" clipRule="evenodd" d="M6.35225 6.85225C6.57192 6.63258 6.92808 6.63258 7.14775 6.85225L11.6477 11.3523C11.8674 11.5719 11.8674 11.9281 11.6477 12.1477C11.4281 12.3674 11.0719 12.3674 10.8523 12.1477L6.35225 7.64775C6.13258 7.42808 6.13258 7.07192 6.35225 6.85225Z" fill="#F80101" />
	<path fillRule="evenodd" clipRule="evenodd" d="M11.6477 6.85225C11.8674 7.07192 11.8674 7.42808 11.6477 7.64775L7.14775 12.1477C6.92808 12.3674 6.57192 12.3674 6.35225 12.1477C6.13258 11.9281 6.13258 11.5719 6.35225 11.3523L10.8523 6.85225C11.0719 6.63258 11.4281 6.63258 11.6477 6.85225Z" fill="#F80101" />
</svg>
