<svg width="14" height="16" viewBox="0 0 14 16" fill="none" xmlns="http://www.w3.org/2000/svg">
<path fill-rule="evenodd" clip-rule="evenodd" d="M7.15262 15.7864C7.08507 15.8541 7.00482 15.9078 6.91647 15.9445C6.82812 15.9811 6.73341 16 6.63775 16C6.5421 16 6.44738 15.9811 6.35903 15.9445C6.27069 15.9078 6.19044 15.8541 6.12288 15.7864L0.305176 9.96864C0.168624 9.83209 0.0919113 9.64689 0.0919113 9.45378C0.0919113 9.26066 0.168624 9.07546 0.305176 8.93891C0.441727 8.80236 0.62693 8.72564 0.820043 8.72564C1.01316 8.72564 1.19836 8.80236 1.33491 8.93891L5.91054 13.516L5.91054 0.727213C5.91054 0.534344 5.98715 0.349374 6.12353 0.212995C6.25991 0.0766153 6.44488 0 6.63775 0C6.83062 0 7.01559 0.0766153 7.15197 0.212995C7.28835 0.349374 7.36497 0.534344 7.36497 0.727213L7.36497 13.516L11.9406 8.93891C12.0082 8.8713 12.0885 8.81766 12.1768 8.78107C12.2652 8.74448 12.3598 8.72564 12.4555 8.72564C12.5511 8.72564 12.6458 8.74448 12.7341 8.78107C12.8224 8.81766 12.9027 8.8713 12.9703 8.93891C13.0379 9.00652 13.0916 9.08679 13.1282 9.17513C13.1648 9.26347 13.1836 9.35816 13.1836 9.45378C13.1836 9.5494 13.1648 9.64408 13.1282 9.73242C13.0916 9.82076 13.0379 9.90103 12.9703 9.96864L7.15262 15.7864Z" fill="#11103D"/>
</svg>
