<svg xmlns="http://www.w3.org/2000/svg" width="16" height="16" viewBox="0 0 16 16" fill="none">
	<path fillRule="evenodd" clipRule="evenodd" d="M6 2C6 1.72386 6.22386 1.5 6.5 1.5H8.58601C8.9837 1.50006 9.36509 1.65804 9.64633 1.93922L9.64637 1.93926L14.0608 6.35367C14.342 6.63491 14.4999 7.0163 14.5 7.41399V13.5C14.5 14.0304 14.2893 14.5391 13.9142 14.9142C13.5391 15.2893 13.0304 15.5 12.5 15.5H6C5.46957 15.5 4.96086 15.2893 4.58579 14.9142C4.21071 14.5391 4 14.0304 4 13.5V9.5C4 9.22386 4.22386 9 4.5 9C4.77614 9 5 9.22386 5 9.5V13.5C5 13.7652 5.10536 14.0196 5.29289 14.2071C5.48043 14.3946 5.73478 14.5 6 14.5H12.5C12.7652 14.5 13.0196 14.3946 13.2071 14.2071C13.3946 14.0196 13.5 13.7652 13.5 13.5V7.41414C13.5 7.41411 13.5 7.41409 13.5 7.41406C13.5 7.28155 13.4473 7.15447 13.3536 7.06074C13.3536 7.06073 13.3536 7.06071 13.3536 7.0607L8.9393 2.64641C8.84557 2.5527 8.71847 2.50004 8.58594 2.5C8.58591 2.5 8.58589 2.5 8.58586 2.5H6.5C6.22386 2.5 6 2.27614 6 2Z" fill="#2A2C33" />
	<path fillRule="evenodd" clipRule="evenodd" d="M9 1.75C9.27614 1.75 9.5 1.97386 9.5 2.25V6C9.5 6.13261 9.55268 6.25978 9.64645 6.35355C9.74022 6.44732 9.86739 6.5 10 6.5H13.75C14.0261 6.5 14.25 6.72386 14.25 7C14.25 7.27614 14.0261 7.5 13.75 7.5H10C9.60217 7.5 9.22064 7.34196 8.93934 7.06066C8.65804 6.77936 8.5 6.39783 8.5 6V2.25C8.5 1.97386 8.72386 1.75 9 1.75Z" fill="#2A2C33" />
	<path fillRule="evenodd" clipRule="evenodd" d="M4.27342 1.82723C4.10722 2.03677 4 2.35623 4 2.75V7.25C4 7.3392 4.03237 7.39438 4.07279 7.43154C4.11943 7.47443 4.18552 7.5 4.25 7.5H4.25329L4.25659 7.50004C4.28867 7.50047 4.32052 7.49446 4.35025 7.48237C4.37998 7.47029 4.40699 7.45237 4.42968 7.42968C4.45237 7.40699 4.47029 7.37998 4.48237 7.35025C4.49446 7.32052 4.50047 7.28867 4.50004 7.25659L4.5 7.25329V2.5C4.5 2.22386 4.72386 2 5 2C5.27614 2 5.5 2.22386 5.5 2.5V7.24713C5.50167 7.41149 5.47066 7.57455 5.40875 7.72684C5.34638 7.88028 5.2539 8.01967 5.13679 8.13679C5.01967 8.2539 4.88028 8.34638 4.72684 8.40875C4.57442 8.47072 4.41119 8.50173 4.24668 8.5C3.63691 8.4983 3 8.02906 3 7.25V2.75C3 2.18783 3.15168 1.63229 3.48994 1.20582C3.83864 0.76617 4.35892 0.5 5 0.5C5.63669 0.5 6.15707 0.757894 6.50774 1.19335C6.84812 1.61601 7 2.16833 7 2.73062V7.06656C7 8.62752 5.96223 10 4.25 10C2.53781 10 1.5 8.62787 1.5 7.06656V4.5C1.5 4.22386 1.72386 4 2 4C2.27614 4 2.5 4.22386 2.5 4.5V7.06656C2.5 8.19338 3.20094 9 4.25 9C5.29902 9 6 8.19311 6 7.06656V2.73062C6 2.33729 5.89297 2.0243 5.7289 1.82056C5.57512 1.62961 5.34549 1.5 5 1.5C4.65889 1.5 4.42917 1.63086 4.27342 1.82723Z" fill="#2A2C33" />
</svg>
