<svg width="16" height="16" viewBox="0 0 16 16" fill="none" xmlns="http://www.w3.org/2000/svg">
	<path d="M6.5 0H9.4985C9.64102 4.36819e-05 9.77821 0.0541834 9.88234 0.15148C9.98648 0.248776 10.0498 0.381974 10.0595 0.52416C10.0692 0.666346 10.0246 0.806919 9.93468 0.917474C9.84474 1.02803 9.71619 1.10032 9.575 1.11975L9.4985 1.125H8.5625V13.875H9.49625C9.63218 13.875 9.76351 13.9242 9.86595 14.0136C9.96839 14.1029 10.035 14.2263 10.0535 14.361L10.0588 14.4375C10.0587 14.5734 10.0095 14.7048 9.92017 14.8072C9.83083 14.9096 9.70741 14.9763 9.57275 14.9948L9.49625 15H6.5C6.35748 15 6.22029 14.9458 6.11616 14.8485C6.01202 14.7512 5.94869 14.618 5.93898 14.4758C5.92927 14.3337 5.97389 14.1931 6.06382 14.0825C6.15376 13.972 6.28231 13.8997 6.4235 13.8802L6.5 13.875H7.4375V1.125H6.5C6.36407 1.12499 6.23274 1.07577 6.1303 0.986425C6.02786 0.897081 5.96124 0.773665 5.94275 0.639L5.9375 0.5625C5.93751 0.426572 5.98673 0.295243 6.07608 0.192802C6.16542 0.0903606 6.28883 0.0237362 6.4235 0.00524998L6.5 0ZM12.872 2.24775C13.5183 2.24835 14.1379 2.50534 14.5949 2.96234C15.0519 3.41933 15.3089 4.03897 15.3095 4.68525L15.3125 10.3133C15.3129 10.9358 15.0751 11.5349 14.6478 11.9876C14.2204 12.4403 13.636 12.7123 13.0145 12.7478L12.875 12.7515H9.31625V11.6265H12.9185C13.2592 11.6154 13.5822 11.4721 13.8191 11.227C14.0559 10.9818 14.1881 10.6541 14.1875 10.3133L14.1852 4.6845C14.1847 4.33633 14.046 4.00261 13.7996 3.75655C13.5533 3.51049 13.2194 3.3722 12.8713 3.372H9.31625V2.247H12.8713L12.872 2.24775ZM6.6875 2.24775V3.37275H3.125C2.7769 3.37275 2.44306 3.51103 2.19692 3.75717C1.95078 4.00331 1.8125 4.33715 1.8125 4.68525V10.3133C1.8125 11.0385 2.4005 11.6257 3.125 11.6257H6.68375V12.7507H3.125C2.47854 12.7507 1.85855 12.4939 1.40143 12.0368C0.944307 11.5797 0.6875 10.9597 0.6875 10.3133V4.68525C0.6875 4.03878 0.944307 3.4188 1.40143 2.96168C1.85855 2.50456 2.47854 2.24775 3.125 2.24775H6.6875Z" fill="#2A2C33" />
</svg>
