<svg width="13" height="13" viewBox="0 0 13 13" fill="none" xmlns="http://www.w3.org/2000/svg">
<g id="Filters">
<path id="Vector" d="M1.39549 1.3L5.28416 6.56565C5.45438 6.79629 5.54705 7.08284 5.54693 7.37815V11.7L6.74677 10.725V7.3775C6.74677 7.08241 6.83944 6.79611 7.00953 6.56565L10.8982 1.3H1.39609H1.39549ZM1.39549 0H10.8982C11.1242 3.05504e-05 11.3457 0.0692403 11.537 0.199658C11.7283 0.330075 11.8817 0.516395 11.9796 0.737157C12.0775 0.957918 12.1158 1.20414 12.0901 1.44747C12.0645 1.69079 11.976 1.92132 11.8347 2.1125L7.9466 7.3775V10.725C7.9466 10.9268 7.90323 11.1259 7.81993 11.3064C7.73663 11.4869 7.61568 11.6439 7.46667 11.765L6.26683 12.74C6.08857 12.8849 5.8766 12.9731 5.65468 12.9947C5.43276 13.0164 5.20964 12.9707 5.01034 12.8628C4.81104 12.7548 4.64343 12.5888 4.52628 12.3835C4.40914 12.1781 4.34709 11.9414 4.34709 11.7V7.3775L0.459016 2.1125C0.317743 1.92132 0.229187 1.69079 0.203546 1.44747C0.177905 1.20414 0.216224 0.957918 0.314088 0.737157C0.411952 0.516395 0.56538 0.330075 0.756701 0.199658C0.948022 0.0692403 1.16945 3.05504e-05 1.39549 0V0Z" fill="#071952"/>
</g>
</svg>
