<svg width="24" height="25" viewBox="0 0 24 25" fill="none" xmlns="http://www.w3.org/2000/svg">
<g clip-path="url(#clip0_18799_187403)">
<path d="M7.77614 16.1724L7.57552 20.1532L3.87717 22.963L0 16.1282L8.09072 2.03711L11.8788 4.63727L12.0037 8.85203L11.9679 8.87261L7.77614 16.1724Z" fill="#28B446"/>
<path d="M8.0907 2.03711L10.393 11.6153L12.0036 8.85203L11.8788 3.30386L8.0907 2.03711Z" fill="#219B38"/>
<path d="M15.9087 2.03711L24 16.1282L19.6367 18.3349L16.1814 16.1493V16.1282L12.0036 8.85203L8.0907 2.03711H15.9087Z" fill="#FFD837"/>
<path d="M24 16.1289L20.1253 22.9195L3.8772 22.9638L7.77617 16.1732L16.1815 16.1501L24 16.1289Z" fill="#518EF8"/>
<path d="M3.8772 22.9627L10.6758 16.1641L7.77617 16.172L3.8772 22.9627Z" fill="#3A5BBC"/>
<path d="M24 16.1272L15.1294 14.2949L16.1815 16.1484L24 16.1272Z" fill="#FBBB00"/>
</g>
<defs>
<clipPath id="clip0_18799_187403">
<rect width="24" height="24" fill="white" transform="translate(0 0.5)"/>
</clipPath>
</defs>
</svg>
