<svg xmlns="http://www.w3.org/2000/svg" width="16" height="16" viewBox="0 0 16 16" fill="none">
	<path d="M12.6667 2H3.33333C2.59695 2 2 2.59695 2 3.33333V12.6667C2 13.403 2.59695 14 3.33333 14H12.6667C13.403 14 14 13.403 14 12.6667V3.33333C14 2.59695 13.403 2 12.6667 2Z" stroke="#2A2C33" strokeLinecap="round" strokeLinejoin="round" />
	<path d="M5.66699 6.66669C6.21928 6.66669 6.66699 6.21897 6.66699 5.66669C6.66699 5.1144 6.21928 4.66669 5.66699 4.66669C5.11471 4.66669 4.66699 5.1144 4.66699 5.66669C4.66699 6.21897 5.11471 6.66669 5.66699 6.66669Z" stroke="#2A2C33" strokeLinecap="round" strokeLinejoin="round" />
	<path d="M13.9997 10L10.6663 6.66669L3.33301 14" stroke="#2A2C33" strokeLinecap="round" strokeLinejoin="round" />
</svg>
