<svg width="24" height="24" viewBox="0 0 24 24" fill="none" xmlns="http://www.w3.org/2000/svg">
	<path d="M12.8628 1.54167C12.4485 1.54167 12.1128 1.87746 12.1128 2.29167C12.1128 2.70589 12.4485 3.04167 12.8628 3.04167V1.54167ZM12.8628 20.9583C12.4485 20.9583 12.1128 21.2941 12.1128 21.7083C12.1128 22.1225 12.4485 22.4583 12.8628 22.4583V20.9583ZM1.46967 10.8986C1.17678 11.1915 1.17678 11.6664 1.46967 11.9592L6.24264 16.7322C6.53553 17.0251 7.01041 17.0251 7.3033 16.7322C7.59619 16.4393 7.59619 15.9645 7.3033 15.6716L3.06066 11.4289L7.3033 7.18628C7.59619 6.89339 7.59619 6.41851 7.3033 6.12562C7.01041 5.83273 6.53553 5.83273 6.24264 6.12562L1.46967 10.8986ZM15.1472 12.1789C15.5614 12.1789 15.8972 11.8431 15.8972 11.4289C15.8972 11.0147 15.5614 10.6789 15.1472 10.6789V12.1789ZM12.8628 3.04167H20.8578V1.54167H12.8628V3.04167ZM21.25 3.43383V20.5662H22.75V3.43383H21.25ZM20.8578 20.9583H12.8628V22.4583H20.8578V20.9583ZM21.25 20.5662C21.25 20.7827 21.0744 20.9583 20.8578 20.9583V22.4583C21.9029 22.4583 22.75 21.6112 22.75 20.5662H21.25ZM20.8578 3.04167C21.0744 3.04167 21.25 3.21725 21.25 3.43383H22.75C22.75 2.38882 21.9029 1.54167 20.8578 1.54167V3.04167ZM2 12.1789H15.1472V10.6789H2V12.1789Z" fill="white" />
</svg>
