<svg xmlns="http://www.w3.org/2000/svg" width="16" height="16" viewBox="0 0 16 16" fill="none">
	<path fillRule="evenodd" clipRule="evenodd" d="M3.54757 2.43224C3.88251 2.21425 4.33004 2.17346 4.7251 2.40936L4.72531 2.40949L12.4723 7.04612C12.4723 7.04614 12.4724 7.04616 12.4724 7.04618C12.8365 7.26401 12.9997 7.64802 12.9997 7.9999C12.9997 8.35177 12.8365 8.73579 12.4724 8.95361C12.4724 8.95363 12.4723 8.95365 12.4723 8.95367L4.72553 13.5902L4.72531 13.5903L4.7251 13.5904C4.33004 13.8263 3.88251 13.7855 3.54757 13.5676C3.21686 13.3523 3 12.971 3 12.5311V3.46865C3 3.02876 3.21686 2.64748 3.54757 2.43224ZM4.09305 3.27036C4.04877 3.29919 4 3.36353 4 3.46865V12.5311C4 12.6363 4.04877 12.7006 4.09305 12.7294C4.11555 12.7441 4.13601 12.7493 4.15183 12.7499C4.16579 12.7505 4.18546 12.7479 4.2124 12.7319L11.959 8.09549C11.9736 8.08675 11.9997 8.05939 11.9997 7.9999C11.9997 7.9404 11.9736 7.91304 11.959 7.9043L4.2124 3.26793C4.21236 3.26791 4.21232 3.26788 4.21228 3.26786C4.1854 3.25184 4.16576 3.24933 4.15183 3.24987C4.13601 3.25047 4.11555 3.25572 4.09305 3.27036Z" fill="white" />
</svg>
