<svg width="61" height="60" viewBox="0 0 61 60" fill="none" xmlns="http://www.w3.org/2000/svg">
	<path d="M47.2232 30.3032L52.5264 25M52.5264 25L57.8299 19.6967M52.5264 25L47.2232 19.6967M52.5264 25L57.8299 30.3032M3.16992 50V47.5C3.16992 37.835 11.0049 30 20.6699 30M20.6699 30C30.3349 30 38.1699 37.835 38.1699 47.5V50M20.6699 30C26.1927 30 30.6699 25.5228 30.6699 20C30.6699 14.4771 26.1927 10 20.6699 10C15.1471 10 10.6699 14.4771 10.6699 20C10.6699 25.5228 15.1471 30 20.6699 30Z" stroke="#F80101" stroke-width="4" stroke-linecap="round" stroke-linejoin="round" />
</svg>
