<svg width="16" height="16" viewBox="0 0 16 16" fill="none" xmlns="http://www.w3.org/2000/svg">
	<path d="M14.9398 8.91138C14.9757 8.63759 14.7828 8.38652 14.509 8.35062C14.2352 8.31471 13.9842 8.50756 13.9483 8.78136L14.9398 8.91138ZM6.38167 1.70764L6.25745 1.22331L6.25711 1.2234L6.38167 1.70764ZM13.5734 5.74881C13.6756 6.00534 13.9664 6.13045 14.2229 6.02825C14.4794 5.92605 14.6046 5.63524 14.5024 5.3787L13.5734 5.74881ZM14.9984 1.50208C14.9984 1.22594 14.7745 1.00208 14.4984 1.00208C14.2223 1.00208 13.9984 1.22594 13.9984 1.50208H14.9984ZM14.4984 5.56372V6.06372C14.7745 6.06372 14.9984 5.83986 14.9984 5.56372H14.4984ZM10.4368 5.06372C10.1606 5.06372 9.93676 5.28758 9.93676 5.56372C9.93676 5.83986 10.1606 6.06372 10.4368 6.06372V5.06372ZM9.89779 8.8125H9.39779H9.89779ZM9.89779 7.98321H9.39779H9.89779ZM8.83152 6.91667L8.83164 6.41667H8.83152V6.91667ZM7.17212 6.91667V6.41667H7.17187L7.17212 6.91667ZM6.10612 7.98321H6.60612V7.98321L6.10612 7.98321ZM6.10612 8.8125H6.60612H6.10612ZM8.00195 10.7083V11.2083V10.7083ZM9.89779 8.04167C9.62164 8.04167 9.39779 8.26552 9.39779 8.54167C9.39779 8.81781 9.62164 9.04167 9.89779 9.04167V8.04167ZM10.7103 9.04167C10.9864 9.04167 11.2103 8.81781 11.2103 8.54167C11.2103 8.26552 10.9864 8.04167 10.7103 8.04167V9.04167ZM6.10612 9.04167C6.38226 9.04167 6.60612 8.81781 6.60612 8.54167C6.60612 8.26552 6.38226 8.04167 6.10612 8.04167V9.04167ZM5.29362 8.04167C5.01748 8.04167 4.79362 8.26552 4.79362 8.54167C4.79362 8.81781 5.01748 9.04167 5.29362 9.04167V8.04167ZM8.42179 5.26917C8.185 5.41124 8.10822 5.71837 8.25029 5.95516C8.39236 6.19195 8.69949 6.26874 8.93628 6.12666L8.42179 5.26917ZM9.61337 5.72041C9.85016 5.57834 9.92694 5.27121 9.78487 5.03442C9.64279 4.79763 9.33566 4.72085 9.09887 4.86292L9.61337 5.72041ZM7.06762 6.12666C7.30441 6.26874 7.61154 6.19195 7.75362 5.95516C7.89569 5.71837 7.81891 5.41124 7.58212 5.26917L7.06762 6.12666ZM6.90503 4.86292C6.66824 4.72085 6.36111 4.79763 6.21904 5.03442C6.07697 5.27121 6.15375 5.57834 6.39054 5.72041L6.90503 4.86292ZM10.1183 10.6309C10.3747 10.7335 10.6657 10.6088 10.7683 10.3524C10.8708 10.096 10.7461 9.80498 10.4897 9.70243L10.1183 10.6309ZM9.94806 9.48576C9.69167 9.3832 9.40069 9.50791 9.29813 9.76431C9.19557 10.0207 9.32028 10.3117 9.57667 10.4142L9.94806 9.48576ZM10.4897 7.3809C10.7461 7.27835 10.8708 6.98736 10.7683 6.73097C10.6657 6.47458 10.3747 6.34987 10.1183 6.45243L10.4897 7.3809ZM9.57667 6.6691C9.32028 6.77165 9.19557 7.06264 9.29813 7.31903C9.40069 7.57542 9.69167 7.70013 9.94806 7.59757L9.57667 6.6691ZM5.51417 9.70243C5.25778 9.80498 5.13307 10.096 5.23563 10.3524C5.33819 10.6088 5.62917 10.7335 5.88556 10.6309L5.51417 9.70243ZM6.42723 10.4142C6.68362 10.3117 6.80833 10.0207 6.70577 9.76431C6.60322 9.50791 6.31223 9.3832 6.05584 9.48576L6.42723 10.4142ZM5.88557 6.45243C5.62917 6.34987 5.33819 6.47458 5.23563 6.73097C5.13307 6.98736 5.25778 7.27835 5.51417 7.3809L5.88557 6.45243ZM6.05584 7.59757C6.31223 7.70013 6.60322 7.57542 6.70577 7.31903C6.80833 7.06264 6.68362 6.77165 6.42723 6.6691L6.05584 7.59757ZM7.50195 10.5729C7.50195 10.8491 7.72581 11.0729 8.00195 11.0729C8.2781 11.0729 8.50195 10.8491 8.50195 10.5729H7.50195ZM8.50195 8.8125C8.50195 8.53636 8.2781 8.3125 8.00195 8.3125C7.72581 8.3125 7.50195 8.53636 7.50195 8.8125H8.50195ZM13.9483 8.78136C13.8067 9.86107 13.3738 10.8819 12.6962 11.7343L13.479 12.3566C14.2696 11.3621 14.7746 10.1711 14.9398 8.91138L13.9483 8.78136ZM12.6962 11.7343C12.0185 12.5867 11.1216 13.2386 10.1016 13.62L10.4519 14.5567C11.6419 14.1117 12.6883 13.3511 13.479 12.3566L12.6962 11.7343ZM10.1016 13.62C9.08164 14.0014 7.97707 14.098 6.90638 13.8994L6.72397 14.8826C7.97316 15.1143 9.26186 15.0017 10.4519 14.5567L10.1016 13.62ZM6.90638 13.8994C5.83569 13.7007 4.83926 13.2144 4.02396 12.4925L3.36104 13.2412C4.31225 14.0834 5.47479 14.6508 6.72397 14.8826L6.90638 13.8994ZM4.02396 12.4925C3.20867 11.7706 2.60526 10.8404 2.27846 9.80161L1.32455 10.1017C1.70584 11.3137 2.40984 12.3989 3.36104 13.2412L4.02396 12.4925ZM2.27846 9.80161C1.95165 8.76284 1.91378 7.65471 2.16889 6.59605L1.19672 6.36177C0.899077 7.59691 0.943266 8.88978 1.32455 10.1017L2.27846 9.80161ZM2.16889 6.59605C2.42401 5.53739 2.9625 4.56815 3.7266 3.79227L3.01411 3.09059C2.12262 3.99581 1.49437 5.12663 1.19672 6.36177L2.16889 6.59605ZM3.7266 3.79227C4.4907 3.0164 5.4516 2.46315 6.50623 2.19187L6.25711 1.2234C5.02667 1.5399 3.90559 2.18537 3.01411 3.09059L3.7266 3.79227ZM6.50589 2.19196C9.43412 1.44094 12.4578 2.94863 13.5734 5.74881L14.5024 5.3787C13.1972 2.10267 9.66375 0.349679 6.25745 1.22331L6.50589 2.19196ZM13.9984 1.50208V5.56372H14.9984V1.50208H13.9984ZM14.4984 5.06372H10.4368V6.06372H14.4984V5.06372ZM10.3978 8.8125V7.98321H9.39779V8.8125H10.3978ZM10.3978 7.98321C10.3978 7.56781 10.2328 7.16941 9.9391 6.87564L9.2319 7.58265C9.33812 7.6889 9.39779 7.83298 9.39779 7.98321H10.3978ZM9.9391 6.87564C9.6454 6.58186 9.24705 6.41677 8.83164 6.41667L8.83139 7.41667C8.98162 7.4167 9.12569 7.47641 9.2319 7.58265L9.9391 6.87564ZM8.83152 6.41667H7.17212V7.41667H8.83152V6.41667ZM7.17187 6.41667C6.75653 6.41688 6.35828 6.58202 6.06467 6.87578L6.77195 7.5827C6.87814 7.47647 7.02217 7.41674 7.17237 7.41667L7.17187 6.41667ZM6.06467 6.87578C5.77106 7.16954 5.60612 7.56787 5.60612 7.98321L6.60612 7.98321C6.60612 7.833 6.66577 7.68894 6.77195 7.5827L6.06467 6.87578ZM5.60612 7.98321V8.8125H6.60612V7.98321H5.60612ZM5.60612 8.8125C5.60612 9.12712 5.66809 9.43867 5.78849 9.72935L6.71237 9.34666C6.64222 9.17731 6.60612 8.9958 6.60612 8.8125H5.60612ZM5.78849 9.72935C5.90889 10.02 6.08537 10.2841 6.30784 10.5066L7.01495 9.7995C6.88533 9.66989 6.78252 9.51601 6.71237 9.34666L5.78849 9.72935ZM6.30784 10.5066C6.53032 10.7291 6.79443 10.9056 7.08511 11.026L7.46779 10.1021C7.29844 10.0319 7.14457 9.92912 7.01495 9.7995L6.30784 10.5066ZM7.08511 11.026C7.37578 11.1464 7.68733 11.2083 8.00195 11.2083V10.2083C7.81865 10.2083 7.63714 10.1722 7.46779 10.1021L7.08511 11.026ZM8.00195 11.2083C8.31658 11.2083 8.62812 11.1464 8.9188 11.026L8.53612 10.1021C8.36677 10.1722 8.18526 10.2083 8.00195 10.2083V11.2083ZM8.9188 11.026C9.20948 10.9056 9.47359 10.7291 9.69606 10.5066L8.98896 9.7995C8.85934 9.92912 8.70546 10.0319 8.53612 10.1021L8.9188 11.026ZM9.69606 10.5066C9.91854 10.2841 10.095 10.02 10.2154 9.72935L9.29154 9.34666C9.22139 9.51601 9.11857 9.66989 8.98896 9.7995L9.69606 10.5066ZM10.2154 9.72935C10.3358 9.43867 10.3978 9.12712 10.3978 8.8125H9.39779C9.39779 8.9958 9.36168 9.17731 9.29154 9.34666L10.2154 9.72935ZM9.7207 7.05208V6.78125H8.7207V7.05208H9.7207ZM9.7207 6.78125C9.7207 6.32541 9.53962 5.88824 9.21729 5.56591L8.51019 6.27302C8.64498 6.40781 8.7207 6.59063 8.7207 6.78125H9.7207ZM9.21729 5.56591C8.89496 5.24358 8.45779 5.0625 8.00195 5.0625V6.0625C8.19258 6.0625 8.37539 6.13823 8.51019 6.27302L9.21729 5.56591ZM8.00195 5.0625C7.54611 5.0625 7.10894 5.24358 6.78661 5.56591L7.49372 6.27302C7.62851 6.13823 7.81133 6.0625 8.00195 6.0625V5.0625ZM6.78661 5.56591C6.46429 5.88824 6.2832 6.32541 6.2832 6.78125H7.2832C7.2832 6.59063 7.35893 6.40781 7.49372 6.27302L6.78661 5.56591ZM6.2832 6.78125V7.05208H7.2832V6.78125H6.2832ZM9.89779 9.04167H10.7103V8.04167H9.89779V9.04167ZM6.10612 8.04167H5.29362V9.04167H6.10612V8.04167ZM8.93628 6.12666L9.61337 5.72041L9.09887 4.86292L8.42179 5.26917L8.93628 6.12666ZM7.58212 5.26917L6.90503 4.86292L6.39054 5.72041L7.06762 6.12666L7.58212 5.26917ZM10.4897 9.70243L9.94806 9.48576L9.57667 10.4142L10.1183 10.6309L10.4897 9.70243ZM10.1183 6.45243L9.57667 6.6691L9.94806 7.59757L10.4897 7.3809L10.1183 6.45243ZM5.88556 10.6309L6.42723 10.4142L6.05584 9.48576L5.51417 9.70243L5.88556 10.6309ZM5.51417 7.3809L6.05584 7.59757L6.42723 6.6691L5.88557 6.45243L5.51417 7.3809ZM8.50195 10.5729V8.8125H7.50195V10.5729H8.50195Z" fill="#2A2C33" />
</svg>
