<svg width="15" height="15" viewBox="0 0 19 19" fill="none" xmlns="http://www.w3.org/2000/svg">
	<path fill-rule="evenodd" clip-rule="evenodd" d="M8.86246 0.495605C7.57424 0.495715 6.30472 0.803891 5.15983 1.39442C4.01493 1.98495 3.02785 2.84072 2.28095 3.89031C1.53405 4.93991 1.04898 6.1529 0.866208 7.42809C0.683439 8.70328 0.808271 10.0037 1.23029 11.2208C1.65231 12.438 2.35928 13.5365 3.29221 14.4249C4.22514 15.3132 5.35699 15.9656 6.59332 16.3275C7.82965 16.6895 9.13461 16.7505 10.3993 16.5055C11.664 16.2606 12.8518 15.7167 13.8636 14.9193L17.3346 18.3903C17.5139 18.5634 17.7539 18.6592 18.0031 18.6571C18.2523 18.6549 18.4907 18.555 18.6669 18.3787C18.8432 18.2025 18.9431 17.9641 18.9453 17.7149C18.9474 17.4657 18.8516 17.2257 18.6785 17.0464L15.2075 13.5754C16.1466 12.3842 16.7312 10.9526 16.8946 9.4446C17.0581 7.93658 16.7936 6.41301 16.1316 5.04826C15.4695 3.68351 14.4366 2.53272 13.1511 1.72758C11.8656 0.92245 10.3793 0.495504 8.86246 0.495605ZM2.68466 8.57427C2.68466 6.93581 3.33553 5.36447 4.4941 4.2059C5.65266 3.04734 7.22401 2.39647 8.86246 2.39647C10.5009 2.39647 12.0723 3.04734 13.2308 4.2059C14.3894 5.36447 15.0403 6.93581 15.0403 8.57427C15.0403 10.2127 14.3894 11.7841 13.2308 12.9426C12.0723 14.1012 10.5009 14.7521 8.86246 14.7521C7.22401 14.7521 5.65266 14.1012 4.4941 12.9426C3.33553 11.7841 2.68466 10.2127 2.68466 8.57427Z" fill="#8B909A" />
</svg>
