<svg width="119" height="108" viewBox="0 0 119 108" fill="none" xmlns="http://www.w3.org/2000/svg">
	<path d="M98.0892 34.9524C98.101 35.5984 97.5061 36.0858 96.8749 35.9473L82.0712 32.697C81.2552 32.5179 81.0056 31.4763 81.6519 30.9468L82.8877 29.9343C84.1624 28.8898 84.3746 26.9801 83.2626 25.7072C78.4724 20.2233 74.6017 17.8839 70.2067 16.8496C69.6985 16.73 69.3684 16.3514 69.27 15.9738C69.1813 15.6332 69.2757 15.3376 69.6216 15.1419C72.7165 13.3916 76.0505 12.4443 79.5338 12.9392C83.0113 13.4332 86.7803 15.3849 90.7125 19.703C91.7879 20.884 93.6486 21.1173 94.9442 20.0557L96.18 19.0432C96.8262 18.5137 97.7984 18.9632 97.8136 19.7985L98.0892 34.9524Z" stroke="#8B909A" strokeWidth="2" strokeLinejoin="round" />
	<path d="M20.5026 69.0823C20.4908 68.4362 21.0857 67.9488 21.7169 68.0874L36.5206 71.3376C37.3366 71.5168 37.5862 72.5584 36.9399 73.0879L35.7041 74.1004C34.4294 75.1449 34.2172 77.0545 35.3292 78.3275C40.1194 83.8113 43.9901 86.1508 48.3851 87.1851C48.8933 87.3047 49.2234 87.6833 49.3218 88.0609C49.4105 88.4015 49.3161 88.6971 48.9702 88.8927C45.8753 90.643 42.5413 91.5903 39.058 91.0955C35.5805 90.6014 31.8115 88.6498 27.8793 84.3316C26.8039 83.1506 24.9432 82.9174 23.6476 83.9789L22.4118 84.9915C21.7656 85.521 20.7934 85.0715 20.7782 84.2361L20.5026 69.0823Z" stroke="#8B909A" strokeWidth="2" strokeLinejoin="round" />
	<g filter="url(#filter0_d_14581_161616)">
		<rect x="4.06348" y="1.63428" width="60" height="60" rx="3.65385" fill="white" />
		<path d="M36.769 33.7845C29.9322 25.4623 23.1329 17.183 16.3711 8.94662L16.4757 8.8501L34.348 25.7411L35.3936 24.4864C36.8012 22.7812 38.2007 21.076 39.6164 19.3869C39.7894 19.1761 40.0373 19.0406 40.3081 19.0088C43.0267 19.0088 45.7454 19.0088 48.464 19.0088C48.5847 19.0088 48.6973 19.0088 48.9145 19.0651L36.769 33.7845Z" fill="#E25E3E" />
		<path d="M33.7762 37.5163C32.9719 38.4654 32.2399 39.3582 31.4999 40.2591C30.4865 41.4817 29.481 42.7123 28.4354 43.9268C28.2834 44.1079 28.0673 44.2231 27.8322 44.2486C25.0411 44.2486 22.2501 44.2486 19.4591 44.2486C19.3786 44.2517 19.2979 44.249 19.2178 44.2405L31.3551 29.4971C38.1759 37.8086 44.9779 46.0824 51.7611 54.3188L51.6726 54.4153L33.7762 37.5163Z" fill="#071952" />
	</g>
	<g filter="url(#filter1_d_14581_161616)">
		<rect x="54.9365" y="39.812" width="60" height="60" rx="3.84615" fill="white" />
		<path d="M74.1355 74.7306C74.1355 76.8851 72.3784 78.6449 70.2236 78.6449C68.069 78.6449 66.3096 76.8851 66.3096 74.7306C66.3096 72.5761 68.0693 70.8163 70.2239 70.8163H74.1358L74.1355 74.7306ZM76.1075 74.7306C76.1075 72.5761 77.8673 70.8163 80.0218 70.8163C82.1763 70.8163 83.9361 72.5758 83.9361 74.7306V84.5288C83.9361 86.6833 82.1766 88.4431 80.0218 88.4431C77.8673 88.4431 76.1075 86.6833 76.1075 84.5288V74.7306Z" fill="#DE1C59" />
		<path d="M80.0218 59.0159C77.8673 59.0159 76.1075 57.2587 76.1075 55.1039C76.1075 52.9494 77.8673 51.1899 80.0218 51.1899C82.1763 51.1899 83.9361 52.9497 83.9361 55.1042V59.0162L80.0218 59.0159ZM80.0218 60.9879C82.1763 60.9879 83.9361 62.7476 83.9361 64.9021C83.9361 67.0567 82.1766 68.8164 80.0218 68.8164H70.2236C68.069 68.8164 66.3096 67.057 66.3096 64.9021C66.3096 62.7476 68.0693 60.9879 70.2239 60.9879H80.0218Z" fill="#35C5F0" />
		<path d="M95.7365 64.9021C95.7365 62.7476 97.4936 60.9879 99.6485 60.9879C101.803 60.9879 103.563 62.7476 103.563 64.9021C103.563 67.0567 101.803 68.8164 99.6485 68.8164H95.7365V64.9021ZM93.7645 64.9021C93.7645 67.0567 92.0048 68.8164 89.8503 68.8164C87.6957 68.8164 85.936 67.057 85.936 64.9021V55.1039C85.936 52.9494 87.6954 51.1899 89.8503 51.1899C92.0048 51.1899 93.7645 52.9497 93.7645 55.1042V64.9021Z" fill="#2EB57D" />
		<path d="M89.8503 80.6169C92.0048 80.6169 93.7645 82.374 93.7645 84.5288C93.7645 86.6833 92.0048 88.4431 89.8503 88.4431C87.6957 88.4431 85.936 86.6833 85.936 84.5288V80.6169H89.8503ZM89.8503 78.6449C87.6957 78.6449 85.936 76.8851 85.936 74.7306C85.936 72.5761 87.6954 70.8163 89.8503 70.8163H99.6485C101.803 70.8163 103.563 72.5758 103.563 74.7306C103.563 76.8851 101.803 78.6449 99.6485 78.6449H89.8503Z" fill="#EBB02E" />
	</g>
	<defs>
		<filter id="filter0_d_14581_161616" x="0.0634766" y="1.63428" width="68" height="68" filterUnits="userSpaceOnUse" colorInterpolationFilters="sRGB">
			<feFlood floodOpacity="0" result="BackgroundImageFix" />
			<feColorMatrix in="SourceAlpha" type="matrix" values="0 0 0 0 0 0 0 0 0 0 0 0 0 0 0 0 0 0 127 0" result="hardAlpha" />
			<feOffset dy="4" />
			<feGaussianBlur stdDeviation="2" />
			<feComposite in2="hardAlpha" operator="out" />
			<feColorMatrix type="matrix" values="0 0 0 0 0 0 0 0 0 0 0 0 0 0 0 0 0 0 0.25 0" />
			<feBlend mode="normal" in2="BackgroundImageFix" result="effect1_dropShadow_14581_161616" />
			<feBlend mode="normal" in="SourceGraphic" in2="effect1_dropShadow_14581_161616" result="shape" />
		</filter>
		<filter id="filter1_d_14581_161616" x="50.9365" y="39.812" width="68" height="68" filterUnits="userSpaceOnUse" colorInterpolationFilters="sRGB">
			<feFlood floodOpacity="0" result="BackgroundImageFix" />
			<feColorMatrix in="SourceAlpha" type="matrix" values="0 0 0 0 0 0 0 0 0 0 0 0 0 0 0 0 0 0 127 0" result="hardAlpha" />
			<feOffset dy="4" />
			<feGaussianBlur stdDeviation="2" />
			<feComposite in2="hardAlpha" operator="out" />
			<feColorMatrix type="matrix" values="0 0 0 0 0 0 0 0 0 0 0 0 0 0 0 0 0 0 0.25 0" />
			<feBlend mode="normal" in2="BackgroundImageFix" result="effect1_dropShadow_14581_161616" />
			<feBlend mode="normal" in="SourceGraphic" in2="effect1_dropShadow_14581_161616" result="shape" />
		</filter>
	</defs>
</svg>
