<svg width="72" height="72" viewBox="0 0 72 72" fill="none" xmlns="http://www.w3.org/2000/svg">
	<g clip-path="url(#clip0_22058_87804)">
		<path d="M26.4042 37.9375C22.2614 37.9375 18.9012 41.2976 18.9012 45.4405V64.2083C18.9012 68.3512 22.2614 71.7113 26.4042 71.7113C30.5471 71.7113 33.9072 68.3512 33.9072 64.2083V45.4405C33.9042 41.2976 30.5441 37.9375 26.4042 37.9375Z" fill="#E91E63" />
		<path d="M0.142273 45.4405C0.142273 49.5863 3.50537 52.9494 7.6512 52.9494C11.797 52.9494 15.1601 49.5863 15.1601 45.4405V37.9315H7.65715C7.65418 37.9315 7.65418 37.9315 7.6512 37.9315C3.50537 37.9315 0.142273 41.2946 0.142273 45.4405Z" fill="#E91E63" />
		<path d="M26.4131 0.282738C26.4101 0.282738 26.4072 0.282738 26.4042 0.282738C22.2584 0.282738 18.8953 3.64583 18.8953 7.79167C18.8953 11.9375 22.2584 15.3006 26.4042 15.3006H33.9072V7.79167C33.9072 7.78869 33.9072 7.78274 33.9072 7.77679C33.9042 3.6369 30.55 0.282738 26.4131 0.282738Z" fill="#00BCD4" />
		<path d="M7.60066 34.125H26.4042C30.5501 34.125 33.9132 30.7619 33.9132 26.6161C33.9132 22.4702 30.5501 19.1071 26.4042 19.1071H7.60066C3.45483 19.1071 0.0917358 22.4702 0.0917358 26.6161C0.0917358 30.7619 3.45483 34.125 7.60066 34.125Z" fill="#00BCD4" />
		<path d="M63.9458 19.1042C59.806 19.1042 56.4518 22.4583 56.4518 26.5982V26.6131V34.122H63.9548C68.1006 34.122 71.4637 30.7589 71.4637 26.6131C71.4637 22.4673 68.1006 19.1042 63.9548 19.1042C63.9518 19.1042 63.9488 19.1042 63.9458 19.1042Z" fill="#4CAF50" />
		<path d="M37.7078 7.79167V26.6161C37.7078 30.7589 41.0679 34.119 45.2107 34.119C49.3536 34.119 52.7137 30.7589 52.7137 26.6161V7.79167C52.7137 3.64881 49.3536 0.288689 45.2107 0.288689C41.0679 0.288689 37.7078 3.64881 37.7078 7.79167Z" fill="#4CAF50" />
		<path d="M52.7108 64.2024C52.7108 60.0595 49.3507 56.6994 45.2078 56.6994H37.7048V64.2083C37.7078 68.3482 41.065 71.7054 45.2078 71.7054C49.3507 71.7054 52.7108 68.3452 52.7108 64.2024Z" fill="#FF9800" />
		<path d="M64.0114 37.9315H45.2078C41.0619 37.9315 37.6989 41.2946 37.6989 45.4405C37.6989 49.5863 41.0619 52.9494 45.2078 52.9494H64.0114C68.1572 52.9494 71.5203 49.5863 71.5203 45.4405C71.5203 41.2946 68.1572 37.9315 64.0114 37.9315Z" fill="#FF9800" />
	</g>
	<defs>
		<clipPath id="clip0_22058_87804">
			<rect width="71.4286" height="71.4286" fill="white" transform="translate(0.0857544 0.285713)" />
		</clipPath>
	</defs>
</svg>
