<svg xmlns="http://www.w3.org/2000/svg" data-cy="projectcard-fav-icon" width="16" height="16" viewBox="0 0 16 15" fill="none">
	<path d="M7.12058 1.13874C7.3973 0.287088 8.60216 0.287086 8.87888 1.13874L9.97135 4.50101C10.0951 4.88188 10.45 5.13975 10.8505 5.13975H14.3858C15.2813 5.13975 15.6536 6.28564 14.9291 6.81199L12.069 8.88999C11.745 9.12538 11.6095 9.54262 11.7332 9.92349L12.8257 13.2858C13.1024 14.1374 12.1277 14.8456 11.4032 14.3193L8.54308 12.2413C8.21909 12.0059 7.78038 12.0059 7.45639 12.2413L4.59627 14.3193C3.87181 14.8456 2.89706 14.1374 3.17378 13.2858L4.26625 9.92349C4.39 9.54262 4.25443 9.12538 3.93044 8.88999L1.07032 6.81199C0.345862 6.28564 0.718183 5.13975 1.61366 5.13975H5.14897C5.54944 5.13975 5.90436 4.88188 6.02812 4.50101L7.12058 1.13874Z" stroke="#2A2C33" />
</svg>
