<svg width="24" height="24" viewBox="0 0 24 24" fill="none" xmlns="http://www.w3.org/2000/svg">
	<path d="M12 22C16.9706 22 21 17.9706 21 13C21 8.02944 16.9706 4 12 4C7.02944 4 3 8.02944 3 13C3 17.9706 7.02944 22 12 22Z" fill="#34C369" stroke="#34C369" strokeWidth="1.5" />
	<path d="M10 2H14H10Z" fill="#34C369" />
	<path d="M10 2H14" stroke="#34C369" strokeWidth="1.5" strokeLinecap="round" />
	<path d="M13.888 10.9351C14.963 11.8121 15.5 12.2501 15.5 13.0001C15.5 13.7501 14.963 14.1881 13.888 15.0651C13.591 15.3071 13.297 15.5351 13.026 15.7251C12.789 15.8921 12.52 16.0641 12.242 16.2331C11.169 16.8851 10.633 17.2111 10.152 16.8501C9.672 16.4901 9.628 15.7341 9.54 14.2221C9.516 13.7951 9.5 13.3761 9.5 13.0001C9.5 12.6241 9.516 12.2051 9.54 11.7781C9.628 10.2661 9.672 9.5111 10.152 9.1501C10.633 8.7891 11.17 9.1151 12.242 9.7671C12.52 9.9361 12.789 10.1081 13.026 10.2751C13.296 10.4651 13.591 10.6931 13.888 10.9351Z" fill="white" stroke="white" strokeWidth="1.5" />
</svg>
