<svg width="16" height="17" viewBox="0 0 16 17" fill="none" xmlns="http://www.w3.org/2000/svg">
	<g clipPath="url(#clip0_14142_54924)">
		<path d="M5.66667 6.83333C6.03486 6.83333 6.33333 6.53486 6.33333 6.16667C6.33333 5.79848 6.03486 5.5 5.66667 5.5C5.29848 5.5 5 5.79848 5 6.16667C5 6.53486 5.29848 6.83333 5.66667 6.83333Z" fill="#2A2C33" stroke="#2A2C33" strokeLinecap="round" strokeLinejoin="round" />
		<path d="M2.6665 5.1665V7.73917C2.6665 8.09717 2.8085 8.4405 3.06184 8.69384L8.4725 14.1045C8.59787 14.2299 8.7467 14.3293 8.9105 14.3972C9.0743 14.4651 9.24987 14.5 9.42717 14.5C9.60447 14.5 9.78004 14.4651 9.94384 14.3972C10.1076 14.3293 10.2565 14.2299 10.3818 14.1045L13.6045 10.8818C13.7299 10.7565 13.8293 10.6076 13.8972 10.4438C13.9651 10.28 14 10.1045 14 9.92717C14 9.74987 13.9651 9.5743 13.8972 9.4105C13.8293 9.2467 13.7299 9.09787 13.6045 8.9725L8.19317 3.56184C7.94013 3.30884 7.597 3.16664 7.23917 3.1665H4.6665C4.13607 3.1665 3.62736 3.37722 3.25229 3.75229C2.87722 4.12736 2.6665 4.63607 2.6665 5.1665V5.1665Z" stroke="#2A2C33" strokeLinecap="round" strokeLinejoin="round" />
	</g>
	<defs>
		<clipPath id="clip0_14142_54924">
			<rect width="16" height="16" fill="white" transform="translate(0 0.5)" />
		</clipPath>
	</defs>
</svg>
