<svg width="119" height="108" viewBox="0 0 119 108" fill="none" xmlns="http://www.w3.org/2000/svg">
	<path d="M98.0892 34.9524C98.101 35.5984 97.5061 36.0858 96.8749 35.9473L82.0712 32.697C81.2552 32.5179 81.0056 31.4763 81.6519 30.9468L82.8877 29.9343C84.1624 28.8898 84.3746 26.9801 83.2626 25.7072C78.4724 20.2233 74.6017 17.8839 70.2067 16.8496C69.6985 16.73 69.3684 16.3514 69.27 15.9738C69.1813 15.6332 69.2757 15.3376 69.6216 15.1419C72.7165 13.3916 76.0505 12.4443 79.5338 12.9392C83.0113 13.4332 86.7803 15.3849 90.7125 19.703C91.7879 20.884 93.6486 21.1173 94.9442 20.0557L96.18 19.0432C96.8262 18.5137 97.7984 18.9632 97.8136 19.7985L98.0892 34.9524Z" stroke="#8B909A" strokeWidth="2" strokeLinejoin="round" />
	<path d="M20.5026 69.0823C20.4908 68.4362 21.0857 67.9488 21.7169 68.0874L36.5206 71.3376C37.3366 71.5168 37.5862 72.5584 36.9399 73.0879L35.7041 74.1004C34.4294 75.1449 34.2172 77.0545 35.3292 78.3275C40.1194 83.8113 43.9901 86.1508 48.3851 87.1851C48.8933 87.3047 49.2234 87.6833 49.3218 88.0609C49.4105 88.4015 49.3161 88.6971 48.9702 88.8927C45.8753 90.643 42.5413 91.5903 39.058 91.0955C35.5805 90.6014 31.8115 88.6498 27.8793 84.3316C26.8039 83.1506 24.9432 82.9174 23.6476 83.9789L22.4118 84.9915C21.7656 85.521 20.7934 85.0715 20.7782 84.2361L20.5026 69.0823Z" stroke="#8B909A" strokeWidth="2" strokeLinejoin="round" />
	<g filter="url(#filter0_d_14581_160285)">
		<rect x="4.06348" y="1.63428" width="60" height="60" rx="3.65385" fill="white" />
		<path d="M36.769 33.7845C29.9322 25.4623 23.1329 17.183 16.3711 8.94662L16.4757 8.8501L34.348 25.7411L35.3936 24.4864C36.8012 22.7812 38.2007 21.076 39.6164 19.3869C39.7894 19.1761 40.0373 19.0406 40.3081 19.0088C43.0267 19.0088 45.7454 19.0088 48.464 19.0088C48.5847 19.0088 48.6973 19.0088 48.9145 19.0651L36.769 33.7845Z" fill="#E25E3E" />
		<path d="M33.7762 37.5163C32.9719 38.4654 32.2399 39.3582 31.4999 40.2591C30.4865 41.4817 29.481 42.7123 28.4354 43.9268C28.2834 44.1079 28.0673 44.2231 27.8322 44.2486C25.0411 44.2486 22.2501 44.2486 19.4591 44.2486C19.3786 44.2517 19.2979 44.249 19.2178 44.2405L31.3551 29.4971C38.1759 37.8086 44.9779 46.0824 51.7611 54.3188L51.6726 54.4153L33.7762 37.5163Z" fill="#071952" />
	</g>
	<g filter="url(#filter1_d_14581_160285)">
		<rect x="54.9365" y="39.812" width="60" height="60" rx="3.84615" fill="white" />
		<g clipPath="url(#clip0_14581_160285)">
			<path d="M92.7078 65.1343H102.875C103.836 65.1343 104.614 65.9184 104.614 66.8855V76.21C104.614 79.7644 101.752 82.6461 98.2222 82.6461H98.1919C94.6616 82.6466 91.7993 79.7655 91.7988 76.2109V66.0497C91.7988 65.9295 91.8223 65.8104 91.868 65.6994C91.9137 65.5883 91.9806 65.4874 92.065 65.4024C92.1494 65.3174 92.2496 65.25 92.3599 65.204C92.4702 65.158 92.5885 65.1343 92.7078 65.1343Z" fill="#5059C9" />
			<path d="M99.5763 63.2917C101.851 63.2917 103.696 61.4348 103.696 59.1441C103.696 56.8535 101.851 54.9966 99.5763 54.9966C97.3013 54.9966 95.457 56.8535 95.457 59.1441C95.457 61.4348 97.3013 63.2917 99.5763 63.2917Z" fill="#5059C9" />
			<path d="M86.7616 63.2919C90.0477 63.2919 92.7117 60.6096 92.7117 57.301C92.7117 53.9923 90.0477 51.3101 86.7616 51.3101C83.4755 51.3101 80.8115 53.9923 80.8115 57.301C80.8115 60.6096 83.4755 63.2919 86.7616 63.2919Z" fill="#7B83EB" />
			<path d="M94.6979 65.1343H77.9152C76.966 65.158 76.2152 65.9511 76.2372 66.9067V77.5418C76.1047 83.2767 80.6108 88.0357 86.3064 88.1761C92.0021 88.0357 96.5082 83.2767 96.3758 77.5418V66.9067C96.3978 65.9511 95.647 65.158 94.6979 65.1343Z" fill="#7B83EB" />
			<path opacity="0.1" d="M87.2197 65.1343V80.0377C87.2175 80.372 87.1173 80.6981 86.9316 80.9753C86.746 81.2524 86.4831 81.4681 86.1761 81.5954C85.9763 81.6806 85.7615 81.7244 85.5445 81.7244H77.0404C76.9214 81.4202 76.8116 81.116 76.7199 80.8028C76.3995 79.7452 76.2361 78.6457 76.2348 77.54V66.9039C76.2129 65.9498 76.9624 65.158 77.91 65.1344L87.2197 65.1343Z" fill="black" />
			<path opacity="0.2" d="M86.3039 65.1343V80.9594C86.3039 81.1779 86.2604 81.3942 86.1758 81.5954C86.0494 81.9045 85.8352 82.1691 85.5599 82.3561C85.2847 82.543 84.9607 82.6439 84.6287 82.6461H77.4706C77.315 82.3419 77.1685 82.0377 77.0404 81.7244C76.9173 81.4231 76.8104 81.1155 76.7199 80.8028C76.3995 79.7452 76.2361 78.6457 76.2348 77.54V66.9039C76.2129 65.9498 76.9624 65.158 77.91 65.1344L86.3039 65.1343Z" fill="black" />
			<path opacity="0.2" d="M86.3041 65.1343V79.1161C86.2971 80.0447 85.5513 80.7958 84.6289 80.8028H76.7199C76.3995 79.7452 76.2361 78.6457 76.2348 77.54V66.9039C76.2129 65.9498 76.9624 65.158 77.91 65.1344L86.3041 65.1343Z" fill="black" />
			<path opacity="0.2" d="M85.3888 65.1343V79.1161C85.3817 80.0447 84.6358 80.7958 83.7136 80.8028H76.7199C76.3995 79.7452 76.2361 78.6457 76.2348 77.54V66.9039C76.2129 65.9498 76.9624 65.158 77.91 65.1344L85.3888 65.1343Z" fill="black" />
			<path opacity="0.1" d="M87.2195 60.3703V63.2735C87.0639 63.2827 86.9174 63.292 86.7618 63.292C86.6062 63.292 86.4597 63.2827 86.3041 63.2735C85.9951 63.2528 85.6887 63.2035 85.3888 63.1261C84.4749 62.9082 83.6253 62.4756 82.9093 61.8637C82.1933 61.2517 81.6314 60.4779 81.2695 59.6053C81.1432 59.3081 81.0451 58.9995 80.9766 58.6836H85.5444C86.468 58.6872 87.216 59.4402 87.2195 60.3703Z" fill="black" />
			<path opacity="0.2" d="M86.304 61.2905V63.2721C85.995 63.2515 85.6886 63.2022 85.3887 63.1247C84.4748 62.9068 83.6252 62.4742 82.9093 61.8623C82.1934 61.2504 81.6315 60.4765 81.2695 59.604H84.6288C85.5526 59.6074 86.3004 60.3606 86.304 61.2905Z" fill="black" />
			<path opacity="0.2" d="M86.304 61.2905V63.2721C85.995 63.2515 85.6886 63.2022 85.3887 63.1247C84.4748 62.9068 83.6252 62.4742 82.9093 61.8623C82.1934 61.2504 81.6315 60.4765 81.2695 59.604H84.6288C85.5526 59.6074 86.3004 60.3606 86.304 61.2905Z" fill="black" />
			<path opacity="0.2" d="M85.3888 61.2907V63.1249C84.475 62.907 83.6253 62.4744 82.9093 61.8624C82.1934 61.2505 81.6315 60.4766 81.2695 59.604H83.7136C84.6374 59.6076 85.3853 60.3607 85.3888 61.2907Z" fill="black" />
			<path d="M66.9289 59.6042H83.7115C84.6383 59.6042 85.3896 60.3606 85.3896 61.2936V78.1915C85.3896 79.1245 84.6383 79.8809 83.7116 79.8809H66.9289C66.0022 79.8809 65.251 79.1245 65.251 78.1915V61.2938C65.251 60.3604 66.0022 59.6042 66.9289 59.6042Z" fill="url(#paint0_linear_14581_160285)" />
			<path d="M79.7369 66.0363H76.3819V75.2346H74.2446V66.0363H70.9053V64.252H79.7369V66.0363Z" fill="white" />
		</g>
	</g>
	<defs>
		<filter id="filter0_d_14581_160285" x="0.0634766" y="1.63428" width="68" height="68" filterUnits="userSpaceOnUse" colorInterpolationFilters="sRGB">
			<feFlood floodOpacity="0" result="BackgroundImageFix" />
			<feColorMatrix in="SourceAlpha" type="matrix" values="0 0 0 0 0 0 0 0 0 0 0 0 0 0 0 0 0 0 127 0" result="hardAlpha" />
			<feOffset dy="4" />
			<feGaussianBlur stdDeviation="2" />
			<feComposite in2="hardAlpha" operator="out" />
			<feColorMatrix type="matrix" values="0 0 0 0 0 0 0 0 0 0 0 0 0 0 0 0 0 0 0.25 0" />
			<feBlend mode="normal" in2="BackgroundImageFix" result="effect1_dropShadow_14581_160285" />
			<feBlend mode="normal" in="SourceGraphic" in2="effect1_dropShadow_14581_160285" result="shape" />
		</filter>
		<filter id="filter1_d_14581_160285" x="50.9365" y="39.812" width="68" height="68" filterUnits="userSpaceOnUse" colorInterpolationFilters="sRGB">
			<feFlood floodOpacity="0" result="BackgroundImageFix" />
			<feColorMatrix in="SourceAlpha" type="matrix" values="0 0 0 0 0 0 0 0 0 0 0 0 0 0 0 0 0 0 127 0" result="hardAlpha" />
			<feOffset dy="4" />
			<feGaussianBlur stdDeviation="2" />
			<feComposite in2="hardAlpha" operator="out" />
			<feColorMatrix type="matrix" values="0 0 0 0 0 0 0 0 0 0 0 0 0 0 0 0 0 0 0.25 0" />
			<feBlend mode="normal" in2="BackgroundImageFix" result="effect1_dropShadow_14581_160285" />
			<feBlend mode="normal" in="SourceGraphic" in2="effect1_dropShadow_14581_160285" result="shape" />
		</filter>
		<linearGradient id="paint0_linear_14581_160285" x1="415.099" y1="-72.3988" x2="1742.8" y2="2211.43" gradientUnits="userSpaceOnUse">
			<stop stopColor="#5A62C3" />
			<stop offset="0.5" stopColor="#4D55BD" />
			<stop offset="1" stopColor="#3940AB" />
		</linearGradient>
		<clipPath id="clip0_14581_160285">
			<rect width="39.3617" height="37" fill="white" transform="translate(65.251 51.3101)" />
		</clipPath>
	</defs>
</svg>
