<svg width="24" height="24" viewBox="0 0 24 24" fill="none" xmlns="http://www.w3.org/2000/svg">
	<path d="M8.47159 14.4691C8.1787 14.762 8.1787 15.2369 8.47159 15.5298C8.76449 15.8226 9.23936 15.8226 9.53225 15.5298L8.47159 14.4691ZM15.0019 8.99943H15.7519C15.7519 8.58522 15.4161 8.24943 15.0019 8.24943V8.99943ZM10.5019 8.24943C10.0877 8.24943 9.75192 8.58522 9.75192 8.99943C9.75192 9.41364 10.0877 9.74943 10.5019 9.74943V8.24943ZM14.2519 13.4994C14.2519 13.9136 14.5877 14.2494 15.0019 14.2494C15.4161 14.2494 15.7519 13.9136 15.7519 13.4994H14.2519ZM9.53225 15.5298L15.5322 9.52976L14.4716 8.4691L8.47159 14.4691L9.53225 15.5298ZM15.0019 8.24943H10.5019V9.74943H15.0019V8.24943ZM14.2519 8.99943V13.4994H15.7519V8.99943H14.2519ZM21.25 12C21.25 17.1086 17.1086 21.25 12 21.25V22.75C17.9371 22.75 22.75 17.9371 22.75 12H21.25ZM12 21.25C6.89137 21.25 2.75 17.1086 2.75 12H1.25C1.25 17.9371 6.06294 22.75 12 22.75V21.25ZM2.75 12C2.75 6.89137 6.89137 2.75 12 2.75V1.25C6.06294 1.25 1.25 6.06294 1.25 12H2.75ZM12 2.75C17.1086 2.75 21.25 6.89137 21.25 12H22.75C22.75 6.06294 17.9371 1.25 12 1.25V2.75Z" fill="#2A2C33" />
</svg>
