<svg width="14" height="14" viewBox="0 0 14 14" fill="none" xmlns="http://www.w3.org/2000/svg">
<path d="M3.75 7L6.37897 9.19081C6.46502 9.26252 6.5932 9.24957 6.66318 9.1621L10.25 4.67857M7 13.5C6.14641 13.5 5.30117 13.3319 4.51256 13.0052C3.72394 12.6786 3.00739 12.1998 2.40381 11.5962C1.80022 10.9926 1.32144 10.2761 0.994783 9.48744C0.668127 8.69883 0.5 7.85359 0.5 7C0.5 6.14641 0.668127 5.30117 0.994783 4.51256C1.32144 3.72394 1.80022 3.00739 2.40381 2.40381C3.00739 1.80022 3.72394 1.32144 4.51256 0.994783C5.30117 0.668127 6.14641 0.5 7 0.5C8.72391 0.5 10.3772 1.18482 11.5962 2.40381C12.8152 3.62279 13.5 5.27609 13.5 7C13.5 8.72391 12.8152 10.3772 11.5962 11.5962C10.3772 12.8152 8.72391 13.5 7 13.5Z" stroke="#2A2C33" stroke-linecap="round"/>
</svg>
