<svg width="16" height="16" viewBox="0 0 16 16" fill="none" xmlns="http://www.w3.org/2000/svg">
	<path d="M14.9014 15.9999L2.53291 1.9999" stroke="#2A2C33" stroke-linecap="round" stroke-linejoin="round" />
	<path d="M7.43308 1.63874C7.7098 0.787088 8.91466 0.787086 9.19138 1.63874L10.2839 5.00101C10.4076 5.38188 10.7625 5.63975 11.163 5.63975H14.6983C15.5938 5.63975 15.9661 6.78564 15.2416 7.31199L12.3815 9.38999C12.0575 9.62538 11.922 10.0426 12.0457 10.4235L13.1382 13.7858C13.4149 14.6374 12.4402 15.3456 11.7157 14.8193L8.85558 12.7413C8.53159 12.5059 8.09288 12.5059 7.76889 12.7413L4.90877 14.8193C4.18431 15.3456 3.20956 14.6374 3.48628 13.7858L4.57875 10.4235C4.7025 10.0426 4.56693 9.62538 4.24294 9.38999L1.38282 7.31199C0.658362 6.78564 1.03068 5.63975 1.92616 5.63975H5.46147C5.86194 5.63975 6.21686 5.38188 6.34062 5.00101L7.43308 1.63874Z" stroke="#2A2C33" />
</svg>
