<svg xmlns="http://www.w3.org/2000/svg" width="16" height="16" viewBox="0 0 16 16" fill="none">
	<g clipPath="url(#clip0_12584_151601)">
		<path d="M10 6.66668L13.0353 5.14935C13.1369 5.09857 13.2499 5.0746 13.3633 5.07972C13.4768 5.08483 13.5871 5.11885 13.6837 5.17856C13.7804 5.23826 13.8602 5.32167 13.9155 5.42087C13.9709 5.52006 13.9999 5.63176 14 5.74535V10.2547C13.9999 10.3683 13.9709 10.48 13.9155 10.5792C13.8602 10.6784 13.7804 10.7618 13.6837 10.8215C13.5871 10.8812 13.4768 10.9152 13.3633 10.9203C13.2499 10.9254 13.1369 10.9015 13.0353 10.8507L10 9.33335V6.66668Z" stroke="#2A2C33" strokeLinecap="round" strokeLinejoin="round" />
		<path d="M8.66667 4H3.33333C2.59695 4 2 4.59695 2 5.33333V10.6667C2 11.403 2.59695 12 3.33333 12H8.66667C9.40305 12 10 11.403 10 10.6667V5.33333C10 4.59695 9.40305 4 8.66667 4Z" stroke="#2A2C33" strokeLinecap="round" strokeLinejoin="round" />
	</g>
	<defs>
		<clipPath id="clip0_12584_151601">
			<rect width="16" height="16" fill="white" />
		</clipPath>
	</defs>
</svg>
