<svg width="24" height="24" viewBox="0 0 24 24" fill="none" xmlns="http://www.w3.org/2000/svg">
<path d="M6.25192 8.83205L5.8359 8.20801L5.83589 8.20802L6.25192 8.83205ZM10.4453 6.03647L10.0293 5.41242L10.0293 5.41243L10.4453 6.03647ZM10.4453 17.9635L10.8613 17.3395L10.8613 17.3395L10.4453 17.9635ZM6.25192 15.1679L6.66795 14.5439L6.66793 14.5439L6.25192 15.1679ZM17.0303 6.96967C16.7374 6.67678 16.2626 6.67678 15.9697 6.96967C15.6768 7.26256 15.6768 7.73744 15.9697 8.03033L17.0303 6.96967ZM15.9697 14.9697C15.6768 15.2626 15.6768 15.7374 15.9697 16.0303C16.2626 16.3232 16.7374 16.3232 17.0303 16.0303L15.9697 14.9697ZM20.0303 3.96967C19.7374 3.67678 19.2626 3.67678 18.9697 3.96967C18.6768 4.26256 18.6768 4.73744 18.9697 5.03033L20.0303 3.96967ZM18.9697 17.9697C18.6768 18.2626 18.6768 18.7374 18.9697 19.0303C19.2626 19.3232 19.7374 19.3232 20.0303 19.0303L18.9697 17.9697ZM2.75 14V10H1.25V14H2.75ZM2.75 10C2.75 9.86193 2.86193 9.75 3 9.75V8.25C2.03351 8.25 1.25 9.03351 1.25 10H2.75ZM3 9.75H5.69722V8.25H3V9.75ZM5.69722 9.75C6.04272 9.75 6.38049 9.64773 6.66795 9.45608L5.83589 8.20802C5.79483 8.23539 5.74658 8.25 5.69722 8.25V9.75ZM6.66794 9.45609L10.8613 6.66051L10.0293 5.41243L5.8359 8.20801L6.66794 9.45609ZM10.8613 6.66052C11.0275 6.54973 11.25 6.66885 11.25 6.86852H12.75C12.75 5.47079 11.1923 4.63713 10.0293 5.41242L10.8613 6.66052ZM11.25 6.86852V17.1315H12.75V6.86852H11.25ZM11.25 17.1315C11.25 17.3312 11.0275 17.4503 10.8613 17.3395L10.0293 18.5875C11.1923 19.3629 12.75 18.5292 12.75 17.1315H11.25ZM10.8613 17.3395L6.66795 14.5439L5.83589 15.7919L10.0293 18.5875L10.8613 17.3395ZM6.66793 14.5439C6.38039 14.3522 6.04261 14.25 5.69722 14.25V15.75C5.74669 15.75 5.79493 15.7646 5.83591 15.7919L6.66793 14.5439ZM5.69722 14.25H3V15.75H5.69722V14.25ZM3 14.25C2.86192 14.25 2.75 14.1381 2.75 14H1.25C1.25 14.9665 2.03352 15.75 3 15.75V14.25ZM16.5 7.5C15.9697 8.03033 15.9695 8.03012 15.9693 8.02992C15.9692 8.02985 15.969 8.02965 15.9689 8.02953C15.9686 8.02929 15.9684 8.02907 15.9682 8.02887C15.9678 8.02847 15.9675 8.02816 15.9673 8.02793C15.9668 8.02748 15.9667 8.02738 15.967 8.02763C15.9675 8.02813 15.9693 8.03001 15.9724 8.03326C15.9786 8.03978 15.9897 8.05176 16.0052 8.06908C16.0362 8.10377 16.0842 8.15963 16.1437 8.23567C16.263 8.38809 16.4267 8.6194 16.5916 8.92164C16.9214 9.52636 17.25 10.4034 17.25 11.5H18.75C18.75 10.0966 18.3286 8.97364 17.9084 8.20336C17.6983 7.8181 17.487 7.51816 17.325 7.31121C17.2439 7.20756 17.1747 7.1267 17.1237 7.06959C17.0982 7.04101 17.0771 7.01833 17.0613 7.00165C17.0534 6.99331 17.0468 6.98646 17.0416 6.98113C17.039 6.97846 17.0368 6.97617 17.0349 6.97426C17.0339 6.97331 17.0331 6.97245 17.0323 6.97168C17.032 6.9713 17.0316 6.97094 17.0313 6.9706C17.0311 6.97044 17.0309 6.9702 17.0308 6.97012C17.0306 6.96989 17.0303 6.96967 16.5 7.5ZM17.25 11.5C17.25 12.5966 16.9214 13.4736 16.5916 14.0784C16.4267 14.3806 16.263 14.6119 16.1437 14.7643C16.0842 14.8404 16.0362 14.8962 16.0052 14.9309C15.9897 14.9482 15.9786 14.9602 15.9724 14.9667C15.9693 14.97 15.9675 14.9719 15.967 14.9724C15.9667 14.9726 15.9668 14.9725 15.9673 14.9721C15.9675 14.9718 15.9678 14.9715 15.9682 14.9711C15.9684 14.9709 15.9686 14.9707 15.9689 14.9705C15.969 14.9703 15.9692 14.9701 15.9693 14.9701C15.9695 14.9699 15.9697 14.9697 16.5 15.5C17.0303 16.0303 17.0306 16.0301 17.0308 16.0299C17.0309 16.0298 17.0311 16.0296 17.0313 16.0294C17.0316 16.0291 17.032 16.0287 17.0323 16.0283C17.0331 16.0276 17.0339 16.0267 17.0349 16.0257C17.0368 16.0238 17.039 16.0215 17.0416 16.0189C17.0468 16.0135 17.0534 16.0067 17.0613 15.9984C17.0771 15.9817 17.0982 15.959 17.1237 15.9304C17.1747 15.8733 17.2439 15.7924 17.325 15.6888C17.487 15.4818 17.6983 15.1819 17.9084 14.7966C18.3286 14.0264 18.75 12.9034 18.75 11.5H17.25ZM19.5 4.5C18.9697 5.03033 18.9694 5.03011 18.9692 5.02989C18.9692 5.02983 18.969 5.02963 18.9689 5.02951C18.9686 5.02927 18.9684 5.02907 18.9683 5.02891C18.9679 5.02859 18.9678 5.02841 18.9677 5.02838C18.9677 5.02833 18.9682 5.02887 18.9693 5.03C18.9715 5.03226 18.976 5.03688 18.9825 5.04384C18.9957 5.05777 19.0173 5.08107 19.0461 5.1136C19.1038 5.17869 19.1903 5.28057 19.2962 5.41822C19.5081 5.69376 19.7964 6.11097 20.0863 6.66181C20.6655 7.76227 21.25 9.39311 21.25 11.5H22.75C22.75 9.10689 22.0845 7.23773 21.4137 5.96319C21.0786 5.32653 20.7419 4.83749 20.4851 4.50365C20.3566 4.33662 20.2478 4.20802 20.1688 4.11882C20.1292 4.0742 20.0971 4.03939 20.0736 4.01451C20.0619 4.00207 20.0523 3.9921 20.045 3.98462C20.0414 3.98088 20.0383 3.97777 20.0359 3.97527C20.0347 3.97403 20.0336 3.97294 20.0327 3.972C20.0322 3.97154 20.0318 3.97111 20.0314 3.97072C20.0312 3.97053 20.0309 3.97026 20.0308 3.97017C20.0306 3.96991 20.0303 3.96967 19.5 4.5ZM21.25 11.5C21.25 13.6069 20.6655 15.2377 20.0863 16.3382C19.7964 16.889 19.5081 17.3062 19.2962 17.5818C19.1903 17.7194 19.1038 17.8213 19.0461 17.8864C19.0173 17.9189 18.9957 17.9422 18.9825 17.9562C18.976 17.9631 18.9715 17.9677 18.9693 17.97C18.9682 17.9711 18.9677 17.9717 18.9677 17.9716C18.9678 17.9716 18.9679 17.9714 18.9683 17.9711C18.9684 17.9709 18.9686 17.9707 18.9689 17.9705C18.969 17.9704 18.9692 17.9702 18.9692 17.9701C18.9694 17.9699 18.9697 17.9697 19.5 18.5C20.0303 19.0303 20.0306 19.0301 20.0308 19.0298C20.0309 19.0297 20.0312 19.0295 20.0314 19.0293C20.0318 19.0289 20.0322 19.0285 20.0327 19.028C20.0336 19.0271 20.0347 19.026 20.0359 19.0247C20.0383 19.0222 20.0414 19.0191 20.045 19.0154C20.0523 19.0079 20.0619 18.9979 20.0736 18.9855C20.0971 18.9606 20.1292 18.9258 20.1688 18.8812C20.2478 18.792 20.3566 18.6634 20.4851 18.4963C20.7419 18.1625 21.0786 17.6735 21.4137 17.0368C22.0845 15.7623 22.75 13.8931 22.75 11.5H21.25Z" fill="#2A2C33"/>
</svg>
