<svg xmlns="http://www.w3.org/2000/svg" width="15" height="16" viewBox="0 0 15 16" fill="none">
	<path d="M7.5 1.62842C4.13994 1.62842 1.40625 4.36211 1.40625 7.72217C1.40625 11.0822 4.13994 13.8159 7.5 13.8159C10.8601 13.8159 13.5938 11.0822 13.5938 7.72217C13.5938 4.36211 10.8601 1.62842 7.5 1.62842ZM7.5 11.0008C7.38411 11.0008 7.27083 10.9664 7.17447 10.902C7.07811 10.8376 7.00301 10.7461 6.95866 10.6391C6.91432 10.532 6.90271 10.4142 6.92532 10.3005C6.94793 10.1869 7.00373 10.0825 7.08568 10.0005C7.16762 9.91858 7.27203 9.86277 7.38569 9.84016C7.49935 9.81756 7.61716 9.82916 7.72423 9.87351C7.83129 9.91786 7.92281 9.99296 7.98719 10.0893C8.05157 10.1857 8.08594 10.299 8.08594 10.4148C8.08594 10.5702 8.02421 10.7193 7.91432 10.8292C7.80444 10.939 7.6554 11.0008 7.5 11.0008ZM8.13633 5.10771L7.96816 8.68193C7.96816 8.80625 7.91878 8.92548 7.83087 9.01339C7.74296 9.1013 7.62373 9.15068 7.49941 9.15068C7.37509 9.15068 7.25587 9.1013 7.16796 9.01339C7.08005 8.92548 7.03066 8.80625 7.03066 8.68193L6.8625 5.10947V5.10801C6.85881 5.02215 6.87254 4.93643 6.90286 4.85601C6.93318 4.7756 6.97945 4.70215 7.03891 4.64009C7.09836 4.57803 7.16975 4.52865 7.2488 4.49491C7.32784 4.46117 7.41289 4.44378 7.49883 4.44378C7.58477 4.44378 7.66982 4.46117 7.74886 4.49491C7.8279 4.52865 7.8993 4.57803 7.95875 4.64009C8.0182 4.70215 8.06448 4.7756 8.0948 4.85601C8.12511 4.93643 8.13884 5.02215 8.13516 5.10801L8.13633 5.10771Z" fill="#B79C11" />
</svg>
