<svg xmlns="http://www.w3.org/2000/svg" width="90" height="80" viewBox="0 0 90 80" fill="none">
	<path d="M88.5217 65.6356L53.542 4.88822C52.6679 3.39993 51.42 2.16592 49.9221 1.30849C48.4241 0.451067 46.7281 0 45.0021 0C43.2761 0 41.5801 0.451067 40.0821 1.30849C38.5842 2.16592 37.3363 3.39993 36.4622 4.88822L1.48252 65.6356C0.641473 67.0751 0.198242 68.7124 0.198242 70.3796C0.198242 72.0468 0.641473 73.684 1.48252 75.1235C2.34543 76.6208 3.59118 77.8615 5.09193 78.7184C6.59268 79.5753 8.29439 80.0174 10.0224 79.9995H79.9817C81.7084 80.016 83.4085 79.5732 84.9077 78.7164C86.4069 77.8596 87.6514 76.6196 88.5137 75.1235C89.3559 73.6847 89.8005 72.0479 89.8019 70.3807C89.8033 68.7135 89.3615 67.0758 88.5217 65.6356ZM82.9737 71.9196C82.6688 72.4397 82.231 72.8695 81.7052 73.1647C81.1795 73.4599 80.5846 73.61 79.9817 73.5995H10.0224C9.41955 73.61 8.82473 73.4599 8.29897 73.1647C7.77321 72.8695 7.33541 72.4397 7.03047 71.9196C6.75425 71.4519 6.60854 70.9187 6.60854 70.3756C6.60854 69.8324 6.75425 69.2992 7.03047 68.8316L42.0101 8.08418C42.3212 7.56648 42.761 7.13809 43.2867 6.84069C43.8124 6.54328 44.4061 6.38698 45.0101 6.38698C45.6141 6.38698 46.2078 6.54328 46.7335 6.84069C47.2592 7.13809 47.699 7.56648 48.0101 8.08418L82.9897 68.8316C83.2635 69.3007 83.4065 69.8346 83.4036 70.3778C83.4008 70.9209 83.2524 71.4533 82.9737 71.9196ZM41.8021 47.9998V31.9999C41.8021 31.1513 42.1393 30.3373 42.7394 29.7372C43.3395 29.1371 44.1534 28.8 45.0021 28.8C45.8508 28.8 46.6647 29.1371 47.2648 29.7372C47.8649 30.3373 48.2021 31.1513 48.2021 31.9999V47.9998C48.2021 48.8485 47.8649 49.6624 47.2648 50.2625C46.6647 50.8626 45.8508 51.1998 45.0021 51.1998C44.1534 51.1998 43.3395 50.8626 42.7394 50.2625C42.1393 49.6624 41.8021 48.8485 41.8021 47.9998ZM49.802 62.3997C49.802 63.349 49.5205 64.277 48.9931 65.0664C48.4657 65.8557 47.716 66.4709 46.8389 66.8342C45.9619 67.1975 44.9968 67.2926 44.0657 67.1074C43.1346 66.9222 42.2793 66.465 41.608 65.7937C40.9367 65.1224 40.4796 64.2672 40.2944 63.3361C40.1092 62.405 40.2042 61.4399 40.5675 60.5628C40.9308 59.6857 41.546 58.9361 42.3354 58.4086C43.1247 57.8812 44.0527 57.5997 45.0021 57.5997C46.2751 57.5997 47.496 58.1054 48.3962 59.0056C49.2963 59.9057 49.802 61.1266 49.802 62.3997Z" fill="#E02B2B" />
</svg>
