<svg width="80" height="81" viewBox="0 0 80 81" fill="none" xmlns="http://www.w3.org/2000/svg">
<path d="M78.9222 45.9953C76.9861 43.3 75.0023 40.6446 73.0476 37.9626C72.3598 37.0163 71.4621 36.5166 70.3042 36.7797C69.6721 36.9259 68.9896 37.2157 68.7878 36.397C68.6868 35.985 69.0108 35.3656 69.3162 34.9776C71.6879 31.9633 73.114 28.5716 73.199 24.736C73.3663 17.219 70.0307 11.6849 63.4549 8.06193C63.0274 7.82536 62.5334 7.46121 62.3661 7.03857C60.3742 1.98026 57.5272 0.00531614 52.0563 0C38.1613 0 24.2636 0 10.3685 0.00531614C3.94419 0.00797422 0.0401955 3.92332 0.0428513 10.3638C0.0481628 30.1319 0.159706 49.9026 0.000358784 69.6707C-0.0447895 75.3244 4.17525 80.1063 10.2862 80C11.9514 79.9708 13.6192 79.9521 15.287 79.9389V79.9548H58.2709C60.6531 79.9548 62.5838 78.025 62.5918 75.6434L62.6476 56.197H62.6502C62.6848 51.1626 62.6502 46.1282 62.6795 41.0938C62.6795 40.6791 62.6901 40.1555 62.6715 39.7249C62.9344 39.7754 63.8161 40.0917 63.8692 40.198C64.0552 40.5648 64.0498 41.1177 63.8746 41.4526C63.3009 42.5531 63.3036 43.5578 64.0525 44.5546C64.4535 45.0862 64.8386 45.6258 65.2317 46.1601C66.8251 48.3344 68.3708 50.5486 70.0307 52.675C71.988 55.1816 75.3794 55.5856 77.8386 53.701C80.2156 51.8803 80.7149 48.4912 78.9222 45.9953ZM60.1883 75.779C60.1883 76.5658 59.5536 77.2064 58.7675 77.209L18.1818 77.4509H17.9561L17.8817 77.4536C17.8313 77.4509 17.7808 77.4509 17.7304 77.4509H15.287C13.6272 77.4509 11.9647 77.4482 10.3048 77.4482C8.22531 77.4456 6.52827 76.9565 5.25881 76.0182C3.50068 74.7264 2.56319 72.5866 2.56319 69.7239C2.55522 49.9505 2.54991 30.1771 2.54725 10.4037C2.54725 5.33209 5.36769 2.51719 10.427 2.51719C24.415 2.51985 38.403 2.52783 52.391 2.50656C54.8237 2.50125 56.9377 3.13653 58.5258 5.06629C58.8445 5.45171 59.0649 5.91421 59.4606 6.55215C58.3054 6.44317 57.4343 6.32355 56.5605 6.28368C53.8277 6.16141 51.1879 6.58404 48.6543 7.6712C48.0275 7.93966 47.2945 8.07788 46.612 8.07788C34.0395 8.10446 21.467 8.09915 8.89723 8.1018C8.49886 8.1018 8.20141 8.06193 7.72337 8.16294C7.2294 8.26926 6.96382 9.04808 6.96382 9.4521C6.96382 9.85613 7.24533 10.409 7.73399 10.5127C8.14298 10.5977 8.59712 10.5818 9.03798 10.5844C20.2826 10.5844 31.5245 10.5898 42.7691 10.5951C43.0214 10.5951 43.2763 10.6243 43.7437 10.6562C43.4304 11.039 43.2206 11.2809 43.0293 11.536C42.052 12.8411 40.8118 14.0346 40.1744 15.4912C39.4626 17.1153 38.4826 17.3599 36.9104 17.3492C27.4399 17.2801 17.9667 17.3014 8.49355 17.3492C7.92521 17.3492 7.13113 17.6496 6.84431 18.0775C6.27597 18.9334 7.07802 19.8026 8.39794 19.8106C11.6752 19.8292 14.9498 19.8133 18.2243 19.8133C24.5106 19.8133 30.7968 19.8133 37.083 19.8186C37.4681 19.8186 37.8559 19.8691 38.2224 19.893C38.1268 22.0859 38.1135 24.2416 38.0152 26.4824C37.6036 26.493 37.0246 26.4903 36.5545 26.4903C27.4372 26.4957 18.3173 26.4957 9.19999 26.4983C8.80162 26.4983 8.64758 26.5116 8.02347 26.5435C7.4392 26.5727 6.85759 27.2798 6.76463 27.7582C6.60794 28.5663 7.25064 29.0235 8.08987 29.0288C10.1242 29.0474 12.1612 29.0554 14.1982 29.0527C21.9876 29.0501 29.7796 29.0474 37.5717 29.0288C38.2755 29.0288 38.7562 29.0899 39.0855 29.9139C42.546 38.5234 50.2557 42.7418 59.4288 41.1097C59.5961 41.0805 59.7714 41.0885 60.037 41.0725C60.0848 41.45 60.1644 41.7849 60.1644 42.1172V42.8694C60.1724 46.4711 60.1644 50.0701 60.1804 53.6718C60.1777 54.1476 60.1804 54.6234 60.1857 55.1018C60.1857 55.2719 60.1857 55.4421 60.1883 55.6122V75.7816V75.779ZM55.9869 38.9673C47.4061 39.0497 40.5594 32.4285 40.5037 23.9891C40.4506 15.7065 47.1538 8.84606 55.3628 8.78493C63.9171 8.72113 70.6123 15.3264 70.6919 23.904C70.769 32.0218 64.0658 38.8903 55.9869 38.9673Z" fill="#11103D"/>
<path d="M44.7742 55.3357C44.2882 55.4155 43.5499 56.0561 43.5074 56.686C43.4915 56.9253 43.4782 57.1166 43.4649 57.3373C42.9364 65.6783 33.9944 71.0556 26.3696 67.6134C21.4724 65.4045 18.7555 60.6492 19.207 55.0992C19.207 55.0699 19.2123 55.038 19.215 55.0088C19.2548 54.5569 19.3238 54.1104 19.4221 53.6691C20.3516 49.4587 23.8307 45.8411 28.2738 44.7034C30.8579 44.0389 33.4021 44.1904 35.9278 45.2829C35.8189 45.5726 35.7684 45.7348 35.6994 45.8916C34.9266 47.6273 35.5427 48.6108 37.4496 48.648C38.7774 48.6746 40.1053 48.6985 41.4306 48.664C43.1621 48.6214 43.8606 47.4944 43.0718 46.0032C42.5088 44.94 41.9166 43.8927 41.2898 42.8667C41.1597 42.6461 41.0242 42.4308 40.8888 42.2128C40.0682 40.9104 38.711 40.8652 37.9302 42.1809C37.6487 42.6541 37.3805 42.8455 37.0618 42.8667C37.014 42.8694 36.9635 42.8694 36.9131 42.8667C36.7112 42.8508 36.4882 42.779 36.2279 42.678C33.5482 41.6387 30.7968 41.5749 28.0056 42.173C27.2274 42.3404 26.4732 42.5743 25.7508 42.8667C21.228 44.6902 17.8711 48.8261 16.8991 53.6691C16.6734 54.8041 16.5751 55.9763 16.6256 57.1671C16.6973 58.8736 17.0664 60.5083 17.6932 62.0181C19.6903 66.8532 24.2769 70.4203 29.9018 71.0901C36.6077 71.8929 43.5419 67.2891 45.3771 60.7423C45.7329 59.477 45.8631 58.14 45.9985 56.8269C46.0862 55.9923 45.6904 55.1869 44.7742 55.3357Z" fill="#11103D"/>
<path d="M31.15 37.2636C31.6386 37.2184 32.3451 36.6017 32.4593 36.1286C32.6558 35.3152 31.9812 34.8819 31.1739 34.8155C30.8233 34.7862 30.4674 34.8022 30.1142 34.8022C26.4466 34.8022 22.7763 34.8022 19.1086 34.8022C15.927 34.8022 12.7427 34.8022 9.5611 34.8022C8.72188 34.8022 8.1562 34.7862 7.05405 34.8607C6.56804 34.8926 6.23872 35.7352 6.28387 36.0621C6.35292 36.5485 6.47509 37.1546 7.04608 37.2769C7.46569 37.3672 7.73127 37.3247 8.08449 37.3247C14.1397 37.3353 20.1949 37.346 26.25 37.3513C27.886 37.3513 29.5299 37.4177 31.15 37.2636Z" fill="#11103D"/>
<path d="M64.7593 14.8827C62.3531 12.4266 59.1688 11.055 55.796 11.0258C52.3063 10.9992 49.0317 12.299 46.5831 14.6966C44.1371 17.0968 42.772 20.337 42.7428 23.8244C42.7163 27.1789 44.0203 30.3792 46.4105 32.8353C48.8033 35.2913 51.9637 36.6735 55.3126 36.7267C55.3817 36.7267 55.4534 36.7267 55.5224 36.7267C58.9245 36.7267 62.1274 35.4296 64.5574 33.0559C67.0273 30.6477 68.4083 27.4208 68.4428 23.9653C68.4773 20.5709 67.168 17.344 64.7513 14.88L64.7593 14.8827ZM63.0808 31.5355C61.0491 33.5157 58.3721 34.6029 55.5278 34.6029C55.4693 34.6029 55.4109 34.6029 55.3498 34.6029C49.624 34.5099 44.8223 29.5818 44.8675 23.843C44.8914 20.9271 46.0307 18.2185 48.0703 16.217C50.0887 14.2394 52.7843 13.1522 55.6738 13.1522C55.7084 13.1522 55.7429 13.1522 55.7747 13.1522C58.5793 13.1788 61.2297 14.3218 63.2401 16.3712C65.2585 18.4312 66.3527 21.1211 66.3235 23.944C66.2943 26.828 65.1417 29.5233 63.0781 31.5328L63.0808 31.5355Z" fill="#11103D"/>
<path d="M57.004 22.0349C56.4516 22.6356 55.9152 23.2603 55.3734 23.8982L54.5023 24.8923L51.8837 22.8057L50.7258 24.2119L51.804 25.1448C52.3617 25.727 53.0363 26.2028 53.6418 26.7477C53.7082 26.8061 53.772 26.8566 53.833 26.9018L54.7865 27.7258L59.1101 22.4522C59.2296 22.314 59.3597 22.1651 59.4713 22.011L60.1963 21.1258L58.7622 20.0254L57.004 22.0322V22.0349Z" fill="#11103D"/>
</svg>
