<svg width="24" height="24" viewBox="0 0 24 24" fill="none" xmlns="http://www.w3.org/2000/svg">
<g id="icon / ionicons / outline / alert-circle-outline">
<path id="Vector (Stroke)" fill-rule="evenodd" clip-rule="evenodd" d="M2.25 12C2.25 6.61704 6.61704 2.25 12 2.25C17.383 2.25 21.75 6.61704 21.75 12C21.75 17.383 17.383 21.75 12 21.75C6.61704 21.75 2.25 17.383 2.25 12ZM12 3.75C7.44546 3.75 3.75 7.44546 3.75 12C3.75 16.5545 7.44546 20.25 12 20.25C16.5545 20.25 20.25 16.5545 20.25 12C20.25 7.44546 16.5545 3.75 12 3.75Z" fill="#0F172A"/>
<path id="Vector (Stroke)_2" fill-rule="evenodd" clip-rule="evenodd" d="M11.0172 6.53146C10.9831 5.94843 11.4963 5.53125 12 5.53125C12.5037 5.53125 13.0169 5.94843 12.9828 6.53146L12.7374 13.1075C12.7344 13.2975 12.6571 13.4791 12.5215 13.6137C12.3832 13.751 12.1956 13.8281 12 13.8281C11.8044 13.8281 11.6168 13.751 11.4785 13.6137C11.3429 13.4791 11.2656 13.2975 11.2626 13.1075L11.0172 6.53146ZM12.0096 6.51457C12.0096 6.51457 12.0096 6.51453 12.0095 6.51442C12.0096 6.51452 12.0096 6.51457 12.0096 6.51457ZM11.9904 6.51457C11.9904 6.51457 11.9904 6.51452 11.9905 6.51442C11.9904 6.51453 11.9904 6.51458 11.9904 6.51457Z" fill="#0F172A"/>
<path id="Vector (Stroke)_3" fill-rule="evenodd" clip-rule="evenodd" d="M11.0625 16.2656C11.0625 15.722 11.4927 15.2812 12.0234 15.2812C12.5541 15.2812 12.9844 15.722 12.9844 16.2656C12.9844 16.8093 12.5541 17.25 12.0234 17.25C11.4927 17.25 11.0625 16.8093 11.0625 16.2656Z" fill="#0F172A"/>
</g>
</svg>
