<svg width="11" height="11" viewBox="0 0 11 11" fill="none" xmlns="http://www.w3.org/2000/svg">
<path d="M10.3 0H0.7C0.514348 0 0.336301 0.104006 0.205025 0.289138C0.0737498 0.47427 0 0.725363 0 0.987179V2.67949C0 2.9413 0.0737498 3.1924 0.205025 3.37753C0.336301 3.56266 0.514348 3.66667 0.7 3.66667H0.8V10.0128C0.8 10.2746 0.87375 10.5257 1.00503 10.7109C1.1363 10.896 1.31435 11 1.5 11H9.5C9.68565 11 9.8637 10.896 9.99498 10.7109C10.1263 10.5257 10.2 10.2746 10.2 10.0128V3.66667H10.3C10.4857 3.66667 10.6637 3.56266 10.795 3.37753C10.9262 3.1924 11 2.9413 11 2.67949V0.987179C11 0.725363 10.9262 0.47427 10.795 0.289138C10.6637 0.104006 10.4857 0 10.3 0ZM9.6 10.0128C9.6 10.0502 9.58947 10.0861 9.57071 10.1125C9.55196 10.139 9.52652 10.1538 9.5 10.1538H1.5C1.47348 10.1538 1.44804 10.139 1.42929 10.1125C1.41054 10.0861 1.4 10.0502 1.4 10.0128V3.66667H9.6V10.0128ZM10.4 2.67949C10.4 2.71689 10.3895 2.75276 10.3707 2.77921C10.352 2.80566 10.3265 2.82051 10.3 2.82051H0.7C0.673478 2.82051 0.648043 2.80566 0.629289 2.77921C0.610536 2.75276 0.6 2.71689 0.6 2.67949V0.987179C0.6 0.949777 0.610536 0.913907 0.629289 0.887459C0.648043 0.861012 0.673478 0.846154 0.7 0.846154H10.3C10.3265 0.846154 10.352 0.861012 10.3707 0.887459C10.3895 0.913907 10.4 0.949777 10.4 0.987179V2.67949ZM4 6.0641C4 5.9519 4.03161 5.84428 4.08787 5.76494C4.14413 5.6856 4.22044 5.64103 4.3 5.64103H6.7C6.77957 5.64103 6.85587 5.6856 6.91213 5.76494C6.96839 5.84428 7 5.9519 7 6.0641C7 6.17631 6.96839 6.28392 6.91213 6.36326C6.85587 6.44261 6.77957 6.48718 6.7 6.48718H4.3C4.22044 6.48718 4.14413 6.44261 4.08787 6.36326C4.03161 6.28392 4 6.17631 4 6.0641Z" fill="#11103D"/>
</svg>
