<svg width="16" height="14" viewBox="0 0 16 14" fill="none" xmlns="http://www.w3.org/2000/svg">
<path id="Vector" fill-rule="evenodd" clip-rule="evenodd" d="M15.7864 6.48605C15.8541 6.5536 15.9078 6.63385 15.9445 6.7222C15.9811 6.81055 16 6.90527 16 7.00092C16 7.09657 15.9811 7.19129 15.9445 7.27964C15.9078 7.36799 15.8541 7.44824 15.7864 7.51579L9.96864 13.3335C9.83209 13.47 9.64689 13.5468 9.45378 13.5468C9.26066 13.5468 9.07546 13.47 8.93891 13.3335C8.80236 13.1969 8.72564 13.0117 8.72564 12.8186C8.72564 12.6255 8.80236 12.4403 8.93891 12.3038L13.516 7.72813L0.727213 7.72813C0.534344 7.72813 0.349374 7.65152 0.212995 7.51514C0.0766153 7.37876 0 7.19379 0 7.00092C0 6.80805 0.0766153 6.62308 0.212995 6.4867C0.349374 6.35032 0.534344 6.27371 0.727213 6.27371L13.516 6.27371L8.93891 1.69808C8.8713 1.63046 8.81766 1.5502 8.78107 1.46185C8.74448 1.37351 8.72564 1.27883 8.72564 1.18321C8.72564 1.08759 8.74448 0.992907 8.78107 0.904566C8.81766 0.816225 8.8713 0.735956 8.93891 0.668343C9.00652 0.60073 9.08679 0.547096 9.17513 0.510504C9.26347 0.473912 9.35816 0.455078 9.45378 0.455078C9.5494 0.455078 9.64408 0.473912 9.73242 0.510504C9.82076 0.547096 9.90103 0.60073 9.96864 0.668343L15.7864 6.48605Z" fill="#11103D"/>
</svg>
