<svg width="17" height="15" viewBox="0 0 17 15" fill="none" xmlns="http://www.w3.org/2000/svg">
<path id="Vector" d="M2.84112 8.19991L15.8497 8.19991C16.0353 8.19991 16.2133 8.12617 16.3446 7.99491C16.4759 7.86365 16.5496 7.68563 16.5496 7.5C16.5496 7.31437 16.4759 7.13635 16.3446 7.00509C16.2133 6.87383 16.0353 6.80009 15.8497 6.80009L2.84112 6.80009L7.94628 1.69633C8.0777 1.56491 8.15154 1.38666 8.15154 1.2008C8.15154 1.01493 8.0777 0.836683 7.94628 0.705258C7.81485 0.573833 7.6366 0.5 7.45074 0.5C7.26488 0.5 7.08663 0.573833 6.9552 0.705258L0.656 7.00446C0.59082 7.06948 0.539106 7.14672 0.503822 7.23175C0.468538 7.31678 0.450375 7.40794 0.450375 7.5C0.450375 7.59206 0.468538 7.68322 0.503822 7.76825C0.539106 7.85329 0.59082 7.93052 0.656 7.99554L6.9552 14.2947C7.08663 14.4262 7.26488 14.5 7.45074 14.5C7.6366 14.5 7.81485 14.4262 7.94628 14.2947C8.0777 14.1633 8.15154 13.9851 8.15154 13.7992C8.15154 13.6133 8.0777 13.4351 7.94628 13.3037L2.84112 8.19991Z" fill="black"/>
</svg>
