<svg width="13" height="12" viewBox="0 0 13 12" fill="none" xmlns="http://www.w3.org/2000/svg">
<path d="M11.2191 5.8311L6.62415 10.4261C6.06125 10.989 5.29776 11.3053 4.50167 11.3053C3.70557 11.3053 2.94209 10.989 2.37917 10.4261C1.81624 9.8632 1.5 9.0997 1.5 8.3036C1.5 7.5075 1.81624 6.74405 2.37917 6.1811L6.97415 1.58611C7.34945 1.21083 7.85845 1 8.38915 1C8.9199 1 9.4289 1.21083 9.80415 1.58611C10.1794 1.96139 10.3903 2.47039 10.3903 3.00111C10.3903 3.53184 10.1794 4.04083 9.80415 4.41611L5.20417 9.0111C5.01653 9.19875 4.76203 9.30415 4.49667 9.30415C4.23131 9.30415 3.97681 9.19875 3.78917 9.0111C3.60153 8.82345 3.49611 8.569 3.49611 8.3036C3.49611 8.03825 3.60153 7.78375 3.78917 7.5961L8.03415 3.35611" stroke="#8B909A" stroke-linecap="round" stroke-linejoin="round"/>
</svg>
