<svg width="68" height="68" viewBox="0 0 68 68" fill="none" xmlns="http://www.w3.org/2000/svg">
<rect width="68" height="68" rx="34" fill="#F6FAFD"/>
<path d="M42.0382 26.3173H38.9966L38.6424 25.2139C38.4717 24.6782 38.1426 24.212 37.7019 23.8819C37.2612 23.5517 36.7315 23.3743 36.188 23.375H31.812C31.2687 23.3746 30.7391 23.5521 30.2986 23.8822C29.8581 24.2124 29.529 24.6784 29.3583 25.2139L29.0034 26.3173H25.9618C25.276 26.3181 24.6185 26.6014 24.1335 27.105C23.6485 27.6086 23.3757 28.2914 23.375 29.0036V39.8166C23.3765 40.5283 23.6496 41.2104 24.1345 41.7134C24.6194 42.2164 25.2765 42.4992 25.9618 42.5H42.041C42.7264 42.4984 43.3832 42.2148 43.8675 41.7113C44.3519 41.2078 44.6243 40.5254 44.625 39.8137V29.0007C44.6235 28.289 44.3504 27.6069 43.8655 27.1039C43.3806 26.601 42.7235 26.3181 42.0382 26.3173ZM43.2083 39.8137C43.208 40.1358 43.0846 40.4447 42.8652 40.6725C42.6458 40.9003 42.3484 41.0285 42.0382 41.0288H25.9618C25.6516 41.0285 25.3542 40.9003 25.1348 40.6725C24.9154 40.4447 24.792 40.1358 24.7917 39.8137V29.0007C24.7928 28.679 24.9165 28.3709 25.1358 28.1438C25.3551 27.9166 25.6521 27.7888 25.9618 27.7885H29.5141C29.6627 27.7883 29.8075 27.7397 29.928 27.6494C30.0486 27.5591 30.1387 27.4317 30.1856 27.2853L30.702 25.6766C30.7795 25.4347 30.9285 25.2242 31.1277 25.0751C31.327 24.9261 31.5664 24.8459 31.812 24.8462H36.188C36.4337 24.8459 36.6732 24.9261 36.8725 25.0753C37.0718 25.2245 37.2207 25.4352 37.298 25.6774L37.8144 27.2853C37.8613 27.4317 37.9514 27.5591 38.072 27.6494C38.1925 27.7397 38.3373 27.7883 38.4859 27.7885H42.0382C42.3484 27.7889 42.6458 27.917 42.8652 28.1448C43.0846 28.3726 43.208 28.6815 43.2083 29.0036V39.8137Z" fill="#11103D"/>
<path d="M34 28.6875C32.9493 28.6875 31.9222 28.9991 31.0485 29.5828C30.1749 30.1666 29.494 30.9963 29.0919 31.967C28.6898 32.9377 28.5846 34.0059 28.7896 35.0364C28.9946 36.0669 29.5005 37.0135 30.2435 37.7565C30.9865 38.4995 31.9331 39.0054 32.9636 39.2104C33.9941 39.4154 35.0623 39.3102 36.033 38.9081C37.0037 38.506 37.8334 37.8251 38.4172 36.9515C39.0009 36.0778 39.3125 35.0507 39.3125 34C39.311 32.5915 38.7508 31.2411 37.7548 30.2452C36.7589 29.2492 35.4085 28.689 34 28.6875ZM34 37.8958C33.2295 37.8958 32.4763 37.6673 31.8356 37.2393C31.1949 36.8112 30.6956 36.2027 30.4007 35.4909C30.1059 34.779 30.0287 33.9957 30.179 33.24C30.3293 32.4842 30.7004 31.7901 31.2452 31.2452C31.7901 30.7004 32.4842 30.3293 33.24 30.179C33.9957 30.0287 34.779 30.1059 35.4909 30.4007C36.2027 30.6956 36.8112 31.1949 37.2393 31.8356C37.6673 32.4763 37.8958 33.2295 37.8958 34C37.8947 35.0329 37.4839 36.0232 36.7535 36.7535C36.0232 37.4839 35.0329 37.8947 34 37.8958Z" fill="#11103D"/>
<path d="M41.4375 30.8125C42.0243 30.8125 42.5 30.5747 42.5 30.2812C42.5 29.9878 42.0243 29.75 41.4375 29.75C40.8507 29.75 40.375 29.9878 40.375 30.2812C40.375 30.5747 40.8507 30.8125 41.4375 30.8125Z" fill="#11103D"/>
</svg>
