<svg width="24" height="25" viewBox="0 0 24 25" fill="none" xmlns="http://www.w3.org/2000/svg">
	<path d="M15.5998 8.31818V5.61818C15.5998 4.62406 14.7939 3.81818 13.7998 3.81818H10.1998C9.20567 3.81818 8.39978 4.62406 8.39978 5.61818V8.31818M21 12.8182L12.353 14.5476C12.12 14.5941 11.88 14.5941 11.647 14.5476L3 12.8182M3 10.1182C3 9.12406 3.80589 8.31818 4.8 8.31818H19.2C20.1941 8.31818 21 9.12406 21 10.1182V20.0182C21 21.0123 20.1941 21.8182 19.2 21.8182H4.8C3.80589 21.8182 3 21.0123 3 20.0182V10.1182Z" stroke="white" stroke-width="1.5" stroke-linecap="round" stroke-linejoin="round" />
</svg>
