<svg width="25" height="24" viewBox="0 0 25 24" fill="none" xmlns="http://www.w3.org/2000/svg">
<path d="M19.75 15V11.938C19.75 10.8938 19.3352 9.89226 18.5969 9.15377C17.8586 8.41528 16.8572 8.00027 15.813 8H9.686C8.64192 8.00053 7.64079 8.41566 6.90271 9.15412C6.16462 9.89258 5.75 10.8939 5.75 11.938V15C5.75 15.9193 5.93106 16.8295 6.28284 17.6788C6.63463 18.5281 7.15024 19.2997 7.80025 19.9497C8.45026 20.5998 9.22194 21.1154 10.0712 21.4672C10.9205 21.8189 11.8307 22 12.75 22C13.6693 22 14.5795 21.8189 15.4288 21.4672C16.2781 21.1154 17.0497 20.5998 17.6997 19.9497C18.3498 19.2997 18.8654 18.5281 19.2172 17.6788C19.5689 16.8295 19.75 15.9193 19.75 15Z" stroke="#2A2C33" stroke-width="1.5"/>
<path d="M17.25 8.5V7.5C17.25 6.30653 16.7759 5.16193 15.932 4.31802C15.0881 3.47411 13.9435 3 12.75 3C11.5565 3 10.4119 3.47411 9.56802 4.31802C8.72411 5.16193 8.25 6.30653 8.25 7.5V8.5" stroke="#2A2C33" stroke-width="1.5"/>
<path d="M19.75 14H22.75M5.75 14H2.75M15.25 3.5L17.75 2M10.25 3.5L7.75 2M21.25 20L19.25 19.2M21.25 8L19.25 8.8M4.25 20L6.25 19.2M4.25 8L6.25 8.8M12.75 21.5V15" stroke="#2A2C33" stroke-width="1.5" stroke-linecap="round"/>
</svg>
