<svg width="24" height="24" viewBox="0 0 24 24" fill="none" xmlns="http://www.w3.org/2000/svg">
	<path d="M5.25 18.7501C4.65326 18.7501 4.08097 18.513 3.65901 18.0911C3.23705 17.6691 3 17.0968 3 16.5001" stroke="white" stroke-width="1.5" stroke-linecap="round" stroke-linejoin="round" />
	<path d="M3 12.0001V9.75006" stroke="white" stroke-width="1.5" stroke-linecap="round" stroke-linejoin="round" />
	<path d="M3 5.25006C3 4.65332 3.23705 4.08103 3.65901 3.65907C4.08097 3.23711 4.65326 3.00006 5.25 3.00006" stroke="white" stroke-width="1.5" stroke-linecap="round" stroke-linejoin="round" />
	<path d="M9.75 3.00006H12" stroke="white" stroke-width="1.5" stroke-linecap="round" stroke-linejoin="round" />
	<path d="M16.5 3.00006C17.0967 3.00006 17.669 3.23711 18.091 3.65907C18.5129 4.08103 18.75 4.65332 18.75 5.25006" stroke="white" stroke-width="1.5" stroke-linecap="round" stroke-linejoin="round" />
	<path d="M18.75 9.75006V12.0001" stroke="white" stroke-width="1.5" stroke-linecap="round" stroke-linejoin="round" />
	<path d="M18.75 16.5001V21.0001" stroke="white" stroke-width="1.5" stroke-linecap="round" stroke-linejoin="round" />
	<path d="M21 18.7501H16.5" stroke="white" stroke-width="1.5" stroke-linecap="round" stroke-linejoin="round" />
	<path d="M12 18.7501H9.75" stroke="white" stroke-width="1.5" stroke-linecap="round" stroke-linejoin="round" />
</svg>
