<svg width="15" height="15" viewBox="0 0 15 15" fill="none" xmlns="http://www.w3.org/2000/svg">
<g clip-path="url(#clip0_6775_91926)">
<path fill-rule="evenodd" clip-rule="evenodd" d="M5.41992 4.21875C4.75653 4.21875 4.21875 4.75653 4.21875 5.41992V11.9238C4.21875 12.5872 4.75653 13.125 5.41992 13.125H11.9238C12.5872 13.125 13.125 12.5872 13.125 11.9238V5.41992C13.125 4.75653 12.5872 4.21875 11.9238 4.21875H5.41992ZM3.28125 5.41992C3.28125 4.23877 4.23877 3.28125 5.41992 3.28125H11.9238C13.105 3.28125 14.0625 4.23877 14.0625 5.41992V11.9238C14.0625 13.105 13.105 14.0625 11.9238 14.0625H5.41992C4.23877 14.0625 3.28125 13.105 3.28125 11.9238V5.41992Z" fill="#11103D"/>
<path fill-rule="evenodd" clip-rule="evenodd" d="M3.27986 0.937502L3.28125 0.9375H9.60938L9.61071 0.937502C10.1693 0.939091 10.7046 1.1617 11.0996 1.55669C11.4946 1.95168 11.7172 2.48694 11.7187 3.04554C11.7188 3.04924 11.7187 3.05294 11.7186 3.05664L11.704 3.75976C11.6986 4.01859 11.4844 4.22404 11.2256 4.21865C10.9668 4.21326 10.7613 3.99906 10.7667 3.74024L10.7812 3.04314C10.779 2.73409 10.6553 2.43823 10.4366 2.2196C10.217 1.99992 9.91932 1.87605 9.60865 1.875H3.28199C2.90924 1.87627 2.5521 2.02491 2.2885 2.2885C2.02491 2.5521 1.87627 2.90924 1.875 3.28199V9.60865C1.87605 9.91932 1.99992 10.217 2.2196 10.4366C2.43929 10.6563 2.73696 10.7802 3.04763 10.7812H3.75C4.00888 10.7812 4.21875 10.9911 4.21875 11.25C4.21875 11.5089 4.00888 11.7188 3.75 11.7188H3.04688L3.04554 11.7187C2.48694 11.7172 1.95168 11.4946 1.55669 11.0996C1.1617 10.7046 0.939091 10.1693 0.937502 9.61071L0.9375 9.60938V3.28125L0.937502 3.27986C0.939337 2.6592 1.18671 2.06447 1.62559 1.62559C2.06447 1.18671 2.6592 0.939337 3.27986 0.937502Z" fill="#11103D"/>
</g>
<defs>
<clipPath id="clip0_6775_91926">
<rect width="15" height="15" fill="white"/>
</clipPath>
</defs>
</svg>
