<svg width="25" height="24" viewBox="0 0 25 24" fill="none" xmlns="http://www.w3.org/2000/svg">
<path d="M5.25 15H4.25C3.71957 15 3.21086 14.7893 2.83579 14.4142C2.46071 14.0391 2.25 13.5304 2.25 13V4C2.25 3.46957 2.46071 2.96086 2.83579 2.58579C3.21086 2.21071 3.71957 2 4.25 2H13.25C13.7804 2 14.2891 2.21071 14.6642 2.58579C15.0393 2.96086 15.25 3.46957 15.25 4V5M11.25 9H20.25C21.3546 9 22.25 9.89543 22.25 11V20C22.25 21.1046 21.3546 22 20.25 22H11.25C10.1454 22 9.25 21.1046 9.25 20V11C9.25 9.89543 10.1454 9 11.25 9Z" stroke="#2A2C33" stroke-width="1.5" stroke-linecap="round" stroke-linejoin="round"/>
</svg>
