<svg width="88" height="80" viewBox="0 0 88 80" fill="none" xmlns="http://www.w3.org/2000/svg">
<path d="M40 80C34.4667 80 29.2667 78.9493 24.4 76.848C19.5333 74.7467 15.3 71.8973 11.7 68.3C8.1 64.7 5.25067 60.4667 3.152 55.6C1.05333 50.7333 0.00266667 45.5333 0 40C0 34.4667 1.05067 29.2667 3.152 24.4C5.25333 19.5333 8.10267 15.3 11.7 11.7C15.3 8.1 19.5333 5.25067 24.4 3.152C29.2667 1.05333 34.4667 0.00266667 40 0C43.2 0 46.316 0.366667 49.348 1.1C52.38 1.83333 55.2973 2.9 58.1 4.3C59.1 4.83333 59.7507 5.63333 60.052 6.7C60.3533 7.76667 60.1693 8.76667 59.5 9.7C58.8333 10.6333 57.9493 11.2333 56.848 11.5C55.7467 11.7667 54.664 11.6333 53.6 11.1C51.4667 10.1 49.2493 9.33333 46.948 8.8C44.6467 8.26667 42.3307 8 40 8C31.0667 8 23.5 11.1 17.3 17.3C11.1 23.5 8 31.0667 8 40C8 48.9333 11.1 56.5 17.3 62.7C23.5 68.9 31.0667 72 40 72C41.7333 72 43.4333 71.8667 45.1 71.6C46.7667 71.3333 48.4333 70.9333 50.1 70.4C51.2333 70.0667 52.3333 70.0493 53.4 70.348C54.4667 70.6467 55.3 71.2973 55.9 72.3C56.4333 73.2333 56.5493 74.2333 56.248 75.3C55.9467 76.3667 55.264 77.1 54.2 77.5C51.9333 78.3667 49.6 79 47.2 79.4C44.8 79.8 42.4 80 40 80ZM68 60H60C58.8667 60 57.916 59.616 57.148 58.848C56.38 58.08 55.9973 57.1307 56 56C56 54.8667 56.384 53.916 57.152 53.148C57.92 52.38 58.8693 51.9973 60 52H68V44C68 42.8667 68.384 41.916 69.152 41.148C69.92 40.38 70.8693 39.9973 72 40C73.1333 40 74.084 40.384 74.852 41.152C75.62 41.92 76.0027 42.8693 76 44V52H84C85.1333 52 86.084 52.384 86.852 53.152C87.62 53.92 88.0027 54.8693 88 56C88 57.1333 87.616 58.084 86.848 58.852C86.08 59.62 85.1307 60.0027 84 60H76V68C76 69.1333 75.616 70.084 74.848 70.852C74.08 71.62 73.1307 72.0027 72 72C70.8667 72 69.916 71.616 69.148 70.848C68.38 70.08 67.9973 69.1307 68 68V60ZM34.4 47.2L71.6 9.9C72.3333 9.16667 73.2667 8.8 74.4 8.8C75.5333 8.8 76.4667 9.16667 77.2 9.9C77.9333 10.6333 78.3 11.5667 78.3 12.7C78.3 13.8333 77.9333 14.7667 77.2 15.5L37.2 55.6C36.4 56.4 35.4667 56.8 34.4 56.8C33.3333 56.8 32.4 56.4 31.6 55.6L20.2 44.2C19.4667 43.4667 19.1 42.5333 19.1 41.4C19.1 40.2667 19.4667 39.3333 20.2 38.6C20.9333 37.8667 21.8667 37.5 23 37.5C24.1333 37.5 25.0667 37.8667 25.8 38.6L34.4 47.2Z" fill="#11103D"/>
</svg>
