<svg width="12" height="11" viewBox="0 0 12 11" fill="none" xmlns="http://www.w3.org/2000/svg">
<path d="M1.18755 10.8334C1.08452 10.8334 0.98381 10.8028 0.898143 10.7456C0.812476 10.6884 0.745705 10.607 0.706277 10.5118C0.666849 10.4167 0.656535 10.3119 0.676639 10.2109C0.696743 10.1098 0.746363 10.017 0.819221 9.94419L10.4441 0.319255C10.5418 0.221567 10.6742 0.166687 10.8124 0.166687C10.9505 0.166687 11.083 0.221567 11.1807 0.319255C11.2784 0.416942 11.3333 0.549435 11.3333 0.687586C11.3333 0.825737 11.2784 0.958229 11.1807 1.05592L1.55588 10.6809C1.50755 10.7293 1.45014 10.7677 1.38693 10.7938C1.32372 10.82 1.25596 10.8334 1.18755 10.8334Z" fill="#696F7A"/>
<path d="M10.8124 10.8334C10.744 10.8334 10.6762 10.82 10.613 10.7938C10.5498 10.7677 10.4924 10.7293 10.444 10.6809L0.819192 1.05592C0.721506 0.958229 0.666626 0.825737 0.666626 0.687586C0.666626 0.549435 0.721506 0.416942 0.819192 0.319255C0.916879 0.221567 1.04937 0.166687 1.18752 0.166687C1.32567 0.166687 1.45816 0.221567 1.55585 0.319255L11.1807 9.94419C11.2536 10.017 11.3032 10.1098 11.3233 10.2109C11.3434 10.3119 11.3331 10.4167 11.2936 10.5118C11.2542 10.607 11.1874 10.6884 11.1018 10.7456C11.0161 10.8028 10.9154 10.8334 10.8124 10.8334Z" fill="#696F7A"/>
</svg>
