<svg width="183" height="57" viewBox="0 0 183 57" fill="none" xmlns="http://www.w3.org/2000/svg">
<path d="M25.36 31C16.86 20.6533 8.40667 10.36 0 0.12L0.13 0L22.35 21L23.65 19.44C25.4 17.32 27.14 15.2 28.9 13.1C29.1151 12.838 29.4233 12.6695 29.76 12.63C33.14 12.63 36.52 12.63 39.9 12.63C40.05 12.63 40.19 12.63 40.46 12.7L25.36 31Z" fill="#E25E3E"/>
<path d="M21.64 35.64C20.64 36.82 19.73 37.93 18.81 39.05C17.55 40.57 16.3 42.1 15 43.61C14.811 43.8351 14.5423 43.9784 14.25 44.01C10.78 44.01 7.31004 44.01 3.84004 44.01C3.73993 44.0139 3.63967 44.0106 3.54004 44L18.63 25.67C27.11 36.0034 35.5667 46.29 44 56.53L43.89 56.65L21.64 35.64Z" fill="#071952"/>
<path d="M55.759 21.631C56.737 21.631 57.607 21.829 58.369 22.225C59.137 22.615 59.755 23.149 60.223 23.827C60.697 24.505 60.976 25.27 61.06 26.122H58.306C58.222 25.672 58.069 25.273 57.847 24.925C57.625 24.571 57.334 24.295 56.974 24.097C56.614 23.893 56.182 23.791 55.678 23.791C55.072 23.791 54.55 23.938 54.112 24.232C53.674 24.526 53.338 25 53.104 25.654C52.87 26.308 52.753 27.172 52.753 28.246C52.753 29.866 53.011 31.039 53.527 31.765C54.049 32.485 54.766 32.845 55.678 32.845C56.182 32.845 56.614 32.731 56.974 32.503C57.334 32.269 57.625 31.963 57.847 31.585C58.069 31.201 58.222 30.781 58.306 30.325H61.06C60.982 30.943 60.832 31.534 60.61 32.098C60.388 32.656 60.073 33.154 59.665 33.592C59.257 34.03 58.732 34.375 58.09 34.627C57.448 34.879 56.671 35.005 55.759 35.005C54.547 35.005 53.5 34.723 52.618 34.159C51.736 33.595 51.055 32.803 50.575 31.783C50.101 30.763 49.864 29.572 49.864 28.21C49.864 26.842 50.101 25.669 50.575 24.691C51.049 23.707 51.727 22.951 52.609 22.423C53.491 21.895 54.541 21.631 55.759 21.631ZM73.4759 34.825H70.7489L68.6339 29.812H65.9969V34.825H63.3779V21.811H68.8679C69.9059 21.811 70.7549 21.976 71.4149 22.306C72.0749 22.636 72.5609 23.095 72.8729 23.683C73.1849 24.265 73.3409 24.937 73.3409 25.699C73.3409 26.383 73.2329 26.962 73.0169 27.436C72.8069 27.904 72.5279 28.294 72.1799 28.606C71.8379 28.918 71.4629 29.173 71.0549 29.371L73.4759 34.825ZM68.3999 27.787C69.1019 27.787 69.6569 27.598 70.0649 27.22C70.4789 26.842 70.6859 26.356 70.6859 25.762C70.6859 25.162 70.4879 24.688 70.0919 24.34C69.6959 23.992 69.1949 23.818 68.5889 23.818H65.9969V27.787H68.3999ZM81.0389 35.005C79.8089 35.005 78.7439 34.738 77.8439 34.204C76.9499 33.664 76.2569 32.899 75.7649 31.909C75.2789 30.913 75.0359 29.725 75.0359 28.345C75.0359 26.959 75.2819 25.765 75.7739 24.763C76.2719 23.761 76.9709 22.99 77.8709 22.45C78.7709 21.904 79.8269 21.631 81.0389 21.631C82.2449 21.631 83.2949 21.901 84.1889 22.441C85.0829 22.981 85.7729 23.752 86.2589 24.754C86.7509 25.756 86.9969 26.953 86.9969 28.345C86.9969 29.719 86.7539 30.904 86.2679 31.9C85.7879 32.896 85.1009 33.664 84.2069 34.204C83.3129 34.738 82.2569 35.005 81.0389 35.005ZM81.0389 32.845C81.6749 32.845 82.2239 32.695 82.6859 32.395C83.1539 32.089 83.5139 31.609 83.7659 30.955C84.0179 30.295 84.1439 29.437 84.1439 28.381C84.1439 27.295 84.0149 26.416 83.7569 25.744C83.5049 25.072 83.1449 24.58 82.6769 24.268C82.2149 23.95 81.6689 23.791 81.0389 23.791C80.4089 23.791 79.8599 23.95 79.3919 24.268C78.9239 24.58 78.5609 25.075 78.3029 25.753C78.0449 26.425 77.9159 27.301 77.9159 28.381C77.9159 29.443 78.0449 30.301 78.3029 30.955C78.5609 31.609 78.9239 32.089 79.3919 32.395C79.8599 32.695 80.4089 32.845 81.0389 32.845ZM94.2805 35.005C93.6385 35.005 93.0085 34.924 92.3905 34.762C91.7725 34.6 91.2085 34.357 90.6985 34.033C90.1885 33.709 89.7655 33.304 89.4295 32.818C89.0995 32.332 88.9015 31.762 88.8355 31.108H91.5265C91.6165 31.504 91.7875 31.837 92.0395 32.107C92.2915 32.377 92.6095 32.584 92.9935 32.728C93.3775 32.872 93.8035 32.944 94.2715 32.944C94.7515 32.944 95.1895 32.884 95.5855 32.764C95.9815 32.644 96.2995 32.464 96.5395 32.224C96.7795 31.978 96.8995 31.672 96.8995 31.306C96.8995 30.976 96.8005 30.706 96.6025 30.496C96.4105 30.286 96.1495 30.115 95.8195 29.983C95.4895 29.851 95.1145 29.743 94.6945 29.659L92.4445 29.2C91.4605 29.014 90.6805 28.624 90.1045 28.03C89.5285 27.43 89.2315 26.632 89.2135 25.636C89.2075 24.82 89.4235 24.115 89.8615 23.521C90.3055 22.921 90.9055 22.459 91.6615 22.135C92.4235 21.811 93.2755 21.649 94.2175 21.649C95.3395 21.649 96.2815 21.826 97.0435 22.18C97.8115 22.528 98.3935 23.002 98.7895 23.602C99.1915 24.196 99.3985 24.859 99.4105 25.591H96.7735C96.7255 25.135 96.5875 24.772 96.3595 24.502C96.1315 24.232 95.8375 24.037 95.4775 23.917C95.1235 23.797 94.7185 23.737 94.2625 23.737C93.9145 23.737 93.5965 23.776 93.3085 23.854C93.0265 23.932 92.7865 24.043 92.5885 24.187C92.3905 24.325 92.2375 24.49 92.1295 24.682C92.0215 24.874 91.9675 25.09 91.9675 25.33C91.9675 25.708 92.0935 26.014 92.3455 26.248C92.5975 26.482 93.0685 26.674 93.7585 26.824L95.9905 27.283C96.7885 27.439 97.4215 27.67 97.8895 27.976C98.3635 28.282 98.7175 28.627 98.9515 29.011C99.1915 29.395 99.3475 29.788 99.4195 30.19C99.4975 30.586 99.5365 30.952 99.5365 31.288C99.5365 31.99 99.3145 32.623 98.8705 33.187C98.4325 33.745 97.8205 34.189 97.0345 34.519C96.2485 34.843 95.3305 35.005 94.2805 35.005ZM106.919 35.005C106.277 35.005 105.647 34.924 105.029 34.762C104.411 34.6 103.847 34.357 103.337 34.033C102.827 33.709 102.404 33.304 102.068 32.818C101.738 32.332 101.54 31.762 101.474 31.108H104.165C104.255 31.504 104.426 31.837 104.678 32.107C104.93 32.377 105.248 32.584 105.632 32.728C106.016 32.872 106.442 32.944 106.91 32.944C107.39 32.944 107.828 32.884 108.224 32.764C108.62 32.644 108.938 32.464 109.178 32.224C109.418 31.978 109.538 31.672 109.538 31.306C109.538 30.976 109.439 30.706 109.241 30.496C109.049 30.286 108.788 30.115 108.458 29.983C108.128 29.851 107.753 29.743 107.333 29.659L105.083 29.2C104.099 29.014 103.319 28.624 102.743 28.03C102.167 27.43 101.87 26.632 101.852 25.636C101.846 24.82 102.062 24.115 102.5 23.521C102.944 22.921 103.544 22.459 104.3 22.135C105.062 21.811 105.914 21.649 106.856 21.649C107.978 21.649 108.92 21.826 109.682 22.18C110.45 22.528 111.032 23.002 111.428 23.602C111.83 24.196 112.037 24.859 112.049 25.591H109.412C109.364 25.135 109.226 24.772 108.998 24.502C108.77 24.232 108.476 24.037 108.116 23.917C107.762 23.797 107.357 23.737 106.901 23.737C106.553 23.737 106.235 23.776 105.947 23.854C105.665 23.932 105.425 24.043 105.227 24.187C105.029 24.325 104.876 24.49 104.768 24.682C104.66 24.874 104.606 25.09 104.606 25.33C104.606 25.708 104.732 26.014 104.984 26.248C105.236 26.482 105.707 26.674 106.397 26.824L108.629 27.283C109.427 27.439 110.06 27.67 110.528 27.976C111.002 28.282 111.356 28.627 111.59 29.011C111.83 29.395 111.986 29.788 112.058 30.19C112.136 30.586 112.175 30.952 112.175 31.288C112.175 31.99 111.953 32.623 111.509 33.187C111.071 33.745 110.459 34.189 109.673 34.519C108.887 34.843 107.969 35.005 106.919 35.005Z" fill="#071952"/>
<path d="M119.708 21.631C120.686 21.631 121.556 21.829 122.318 22.225C123.086 22.615 123.704 23.149 124.172 23.827C124.646 24.505 124.925 25.27 125.009 26.122H122.255C122.171 25.672 122.018 25.273 121.796 24.925C121.574 24.571 121.283 24.295 120.923 24.097C120.563 23.893 120.131 23.791 119.627 23.791C119.021 23.791 118.499 23.938 118.061 24.232C117.623 24.526 117.287 25 117.053 25.654C116.819 26.308 116.702 27.172 116.702 28.246C116.702 29.866 116.96 31.039 117.476 31.765C117.998 32.485 118.715 32.845 119.627 32.845C120.131 32.845 120.563 32.731 120.923 32.503C121.283 32.269 121.574 31.963 121.796 31.585C122.018 31.201 122.171 30.781 122.255 30.325H125.009C124.931 30.943 124.781 31.534 124.559 32.098C124.337 32.656 124.022 33.154 123.614 33.592C123.206 34.03 122.681 34.375 122.039 34.627C121.397 34.879 120.62 35.005 119.708 35.005C118.496 35.005 117.449 34.723 116.567 34.159C115.685 33.595 115.004 32.803 114.524 31.783C114.05 30.763 113.813 29.572 113.813 28.21C113.813 26.842 114.05 25.669 114.524 24.691C114.998 23.707 115.676 22.951 116.558 22.423C117.44 21.895 118.49 21.631 119.708 21.631ZM135.643 29.236H129.946V34.825H127.327V21.811H129.946V27.031H135.643V21.811H138.271V34.825H135.643V29.236ZM141.179 34.825V21.811H150.116L150.107 24.025H143.816V27.184H149.279V29.353H143.798V32.584L150.206 32.593V34.825H141.179ZM157.835 21.631C158.813 21.631 159.683 21.829 160.445 22.225C161.213 22.615 161.831 23.149 162.299 23.827C162.773 24.505 163.052 25.27 163.136 26.122H160.382C160.298 25.672 160.145 25.273 159.923 24.925C159.701 24.571 159.41 24.295 159.05 24.097C158.69 23.893 158.258 23.791 157.754 23.791C157.148 23.791 156.626 23.938 156.188 24.232C155.75 24.526 155.414 25 155.18 25.654C154.946 26.308 154.829 27.172 154.829 28.246C154.829 29.866 155.087 31.039 155.603 31.765C156.125 32.485 156.842 32.845 157.754 32.845C158.258 32.845 158.69 32.731 159.05 32.503C159.41 32.269 159.701 31.963 159.923 31.585C160.145 31.201 160.298 30.781 160.382 30.325H163.136C163.058 30.943 162.908 31.534 162.686 32.098C162.464 32.656 162.149 33.154 161.741 33.592C161.333 34.03 160.808 34.375 160.166 34.627C159.524 34.879 158.747 35.005 157.835 35.005C156.623 35.005 155.576 34.723 154.694 34.159C153.812 33.595 153.131 32.803 152.651 31.783C152.177 30.763 151.94 29.572 151.94 28.21C151.94 26.842 152.177 25.669 152.651 24.691C153.125 23.707 153.803 22.951 154.685 22.423C155.567 21.895 156.617 21.631 157.835 21.631ZM176.416 34.825H173.554L170.107 28.768L168.181 31.09V34.825H165.454V21.811H168.181V27.769L172.924 21.811H175.939L171.988 26.851L176.416 34.825Z" fill="#E25E3E"/>
</svg>