<svg width="323" height="100" viewBox="0 0 323 100" fill="none" xmlns="http://www.w3.org/2000/svg">
	<g clip-path="url(#clip0_20025_175591)">
		<path d="M45.4649 54.386C30.5526 36.2339 15.7222 18.1754 0.973694 0.210526L1.20176 0L40.1842 36.8421L42.4649 34.1053C45.5351 30.386 48.5877 26.6667 51.6754 22.9825C52.0528 22.5228 52.5935 22.2272 53.1842 22.1579C59.114 22.1579 65.0439 22.1579 70.9737 22.1579C71.2369 22.1579 71.4825 22.1579 71.9562 22.2807L45.4649 54.386Z" fill="#E25E3E" />
		<path d="M38.9386 62.5263C37.1842 64.5964 35.5877 66.5438 33.9737 68.5087C31.7631 71.1754 29.5702 73.8596 27.2895 76.5087C26.9579 76.9036 26.4865 77.155 25.9737 77.2105C19.886 77.2105 13.7983 77.2105 7.71058 77.2105C7.53495 77.2173 7.35905 77.2115 7.18427 77.1929L33.6579 45.035C48.5351 63.1638 63.3714 81.2105 78.1667 99.1754L77.9737 99.3859L38.9386 62.5263Z" fill="white" />
		<path d="M98.7965 37.9491C100.512 37.9491 102.039 38.2965 103.375 38.9912C104.723 39.6754 105.807 40.6123 106.628 41.8017C107.46 42.9912 107.949 44.3333 108.097 45.828H103.265C103.118 45.0386 102.849 44.3386 102.46 43.728C102.07 43.107 101.56 42.6228 100.928 42.2754C100.297 41.9175 99.5386 41.7386 98.6544 41.7386C97.5913 41.7386 96.6755 41.9965 95.907 42.5123C95.1386 43.028 94.5491 43.8596 94.1386 45.007C93.7281 46.1544 93.5228 47.6701 93.5228 49.5544C93.5228 52.3965 93.9755 54.4544 94.8807 55.728C95.7965 56.9912 97.0544 57.6228 98.6544 57.6228C99.5386 57.6228 100.297 57.4228 100.928 57.0228C101.56 56.6122 102.07 56.0754 102.46 55.4123C102.849 54.7386 103.118 54.0017 103.265 53.2017H108.097C107.96 54.2859 107.697 55.3228 107.307 56.3123C106.918 57.2912 106.365 58.1649 105.649 58.9333C104.933 59.7017 104.012 60.307 102.886 60.7491C101.76 61.1912 100.397 61.4123 98.7965 61.4123C96.6702 61.4123 94.8334 60.9175 93.286 59.928C91.7386 58.9386 90.5439 57.5491 89.7018 55.7596C88.8702 53.9701 88.4544 51.8807 88.4544 49.4912C88.4544 47.0912 88.8702 45.0333 89.7018 43.3175C90.5334 41.5912 91.7228 40.2649 93.2702 39.3386C94.8176 38.4123 96.6597 37.9491 98.7965 37.9491ZM129.879 61.0965H125.095L121.384 52.3017H116.758V61.0965H112.163V38.2649H121.795C123.616 38.2649 125.105 38.5544 126.263 39.1333C127.421 39.7123 128.274 40.5175 128.821 41.5491C129.368 42.5701 129.642 43.7491 129.642 45.0859C129.642 46.2859 129.453 47.3017 129.074 48.1333C128.705 48.9544 128.216 49.6386 127.605 50.1859C127.005 50.7333 126.347 51.1807 125.632 51.528L129.879 61.0965ZM120.974 48.7491C122.205 48.7491 123.179 48.4175 123.895 47.7544C124.621 47.0912 124.984 46.2386 124.984 45.1965C124.984 44.1438 124.637 43.3123 123.942 42.7017C123.247 42.0912 122.368 41.7859 121.305 41.7859H116.758V48.7491H120.974ZM143.147 61.4123C140.989 61.4123 139.121 60.9438 137.542 60.007C135.974 59.0596 134.758 57.7175 133.895 55.9807C133.042 54.2333 132.616 52.1491 132.616 49.728C132.616 47.2965 133.047 45.2017 133.91 43.4438C134.784 41.6859 136.01 40.3333 137.589 39.3859C139.168 38.428 141.021 37.9491 143.147 37.9491C145.263 37.9491 147.105 38.4228 148.674 39.3701C150.242 40.3175 151.452 41.6701 152.305 43.428C153.168 45.1859 153.6 47.2859 153.6 49.728C153.6 52.1386 153.174 54.2175 152.321 55.9649C151.479 57.7123 150.274 59.0596 148.705 60.007C147.137 60.9438 145.284 61.4123 143.147 61.4123ZM143.147 57.6228C144.263 57.6228 145.226 57.3596 146.037 56.8333C146.858 56.2965 147.489 55.4544 147.931 54.307C148.374 53.1491 148.595 51.6438 148.595 49.7912C148.595 47.8859 148.368 46.3438 147.916 45.1649C147.474 43.9859 146.842 43.1228 146.021 42.5754C145.21 42.0175 144.252 41.7386 143.147 41.7386C142.042 41.7386 141.079 42.0175 140.258 42.5754C139.437 43.1228 138.8 43.9912 138.347 45.1807C137.895 46.3596 137.668 47.8965 137.668 49.7912C137.668 51.6544 137.895 53.1596 138.347 54.307C138.8 55.4544 139.437 56.2965 140.258 56.8333C141.079 57.3596 142.042 57.6228 143.147 57.6228ZM166.378 61.4123C165.252 61.4123 164.147 61.2701 163.062 60.9859C161.978 60.7017 160.989 60.2754 160.094 59.707C159.199 59.1386 158.457 58.428 157.868 57.5754C157.289 56.7228 156.941 55.7228 156.826 54.5754H161.547C161.705 55.2701 162.005 55.8544 162.447 56.328C162.889 56.8017 163.447 57.1649 164.12 57.4175C164.794 57.6701 165.541 57.7965 166.362 57.7965C167.205 57.7965 167.973 57.6912 168.668 57.4807C169.362 57.2701 169.92 56.9544 170.341 56.5333C170.762 56.1017 170.973 55.5649 170.973 54.9228C170.973 54.3438 170.799 53.8701 170.452 53.5017C170.115 53.1333 169.657 52.8333 169.078 52.6017C168.499 52.3701 167.841 52.1807 167.105 52.0333L163.157 51.228C161.431 50.9017 160.062 50.2175 159.052 49.1754C158.041 48.1228 157.52 46.7228 157.489 44.9754C157.478 43.5438 157.857 42.307 158.626 41.2649C159.405 40.2123 160.457 39.4017 161.784 38.8333C163.12 38.2649 164.615 37.9807 166.268 37.9807C168.236 37.9807 169.889 38.2912 171.226 38.9123C172.573 39.5228 173.594 40.3544 174.289 41.407C174.994 42.4491 175.357 43.6123 175.378 44.8965H170.752C170.668 44.0965 170.426 43.4596 170.026 42.9859C169.626 42.5123 169.11 42.1701 168.478 41.9596C167.857 41.7491 167.147 41.6438 166.347 41.6438C165.736 41.6438 165.178 41.7123 164.673 41.8491C164.178 41.9859 163.757 42.1807 163.41 42.4333C163.062 42.6754 162.794 42.9649 162.605 43.3017C162.415 43.6386 162.32 44.0175 162.32 44.4386C162.32 45.1017 162.541 45.6386 162.984 46.0491C163.426 46.4596 164.252 46.7965 165.462 47.0596L169.378 47.8649C170.778 48.1386 171.889 48.5438 172.71 49.0807C173.541 49.6175 174.162 50.2228 174.573 50.8965C174.994 51.5701 175.268 52.2596 175.394 52.9649C175.531 53.6596 175.599 54.3017 175.599 54.8912C175.599 56.1228 175.21 57.2333 174.431 58.2228C173.662 59.2017 172.589 59.9807 171.21 60.5596C169.831 61.128 168.22 61.4123 166.378 61.4123ZM188.551 61.4123C187.425 61.4123 186.319 61.2701 185.235 60.9859C184.151 60.7017 183.161 60.2754 182.267 59.707C181.372 59.1386 180.63 58.428 180.04 57.5754C179.461 56.7228 179.114 55.7228 178.998 54.5754H183.719C183.877 55.2701 184.177 55.8544 184.619 56.328C185.061 56.8017 185.619 57.1649 186.293 57.4175C186.967 57.6701 187.714 57.7965 188.535 57.7965C189.377 57.7965 190.146 57.6912 190.84 57.4807C191.535 57.2701 192.093 56.9544 192.514 56.5333C192.935 56.1017 193.146 55.5649 193.146 54.9228C193.146 54.3438 192.972 53.8701 192.625 53.5017C192.288 53.1333 191.83 52.8333 191.251 52.6017C190.672 52.3701 190.014 52.1807 189.277 52.0333L185.33 51.228C183.604 50.9017 182.235 50.2175 181.225 49.1754C180.214 48.1228 179.693 46.7228 179.661 44.9754C179.651 43.5438 180.03 42.307 180.798 41.2649C181.577 40.2123 182.63 39.4017 183.956 38.8333C185.293 38.2649 186.788 37.9807 188.44 37.9807C190.409 37.9807 192.061 38.2912 193.398 38.9123C194.746 39.5228 195.767 40.3544 196.461 41.407C197.167 42.4491 197.53 43.6123 197.551 44.8965H192.925C192.84 44.0965 192.598 43.4596 192.198 42.9859C191.798 42.5123 191.282 42.1701 190.651 41.9596C190.03 41.7491 189.319 41.6438 188.519 41.6438C187.909 41.6438 187.351 41.7123 186.846 41.8491C186.351 41.9859 185.93 42.1807 185.582 42.4333C185.235 42.6754 184.967 42.9649 184.777 43.3017C184.588 43.6386 184.493 44.0175 184.493 44.4386C184.493 45.1017 184.714 45.6386 185.156 46.0491C185.598 46.4596 186.425 46.7965 187.635 47.0596L191.551 47.8649C192.951 48.1386 194.061 48.5438 194.882 49.0807C195.714 49.6175 196.335 50.2228 196.746 50.8965C197.167 51.5701 197.44 52.2596 197.567 52.9649C197.704 53.6596 197.772 54.3017 197.772 54.8912C197.772 56.1228 197.382 57.2333 196.604 58.2228C195.835 59.2017 194.761 59.9807 193.382 60.5596C192.004 61.128 190.393 61.4123 188.551 61.4123Z" fill="white" />
		<path d="M210.988 37.9491C212.704 37.9491 214.23 38.2965 215.567 38.9912C216.914 39.6754 217.998 40.6123 218.819 41.8017C219.651 42.9912 220.14 44.3333 220.288 45.828H215.456C215.309 45.0386 215.04 44.3386 214.651 43.728C214.261 43.107 213.751 42.6228 213.119 42.2754C212.488 41.9175 211.73 41.7386 210.846 41.7386C209.782 41.7386 208.867 41.9965 208.098 42.5123C207.33 43.028 206.74 43.8596 206.33 45.007C205.919 46.1544 205.714 47.6701 205.714 49.5544C205.714 52.3965 206.167 54.4544 207.072 55.728C207.988 56.9912 209.246 57.6228 210.846 57.6228C211.73 57.6228 212.488 57.4228 213.119 57.0228C213.751 56.6122 214.261 56.0754 214.651 55.4123C215.04 54.7386 215.309 54.0017 215.456 53.2017H220.288C220.151 54.2859 219.888 55.3228 219.498 56.3123C219.109 57.2912 218.556 58.1649 217.84 58.9333C217.125 59.7017 216.204 60.307 215.077 60.7491C213.951 61.1912 212.588 61.4123 210.988 61.4123C208.861 61.4123 207.025 60.9175 205.477 59.928C203.93 58.9386 202.735 57.5491 201.893 55.7596C201.061 53.9701 200.646 51.8807 200.646 49.4912C200.646 47.0912 201.061 45.0333 201.893 43.3175C202.725 41.5912 203.914 40.2649 205.461 39.3386C207.009 38.4123 208.851 37.9491 210.988 37.9491ZM238.944 51.2912H228.949V61.0965H224.354V38.2649H228.949V47.4228H238.944V38.2649H243.554V61.0965H238.944V51.2912ZM248.656 61.0965V38.2649H264.335L264.319 42.1491H253.282V47.6912H262.867V51.4965H253.251V57.1649L264.493 57.1807V61.0965H248.656ZM277.877 37.9491C279.593 37.9491 281.119 38.2965 282.456 38.9912C283.804 39.6754 284.888 40.6123 285.709 41.8017C286.54 42.9912 287.03 44.3333 287.177 45.828H282.346C282.198 45.0386 281.93 44.3386 281.54 43.728C281.151 43.107 280.64 42.6228 280.009 42.2754C279.377 41.9175 278.619 41.7386 277.735 41.7386C276.672 41.7386 275.756 41.9965 274.988 42.5123C274.219 43.028 273.63 43.8596 273.219 45.007C272.809 46.1544 272.604 47.6701 272.604 49.5544C272.604 52.3965 273.056 54.4544 273.961 55.728C274.877 56.9912 276.135 57.6228 277.735 57.6228C278.619 57.6228 279.377 57.4228 280.009 57.0228C280.64 56.6122 281.151 56.0754 281.54 55.4123C281.93 54.7386 282.198 54.0017 282.346 53.2017H287.177C287.04 54.2859 286.777 55.3228 286.388 56.3123C285.998 57.2912 285.446 58.1649 284.73 58.9333C284.014 59.7017 283.093 60.307 281.967 60.7491C280.84 61.1912 279.477 61.4123 277.877 61.4123C275.751 61.4123 273.914 60.9175 272.367 59.928C270.819 58.9386 269.625 57.5491 268.782 55.7596C267.951 53.9701 267.535 51.8807 267.535 49.4912C267.535 47.0912 267.951 45.0333 268.782 43.3175C269.614 41.5912 270.804 40.2649 272.351 39.3386C273.898 38.4123 275.74 37.9491 277.877 37.9491ZM310.475 61.0965H305.454L299.407 50.4701L296.028 54.5438V61.0965H291.244V38.2649H296.028V48.7175L304.349 38.2649H309.639L302.707 47.107L310.475 61.0965Z" fill="#E25E3E" />
	</g>
	<defs>
		<clipPath id="clip0_20025_175591">
			<rect width="321.053" height="100" fill="white" transform="translate(0.973694)" />
		</clipPath>
	</defs>
</svg>
