<svg width="31" height="30" viewBox="0 0 31 30" fill="none" xmlns="http://www.w3.org/2000/svg">
<rect x="0.70731" y="0.642857" width="29.6498" height="28.7143" rx="1.92857" stroke="#D6D6D6" stroke-width="1.28571"/>
<path d="M20.344 11.6026C20.4322 11.5174 20.5026 11.4154 20.551 11.3026C20.5994 11.1897 20.6249 11.0684 20.626 10.9456C20.6272 10.8228 20.6039 10.701 20.5575 10.5874C20.5112 10.4737 20.4427 10.3704 20.3561 10.2835C20.2695 10.1966 20.1665 10.1279 20.0531 10.0814C19.9397 10.0348 19.8181 10.0114 19.6956 10.0124C19.5731 10.0134 19.452 10.0388 19.3393 10.0872C19.2267 10.1357 19.1248 10.2061 19.0397 10.2943L15.3407 13.9998L11.643 10.2943C11.5585 10.2035 11.4566 10.1306 11.3434 10.0801C11.2302 10.0295 11.108 10.0023 10.9841 10.0001C10.8602 9.99795 10.7371 10.0208 10.6222 10.0673C10.5073 10.1138 10.4029 10.1831 10.3152 10.2709C10.2276 10.3587 10.1585 10.4633 10.1121 10.5785C10.0657 10.6936 10.0429 10.817 10.0451 10.9411C10.0473 11.0653 10.0744 11.1878 10.1248 11.3012C10.1753 11.4147 10.248 11.5168 10.3387 11.6014L14.0339 15.3081L10.3362 19.0135C10.1732 19.1888 10.0844 19.4207 10.0886 19.6603C10.0929 19.8999 10.1897 20.1285 10.3588 20.2979C10.5279 20.4673 10.756 20.5644 10.9951 20.5686C11.2342 20.5728 11.4656 20.4839 11.6405 20.3206L15.3407 16.6151L19.0384 20.3218C19.2134 20.4851 19.4448 20.5741 19.6839 20.5699C19.923 20.5656 20.1511 20.4686 20.3202 20.2991C20.4893 20.1297 20.5861 19.9011 20.5903 19.6615C20.5946 19.4219 20.5058 19.19 20.3428 19.0147L16.6475 15.3081L20.344 11.6026Z" fill="#E02B2B"/>
</svg>
