<svg width="32" height="30" viewBox="0 0 32 30" fill="none" xmlns="http://www.w3.org/2000/svg">
<rect x="0.935547" width="30.9356" height="30" rx="2.57143" fill="#E02B2B"/>
<path d="M21.2141 11.6026C21.3023 11.5174 21.3727 11.4154 21.4211 11.3026C21.4695 11.1897 21.495 11.0684 21.4962 10.9456C21.4973 10.8228 21.474 10.701 21.4276 10.5874C21.3813 10.4737 21.3128 10.3704 21.2262 10.2835C21.1396 10.1966 21.0366 10.1279 20.9232 10.0814C20.8098 10.0348 20.6883 10.0114 20.5657 10.0124C20.4432 10.0134 20.3221 10.0388 20.2095 10.0872C20.0968 10.1357 19.995 10.2061 19.9098 10.2943L16.2108 13.9998L12.5131 10.2943C12.4286 10.2035 12.3267 10.1306 12.2135 10.0801C12.1003 10.0295 11.9781 10.0023 11.8542 10.0001C11.7303 9.99795 11.6072 10.0208 11.4923 10.0673C11.3774 10.1138 11.273 10.1831 11.1853 10.2709C11.0977 10.3587 11.0286 10.4633 10.9822 10.5785C10.9358 10.6936 10.913 10.817 10.9152 10.9411C10.9174 11.0653 10.9445 11.1878 10.9949 11.3012C11.0454 11.4147 11.1181 11.5168 11.2088 11.6014L14.904 15.3081L11.2063 19.0135C11.0433 19.1888 10.9545 19.4207 10.9588 19.6603C10.963 19.8999 11.0598 20.1285 11.2289 20.2979C11.398 20.4673 11.6261 20.5644 11.8652 20.5686C12.1043 20.5728 12.3357 20.4839 12.5107 20.3206L16.2108 16.6151L19.9086 20.3218C20.0835 20.4851 20.3149 20.5741 20.554 20.5699C20.7931 20.5656 21.0212 20.4686 21.1903 20.2991C21.3594 20.1297 21.4562 19.9011 21.4605 19.6615C21.4647 19.4219 21.3759 19.19 21.2129 19.0147L17.5177 15.3081L21.2141 11.6026Z" fill="white"/>
</svg>
