<svg width="15" height="15" viewBox="0 0 15 15" fill="none" xmlns="http://www.w3.org/2000/svg">
<path d="M12.75 15H2.25C1.65326 15 1.08097 14.7629 0.65901 14.341C0.237053 13.919 0 13.3467 0 12.75L0 2.775C0 2.39707 0.150133 2.03461 0.417373 1.76737C0.684612 1.50013 1.04707 1.35 1.425 1.35H3.375V0.75C3.375 0.551088 3.45402 0.360322 3.59467 0.21967C3.73532 0.0790177 3.92609 3.16101e-08 4.125 3.16101e-08C4.32391 3.16101e-08 4.51468 0.0790177 4.65533 0.21967C4.79598 0.360322 4.875 0.551088 4.875 0.75V1.35H10.8V0.75C10.8 0.651509 10.8194 0.553982 10.8571 0.462987C10.8948 0.371993 10.95 0.289314 11.0197 0.21967C11.0893 0.150026 11.172 0.0947814 11.263 0.0570904C11.354 0.0193993 11.4515 0 11.55 0C11.6485 0 11.746 0.0193993 11.837 0.0570904C11.928 0.0947814 12.0107 0.150026 12.0803 0.21967C12.15 0.289314 12.2052 0.371993 12.2429 0.462987C12.2806 0.553982 12.3 0.651509 12.3 0.75V1.35H13.575C13.9529 1.35 14.3154 1.50013 14.5826 1.76737C14.8499 2.03461 15 2.39707 15 2.775V12.75C15 13.3467 14.7629 13.919 14.341 14.341C13.919 14.7629 13.3467 15 12.75 15ZM1.5 5.55V12.75C1.5 12.9489 1.57902 13.1397 1.71967 13.2803C1.86032 13.421 2.05109 13.5 2.25 13.5H12.75C12.9489 13.5 13.1397 13.421 13.2803 13.2803C13.421 13.1397 13.5 12.9489 13.5 12.75V5.55H1.5ZM1.5 2.85V4.05H13.5V2.85H12.3C12.2823 3.03577 12.196 3.20827 12.058 3.33382C11.9199 3.45936 11.74 3.52893 11.5534 3.52893C11.3668 3.52893 11.1869 3.45936 11.0488 3.33382C10.9107 3.20827 10.8244 3.03577 10.8068 2.85H4.875C4.875 3.04891 4.79598 3.23968 4.65533 3.38033C4.51468 3.52098 4.32391 3.6 4.125 3.6C3.92609 3.6 3.73532 3.52098 3.59467 3.38033C3.45402 3.23968 3.375 3.04891 3.375 2.85H1.5ZM8.85 10.95H3.45C3.25109 10.95 3.06032 10.871 2.91967 10.7303C2.77902 10.5897 2.7 10.3989 2.7 10.2C2.7 10.0011 2.77902 9.81032 2.91967 9.66967C3.06032 9.52902 3.25109 9.45 3.45 9.45H8.85C9.04891 9.45 9.23968 9.52902 9.38033 9.66967C9.52098 9.81032 9.6 10.0011 9.6 10.2C9.6 10.3989 9.52098 10.5897 9.38033 10.7303C9.23968 10.871 9.04891 10.95 8.85 10.95ZM6.15 8.25H3.45C3.25109 8.25 3.06032 8.17098 2.91967 8.03033C2.77902 7.88968 2.7 7.69891 2.7 7.5C2.7 7.30109 2.77902 7.11032 2.91967 6.96967C3.06032 6.82902 3.25109 6.75 3.45 6.75H6.15C6.34891 6.75 6.53968 6.82902 6.68033 6.96967C6.82098 7.11032 6.9 7.30109 6.9 7.5C6.9 7.69891 6.82098 7.88968 6.68033 8.03033C6.53968 8.17098 6.34891 8.25 6.15 8.25Z" fill="#8B909A"/>
</svg>
