<svg width="14" height="16" viewBox="0 0 14 16" stroke="grey" fill="none" xmlns="http://www.w3.org/2000/svg">
<path d="M12.6538 2H9.69231V1.5C9.69231 0.672906 8.96764 0 8.07692 0H5.92308C5.03236 0 4.30769 0.672906 4.30769 1.5V2H1.34615C0.603885 2 0 2.56075 0 3.25V5C0 5.27612 0.241096 5.5 0.538462 5.5H0.832731L1.29793 14.5713C1.33902 15.3725 2.04777 16 2.91146 16H11.0885C11.9523 16 12.661 15.3725 12.7021 14.5713L13.1673 5.5H13.4615C13.7589 5.5 14 5.27612 14 5V3.25C14 2.56075 13.3961 2 12.6538 2ZM5.38462 1.5C5.38462 1.22431 5.62618 1 5.92308 1H8.07692C8.37382 1 8.61539 1.22431 8.61539 1.5V2H5.38462V1.5ZM1.07692 3.25C1.07692 3.11216 1.19771 3 1.34615 3H12.6538C12.8023 3 12.9231 3.11216 12.9231 3.25V4.5C12.7571 4.5 1.76457 4.5 1.07692 4.5V3.25ZM11.6264 14.5238C11.6127 14.7908 11.3764 15 11.0885 15H2.91146C2.62355 15 2.3873 14.7908 2.37364 14.5238L1.91087 5.5H12.0891L11.6264 14.5238Z" fill="#11103D"/>
<path d="M7.00001 14C7.29737 14 7.53847 13.7761 7.53847 13.5V7C7.53847 6.72387 7.29737 6.5 7.00001 6.5C6.70264 6.5 6.46155 6.72387 6.46155 7V13.5C6.46155 13.7761 6.70261 14 7.00001 14Z" fill="#11103D"/>
<path d="M9.69233 14C9.9897 14 10.2308 13.7761 10.2308 13.5V7C10.2308 6.72387 9.9897 6.5 9.69233 6.5C9.39497 6.5 9.15387 6.72387 9.15387 7V13.5C9.15387 13.7761 9.39493 14 9.69233 14Z" fill="#11103D"/>
<path d="M4.30769 14C4.60505 14 4.84615 13.7761 4.84615 13.5V7C4.84615 6.72387 4.60505 6.5 4.30769 6.5C4.01032 6.5 3.76923 6.72387 3.76923 7V13.5C3.76923 13.7761 4.01029 14 4.30769 14Z" fill="#11103D"/>
</svg>
