<svg width="38" height="30" viewBox="0 0 38 30" fill="none" xmlns="http://www.w3.org/2000/svg">
<rect x="1.24741" y="0.532561" width="35.3634" height="28.9349" rx="4.79305" stroke="#11103D" stroke-width="1.06512"/>
<path d="M24.9874 8.57059H21.8143V8.03488C21.8143 7.14871 21.0379 6.42773 20.0835 6.42773H17.7758C16.8215 6.42773 16.0451 7.14871 16.0451 8.03488V8.57059H12.872C12.0767 8.57059 11.4297 9.1714 11.4297 9.90988V11.7849C11.4297 12.0807 11.688 12.3206 12.0066 12.3206H12.3219L12.8203 22.0399C12.8644 22.8982 13.6237 23.5706 14.5491 23.5706H23.3103C24.2357 23.5706 24.9951 22.8982 25.039 22.0399L25.5375 12.3206H25.8528C26.1714 12.3206 26.4297 12.0807 26.4297 11.7849V9.90988C26.4297 9.1714 25.7827 8.57059 24.9874 8.57059ZM17.1989 8.03488C17.1989 7.7395 17.4577 7.49916 17.7758 7.49916H20.0835C20.4016 7.49916 20.6605 7.7395 20.6605 8.03488V8.57059H17.1989V8.03488ZM12.5835 9.90988C12.5835 9.76219 12.7129 9.64202 12.872 9.64202H24.9874C25.1464 9.64202 25.2758 9.76219 25.2758 9.90988V11.2492C25.098 11.2492 13.3203 11.2492 12.5835 11.2492V9.90988ZM23.8865 21.9889C23.8718 22.275 23.6187 22.4992 23.3103 22.4992H14.5491C14.2406 22.4992 13.9875 22.275 13.9729 21.9889L13.477 12.3206H24.3823L23.8865 21.9889Z" fill="#11103D"/>
<path d="M18.9285 21.4283C19.2471 21.4283 19.5054 21.1884 19.5054 20.8926V13.9283C19.5054 13.6324 19.2471 13.3926 18.9285 13.3926C18.6099 13.3926 18.3516 13.6324 18.3516 13.9283V20.8926C18.3516 21.1884 18.6098 21.4283 18.9285 21.4283Z" fill="#11103D"/>
<path d="M21.8152 21.4283C22.1338 21.4283 22.3921 21.1884 22.3921 20.8926V13.9283C22.3921 13.6324 22.1338 13.3926 21.8152 13.3926C21.4966 13.3926 21.2383 13.6324 21.2383 13.9283V20.8926C21.2383 21.1884 21.4966 21.4283 21.8152 21.4283Z" fill="#11103D"/>
<path d="M16.0457 21.4283C16.3643 21.4283 16.6226 21.1884 16.6226 20.8926V13.9283C16.6226 13.6324 16.3643 13.3926 16.0457 13.3926C15.7271 13.3926 15.4688 13.6324 15.4688 13.9283V20.8926C15.4688 21.1884 15.727 21.4283 16.0457 21.4283Z" fill="#11103D"/>
</svg>
