<svg width="16" height="16" viewBox="0 0 16 16" fill="none" xmlns="http://www.w3.org/2000/svg">
    <path
        d="M4.66667 2.66667C4.66667 3.03486 4.96514 3.33333 5.33333 3.33333C5.70152 3.33333 6 3.03486 6 2.66667C6 2.29848 5.70152 2 5.33333 2C4.96514 2 4.66667 2.29848 4.66667 2.66667Z"
        stroke="white" />
    <path
        d="M9.9987 2.66667C9.9987 3.03486 10.2972 3.33333 10.6654 3.33333C11.0336 3.33333 11.332 3.03486 11.332 2.66667C11.332 2.29848 11.0336 2 10.6654 2C10.2972 2 9.9987 2.29848 9.9987 2.66667Z"
        stroke="white" />
    <path
        d="M4.66667 8.00016C4.66667 8.36835 4.96514 8.66683 5.33333 8.66683C5.70152 8.66683 6 8.36835 6 8.00016C6 7.63197 5.70152 7.3335 5.33333 7.3335C4.96514 7.3335 4.66667 7.63197 4.66667 8.00016Z"
        stroke="white" />
    <path
        d="M9.9987 8.00016C9.9987 8.36835 10.2972 8.66683 10.6654 8.66683C11.0336 8.66683 11.332 8.36835 11.332 8.00016C11.332 7.63197 11.0336 7.3335 10.6654 7.3335C10.2972 7.3335 9.9987 7.63197 9.9987 8.00016Z"
        stroke="white" />
    <path
        d="M4.66667 13.3332C4.66667 13.7014 4.96514 13.9998 5.33333 13.9998C5.70152 13.9998 6 13.7014 6 13.3332C6 12.965 5.70152 12.6665 5.33333 12.6665C4.96514 12.6665 4.66667 12.965 4.66667 13.3332Z"
        stroke="white" />
    <path
        d="M9.9987 13.3332C9.9987 13.7014 10.2972 13.9998 10.6654 13.9998C11.0336 13.9998 11.332 13.7014 11.332 13.3332C11.332 12.965 11.0336 12.6665 10.6654 12.6665C10.2972 12.6665 9.9987 12.965 9.9987 13.3332Z"
        stroke="white" />
</svg>