<svg width="24" height="25" viewBox="0 0 24 25" fill="none" xmlns="http://www.w3.org/2000/svg">
<path d="M7 4.5C7 5.05228 7.44772 5.5 8 5.5C8.55228 5.5 9 5.05228 9 4.5C9 3.94772 8.55228 3.5 8 3.5C7.44772 3.5 7 3.94772 7 4.5Z" stroke="#11103D" stroke-width="2"/>
<path d="M15 4.5C15 5.05228 15.4477 5.5 16 5.5C16.5523 5.5 17 5.05228 17 4.5C17 3.94772 16.5523 3.5 16 3.5C15.4477 3.5 15 3.94772 15 4.5Z" stroke="#11103D" stroke-width="2"/>
<path d="M7 12.5C7 13.0523 7.44772 13.5 8 13.5C8.55228 13.5 9 13.0523 9 12.5C9 11.9477 8.55228 11.5 8 11.5C7.44772 11.5 7 11.9477 7 12.5Z" stroke="#11103D" stroke-width="2"/>
<path d="M15 12.5C15 13.0523 15.4477 13.5 16 13.5C16.5523 13.5 17 13.0523 17 12.5C17 11.9477 16.5523 11.5 16 11.5C15.4477 11.5 15 11.9477 15 12.5Z" stroke="#11103D" stroke-width="2"/>
<path d="M7 20.5C7 21.0523 7.44772 21.5 8 21.5C8.55228 21.5 9 21.0523 9 20.5C9 19.9477 8.55228 19.5 8 19.5C7.44772 19.5 7 19.9477 7 20.5Z" stroke="#11103D" stroke-width="2"/>
<path d="M15 20.5C15 21.0523 15.4477 21.5 16 21.5C16.5523 21.5 17 21.0523 17 20.5C17 19.9477 16.5523 19.5 16 19.5C15.4477 19.5 15 19.9477 15 20.5Z" stroke="#11103D" stroke-width="2"/>
</svg>
