<svg width="150" height="150" viewBox="0 0 150 150" fill="none" xmlns="http://www.w3.org/2000/svg">
<circle cx="75" cy="75" r="74.5" fill="#F8F8F8" stroke="#BBBFC1" stroke-linecap="round" stroke-linejoin="round" stroke-dasharray="6 6"/>
<path d="M64.3418 48.1839C64.1487 47.9903 64.0402 47.7279 64.0402 47.4545C64.0402 47.181 64.1487 46.9186 64.3418 46.725L69.7641 41.3027C69.9599 41.1088 70.2244 41 70.5 41C70.7756 41 71.0401 41.1088 71.2359 41.3027L76.6582 46.725C76.8513 46.9186 76.9598 47.181 76.9598 47.4545C76.9598 47.7279 76.8513 47.9903 76.6582 48.1839C76.5621 48.2815 76.4475 48.359 76.3212 48.4119C76.1948 48.4648 76.0592 48.492 75.9223 48.492C75.7853 48.492 75.6497 48.4648 75.5234 48.4119C75.397 48.359 75.2825 48.2815 75.1864 48.1839L71.5328 44.5303V56.498C71.5328 56.772 71.424 57.0347 71.2303 57.2284C71.0366 57.422 70.7739 57.5309 70.5 57.5309C70.2261 57.5309 69.9634 57.422 69.7697 57.2284C69.576 57.0347 69.4672 56.772 69.4672 56.498V44.5303L65.8136 48.1839C65.7175 48.2815 65.6029 48.359 65.4766 48.4119C65.3503 48.4648 65.2147 48.492 65.0777 48.492C64.9407 48.492 64.8052 48.4648 64.6788 48.4119C64.5525 48.359 64.4379 48.2815 64.3418 48.1839ZM81.861 55.4652C81.587 55.4652 81.3243 55.574 81.1307 55.7677C80.937 55.9614 80.8281 56.2241 80.8281 56.498V63.7278H60.1718V56.498C60.1718 56.2241 60.063 55.9614 59.8693 55.7677C59.6756 55.574 59.4129 55.4652 59.139 55.4652C58.8651 55.4652 58.6024 55.574 58.4087 55.7677C58.215 55.9614 58.1062 56.2241 58.1062 56.498V63.7278C58.1062 64.2756 58.3238 64.801 58.7112 65.1884C59.0986 65.5758 59.624 65.7934 60.1718 65.7934H80.8281C81.376 65.7934 81.9014 65.5758 82.2888 65.1884C82.6762 64.801 82.8938 64.2756 82.8938 63.7278V56.498C82.8938 56.2241 82.785 55.9614 82.5913 55.7677C82.3976 55.574 82.1349 55.4652 81.861 55.4652Z" fill="#BBBFC1"/>
<path d="M43.5093 89.7935H42.1426L42.1514 88.9189H43.5093C43.9048 88.9189 44.2358 88.8325 44.5024 88.6597C44.772 88.4868 44.9741 88.2393 45.1089 87.917C45.2466 87.5947 45.3154 87.2109 45.3154 86.7656V86.4185C45.3154 86.0728 45.2759 85.7666 45.1968 85.5C45.1206 85.2334 45.0063 85.0093 44.854 84.8276C44.7046 84.646 44.52 84.5083 44.3003 84.4146C44.0835 84.3208 43.833 84.2739 43.5488 84.2739H42.1162V83.395H43.5488C43.9736 83.395 44.3618 83.4668 44.7134 83.6104C45.0649 83.751 45.3682 83.9546 45.623 84.2212C45.8809 84.4878 46.0786 84.8071 46.2163 85.1792C46.354 85.5513 46.4229 85.9673 46.4229 86.4272V86.7656C46.4229 87.2256 46.354 87.6416 46.2163 88.0137C46.0786 88.3857 45.8809 88.7051 45.623 88.9717C45.3652 89.2354 45.0576 89.439 44.7002 89.5825C44.3457 89.7231 43.9487 89.7935 43.5093 89.7935ZM42.7534 83.395V89.7935H41.6504V83.395H42.7534ZM48.4883 85.9438V89.7935H47.4292V85.0386H48.4399L48.4883 85.9438ZM49.9429 85.0078L49.9341 85.9922C49.8696 85.9805 49.7993 85.9717 49.7231 85.9658C49.6499 85.96 49.5767 85.957 49.5034 85.957C49.3218 85.957 49.1621 85.9834 49.0244 86.0361C48.8867 86.0859 48.771 86.1592 48.6772 86.2559C48.5864 86.3496 48.5161 86.4639 48.4663 86.5986C48.4165 86.7334 48.3872 86.8843 48.3784 87.0513L48.1367 87.0688C48.1367 86.77 48.166 86.4932 48.2246 86.2383C48.2832 85.9834 48.3711 85.7593 48.4883 85.5659C48.6084 85.3726 48.7578 85.2217 48.9365 85.1133C49.1182 85.0049 49.3276 84.9507 49.5649 84.9507C49.6294 84.9507 49.6982 84.9565 49.7715 84.9683C49.8477 84.98 49.9048 84.9932 49.9429 85.0078ZM50.29 87.4688V87.3677C50.29 87.0249 50.3398 86.707 50.4395 86.4141C50.5391 86.1182 50.6826 85.8618 50.8701 85.645C51.0605 85.4253 51.292 85.2554 51.5645 85.1353C51.8398 85.0122 52.1504 84.9507 52.4961 84.9507C52.8447 84.9507 53.1553 85.0122 53.4277 85.1353C53.7031 85.2554 53.936 85.4253 54.1265 85.645C54.3169 85.8618 54.4619 86.1182 54.5615 86.4141C54.6611 86.707 54.7109 87.0249 54.7109 87.3677V87.4688C54.7109 87.8115 54.6611 88.1294 54.5615 88.4224C54.4619 88.7153 54.3169 88.9717 54.1265 89.1914C53.936 89.4082 53.7046 89.5781 53.4321 89.7012C53.1597 89.8213 52.8506 89.8813 52.5049 89.8813C52.1562 89.8813 51.8442 89.8213 51.5688 89.7012C51.2964 89.5781 51.0649 89.4082 50.8745 89.1914C50.6841 88.9717 50.5391 88.7153 50.4395 88.4224C50.3398 88.1294 50.29 87.8115 50.29 87.4688ZM51.3491 87.3677V87.4688C51.3491 87.6826 51.3711 87.8848 51.415 88.0752C51.459 88.2656 51.5278 88.4326 51.6216 88.5762C51.7153 88.7197 51.8354 88.8325 51.9819 88.9146C52.1284 88.9966 52.3027 89.0376 52.5049 89.0376C52.7012 89.0376 52.8711 88.9966 53.0146 88.9146C53.1611 88.8325 53.2812 88.7197 53.375 88.5762C53.4688 88.4326 53.5376 88.2656 53.5815 88.0752C53.6284 87.8848 53.6519 87.6826 53.6519 87.4688V87.3677C53.6519 87.1567 53.6284 86.9575 53.5815 86.77C53.5376 86.5796 53.4673 86.4111 53.3706 86.2646C53.2769 86.1182 53.1567 86.0039 53.0103 85.9219C52.8667 85.8369 52.6953 85.7944 52.4961 85.7944C52.2969 85.7944 52.124 85.8369 51.9775 85.9219C51.834 86.0039 51.7153 86.1182 51.6216 86.2646C51.5278 86.4111 51.459 86.5796 51.415 86.77C51.3711 86.9575 51.3491 87.1567 51.3491 87.3677ZM56.6621 85.9526V91.6216H55.603V85.0386H56.5786L56.6621 85.9526ZM59.7603 87.3721V87.4644C59.7603 87.8101 59.7192 88.1309 59.6372 88.4268C59.5581 88.7197 59.4395 88.9761 59.2812 89.1958C59.126 89.4126 58.9341 89.5811 58.7056 89.7012C58.4771 89.8213 58.2134 89.8813 57.9146 89.8813C57.6187 89.8813 57.3594 89.8271 57.1367 89.7188C56.917 89.6074 56.731 89.4507 56.5786 89.2485C56.4263 89.0464 56.3032 88.8091 56.2095 88.5366C56.1187 88.2612 56.0542 87.9595 56.0161 87.6313V87.2754C56.0542 86.9268 56.1187 86.6104 56.2095 86.3262C56.3032 86.042 56.4263 85.7974 56.5786 85.5923C56.731 85.3872 56.917 85.229 57.1367 85.1177C57.3564 85.0063 57.6128 84.9507 57.9058 84.9507C58.2046 84.9507 58.4697 85.0093 58.7012 85.1265C58.9326 85.2407 59.1274 85.4048 59.2856 85.6187C59.4438 85.8296 59.5625 86.0845 59.6416 86.3833C59.7207 86.6792 59.7603 87.0088 59.7603 87.3721ZM58.7012 87.4644V87.3721C58.7012 87.1523 58.6807 86.9487 58.6396 86.7612C58.5986 86.5708 58.5342 86.4038 58.4463 86.2603C58.3584 86.1167 58.2456 86.0054 58.1079 85.9263C57.9731 85.8442 57.8105 85.8032 57.6201 85.8032C57.4326 85.8032 57.2715 85.8354 57.1367 85.8999C57.002 85.9614 56.8892 86.0479 56.7983 86.1592C56.7075 86.2705 56.6372 86.4009 56.5874 86.5503C56.5376 86.6968 56.5024 86.8564 56.4819 87.0293V87.8818C56.5171 88.0928 56.5771 88.2861 56.6621 88.4619C56.7471 88.6377 56.8672 88.7783 57.0225 88.8838C57.1807 88.9863 57.3828 89.0376 57.6289 89.0376C57.8193 89.0376 57.9819 88.9966 58.1167 88.9146C58.2515 88.8325 58.3613 88.7197 58.4463 88.5762C58.5342 88.4297 58.5986 88.2612 58.6396 88.0708C58.6807 87.8804 58.7012 87.6782 58.7012 87.4644ZM65.583 88.8398V86.5723C65.583 86.4023 65.5522 86.2559 65.4907 86.1328C65.4292 86.0098 65.3354 85.9146 65.2095 85.8472C65.0864 85.7798 64.9312 85.7461 64.7437 85.7461C64.5708 85.7461 64.4214 85.7754 64.2954 85.834C64.1694 85.8926 64.0713 85.9717 64.001 86.0713C63.9307 86.1709 63.8955 86.2837 63.8955 86.4097H62.8408C62.8408 86.2222 62.8862 86.0405 62.9771 85.8647C63.0679 85.689 63.1997 85.5322 63.3726 85.3945C63.5454 85.2568 63.752 85.1484 63.9922 85.0693C64.2324 84.9902 64.502 84.9507 64.8008 84.9507C65.1582 84.9507 65.4746 85.0107 65.75 85.1309C66.0283 85.251 66.2466 85.4326 66.4048 85.6758C66.5659 85.916 66.6465 86.2178 66.6465 86.5811V88.6948C66.6465 88.9116 66.6611 89.1064 66.6904 89.2793C66.7227 89.4492 66.7681 89.5972 66.8267 89.7231V89.7935H65.7412C65.6914 89.6792 65.6519 89.5342 65.6226 89.3584C65.5962 89.1797 65.583 89.0068 65.583 88.8398ZM65.7368 86.9019L65.7456 87.5566H64.9854C64.7891 87.5566 64.6162 87.5757 64.4668 87.6138C64.3174 87.6489 64.1929 87.7017 64.0933 87.772C63.9937 87.8423 63.9189 87.9272 63.8691 88.0269C63.8193 88.1265 63.7944 88.2393 63.7944 88.3652C63.7944 88.4912 63.8237 88.6069 63.8823 88.7124C63.9409 88.8149 64.0259 88.8955 64.1372 88.9541C64.2515 89.0127 64.3892 89.042 64.5503 89.042C64.7671 89.042 64.9561 88.998 65.1172 88.9102C65.2812 88.8193 65.4102 88.7095 65.5039 88.5806C65.5977 88.4487 65.6475 88.3242 65.6533 88.207L65.9961 88.6772C65.9609 88.7974 65.9009 88.9263 65.8159 89.064C65.731 89.2017 65.6196 89.3335 65.4819 89.4595C65.3472 89.5825 65.1846 89.6836 64.9941 89.7627C64.8066 89.8418 64.5898 89.8813 64.3438 89.8813C64.0332 89.8813 63.7563 89.8198 63.5132 89.6968C63.27 89.5708 63.0796 89.4023 62.9419 89.1914C62.8042 88.9775 62.7354 88.7358 62.7354 88.4663C62.7354 88.2144 62.7822 87.9917 62.876 87.7983C62.9727 87.6021 63.1133 87.438 63.2979 87.3062C63.4854 87.1743 63.7139 87.0747 63.9834 87.0073C64.2529 86.937 64.5605 86.9019 64.9062 86.9019H65.7368ZM68.8042 86.0537V89.7935H67.7451V85.0386H68.7427L68.8042 86.0537ZM68.6152 87.2402L68.2725 87.2358C68.2754 86.8989 68.3223 86.5898 68.4131 86.3086C68.5068 86.0273 68.6357 85.7856 68.7998 85.5835C68.9668 85.3813 69.166 85.2261 69.3975 85.1177C69.6289 85.0063 69.8867 84.9507 70.1709 84.9507C70.3994 84.9507 70.606 84.9829 70.7905 85.0474C70.978 85.1089 71.1377 85.21 71.2695 85.3506C71.4043 85.4912 71.5068 85.6743 71.5771 85.8999C71.6475 86.1226 71.6826 86.3965 71.6826 86.7217V89.7935H70.6191V86.7173C70.6191 86.4888 70.5854 86.3086 70.5181 86.1768C70.4536 86.042 70.3584 85.9468 70.2324 85.8911C70.1094 85.8325 69.9556 85.8032 69.771 85.8032C69.5894 85.8032 69.4268 85.8413 69.2832 85.9175C69.1396 85.9937 69.0181 86.0977 68.9185 86.2295C68.8218 86.3613 68.7471 86.5137 68.6943 86.6865C68.6416 86.8594 68.6152 87.0439 68.6152 87.2402ZM76.1387 85.0386V89.7935H75.0752V85.0386H76.1387ZM75.0049 83.7905C75.0049 83.6294 75.0576 83.4961 75.1631 83.3906C75.2715 83.2822 75.4209 83.228 75.6113 83.228C75.7988 83.228 75.9468 83.2822 76.0552 83.3906C76.1636 83.4961 76.2178 83.6294 76.2178 83.7905C76.2178 83.9487 76.1636 84.0806 76.0552 84.186C75.9468 84.2915 75.7988 84.3442 75.6113 84.3442C75.4209 84.3442 75.2715 84.2915 75.1631 84.186C75.0576 84.0806 75.0049 83.9487 75.0049 83.7905ZM78.3579 86.0054V89.7935H77.2988V85.0386H78.2964L78.3579 86.0054ZM78.1865 87.2402L77.8262 87.2358C77.8262 86.9077 77.8672 86.6045 77.9492 86.3262C78.0312 86.0479 78.1514 85.8062 78.3096 85.6011C78.4678 85.3931 78.6641 85.2334 78.8984 85.1221C79.1357 85.0078 79.4097 84.9507 79.7202 84.9507C79.937 84.9507 80.1348 84.9829 80.3135 85.0474C80.4951 85.1089 80.6519 85.207 80.7837 85.3418C80.9185 85.4766 81.021 85.6494 81.0913 85.8604C81.1646 86.0713 81.2012 86.3262 81.2012 86.625V89.7935H80.1421V86.7173C80.1421 86.4858 80.1069 86.3042 80.0366 86.1724C79.9692 86.0405 79.8711 85.9468 79.7422 85.8911C79.6162 85.8325 79.4653 85.8032 79.2896 85.8032C79.0903 85.8032 78.9204 85.8413 78.7798 85.9175C78.6421 85.9937 78.5293 86.0977 78.4414 86.2295C78.3535 86.3613 78.2891 86.5137 78.248 86.6865C78.207 86.8594 78.1865 87.0439 78.1865 87.2402ZM81.1353 86.959L80.6387 87.0688C80.6387 86.7817 80.6782 86.5107 80.7573 86.2559C80.8394 85.998 80.958 85.7725 81.1133 85.5791C81.2715 85.3828 81.4663 85.229 81.6978 85.1177C81.9292 85.0063 82.1943 84.9507 82.4932 84.9507C82.7363 84.9507 82.9531 84.9844 83.1436 85.0518C83.3369 85.1162 83.501 85.2188 83.6357 85.3594C83.7705 85.5 83.873 85.6831 83.9434 85.9087C84.0137 86.1313 84.0488 86.4009 84.0488 86.7173V89.7935H82.9854V86.7129C82.9854 86.4727 82.9502 86.2866 82.8799 86.1548C82.8125 86.0229 82.7158 85.9321 82.5898 85.8823C82.4639 85.8296 82.313 85.8032 82.1372 85.8032C81.9731 85.8032 81.8281 85.834 81.7021 85.8955C81.5791 85.9541 81.4751 86.0376 81.3901 86.146C81.3052 86.2515 81.2407 86.373 81.1968 86.5107C81.1558 86.6484 81.1353 86.7979 81.1353 86.959ZM87.8193 88.8398V86.5723C87.8193 86.4023 87.7886 86.2559 87.7271 86.1328C87.6655 86.0098 87.5718 85.9146 87.4458 85.8472C87.3228 85.7798 87.1675 85.7461 86.98 85.7461C86.8071 85.7461 86.6577 85.7754 86.5317 85.834C86.4058 85.8926 86.3076 85.9717 86.2373 86.0713C86.167 86.1709 86.1318 86.2837 86.1318 86.4097H85.0771C85.0771 86.2222 85.1226 86.0405 85.2134 85.8647C85.3042 85.689 85.436 85.5322 85.6089 85.3945C85.7817 85.2568 85.9883 85.1484 86.2285 85.0693C86.4688 84.9902 86.7383 84.9507 87.0371 84.9507C87.3945 84.9507 87.7109 85.0107 87.9863 85.1309C88.2646 85.251 88.4829 85.4326 88.6411 85.6758C88.8022 85.916 88.8828 86.2178 88.8828 86.5811V88.6948C88.8828 88.9116 88.8975 89.1064 88.9268 89.2793C88.959 89.4492 89.0044 89.5972 89.063 89.7231V89.7935H87.9775C87.9277 89.6792 87.8882 89.5342 87.8589 89.3584C87.8325 89.1797 87.8193 89.0068 87.8193 88.8398ZM87.9731 86.9019L87.9819 87.5566H87.2217C87.0254 87.5566 86.8525 87.5757 86.7031 87.6138C86.5537 87.6489 86.4292 87.7017 86.3296 87.772C86.23 87.8423 86.1553 87.9272 86.1055 88.0269C86.0557 88.1265 86.0308 88.2393 86.0308 88.3652C86.0308 88.4912 86.0601 88.6069 86.1187 88.7124C86.1772 88.8149 86.2622 88.8955 86.3735 88.9541C86.4878 89.0127 86.6255 89.042 86.7866 89.042C87.0034 89.042 87.1924 88.998 87.3535 88.9102C87.5176 88.8193 87.6465 88.7095 87.7402 88.5806C87.834 88.4487 87.8838 88.3242 87.8896 88.207L88.2324 88.6772C88.1973 88.7974 88.1372 88.9263 88.0522 89.064C87.9673 89.2017 87.856 89.3335 87.7183 89.4595C87.5835 89.5825 87.4209 89.6836 87.2305 89.7627C87.043 89.8418 86.8262 89.8813 86.5801 89.8813C86.2695 89.8813 85.9927 89.8198 85.7495 89.6968C85.5063 89.5708 85.3159 89.4023 85.1782 89.1914C85.0405 88.9775 84.9717 88.7358 84.9717 88.4663C84.9717 88.2144 85.0186 87.9917 85.1123 87.7983C85.209 87.6021 85.3496 87.438 85.5342 87.3062C85.7217 87.1743 85.9502 87.0747 86.2197 87.0073C86.4893 86.937 86.7969 86.9019 87.1426 86.9019H87.9731ZM93.0356 85.0386H93.998V89.6616C93.998 90.0894 93.9072 90.4526 93.7256 90.7515C93.5439 91.0503 93.2905 91.2773 92.9653 91.4326C92.6401 91.5908 92.2637 91.6699 91.8359 91.6699C91.6543 91.6699 91.4521 91.6436 91.2295 91.5908C91.0098 91.5381 90.7959 91.4531 90.5879 91.3359C90.3828 91.2217 90.2114 91.0708 90.0737 90.8833L90.5703 90.2593C90.7402 90.4614 90.9277 90.6094 91.1328 90.7031C91.3379 90.7969 91.5532 90.8438 91.7788 90.8438C92.022 90.8438 92.2285 90.7983 92.3984 90.7075C92.5713 90.6196 92.7046 90.4893 92.7983 90.3164C92.8921 90.1436 92.939 89.9326 92.939 89.6836V86.1152L93.0356 85.0386ZM89.8057 87.4688V87.3765C89.8057 87.0161 89.8496 86.688 89.9375 86.3921C90.0254 86.0933 90.1514 85.8369 90.3154 85.623C90.4795 85.4062 90.6787 85.2407 90.9131 85.1265C91.1475 85.0093 91.4126 84.9507 91.7085 84.9507C92.0161 84.9507 92.2783 85.0063 92.4951 85.1177C92.7148 85.229 92.8979 85.3887 93.0444 85.5967C93.1909 85.8018 93.3052 86.0479 93.3872 86.335C93.4722 86.6191 93.5352 86.9355 93.5762 87.2842V87.5786C93.5381 87.9185 93.4736 88.229 93.3828 88.5103C93.292 88.7915 93.1719 89.0347 93.0225 89.2397C92.873 89.4448 92.6885 89.603 92.4688 89.7144C92.252 89.8257 91.9956 89.8813 91.6997 89.8813C91.4097 89.8813 91.1475 89.8213 90.9131 89.7012C90.6816 89.5811 90.4824 89.4126 90.3154 89.1958C90.1514 88.979 90.0254 88.7241 89.9375 88.4312C89.8496 88.1353 89.8057 87.8145 89.8057 87.4688ZM90.8647 87.3765V87.4688C90.8647 87.6855 90.8853 87.8877 90.9263 88.0752C90.9702 88.2627 91.0361 88.4282 91.124 88.5718C91.2148 88.7124 91.3291 88.8237 91.4668 88.9058C91.6074 88.9849 91.7729 89.0244 91.9634 89.0244C92.2124 89.0244 92.416 88.9717 92.5742 88.8662C92.7354 88.7607 92.8584 88.6187 92.9434 88.4399C93.0312 88.2583 93.0928 88.0562 93.1279 87.8335V87.0381C93.1104 86.8652 93.0737 86.7041 93.0181 86.5547C92.9653 86.4053 92.8936 86.2749 92.8027 86.1636C92.7119 86.0493 92.5977 85.9614 92.46 85.8999C92.3223 85.8354 92.1597 85.8032 91.9722 85.8032C91.7817 85.8032 91.6162 85.8442 91.4756 85.9263C91.335 86.0083 91.2192 86.1211 91.1284 86.2646C91.0405 86.4082 90.9746 86.5752 90.9307 86.7656C90.8867 86.9561 90.8647 87.1597 90.8647 87.3765ZM97.1929 89.8813C96.8413 89.8813 96.5234 89.8242 96.2393 89.71C95.958 89.5928 95.7178 89.4302 95.5186 89.2222C95.3223 89.0142 95.1714 88.7695 95.0659 88.4883C94.9604 88.207 94.9077 87.9038 94.9077 87.5786V87.4028C94.9077 87.0308 94.9619 86.6938 95.0703 86.3921C95.1787 86.0903 95.3296 85.8325 95.5229 85.6187C95.7163 85.4019 95.9448 85.2363 96.2085 85.1221C96.4722 85.0078 96.7578 84.9507 97.0654 84.9507C97.4053 84.9507 97.7026 85.0078 97.9575 85.1221C98.2124 85.2363 98.4233 85.3975 98.5903 85.6055C98.7603 85.8105 98.8862 86.0552 98.9683 86.3394C99.0532 86.6235 99.0957 86.937 99.0957 87.2798V87.7324H95.4219V86.9722H98.0498V86.8887C98.0439 86.6982 98.0059 86.5195 97.9355 86.3525C97.8682 86.1855 97.7642 86.0508 97.6235 85.9482C97.4829 85.8457 97.2954 85.7944 97.061 85.7944C96.8853 85.7944 96.7285 85.8325 96.5908 85.9087C96.4561 85.9819 96.3433 86.0889 96.2524 86.2295C96.1616 86.3701 96.0913 86.54 96.0415 86.7393C95.9946 86.9355 95.9712 87.1567 95.9712 87.4028V87.5786C95.9712 87.7866 95.999 87.98 96.0547 88.1587C96.1133 88.3345 96.1982 88.4883 96.3096 88.6201C96.4209 88.752 96.5557 88.856 96.7139 88.9321C96.8721 89.0054 97.0522 89.042 97.2544 89.042C97.5093 89.042 97.7363 88.9907 97.9355 88.8882C98.1348 88.7856 98.3076 88.6406 98.4541 88.4531L99.0122 88.9937C98.9097 89.1431 98.7764 89.2866 98.6123 89.4243C98.4482 89.5591 98.2476 89.6689 98.0103 89.7539C97.7759 89.8389 97.5034 89.8813 97.1929 89.8813Z" fill="#ABABAB"/>
<path d="M50.326 101.874C49.858 101.874 49.435 101.769 49.057 101.559C48.679 101.343 48.382 101.043 48.166 100.659C47.95 100.269 47.842 99.8195 47.842 99.3095C47.842 98.8055 47.953 98.3585 48.175 97.9685C48.397 97.5785 48.7 97.2785 49.084 97.0685C49.468 96.8585 49.897 96.7535 50.371 96.7535C50.845 96.7535 51.274 96.8585 51.658 97.0685C52.042 97.2785 52.345 97.5785 52.567 97.9685C52.789 98.3585 52.9 98.8055 52.9 99.3095C52.9 99.8135 52.786 100.26 52.558 100.65C52.33 101.04 52.018 101.343 51.622 101.559C51.232 101.769 50.8 101.874 50.326 101.874ZM50.326 100.983C50.59 100.983 50.836 100.92 51.064 100.794C51.298 100.668 51.487 100.479 51.631 100.227C51.775 99.9755 51.847 99.6695 51.847 99.3095C51.847 98.9495 51.778 98.6465 51.64 98.4005C51.502 98.1485 51.319 97.9595 51.091 97.8335C50.863 97.7075 50.617 97.6445 50.353 97.6445C50.089 97.6445 49.843 97.7075 49.615 97.8335C49.393 97.9595 49.216 98.1485 49.084 98.4005C48.952 98.6465 48.886 98.9495 48.886 99.3095C48.886 99.8435 49.021 100.257 49.291 100.551C49.567 100.839 49.912 100.983 50.326 100.983ZM54.9403 97.5545C55.0903 97.3025 55.2883 97.1075 55.5343 96.9695C55.7863 96.8255 56.0833 96.7535 56.4253 96.7535V97.8155H56.1643C55.7623 97.8155 55.4563 97.9175 55.2463 98.1215C55.0423 98.3255 54.9403 98.6795 54.9403 99.1835V101.793H53.9143V96.8345H54.9403V97.5545Z" fill="#ABABAB"/>
<path d="M61.201 97.5725C61.375 97.3325 61.612 97.1375 61.912 96.9875C62.218 96.8315 62.557 96.7535 62.929 96.7535C63.367 96.7535 63.763 96.8585 64.117 97.0685C64.471 97.2785 64.75 97.5785 64.954 97.9685C65.158 98.3525 65.26 98.7935 65.26 99.2915C65.26 99.7895 65.158 100.236 64.954 100.632C64.75 101.022 64.468 101.328 64.108 101.55C63.754 101.766 63.361 101.874 62.929 101.874C62.545 101.874 62.203 101.799 61.903 101.649C61.609 101.499 61.375 101.307 61.201 101.073V101.793H60.175V95.1335H61.201V97.5725ZM64.216 99.2915C64.216 98.9495 64.144 98.6555 64 98.4095C63.862 98.1575 63.676 97.9685 63.442 97.8425C63.214 97.7105 62.968 97.6445 62.704 97.6445C62.446 97.6445 62.2 97.7105 61.966 97.8425C61.738 97.9745 61.552 98.1665 61.408 98.4185C61.27 98.6705 61.201 98.9675 61.201 99.3095C61.201 99.6515 61.27 99.9515 61.408 100.209C61.552 100.461 61.738 100.653 61.966 100.785C62.2 100.917 62.446 100.983 62.704 100.983C62.968 100.983 63.214 100.917 63.442 100.785C63.676 100.647 63.862 100.449 64 100.191C64.144 99.9335 64.216 99.6335 64.216 99.2915ZM67.3006 97.5545C67.4506 97.3025 67.6486 97.1075 67.8946 96.9695C68.1466 96.8255 68.4436 96.7535 68.7856 96.7535V97.8155H68.5246C68.1226 97.8155 67.8166 97.9175 67.6066 98.1215C67.4026 98.3255 67.3006 98.6795 67.3006 99.1835V101.793H66.2746V96.8345H67.3006V97.5545ZM71.8797 101.874C71.4117 101.874 70.9887 101.769 70.6107 101.559C70.2327 101.343 69.9357 101.043 69.7197 100.659C69.5037 100.269 69.3957 99.8195 69.3957 99.3095C69.3957 98.8055 69.5067 98.3585 69.7287 97.9685C69.9507 97.5785 70.2537 97.2785 70.6377 97.0685C71.0217 96.8585 71.4507 96.7535 71.9247 96.7535C72.3987 96.7535 72.8277 96.8585 73.2117 97.0685C73.5957 97.2785 73.8987 97.5785 74.1207 97.9685C74.3427 98.3585 74.4537 98.8055 74.4537 99.3095C74.4537 99.8135 74.3397 100.26 74.1117 100.65C73.8837 101.04 73.5717 101.343 73.1757 101.559C72.7857 101.769 72.3537 101.874 71.8797 101.874ZM71.8797 100.983C72.1437 100.983 72.3897 100.92 72.6177 100.794C72.8517 100.668 73.0407 100.479 73.1847 100.227C73.3287 99.9755 73.4007 99.6695 73.4007 99.3095C73.4007 98.9495 73.3317 98.6465 73.1937 98.4005C73.0557 98.1485 72.8727 97.9595 72.6447 97.8335C72.4167 97.7075 72.1707 97.6445 71.9067 97.6445C71.6427 97.6445 71.3967 97.7075 71.1687 97.8335C70.9467 97.9595 70.7697 98.1485 70.6377 98.4005C70.5057 98.6465 70.4397 98.9495 70.4397 99.3095C70.4397 99.8435 70.5747 100.257 70.8447 100.551C71.1207 100.839 71.4657 100.983 71.8797 100.983ZM82.128 96.8345L80.589 101.793H79.509L78.51 98.1305L77.511 101.793H76.431L74.883 96.8345H75.927L76.962 100.821L78.015 96.8345H79.086L80.094 100.803L81.12 96.8345H82.128ZM84.6947 101.874C84.3047 101.874 83.9537 101.805 83.6417 101.667C83.3357 101.523 83.0927 101.331 82.9127 101.091C82.7327 100.845 82.6367 100.572 82.6247 100.272H83.6867C83.7047 100.482 83.8037 100.659 83.9837 100.803C84.1697 100.941 84.4007 101.01 84.6767 101.01C84.9647 101.01 85.1867 100.956 85.3427 100.848C85.5047 100.734 85.5857 100.59 85.5857 100.416C85.5857 100.23 85.4957 100.092 85.3157 100.002C85.1417 99.9125 84.8627 99.8135 84.4787 99.7055C84.1067 99.6035 83.8037 99.5045 83.5697 99.4085C83.3357 99.3125 83.1317 99.1655 82.9577 98.9675C82.7897 98.7695 82.7057 98.5085 82.7057 98.1845C82.7057 97.9205 82.7837 97.6805 82.9397 97.4645C83.0957 97.2425 83.3177 97.0685 83.6057 96.9425C83.8997 96.8165 84.2357 96.7535 84.6137 96.7535C85.1777 96.7535 85.6307 96.8975 85.9727 97.1855C86.3207 97.4675 86.5067 97.8545 86.5307 98.3465H85.5047C85.4867 98.1245 85.3967 97.9475 85.2347 97.8155C85.0727 97.6835 84.8537 97.6175 84.5777 97.6175C84.3077 97.6175 84.1007 97.6685 83.9567 97.7705C83.8127 97.8725 83.7407 98.0075 83.7407 98.1755C83.7407 98.3075 83.7887 98.4185 83.8847 98.5085C83.9807 98.5985 84.0977 98.6705 84.2357 98.7245C84.3737 98.7725 84.5777 98.8355 84.8477 98.9135C85.2077 99.0095 85.5017 99.1085 85.7297 99.2105C85.9637 99.3065 86.1647 99.4505 86.3327 99.6425C86.5007 99.8345 86.5877 100.089 86.5937 100.407C86.5937 100.689 86.5157 100.941 86.3597 101.163C86.2037 101.385 85.9817 101.559 85.6937 101.685C85.4117 101.811 85.0787 101.874 84.6947 101.874ZM92.2473 99.1925C92.2473 99.3785 92.2353 99.5465 92.2113 99.6965H88.4223C88.4523 100.092 88.5993 100.41 88.8633 100.65C89.1273 100.89 89.4513 101.01 89.8353 101.01C90.3873 101.01 90.7773 100.779 91.0053 100.317H92.1123C91.9623 100.773 91.6893 101.148 91.2933 101.442C90.9033 101.73 90.4173 101.874 89.8353 101.874C89.3613 101.874 88.9353 101.769 88.5573 101.559C88.1853 101.343 87.8913 101.043 87.6753 100.659C87.4653 100.269 87.3603 99.8195 87.3603 99.3095C87.3603 98.7995 87.4623 98.3525 87.6663 97.9685C87.8763 97.5785 88.1673 97.2785 88.5393 97.0685C88.9173 96.8585 89.3493 96.7535 89.8353 96.7535C90.3033 96.7535 90.7203 96.8555 91.0863 97.0595C91.4523 97.2635 91.7373 97.5515 91.9413 97.9235C92.1453 98.2895 92.2473 98.7125 92.2473 99.1925ZM91.1763 98.8685C91.1703 98.4905 91.0353 98.1875 90.7713 97.9595C90.5073 97.7315 90.1803 97.6175 89.7903 97.6175C89.4363 97.6175 89.1333 97.7315 88.8813 97.9595C88.6293 98.1815 88.4793 98.4845 88.4313 98.8685H91.1763Z" fill="#0F172A"/>
<path d="M59.5 102.693H92.5803V103.143H59.5V102.693Z" fill="#0F172A"/>
</svg>
