<svg width="35" height="35" viewBox="0 0 35 35" fill="none" xmlns="http://www.w3.org/2000/svg">
<path d="M17.5 0.000488281C7.83603 0.000488281 0 7.83498 0 17.4997C0 27.1645 7.83526 34.999 17.5 34.999C27.1655 34.999 35 27.1645 35 17.4997C35 7.83498 27.1655 0.000488281 17.5 0.000488281ZM17.5 5.23296C20.6978 5.23296 23.289 7.82499 23.289 11.0212C23.289 14.2182 20.6978 16.8094 17.5 16.8094C14.3038 16.8094 11.7125 14.2182 11.7125 11.0212C11.7125 7.82499 14.3038 5.23296 17.5 5.23296ZM17.4962 30.4237C14.3069 30.4237 11.3858 29.2622 9.13281 27.3397C8.58396 26.8716 8.26726 26.1852 8.26726 25.4649C8.26726 22.2233 10.8908 19.629 14.1331 19.629H20.8684C24.1115 19.629 26.725 22.2233 26.725 25.4649C26.725 26.1859 26.4099 26.8708 25.8603 27.339C23.608 29.2622 20.6862 30.4237 17.4962 30.4237Z" fill="#2A2C33"/>
</svg>
