<svg width="16" height="16" viewBox="0 0 16 16" fill="none" xmlns="http://www.w3.org/2000/svg">
<path d="M1.56745 11.5657C1.40982 11.5657 1.2525 11.5057 1.13212 11.3853C0.89167 11.1448 0.89167 10.755 1.13212 10.5146L10.7544 0.892252C10.9945 0.651801 11.3846 0.651801 11.625 0.892252C11.8655 1.1327 11.8655 1.52247 11.625 1.76292L2.00278 11.3853C1.88271 11.5053 1.72508 11.5657 1.56745 11.5657Z" fill="#11103D"/>
<path d="M0.616361 16C0.573567 16 0.530157 15.9954 0.486747 15.9862C0.154244 15.9147 -0.0575726 15.5875 0.0138539 15.2549L0.965181 10.8206C1.03661 10.4881 1.36542 10.2769 1.69638 10.3477C2.02888 10.4191 2.2407 10.7464 2.16927 11.0789L1.21794 15.5133C1.15606 15.8024 0.900528 16 0.616361 16Z" fill="#11103D"/>
<path d="M5.05024 15.0488C4.89261 15.0488 4.73529 14.9887 4.61491 14.8684C4.37446 14.6279 4.37446 14.2381 4.61491 13.9977L14.2372 4.37565C14.4773 4.1352 14.8674 4.1352 15.1078 4.37565C15.3483 4.6161 15.3483 5.00587 15.1078 5.24632L5.48588 14.8684C5.3655 14.9887 5.20787 15.0488 5.05024 15.0488Z" fill="#11103D"/>
<path d="M0.615346 15.9998C0.331179 15.9998 0.0759529 15.8021 0.0137626 15.513C-0.0573561 15.1805 0.154153 14.8532 0.486655 14.7818L4.92095 13.8305C5.25376 13.76 5.58103 13.9712 5.65215 14.3034C5.72327 14.6359 5.51176 14.9631 5.17925 15.0346L0.744961 15.9859C0.701551 15.9954 0.65814 15.9998 0.615346 15.9998Z" fill="#11103D"/>
<path d="M12.931 7.16804C12.7733 7.16804 12.6157 7.108 12.4956 6.98762L9.01267 3.50462C8.77222 3.26417 8.77222 2.8744 9.01267 2.63395C9.25281 2.3935 9.6432 2.3935 9.88334 2.63395L13.3663 6.11695C13.6068 6.3574 13.6068 6.74717 13.3663 6.98762C13.2462 7.108 13.0886 7.16804 12.931 7.16804Z" fill="#11103D"/>
<path d="M14.6727 5.42662C14.5151 5.42662 14.3575 5.36658 14.2371 5.2462C13.9966 5.00575 13.9966 4.61598 14.2371 4.37522C14.5798 4.03256 14.7685 3.56859 14.7685 3.06921C14.7685 2.56984 14.5798 2.10587 14.2371 1.7632C13.8941 1.42023 13.4302 1.2315 12.9308 1.2315C12.4314 1.2315 11.9675 1.42023 11.6248 1.7632C11.3847 2.00365 10.9949 2.00396 10.7538 1.7632C10.5134 1.52275 10.5134 1.13298 10.7538 0.892224C11.3289 0.316804 12.102 0 12.9308 0C13.7593 0 14.5327 0.316804 15.1078 0.892224C15.6832 1.46734 16 2.24041 16 3.06921C16 3.89801 15.6832 4.67109 15.1078 5.2462C14.988 5.36627 14.8304 5.42662 14.6727 5.42662Z" fill="#11103D"/>
</svg>
