<svg width="222" height="340" viewBox="0 0 222 340" fill="none" xmlns="http://www.w3.org/2000/svg">
<g clip-path="url(#clip0_12960_68150)">
<path d="M179.82 286.66C176.86 293.88 157.03 292.96 154.74 299.14C152.44 305.31 172.67 304.72 172.01 312.47C171.35 320.22 159.14 321.4 137.21 322.65C115.28 323.9 110.42 329.68 88.49 336.83C66.56 343.99 56.9 334.73 44.62 328.03C32.41 321.4 8.96 333.61 1.61 323.3C-5.74 312.92 14.28 309.25 31.95 305.24C49.68 301.17 41.67 299.26 41.21 290.66C41.14 288.89 41.67 287.51 42.65 286.39C46.66 282.06 58.28 281.99 72.2 282.25C89.73 282.64 94.13 276.8 118.56 277.33C141.08 277.79 176.41 279.17 179.63 285.01C180.02 285.53 180.09 286.06 179.83 286.65L179.82 286.66Z" fill="#99ADF9"/>
<path d="M214.1 299.47C213.9 299.86 213.57 300.26 213.18 300.72C210.36 303.81 201.1 305.71 193.68 305.84C184.49 305.91 174.9 305.32 174.57 299.73C174.31 294.15 197.82 293.82 206.02 294.74C213.11 295.4 215.35 297.04 214.1 299.47Z" fill="#99ADF9"/>
<path d="M32.4 298.55C32.27 298.88 32.01 299.21 31.68 299.54C29.45 301.97 22.16 303.55 16.31 303.61C9.09004 303.68 1.47004 303.22 1.27004 298.69C1.07004 294.22 19.59 293.96 26.03 294.68C31.61 295.27 33.45 296.58 32.4 298.55Z" fill="#99ADF9"/>
<path d="M150.01 333.55C143.58 336.11 119.54 336.24 119.61 333.09C119.61 332.7 119.74 332.3 120 331.97C121.77 329.48 129.13 328.1 135.76 327.83C143.57 327.57 148.89 328.42 151.26 329.67C153.43 330.85 153.1 332.3 150.01 333.54V333.55Z" fill="#99ADF9"/>
<path d="M88.6801 325.73C82.7701 327.9 63.9901 327.37 64.1201 323.5C64.1201 323.04 64.2501 322.58 64.4501 322.12C66.0301 319.1 70.9501 317.98 76.6001 317.79C83.1701 317.53 88.5501 318.58 90.7201 319.83C93.4801 321.34 93.5401 323.9 88.6901 325.74L88.6801 325.73Z" fill="#7C99F2"/>
<path d="M161.5 288.89C158.02 290.6 145.35 290.47 145.41 288.23C145.41 287.97 145.48 287.7 145.61 287.44C146.59 285.73 150.47 284.81 154.02 284.68C158.16 284.55 160.98 285.2 162.16 286.12C163.34 286.97 163.15 288.02 161.5 288.88V288.89Z" fill="#7C99F2"/>
<path d="M158.09 312.4C155.27 313.78 144.89 313.65 144.96 311.87C144.96 311.67 145.03 311.41 145.16 311.21C145.95 309.83 149.17 309.04 152.06 308.98C155.47 308.85 157.77 309.44 158.76 310.16C159.61 310.88 159.48 311.74 158.1 312.39L158.09 312.4Z" fill="#7C99F2"/>
<path d="M126.7 311.29C96.89 319.5 52.17 305.84 52.56 298.03C52.63 297.05 53.02 296.19 53.74 295.4C58.86 289.75 79.74 288.18 98.72 289.29C120.98 290.67 136.02 294.22 142.59 298.02C148.56 301.37 141.93 307.08 126.7 311.28V311.29Z" fill="#7C99F2"/>
<path d="M50.98 313.45C48.16 315.03 37.65 314.9 37.78 312.86C37.78 312.6 37.85 312.4 37.98 312.14C38.77 310.56 41.99 309.71 44.88 309.58C48.29 309.45 50.59 310.04 51.58 310.89C52.5 311.74 52.37 312.73 50.99 313.45H50.98Z" fill="#7C99F2"/>
<path d="M146.73 82.7001C146.73 82.7001 145.02 77.3801 150.93 77.0501C156.84 76.7901 150.93 68.0501 156.84 63.0001C162.75 57.9401 169.78 60.1801 170.04 66.9401C170.3 73.7001 169.19 77.9101 170.04 79.6101C170.89 81.3201 173.39 76.5201 176.48 79.8701C179.57 83.2201 160.46 147.9 160.46 147.9L150.08 145.34L146.73 82.6901V82.7001Z" fill="#D2E9FF"/>
<path d="M165.51 93.01C162.69 94.32 156.91 132.94 161.7 129.13C162.82 128.28 172.73 89.66 165.51 93.01Z" fill="#E3F0FF"/>
<path d="M214.43 52.23C214.17 54.07 213.71 55.78 213.25 57.29C208.65 71.21 196.11 71.74 195.91 73.64C195.71 75.74 204.97 82.7 196.3 91.17C187.63 99.64 169.97 88.87 165.31 88.48C158.74 87.9601 145.08 99.64 135.69 87.49C129.65 79.68 139.37 75.28 137.13 73.11C134.9 70.94 117.43 70.55 117.43 50.91V49.73C118.09 30.1 135.55 31.47 136.41 27.6C137.26 23.73 137.07 1.01004 164.65 0.0200431C192.3 -0.969957 191.44 27.01 193.94 28.32C196.57 29.7 217.38 33.31 214.43 52.22V52.23Z" fill="#E3F0FF"/>
<path d="M192.5 68.58C198.41 66.15 207.27 61.82 213.18 57.29C208.58 71.21 196.04 71.74 195.84 73.64C195.64 75.74 204.9 82.7 196.23 91.17C187.56 99.64 169.9 88.87 165.24 88.48C158.67 87.96 145.01 99.64 135.62 87.49C129.58 79.68 139.3 75.28 137.06 73.11C134.82 70.94 117.36 70.55 117.36 50.91C118.87 54 122.02 58.4 128.79 61.48C140.15 66.67 148.16 60.89 152.17 66.47C156.18 72.05 147.77 75.53 151.51 78.82C155.32 82.1 161.23 73.83 170.68 78.23C180.2 82.63 186.11 85.52 189.86 81.51C193.8 77.44 184.08 72.05 192.49 68.57L192.5 68.58Z" fill="#D2E9FF"/>
<path d="M147.65 40.6701C147.65 40.6701 147.58 40.6001 147.39 40.4701C147.19 40.3401 147 40.1401 146.67 39.8101C146.08 39.2201 145.29 38.3001 144.63 37.0501C144.3 36.4601 143.97 35.7401 143.71 34.9501C143.45 34.1601 143.32 33.3101 143.19 32.3901C143.12 31.4701 143.12 30.5501 143.25 29.6301C143.32 29.1701 143.38 28.7101 143.51 28.2501C143.58 27.9901 143.58 27.8601 143.71 27.4601L143.91 26.8001C144.11 26.0101 144.63 25.0301 145.16 24.1701C145.69 23.3801 146.41 22.5901 147.13 22.0001C147.92 21.4101 148.71 20.9501 149.49 20.6201C150.28 20.2901 151.13 20.0901 151.85 19.9601C152.57 19.8301 153.29 19.8301 153.88 19.8301C154.47 19.8301 155 19.8301 155.46 19.9001C155.92 19.9701 156.25 19.9701 156.45 20.0301C156.71 20.1001 156.84 20.1001 156.84 20.1001C157.69 20.3001 158.22 21.0901 158.02 21.9401C157.82 22.7901 157.03 23.3201 156.18 23.1201H155.98C155.98 23.1201 155.91 23.1201 155.78 23.0501C155.58 22.9801 155.39 22.9201 154.99 22.9201C154.66 22.8501 154.27 22.7901 153.74 22.7901C153.28 22.7901 152.75 22.7201 152.16 22.7901C151.57 22.8601 150.98 22.9201 150.39 23.1801C149.8 23.3801 149.14 23.6401 148.62 24.0301C148.03 24.4201 147.5 24.9501 147.04 25.5401C146.58 26.1301 146.25 26.6601 145.92 27.5801L145.66 28.1701L145.53 28.7001C145.4 29.0901 145.27 29.4901 145.27 29.8801C145.14 30.6701 145.07 31.4601 145.07 32.1801C145.07 32.9001 145.2 33.6901 145.33 34.3501C145.46 35.0101 145.72 35.6601 145.99 36.1901C146.52 37.3101 147.17 38.1601 147.63 38.6901C147.89 38.9501 148.09 39.1501 148.22 39.2801C148.35 39.4101 148.42 39.4801 148.42 39.4801H148.49C148.75 39.7401 148.82 40.2001 148.55 40.4701C148.35 40.8001 147.96 40.8601 147.63 40.6701H147.65Z" fill="#D2E9FF"/>
<path d="M155.59 21.37C155.59 21.37 155.59 21.24 155.66 20.91C155.73 20.65 155.86 20.25 155.99 19.73C156.32 18.74 156.84 17.37 157.96 15.86C158.49 15.14 159.21 14.35 160.06 13.76C160.91 13.1 161.9 12.58 162.95 12.12C163.47 11.92 164.07 11.79 164.66 11.59C165.25 11.46 165.84 11.39 166.43 11.33C167.02 11.26 167.61 11.26 168.2 11.26H169.19L169.98 11.33C170.24 11.4 170.44 11.4 170.77 11.46L171.76 11.72C172.09 11.85 172.42 11.92 172.75 12.05L173.6 12.44C174.19 12.7 174.72 13.03 175.18 13.42C175.71 13.75 176.1 14.21 176.56 14.6C178.2 16.31 179.12 18.34 179.65 19.98C180.18 21.69 180.44 23.13 180.57 24.12C180.64 24.65 180.64 25.04 180.7 25.3V25.76C180.77 26.94 179.85 27.93 178.66 27.93C177.48 28 176.49 27.08 176.49 25.89V25.43C176.49 25.23 176.49 24.9 176.42 24.51C176.35 23.72 176.22 22.47 175.83 21.16C175.44 19.85 174.78 18.34 173.73 17.15C173.47 16.89 173.2 16.56 172.88 16.3C172.55 16.04 172.22 15.77 171.89 15.64L171.36 15.31C171.16 15.24 171.03 15.18 170.83 15.11L170.31 14.91C170.11 14.84 169.78 14.84 169.59 14.78L168.8 14.65H168.54C168.41 14.65 168.74 14.65 168.67 14.65H168.28C167.82 14.65 167.36 14.58 166.9 14.65C166.44 14.72 165.98 14.72 165.59 14.78C165.2 14.91 164.74 14.98 164.34 15.11C163.55 15.37 162.83 15.7 162.24 16.16C161.65 16.55 161.12 17.08 160.73 17.6C159.88 18.65 159.42 19.7 159.15 20.49C159.02 20.88 158.95 21.15 158.89 21.34C158.82 21.54 158.82 21.6 158.82 21.6V21.73C158.62 22.58 157.83 23.04 156.98 22.91C155.93 22.91 155.47 22.12 155.6 21.33L155.59 21.37Z" fill="#D2E9FF"/>
<path d="M188.23 31.02C188.23 31.02 188.69 31.02 189.41 31.09C190.13 31.16 191.12 31.29 192.3 31.62C193.48 31.95 194.86 32.47 196.17 33.52C196.83 34.05 197.42 34.64 197.94 35.36C198.2 35.75 198.4 36.08 198.6 36.54L198.86 37.13L198.99 37.79C199.19 38.45 199.38 39.43 199.38 40.22C199.45 41.07 199.38 41.86 199.18 42.58C198.85 44.09 198.26 45.4 197.6 46.39C196.94 47.38 196.22 48.1 195.76 48.56C195.23 49.02 194.91 49.28 194.91 49.28C194.58 49.54 194.06 49.48 193.79 49.15C193.53 48.82 193.59 48.3 193.92 48.03C193.85 48.1 195.04 47.18 196.02 45.4C196.54 44.55 196.94 43.43 197.07 42.18C197.14 41.59 197.14 40.93 197.07 40.34C197 39.68 196.87 39.22 196.61 38.44L196.48 37.98L196.28 37.59C196.15 37.33 195.95 37.06 195.82 36.87C195.49 36.41 195.03 36.08 194.57 35.75C193.58 35.16 192.53 34.76 191.55 34.57C190.56 34.37 189.78 34.31 189.19 34.31H188.34C187.42 34.31 186.63 33.59 186.63 32.67C186.56 31.82 187.29 31.03 188.21 31.03L188.23 31.02Z" fill="#D2E9FF"/>
<path d="M144.63 39.03H144.5C144.37 39.03 144.24 39.1 144.04 39.16C143.58 39.29 142.99 39.49 142.33 39.95C142 40.15 141.67 40.41 141.41 40.74C141.08 41.07 140.82 41.46 140.62 41.92C140.42 42.38 140.23 42.84 140.09 43.43C139.96 43.96 139.89 44.61 139.89 45.14C139.89 45.86 139.96 46.32 140.09 46.85C140.22 47.38 140.42 47.9 140.75 48.36C141.34 49.28 142.13 49.94 142.92 50.4C143.71 50.86 144.43 51.12 144.96 51.25C145.48 51.38 145.81 51.45 145.75 51.45C146.08 51.45 146.34 51.78 146.28 52.11C146.28 52.44 145.95 52.7 145.62 52.64C145.62 52.64 145.23 52.64 144.63 52.51C144.04 52.38 143.19 52.18 142.13 51.79C141.14 51.33 140.03 50.61 139.11 49.49C138.65 48.9 138.32 48.24 138.06 47.59C137.93 47.26 137.86 46.8 137.73 46.47C137.6 46.08 137.6 45.81 137.53 45.42C137.53 45.22 137.46 45.16 137.46 44.83V44.3C137.46 43.91 137.46 43.58 137.53 43.18C137.6 42.46 137.73 41.67 137.99 41.01C138.25 40.29 138.58 39.63 139.04 39.11C139.43 38.52 139.89 38.06 140.42 37.67C141.34 36.88 142.26 36.49 142.92 36.23C143.25 36.1 143.51 36.03 143.71 35.97C143.91 35.9 144.04 35.9 144.04 35.9C144.96 35.7 145.88 36.23 146.08 37.15C146.28 38.07 145.75 38.99 144.83 39.19C144.76 39.06 144.7 39.06 144.63 39.06V39.03Z" fill="#D2E9FF"/>
<path d="M184.88 58.86C184.88 58.86 184.88 59.32 184.75 60.04C184.62 60.76 184.42 61.75 184.03 62.93C183.64 64.11 183.04 65.49 181.93 66.74C181.4 67.33 180.75 67.92 179.96 68.38C179.57 68.58 179.17 68.84 178.78 68.97L178.12 69.17L177.53 69.3C176.87 69.5 175.89 69.56 175.1 69.56C174.25 69.56 173.46 69.43 172.74 69.3C171.23 68.91 169.98 68.25 169 67.53C168.01 66.81 167.36 66.09 166.9 65.56C166.44 65.03 166.24 64.71 166.24 64.64C165.98 64.31 166.11 63.79 166.44 63.52C166.77 63.26 167.29 63.39 167.56 63.72C167.56 63.65 168.35 64.84 170.12 65.95C170.97 66.48 172.09 67 173.27 67.2C173.86 67.33 174.52 67.33 175.11 67.27C175.77 67.2 176.23 67.14 177.01 66.88L177.47 66.75L177.86 66.55C178.12 66.42 178.38 66.29 178.58 66.09C179.04 65.76 179.43 65.3 179.76 64.91C180.42 63.99 180.81 62.94 181.07 61.96C181.33 60.97 181.4 60.19 181.46 59.6C181.53 59.01 181.46 58.75 181.46 58.75C181.46 57.83 182.25 57.11 183.17 57.11C184.16 57.18 184.94 57.9 184.88 58.88V58.86Z" fill="#D2E9FF"/>
<path d="M132.74 113.17L129.98 105.49C129.98 105.49 136.35 104.5 133 96.17C131.1 91.51 125.71 95.18 125.71 95.18C125.71 95.18 124.79 88.42 117.76 89.93C112.24 91.11 112.11 99.98 114.28 102.8C116.38 105.62 118.55 105.36 118.55 105.36C118.55 105.36 113.95 105.23 114.68 109.43C115.4 113.63 119.01 113.83 121.77 112.45C123.08 111.79 124.07 110.15 124.07 110.15L130.05 115.08C130.57 115.54 131.36 115.61 132.02 115.28C132.74 114.95 133.07 114.03 132.74 113.18V113.17Z" fill="#D2E9FF"/>
<path d="M198.27 130.37C198.01 131.62 197.55 132.73 197.02 133.33C195.44 135.17 192.95 135.37 192.95 135.37C192.95 135.37 195.18 136.62 193.54 139.31C192.29 141.28 188.61 140.1 187.63 138.85C186.58 137.6 186.58 136.16 186.58 136.16L182.11 139.97C181.39 140.63 180.21 140.56 179.55 139.77C178.96 139.11 178.96 138.06 179.55 137.41L180.14 136.75L183.75 132.48C183.75 132.48 178.63 130.38 180.47 126.57C182.11 123.09 185.4 124.73 186.25 125.65C187.04 126.5 187.17 127.95 187.17 127.95C187.17 127.95 188.68 122.11 194.13 123.42C198.2 124.34 198.79 127.69 198.27 130.38V130.37Z" fill="#D2E9FF"/>
<path d="M58.6701 210.68C59.7201 212.12 59.7901 214.09 58.7401 215.6L58.3501 216.13C57.9601 216.66 57.3601 216.92 56.7701 216.92C56.3101 216.92 55.9201 216.79 55.5201 216.46L49.2201 210.94C49.2201 210.94 46.1301 218.1 37.7301 216.46C31.8901 215.28 30.3801 210.29 31.0301 206.15C31.2901 204.11 32.0801 202.28 33.1301 201.16C34.9701 199.19 37.3301 198.93 39.0401 198.99C37.3301 198.46 34.9001 197.09 33.9801 193.67C33.3901 191.5 33.5201 189.34 34.3101 187.63C35.5601 184.94 38.3801 183.23 42.3901 183.69C49.0201 184.54 49.1501 193.93 49.1501 193.93C49.1501 193.93 51.4501 187.56 57.7501 190.32C63.2701 192.75 61.6901 200.1 57.9501 202.99C55.9801 204.5 54.2701 204.83 54.2701 204.83L58.6701 210.67V210.68Z" fill="#E1ECFF"/>
<path d="M44.42 200.18C44.42 200.18 41.73 199.65 39.1 198.93C37.39 198.4 34.96 197.09 33.98 193.61C33.39 191.44 33.52 189.28 34.31 187.57C34.7 189.87 35.75 193.48 38.32 195.84C42.33 199.52 44.43 200.17 44.43 200.17L44.42 200.18Z" fill="#C5DFFF"/>
<path d="M58.34 216.07C57.95 216.59 57.35 216.86 56.76 216.86C56.3 216.86 55.91 216.73 55.51 216.4L49.21 210.88C49.21 210.88 46.12 218.04 37.72 216.4C31.88 215.22 30.37 210.23 31.02 206.09C31.94 208.06 33.98 210.29 38.64 211.08C47.96 212.72 48.23 206.88 48.23 206.88L58.34 216.07Z" fill="#C5DFFF"/>
<path d="M83.36 196.17C82.51 196.17 79.68 195.97 77.12 193.61C74.56 191.25 73.25 187.5 73.18 182.58C73.05 170.96 70.82 169.38 68.39 168.66C64.98 167.67 61.3 168.99 61.3 168.99C59.99 169.52 58.54 168.86 58.02 167.55C57.5 166.24 58.15 164.79 59.46 164.27C59.66 164.2 64.65 162.3 69.77 163.74C76.6 165.71 78.11 172.34 78.18 182.46C78.25 185.87 79.03 188.44 80.41 189.81C81.72 191.06 83.23 191.06 83.23 191.06C84.61 190.93 85.79 192.11 85.86 193.49C85.93 194.87 84.87 196.05 83.5 196.12C83.57 196.19 83.5 196.19 83.37 196.19L83.36 196.17Z" fill="#FF97C9"/>
<path d="M81.32 160.84C80.66 161.43 78.76 163.53 78.5 166.95C78.3 170.43 79.88 174.04 83.23 177.72C91.04 186.26 90.58 188.95 89.27 191.12C87.43 194.21 83.89 195.72 83.89 195.72C82.58 196.24 81.99 197.69 82.51 199C83.04 200.31 84.48 200.9 85.79 200.38C85.99 200.32 90.98 198.28 93.67 193.68C97.28 187.51 93.8 181.73 87.04 174.24C84.74 171.75 83.56 169.31 83.63 167.34C83.7 165.5 84.81 164.52 84.88 164.45C85.93 163.6 86 161.95 85.08 160.9C84.16 159.85 82.65 159.72 81.53 160.64C81.47 160.71 81.4 160.77 81.33 160.84H81.32Z" fill="#99ADF9"/>
<path d="M197.68 175.88C195.19 175.88 192.43 175.09 189.93 173.12C185.66 169.84 182.84 172.07 182.84 172.13C181.79 173.05 180.15 172.92 179.29 171.8C178.37 170.75 178.5 169.11 179.62 168.25C181.66 166.54 187.11 164.51 193.08 169.1C196.3 171.59 199.71 170.94 201.03 169.69C202.28 168.57 203 165.36 203.13 163.45C203.2 162.07 204.44 160.95 205.82 161.09C207.2 161.16 208.25 162.4 208.18 163.78C208.11 164.44 207.65 170.54 204.44 173.43C202.8 174.94 200.37 175.86 197.68 175.86V175.88Z" fill="#99ADF9"/>
<path d="M196.37 207.14L217.32 230.58C217.32 230.58 211.21 220.07 205.96 213.44C200.44 206.61 196.37 207.14 196.37 207.14Z" fill="#E1ECFF"/>
<path d="M212.85 217.91C212.85 217.91 207.46 211.48 206.68 210.49C204.58 207.93 203.07 207.14 203.07 207.14C203.07 207.14 204.97 206.88 207.47 210.03C209.97 213.12 212.86 217.91 212.86 217.91H212.85Z" fill="#E1ECFF"/>
<path d="M180.74 196.04L190.2 179.76L184.55 194.8L192.89 203.07L180.74 196.04Z" fill="#FEC272"/>
<path d="M195.52 187.9L181.93 195.19L185.28 196.44L195.52 187.9Z" fill="#FEC272"/>
<path d="M58.2099 159.2L53.2899 153.49C52.6999 152.77 52.7599 151.72 53.4899 151.06C54.2099 150.47 55.2599 150.53 55.9199 151.26C56.0499 151.39 56.1199 151.52 56.1799 151.65L59.3299 158.48C59.4599 158.81 59.3299 159.2 58.9999 159.33C58.7399 159.53 58.4099 159.46 58.2099 159.2Z" fill="#FEC272"/>
<path d="M53.68 165.44L44.42 166.36C43.5 166.43 42.65 165.77 42.58 164.85C42.51 163.93 43.17 163.08 44.09 163.01H44.48L53.67 164.13C54.06 164.2 54.26 164.52 54.26 164.85C54.19 165.18 54 165.44 53.67 165.44H53.68Z" fill="#FEC272"/>
<path d="M57.75 173.06L53.22 178.71C52.63 179.43 51.58 179.56 50.86 178.97C50.14 178.38 50.01 177.33 50.6 176.61C50.67 176.48 50.8 176.35 50.93 176.28L56.84 172.08C57.17 171.88 57.56 171.95 57.83 172.21C58.03 172.47 57.96 172.8 57.76 173.06H57.75Z" fill="#FEC272"/>
<path d="M85.2 155.85L88.68 151.25C89.14 150.66 89.93 150.59 90.52 150.99C91.11 151.45 91.18 152.24 90.78 152.83C90.72 152.9 90.65 153.03 90.52 153.09L85.92 156.57C85.72 156.77 85.4 156.7 85.2 156.5C85.07 156.3 85.07 156.04 85.2 155.84V155.85Z" fill="#FEC272"/>
<path d="M79.81 153.49L77.58 146.73C77.38 146.07 77.71 145.28 78.43 145.09C79.09 144.89 79.87 145.22 80.07 145.94C80.07 146.01 80.13 146.14 80.13 146.2L80.79 153.29C80.79 153.55 80.59 153.82 80.33 153.82C80.07 153.82 79.87 153.69 79.81 153.49Z" fill="#FEC272"/>
<path d="M74.76 157.76L69.77 155.26C69.11 154.93 68.85 154.14 69.18 153.49C69.51 152.83 70.3 152.57 70.95 152.9C71.08 152.97 71.15 153.03 71.28 153.1L75.42 156.84C75.62 157.04 75.68 157.37 75.49 157.63C75.23 157.83 74.96 157.89 74.77 157.76H74.76Z" fill="#FEC272"/>
<path d="M207.21 149.22L206.03 155.98C205.96 156.37 205.64 156.57 205.24 156.51C204.91 156.44 204.71 156.18 204.65 155.92L203.8 149.09C203.67 148.17 204.32 147.32 205.31 147.19C206.23 147.06 207.08 147.72 207.21 148.7C207.28 148.9 207.28 149.03 207.21 149.22Z" fill="#FEC272"/>
<path d="M219.09 155.59L212.19 160.12C211.73 160.38 211.14 160.32 210.88 159.86C210.62 159.47 210.68 158.94 211.01 158.61L217.05 152.96C217.71 152.3 218.82 152.37 219.41 153.03C220.07 153.69 220 154.8 219.34 155.39C219.21 155.46 219.14 155.52 219.08 155.59H219.09Z" fill="#FEC272"/>
<path d="M217.98 170.04L212.07 167.22C211.68 167.02 211.48 166.56 211.68 166.1C211.81 165.77 212.21 165.57 212.53 165.64L218.96 166.76C219.88 166.89 220.54 167.81 220.34 168.73C220.21 169.65 219.29 170.31 218.37 170.11C218.3 170.18 218.17 170.11 217.98 170.04Z" fill="#FEC272"/>
<path d="M125.45 137.86C125.45 137.86 97.8 170.96 96.75 170.1C96.49 169.9 96.03 168.39 95.44 165.96C93.86 159.07 91.7 144.62 91.43 129.25C91.1 108.56 91.63 102.26 97.14 99.7C101.21 97.8 112.31 116.12 119.6 128.4C122.23 132.6 124.26 136.08 125.44 137.86H125.45Z" fill="#FF97C9"/>
<path d="M125.45 137.86C125.45 137.86 97.7999 170.96 96.7499 170.1C96.4899 169.9 96.0299 168.39 95.4399 165.96C98.1299 159.07 101.42 151.78 105.03 146.26C110.87 137.46 116.13 131.75 119.61 128.4C122.24 132.6 124.27 136.08 125.45 137.86Z" fill="#FC75BC"/>
<path d="M221.19 251.66C219.48 255.21 203.66 250.28 190.72 245.82C188.22 244.97 185.79 244.11 183.56 243.32C178.44 241.55 175.02 236.69 175.02 231.24C175.09 218.57 173.9 198.41 176.33 197.36C179.22 196.05 193.53 210.16 206.6 225.33C220.13 241.02 223.74 246.21 221.18 251.66H221.19Z" fill="#FF97C9"/>
<path d="M190.72 245.82C188.22 244.97 185.79 244.11 183.56 243.33C178.44 241.56 175.02 236.7 175.02 231.25C175.09 218.58 173.9 198.42 176.33 197.37C176.4 197.37 181.78 214.05 185.46 227.18C187.56 234.8 189.34 241.03 190.71 245.83L190.72 245.82Z" fill="#FC75BC"/>
<path d="M181.27 164.52C180.81 182.45 178.18 212.26 167.48 241.81C158.22 267.42 150.21 284.43 144.89 294.48C140.49 302.75 137.93 306.43 137.93 306.43C137.93 306.43 130.97 309.91 117.57 310.96C110.08 311.55 100.63 311.42 89.27 309.52C57.49 304.2 54.14 294.22 54.14 294.22C54.14 294.22 53.68 288.51 55.19 277.28C57.09 262.83 62.35 239.33 76.07 207.21C91.5 171.29 109.1 150.15 120 139.44C126.43 133.14 130.57 130.44 130.57 130.44C130.57 130.44 139.11 126.96 156.77 132.48C163.8 134.65 169.12 137.47 172.86 140.16C178.64 144.17 181 147.71 181 147.71C181 147.71 181.59 154.14 181.26 164.52H181.27Z" fill="#E1ECFF"/>
<path d="M181.27 164.52C180.81 182.45 178.18 212.26 167.48 241.81C158.22 267.42 150.21 284.43 144.89 294.48C140.49 302.75 137.93 306.43 137.93 306.43C137.93 306.43 130.97 309.91 117.57 310.96C126.11 299.27 138.78 278.98 151.39 248.25C171.88 198.34 173.13 154.48 172.93 140.16C178.71 144.17 181.07 147.71 181.07 147.71C181.07 147.71 181.59 154.14 181.27 164.52Z" fill="#C5DFFF"/>
<path d="M62.67 274.45C62.47 274.45 62.34 274.45 62.14 274.38C60.3 274.12 59.05 272.34 59.32 270.51C59.52 269.39 63.72 242.34 75.34 215.09C86.96 187.9 96.16 174.57 96.55 173.98C97.6 172.47 99.7 172.08 101.28 173.13C102.79 174.18 103.18 176.28 102.13 177.86C102.06 177.99 92.87 191.26 81.58 217.72C70.29 244.18 66.02 271.24 66.02 271.5C65.69 273.27 64.25 274.45 62.67 274.45Z" fill="#F8FBFF"/>
<path d="M181.27 164.52C178.97 162.48 176.02 160.12 172.47 157.69C171.02 156.7 169.45 155.65 167.74 154.6C166.82 154.07 165.9 153.48 164.92 152.96C161.05 150.73 156.65 148.63 151.85 146.79C151.46 146.66 151.13 146.53 150.73 146.4C150.01 146.14 149.35 145.87 148.7 145.68C143.18 143.71 138.32 142.4 134.19 141.48C133.01 141.22 131.83 141.02 130.78 140.76C126.18 139.91 122.64 139.64 120.14 139.51C126.57 133.21 130.71 130.51 130.71 130.51C130.71 130.51 133.34 129.46 138.72 129.46C139.9 129.46 141.22 129.53 142.66 129.66C146.08 129.92 150.21 130.65 155.07 132.02C155.66 132.22 156.32 132.35 156.91 132.55C157.37 132.68 157.83 132.81 158.29 133.01C162.1 134.32 165.38 135.77 168.14 137.21C169.26 137.8 170.24 138.39 171.23 139.05C171.89 139.44 172.41 139.84 173 140.23C178.78 144.24 181.14 147.78 181.14 147.78C181.14 147.78 181.6 154.15 181.27 164.53V164.52Z" fill="#071952"/>
<path d="M181.27 164.52C178.97 162.48 176.02 160.12 172.47 157.69C173 150.01 173 144.03 173 140.22C178.78 144.23 181.14 147.77 181.14 147.77C181.14 147.77 181.6 154.14 181.27 164.51V164.52Z" fill="#071952"/>
<path d="M171.22 139.04L168.2 153.81C168.13 154.14 168 154.4 167.74 154.66C166.82 154.13 165.9 153.54 164.92 153.02L168.14 137.26C169.26 137.85 170.31 138.44 171.23 139.03L171.22 139.04Z" fill="#071952"/>
<path d="M158.29 133L151.85 146.79C151.46 146.66 151.13 146.53 150.73 146.4C150.01 146.14 149.35 145.87 148.69 145.68L154.99 132.02C155.58 132.22 156.24 132.35 156.83 132.54C157.35 132.74 157.82 132.87 158.27 133H158.29Z" fill="#071952"/>
<path d="M142.66 129.65C142.59 129.78 142.53 129.91 142.46 130.04L134.19 141.47C133.01 141.21 131.83 141.01 130.77 140.75C130.84 140.49 130.9 140.23 131.1 139.96L138.72 129.39C139.9 129.46 141.22 129.52 142.66 129.65Z" fill="#071952"/>
<path d="M95.14 286.02C110.58 291.32 129.04 278.26 136.39 256.85C143.73 235.44 137.17 213.8 121.74 208.5C106.3 203.2 87.84 216.26 80.49 237.67C73.15 259.08 79.71 280.72 95.14 286.02Z" fill="#C5DFFF"/>
<path d="M97.2601 284.34C112.7 289.64 131.1 276.77 138.36 255.6C145.62 234.43 138.99 212.98 123.56 207.69C108.12 202.39 89.7201 215.26 82.4601 236.43C75.2001 257.6 81.8301 279.05 97.2601 284.34Z" fill="#071952"/>
<path d="M98.7899 277.01C111.04 281.21 125.72 270.74 131.6 253.62C137.47 236.5 132.31 219.22 120.06 215.02C107.81 210.82 93.1299 221.29 87.2499 238.41C81.3799 255.53 86.5399 272.81 98.7899 277.01Z" fill="#99ADF9"/>
<path d="M105 236.06C108.5 237.26 112.7 234.26 114.38 229.35C116.06 224.45 114.59 219.5 111.09 218.3C107.59 217.1 103.39 220.1 101.71 225.01C100.03 229.92 101.5 234.87 105 236.07V236.06Z" fill="#C5DFFF"/>
<path d="M96.97 257.63C98.86 258.28 101.11 256.69 102.01 254.08C102.9 251.47 102.1 248.84 100.21 248.19C98.32 247.54 96.07 249.13 95.17 251.74C94.28 254.35 95.08 256.99 96.97 257.63Z" fill="#C5DFFF"/>
<path d="M131.62 253.63C125.71 270.77 111.07 281.21 98.79 277.01C92.35 274.78 87.82 268.93 85.92 261.38C87.5 262.43 89.2 263.35 91.04 263.94C106.27 269.19 124.6 256.12 131.88 234.78C132.34 233.47 132.73 232.15 133.06 230.84C134.7 237.6 134.37 245.68 131.61 253.63H131.62Z" fill="#7C99F2"/>
<path d="M144.95 294.54C140.55 302.81 137.99 306.49 137.99 306.49C137.99 306.49 131.03 309.97 117.63 311.02C110.14 311.61 100.69 311.48 89.33 309.57C77.58 307.6 69.76 304.97 64.51 302.48C55.58 298.21 54.2 294.27 54.2 294.27C54.2 294.27 53.74 288.56 55.25 277.33C58.01 279.89 61.69 282.78 66.54 285.47C74.03 289.61 84.2 293.48 98.06 295.52C108.44 297.03 118.35 297.23 127.22 296.64C133.79 296.31 139.76 295.46 144.95 294.54Z" fill="#FF97C9"/>
<path d="M144.95 294.54C140.55 302.81 137.99 306.49 137.99 306.49C137.99 306.49 131.03 309.97 117.63 311.02C120.45 307.14 123.67 302.42 127.22 296.64C133.79 296.31 139.76 295.46 144.95 294.54Z" fill="#FC75BC"/>
<path d="M66.55 285.55L64.51 302.56C55.58 298.29 54.2 294.35 54.2 294.35C54.2 294.35 53.74 288.64 55.25 277.41C58.01 279.97 61.69 282.79 66.54 285.55H66.55Z" fill="#FCB6DA"/>
<g style="mix-blend-mode:hue">
<path d="M206.02 294.74C197.81 293.82 174.3 294.15 174.57 299.73C174.9 305.31 184.48 305.9 193.68 305.84C201.1 305.71 210.36 303.8 213.18 300.72C213.57 300.26 213.9 299.87 214.1 299.47C215.35 297.04 213.12 295.4 206.02 294.74Z" fill="#071952"/>
<path d="M16.3099 303.6C22.1499 303.53 29.4399 301.96 31.6799 299.53C32.0099 299.2 32.2699 298.87 32.3999 298.55C33.4499 296.58 31.6099 295.27 26.0299 294.68C19.5899 293.96 1.07988 294.22 1.26988 298.69C1.46988 303.22 9.07989 303.68 16.3099 303.61V303.6Z" fill="#071952"/>
<path d="M151.26 329.67C148.9 328.42 143.58 327.57 135.76 327.83C129.13 328.09 121.77 329.47 120 331.97C119.74 332.3 119.61 332.69 119.61 333.09C119.54 336.24 143.58 336.11 150.01 333.55C153.1 332.3 153.43 330.86 151.26 329.68V329.67Z" fill="#071952"/>
<path d="M118.32 105.36C117.4 105.4 114.05 105.79 114.68 109.43C115.4 113.63 119.01 113.83 121.77 112.45C123.08 111.79 124.07 110.15 124.07 110.15L130.05 115.07C130.58 115.53 131.36 115.6 132.02 115.27C132.74 114.94 133.07 114.02 132.74 113.17L129.98 105.49C129.98 105.49 136.35 104.5 133 96.16C131.1 91.5 125.71 95.18 125.71 95.18C125.71 95.18 124.79 88.42 117.76 89.93C112.24 91.11 112.11 99.98 114.28 102.8C115.97 105.07 117.71 105.35 118.32 105.37V105.36Z" fill="#071952"/>
<path d="M197.03 133.33C197.56 132.74 198.02 131.62 198.28 130.38C198.81 127.69 198.21 124.34 194.14 123.42C188.69 122.11 187.18 127.95 187.18 127.95C187.18 127.95 187.05 126.5 186.26 125.65C185.41 124.73 182.12 123.09 180.48 126.57C178.64 130.38 183.76 132.48 183.76 132.48L180.15 136.75L179.56 137.41C178.97 138.07 178.97 139.12 179.56 139.77C180.22 140.56 181.4 140.62 182.12 139.97L186.59 136.16C186.59 136.16 186.59 137.61 187.64 138.85C188.62 140.1 192.3 141.28 193.55 139.31C195.19 136.62 192.96 135.37 192.96 135.37C192.96 135.37 195.46 135.17 197.03 133.33Z" fill="#071952"/>
<path d="M37.72 216.46C46.13 218.1 49.21 210.94 49.21 210.94L55.51 216.46C55.9 216.79 56.3 216.92 56.76 216.92C57.35 216.92 57.94 216.66 58.34 216.13L58.73 215.6C59.78 214.09 59.72 212.12 58.66 210.68L54.26 204.84C54.26 204.84 55.97 204.51 57.94 203C61.68 200.11 63.26 192.76 57.74 190.33C51.44 187.57 49.14 193.94 49.14 193.94C49.14 193.94 49.01 184.55 42.38 183.7C38.38 183.24 35.56 184.94 34.31 187.62C34.31 187.6 34.31 187.59 34.31 187.57C33.82 188.64 33.58 189.89 33.62 191.21C33.64 192.02 33.76 192.85 33.98 193.68C34.9 197.09 37.33 198.47 39.04 199C37.33 198.93 34.97 199.2 33.13 201.17C32.09 202.28 31.31 204.1 31.04 206.11C31.04 206.11 31.04 206.1 31.04 206.09C30.96 206.62 30.91 207.17 30.9 207.72C30.82 211.47 32.62 215.43 37.74 216.46H37.72Z" fill="#071952"/>
<path d="M196.37 207.14L217.32 230.58C217.32 230.58 211.21 220.07 205.96 213.44C200.44 206.61 196.37 207.14 196.37 207.14Z" fill="#071952"/>
<path d="M206.68 210.49C207.47 211.47 212.85 217.91 212.85 217.91C212.85 217.91 209.96 213.12 207.46 210.03C204.97 206.88 203.06 207.14 203.06 207.14C203.06 207.14 204.57 207.93 206.67 210.49H206.68Z" fill="#071952"/>
<path d="M185.03 193.52L190.2 179.76L180.74 196.04L192.89 203.07L185.78 196.01L195.52 187.9L185.03 193.52Z" fill="#071952"/>
<path d="M58.2099 159.2C58.4099 159.46 58.7399 159.53 58.9999 159.33C59.3299 159.2 59.4599 158.8 59.3299 158.48L56.1799 151.65C56.1099 151.52 56.0499 151.39 55.9199 151.26C55.2599 150.54 54.2099 150.47 53.4899 151.06C52.7699 151.72 52.6999 152.77 53.2899 153.49L58.2099 159.2Z" fill="#071952"/>
<path d="M44.4199 166.36L53.6799 165.44C54.0099 165.44 54.2099 165.18 54.2699 164.85C54.2699 164.52 54.0699 164.19 53.6799 164.13L44.4899 163.01H44.0999C43.1799 163.08 42.5199 163.93 42.5899 164.85C42.6599 165.77 43.5099 166.43 44.4299 166.36H44.4199Z" fill="#071952"/>
<path d="M50.92 176.28C50.79 176.35 50.66 176.48 50.59 176.61C50 177.33 50.13 178.38 50.85 178.97C51.57 179.56 52.62 179.43 53.21 178.71L57.74 173.06C57.94 172.8 58 172.47 57.81 172.21C57.55 171.95 57.15 171.88 56.82 172.08L50.91 176.28H50.92Z" fill="#071952"/>
<path d="M85.9199 156.58L90.5199 153.1C90.6499 153.03 90.7199 152.9 90.7799 152.84C91.1699 152.25 91.1099 151.46 90.5199 151C89.9299 150.61 89.1399 150.67 88.6799 151.26L85.1999 155.86C85.0699 156.06 85.0699 156.32 85.1999 156.52C85.3999 156.72 85.7299 156.78 85.9199 156.59V156.58Z" fill="#071952"/>
<path d="M79.8099 153.49C79.8799 153.69 80.0699 153.82 80.3399 153.82C80.6099 153.82 80.7999 153.56 80.7999 153.29L80.1399 146.2C80.1399 146.13 80.0699 146 80.0699 145.94C79.8699 145.22 79.0899 144.89 78.4299 145.09C77.7099 145.29 77.3799 146.07 77.5799 146.73L79.8099 153.49Z" fill="#071952"/>
<path d="M69.77 155.26L74.76 157.76C74.96 157.89 75.22 157.83 75.48 157.63C75.68 157.37 75.61 157.04 75.41 156.84L71.27 153.1C71.14 153.03 71.07 152.97 70.94 152.9C70.28 152.57 69.5 152.83 69.17 153.49C68.84 154.15 69.1 154.93 69.76 155.26H69.77Z" fill="#071952"/>
<path d="M205.3 147.19C204.31 147.32 203.66 148.17 203.79 149.09L204.64 155.92C204.71 156.18 204.9 156.45 205.23 156.51C205.62 156.58 205.95 156.38 206.02 155.98L207.2 149.22C207.27 149.02 207.27 148.89 207.2 148.69C207.07 147.71 206.22 147.05 205.3 147.18V147.19Z" fill="#071952"/>
<path d="M210.88 159.86C211.14 160.32 211.73 160.39 212.19 160.12L219.08 155.59C219.15 155.52 219.21 155.46 219.34 155.39C220 154.8 220.06 153.68 219.41 153.03C218.82 152.37 217.7 152.31 217.05 152.96L211.01 158.61C210.68 158.94 210.62 159.46 210.88 159.86Z" fill="#071952"/>
<path d="M218.37 170.1C219.29 170.3 220.21 169.64 220.34 168.72C220.54 167.8 219.88 166.88 218.96 166.75L212.53 165.63C212.2 165.56 211.81 165.76 211.68 166.09C211.48 166.55 211.68 167.01 212.07 167.21L217.98 170.03C218.18 170.1 218.31 170.16 218.37 170.1Z" fill="#071952"/>
<path d="M206.61 225.33C195.5 212.43 183.49 200.3 178.37 197.76C179.75 188.53 180.52 180.01 180.93 172.72C181.6 172.8 182.3 172.61 182.84 172.13C182.84 172.06 185.66 169.83 189.93 173.11C192.43 175.08 195.18 175.87 197.68 175.87C200.37 175.87 202.8 174.95 204.44 173.44C207.66 170.55 208.12 164.44 208.18 163.79C208.25 162.41 207.2 161.16 205.82 161.1C204.44 160.97 203.19 162.08 203.13 163.46C203 165.36 202.28 168.58 201.03 169.7C199.72 170.95 196.3 171.6 193.08 169.11C188.27 165.41 183.8 166.01 181.17 167.28C181.2 166.33 181.23 165.41 181.26 164.52C181.59 154.14 181.13 147.78 181.13 147.78C181.13 147.78 180.2 146.39 178.09 144.36C176.82 143.14 175.12 141.68 172.92 140.16C172.92 140.16 172.92 140.17 172.92 140.18C172.45 139.87 172.01 139.55 171.51 139.24C171.41 139.18 171.31 139.11 171.21 139.05C171.21 139.05 171.2 139.05 171.19 139.04C171.14 139.01 171.08 138.97 171.03 138.94C170.11 138.33 169.18 137.77 168.13 137.22C166.89 136.54 165.55 135.87 164.1 135.23C167.61 122.84 172.73 104.12 175.27 91.9101C179.06 93.2301 183.34 94.4301 187.31 94.4201C190.69 94.4201 193.86 93.5701 196.3 91.1801C204.97 82.7101 195.71 75.7501 195.91 73.6501C196.11 71.7501 208.65 71.2201 213.25 57.3001C213.71 55.7901 214.17 54.0801 214.43 52.2401C217.38 33.3301 196.57 29.7201 193.94 28.3401C191.45 27.0301 192.3 -0.949937 164.65 0.0400626C137.07 1.03006 137.27 23.7501 136.41 27.6201C135.56 31.4901 118.09 30.1201 117.43 49.7501V50.9301C117.43 50.9301 117.43 51.0201 117.43 51.0601C117.41 51.0201 117.38 50.9701 117.36 50.9301C117.36 70.5601 134.83 70.9601 137.06 73.1301C139.29 75.3001 129.57 79.7001 135.62 87.5101C138.86 91.7001 142.6 93.0501 146.39 93.0501C146.68 93.0501 146.98 93.0501 147.27 93.0301L149.28 130.56C136.7 127.99 130.57 130.46 130.57 130.46C130.57 130.46 128.11 132.06 124.05 135.67C122.89 133.79 121.39 131.28 119.6 128.42C112.31 116.14 101.21 97.8201 97.1399 99.7201C91.6199 102.28 91.0999 108.58 91.4299 129.27C91.6899 144.64 93.8599 159.08 95.4399 165.98C95.7599 167.3 96.0399 168.33 96.27 169.05C94.3699 171.97 92.4499 175.08 90.5299 178.38C89.4999 177.06 88.3299 175.69 87.0299 174.25C84.7299 171.76 83.5499 169.33 83.6199 167.35C83.6899 165.51 84.7999 164.53 84.8699 164.46C85.92 163.61 85.9899 161.96 85.0699 160.91C84.1499 159.86 82.64 159.73 81.52 160.65C81.45 160.72 81.3899 160.78 81.3199 160.85C80.6599 161.44 78.7599 163.54 78.4999 166.96C78.2999 170.44 79.88 174.05 83.2299 177.73C85.2499 179.94 86.7099 181.75 87.7499 183.27C86.3699 185.77 84.99 188.37 83.6199 191.07C83.49 191.06 83.3599 191.05 83.2299 191.07C83.2299 191.07 81.7199 191.07 80.41 189.82C79.03 188.44 78.2399 185.88 78.1799 182.47C78.1099 172.36 76.6 165.73 69.77 163.75C64.6499 162.31 59.6599 164.21 59.4599 164.28C58.1499 164.81 57.4899 166.25 58.0199 167.56C58.5499 168.87 59.9899 169.53 61.2999 169.01C61.2999 169.01 64.9799 167.7 68.3899 168.68C70.8199 169.4 73.0499 170.98 73.1799 182.6C73.2499 187.53 74.56 191.27 77.1199 193.63C78.5399 194.94 80.0399 195.58 81.2399 195.89C79.4999 199.5 77.7699 203.26 76.0699 207.22C62.3499 239.33 57.0899 262.84 55.1899 277.29C54.9299 279.21 54.7299 280.95 54.5799 282.55C49.0099 283.04 44.7599 284.13 42.6499 286.42C41.6599 287.54 41.1399 288.91 41.2099 290.69C41.6699 299.29 49.6799 301.2 31.9499 305.27C14.2899 309.28 -5.74006 312.95 1.60994 323.33C8.95994 333.64 32.4099 321.43 44.6199 328.06C56.8999 334.76 66.5499 344.02 88.4899 336.86C110.42 329.7 115.28 323.92 137.22 322.68C159.15 321.43 171.37 320.25 172.02 312.5C172.68 304.75 152.45 305.34 154.75 299.17C157.05 293 176.88 293.92 179.83 286.69C180.09 286.1 180.03 285.57 179.63 285.05C177.86 281.83 166.31 279.96 152.54 278.86C156.87 269.35 161.95 257.14 167.49 241.84C170.57 233.34 172.98 224.81 174.86 216.55C174.92 220.7 175.02 224.99 175.04 228.81C175.04 229.65 175.04 230.48 175.04 231.27C175.04 231.61 175.05 231.95 175.08 232.28C175.47 237.31 178.78 241.69 183.58 243.35C185.81 244.14 188.24 244.99 190.74 245.84C203.68 250.3 219.5 255.23 221.21 251.68C223.77 246.23 220.16 241.04 206.63 225.35L206.61 225.33Z" fill="#071952"/>
</g>
</g>
<defs>
<clipPath id="clip0_12960_68150">
<rect width="221.92" height="339.42" fill="white" transform="translate(0.0400391)"/>
</clipPath>
</defs>
</svg>
