<svg width="13" height="14" viewBox="0 0 13 14" fill="none" xmlns="http://www.w3.org/2000/svg">
<path d="M0.538534 1.28736L8.40989 0.163329C8.45431 0.156956 8.49959 0.160208 8.54264 0.172863C8.5857 0.185518 8.62553 0.207281 8.65944 0.236678C8.69335 0.266074 8.72055 0.302416 8.73918 0.343242C8.75782 0.384067 8.76746 0.428421 8.76745 0.473299V13.5271C8.76745 13.5719 8.75782 13.6162 8.73922 13.657C8.72062 13.6978 8.69349 13.7341 8.65965 13.7635C8.62581 13.7928 8.58606 13.8146 8.54308 13.8273C8.5001 13.84 8.45489 13.8433 8.41052 13.8371L0.537907 12.713C0.388633 12.6918 0.252041 12.6174 0.153224 12.5035C0.0544077 12.3896 1.44688e-06 12.2439 0 12.0931V1.9073C1.44688e-06 1.75652 0.0544077 1.6108 0.153224 1.49692C0.252041 1.38303 0.389259 1.30862 0.538534 1.28736ZM1.25303 2.45084V11.5496L7.51505 12.4444V1.556L1.25303 2.45084ZM9.39365 11.3836H11.2723V2.61679H9.39365V1.36438H11.8985C12.0645 1.36438 12.2238 1.43036 12.3413 1.54779C12.4587 1.66523 12.5247 1.82451 12.5247 1.99059V12.0098C12.5247 12.1759 12.4587 12.3352 12.3413 12.4526C12.2238 12.57 12.0645 12.636 11.8985 12.636H9.39365V11.3836ZM5.13548 7.0002L6.88885 9.50501H5.38596L4.38404 8.07351L3.38212 9.50501H1.87923L3.6326 7.0002L1.87923 4.49539H3.38212L4.38404 5.92689L5.38596 4.49539H6.88885L5.13548 7.0002Z" fill="#11103D"/>
</svg>
