<svg width="22" height="17" viewBox="0 0 22 17" fill="none" xmlns="http://www.w3.org/2000/svg">
<path d="M10.91 0.930389C18.5429 0.930389 21.4053 8.5633 21.4053 8.5633C21.4053 8.5633 18.5429 16.1962 10.91 16.1962C3.27711 16.1962 0.414768 8.5633 0.414768 8.5633C0.414768 8.5633 3.27711 0.930389 10.91 0.930389ZM10.91 3.79273C8.27571 3.79273 6.13945 5.92899 6.13945 8.5633C6.13945 11.1976 8.27571 13.3339 10.91 13.3339C13.5443 13.3339 15.6806 11.1976 15.6806 8.5633C15.6806 5.92899 13.5443 3.79273 10.91 3.79273ZM10.91 5.70096C11.6692 5.70096 12.3972 6.00253 12.934 6.53932C13.4708 7.07611 13.7724 7.80416 13.7724 8.5633C13.7724 9.32244 13.4708 10.0505 12.934 10.5873C12.3972 11.1241 11.6692 11.4256 10.91 11.4256C10.1509 11.4256 9.42283 11.1241 8.88604 10.5873C8.34925 10.0505 8.04768 9.32244 8.04768 8.5633C8.04768 7.80416 8.34925 7.07611 8.88604 6.53932C9.42283 6.00253 10.1509 5.70096 10.91 5.70096Z" fill="#AFAFAF"/>
</svg>
