<svg width="11" height="11" viewBox="0 0 11 11" fill="none" xmlns="http://www.w3.org/2000/svg">
<path d="M10.964 4.14352C10.9227 4.00739 10.8431 3.8872 10.7355 3.79841C10.6279 3.70961 10.4971 3.65628 10.3601 3.64526L7.38758 3.37848C7.3696 3.37665 7.35244 3.36979 7.33791 3.35864C7.32339 3.34749 7.31205 3.33247 7.30509 3.31516L6.14379 0.441851C6.09001 0.310775 6.0003 0.199006 5.88582 0.120445C5.77133 0.0418849 5.63713 0 5.4999 0C5.36268 0 5.22847 0.0418849 5.11399 0.120445C4.99951 0.199006 4.9098 0.310775 4.85602 0.441851L3.69472 3.31516C3.68776 3.33247 3.67642 3.34749 3.66189 3.35864C3.64737 3.36979 3.63021 3.37665 3.61223 3.37848L0.63975 3.64526C0.502697 3.65628 0.371952 3.70961 0.264333 3.79841C0.156714 3.8872 0.0771435 4.00739 0.0358556 4.14352C-0.00787199 4.27984 -0.0116916 4.42656 0.0248796 4.56513C0.0614508 4.70371 0.136771 4.82791 0.24132 4.92205L2.49643 6.96441C2.51024 6.97714 2.52049 6.99349 2.52612 7.01176C2.53175 7.03002 2.53254 7.04952 2.52842 7.06821L1.85054 10.105C1.81894 10.2448 1.82796 10.3912 1.87645 10.5257C1.92494 10.6602 2.01073 10.7768 2.12299 10.8607C2.23351 10.9454 2.36594 10.9937 2.50317 10.9994C2.6404 11.0052 2.77614 10.968 2.89286 10.8929L5.44791 9.28392C5.46293 9.27427 5.48024 9.26915 5.4979 9.26915C5.51557 9.26915 5.53288 9.27427 5.5479 9.28392L8.10295 10.8929C8.22088 10.9678 8.35755 11.0049 8.49572 10.9993C8.63389 10.9936 8.76737 10.9457 8.8793 10.8614C8.99123 10.7771 9.07661 10.6603 9.12466 10.5257C9.17271 10.3911 9.18127 10.2447 9.14927 10.105L8.47339 7.06717C8.46926 7.04848 8.47006 7.02898 8.47569 7.01072C8.48132 6.99246 8.49157 6.9761 8.50538 6.96337L10.7605 4.92102C10.8645 4.82671 10.9393 4.70257 10.9755 4.56423C11.0117 4.42588 11.0077 4.2795 10.964 4.14352ZM10.3641 4.45078L8.10895 6.49313C8.01286 6.57994 7.94141 6.69232 7.9023 6.81817C7.86318 6.94402 7.85789 7.07857 7.88699 7.20731L8.56287 10.2451C8.56787 10.2656 8.56676 10.2871 8.55971 10.3068C8.55266 10.3266 8.53998 10.3436 8.52338 10.3557C8.50835 10.3682 8.48987 10.3754 8.47062 10.3762C8.45138 10.3771 8.43239 10.3715 8.4164 10.3604L5.86134 8.7514C5.75241 8.68266 5.62738 8.64631 5.4999 8.64631C5.37243 8.64631 5.2474 8.68266 5.13847 8.7514L2.58341 10.3604C2.56742 10.3715 2.54842 10.3771 2.52918 10.3762C2.50994 10.3754 2.49146 10.3682 2.47643 10.3557C2.45982 10.3436 2.44715 10.3266 2.4401 10.3068C2.43304 10.2871 2.43194 10.2656 2.43694 10.2451L3.11282 7.20731C3.14192 7.07857 3.13663 6.94402 3.09751 6.81817C3.0584 6.69232 2.98695 6.57994 2.89086 6.49313L0.635751 4.45078C0.620328 4.43716 0.609251 4.419 0.603984 4.39871C0.598717 4.37841 0.59951 4.35693 0.606256 4.33711C0.611305 4.31738 0.622251 4.29981 0.637522 4.28694C0.652792 4.27407 0.6716 4.26656 0.691241 4.26549L3.66422 3.99871C3.7915 3.98745 3.91338 3.94025 4.01666 3.86221C4.11994 3.78416 4.20067 3.67827 4.25012 3.55599L5.41142 0.682678C5.41949 0.664844 5.43229 0.649766 5.44831 0.639204C5.46434 0.628642 5.48292 0.623033 5.5019 0.623033C5.52088 0.623033 5.53947 0.628642 5.55549 0.639204C5.57152 0.649766 5.58431 0.664844 5.59239 0.682678L6.74969 3.55599C6.79898 3.67797 6.87941 3.78368 6.98231 3.8617C7.0852 3.93971 7.20666 3.98709 7.33358 3.99871L10.3066 4.26549C10.3262 4.26656 10.345 4.27407 10.3603 4.28694C10.3756 4.29981 10.3865 4.31738 10.3916 4.33711C10.3985 4.35673 10.3996 4.37808 10.3947 4.39836C10.3898 4.41864 10.3791 4.43691 10.3641 4.45078Z" fill="#11103D"/>
</svg>
