<svg width="326" height="260" viewBox="0 0 326 260" fill="none" xmlns="http://www.w3.org/2000/svg">
<path d="M63.1797 64.4673C65.2661 63.2268 67.0545 62.1044 68.9025 61.0411C85.4748 51.3533 102.107 41.7245 118.56 31.9186C124.461 28.3743 130.005 28.3743 135.907 31.8595C153.612 42.3743 171.436 52.7119 189.201 63.1086C189.856 63.463 190.452 63.8765 191.287 64.4082C190.512 64.8808 189.976 65.2943 189.32 65.6487C169.29 76.6952 149.201 87.7416 129.171 98.7881C127.8 99.556 126.786 99.6151 125.356 98.8472C105.385 87.8007 85.4152 76.8133 65.3854 65.7668C64.7892 65.4124 64.1335 64.9989 63.1797 64.4673Z" fill="#8B909A"/>
<path d="M63.0606 71.6738C63.8952 72.0873 64.4913 72.3236 65.0278 72.619C84.0442 83.2519 103.061 93.944 122.077 104.518C123.269 105.168 123.746 105.817 123.746 107.235C123.687 127.733 123.687 148.231 123.687 168.67C123.687 169.143 123.627 169.615 123.567 170.442C120.11 168.434 116.831 166.543 113.612 164.653C99.305 156.324 85.0576 147.995 70.7506 139.666C65.5643 136.653 62.9414 132.223 63.001 126.197C63.001 108.653 63.001 91.1085 63.001 73.5641C63.0606 73.0916 63.0606 72.5599 63.0606 71.6738Z" fill="#8B909A"/>
<path d="M191.584 71.6743C191.584 72.6785 191.584 73.3874 191.584 74.0963C191.584 91.3453 191.524 108.594 191.584 125.843C191.644 132.223 188.961 136.831 183.477 140.021C166.606 149.768 149.796 159.633 132.925 169.438C132.389 169.793 131.793 170.029 131.018 170.443C130.958 169.616 130.898 168.966 130.898 168.375C130.898 148.113 130.898 127.852 130.898 107.59C130.898 106.35 131.018 105.463 132.329 104.755C151.584 94.0626 170.779 83.3115 189.974 72.5604C190.392 72.206 190.809 72.0287 191.584 71.6743Z" fill="#8B909A"/>
<path d="M220.138 184.738C208.454 184.738 197.187 184.679 185.861 184.797C183.297 184.797 181.092 184.088 179.065 182.552C171.792 177.059 164.46 171.683 157.127 166.248C156.531 165.835 155.995 165.362 155.16 164.712C159.452 162.172 163.566 159.75 167.738 157.447C168.156 157.21 169.109 157.624 169.646 157.978C174.892 161.818 180.138 165.776 185.384 169.615C186.099 170.147 187.112 170.62 187.947 170.679C198.379 170.738 208.752 170.738 219.184 170.738C219.422 170.738 219.601 170.679 220.138 170.561C220.138 168.493 220.138 166.366 220.138 164.24C220.197 159.396 223.059 156.561 227.947 156.561C237.008 156.561 246.069 156.561 255.19 156.561C260.078 156.561 262.999 159.455 262.999 164.24C262.999 173.278 262.999 182.375 262.999 191.413C262.999 196.08 260.078 198.974 255.309 198.974C246.188 198.974 237.008 198.974 227.887 198.974C223.178 198.974 220.257 196.08 220.197 191.413C220.078 189.227 220.138 187.101 220.138 184.738ZM248.692 177.59C248.633 173.75 245.414 170.62 241.479 170.62C237.604 170.62 234.385 173.81 234.385 177.708C234.385 181.607 237.723 184.856 241.658 184.797C245.592 184.679 248.752 181.43 248.692 177.59Z" fill="#8B909A"/>
<path d="M155.16 34.9312C157.664 33.0409 159.929 31.3869 162.135 29.6738C167.798 25.4797 173.461 21.3447 179.065 17.0915C181.032 15.6147 183.118 14.9058 185.682 14.9058C197.068 14.9649 208.394 14.9058 220.078 14.9058C220.078 12.7201 220.078 10.5935 220.078 8.52603C220.138 3.68213 222.94 0.787598 227.828 0.787598C236.949 0.787598 246.129 0.787598 255.25 0.787598C259.959 0.787598 262.88 3.68213 262.94 8.34881C262.94 17.505 262.999 26.6021 262.94 35.7582C262.94 40.3068 259.959 43.2013 255.369 43.2013C246.129 43.2604 236.949 43.2604 227.709 43.2013C223.059 43.2013 220.138 40.2477 220.078 35.5219C220.078 33.4544 220.078 31.3869 220.078 29.1422C219.244 29.0831 218.528 29.024 217.813 29.024C208.096 29.024 198.32 28.9649 188.603 29.0831C187.47 29.0831 186.159 29.5557 185.205 30.2645C180.078 33.927 175.011 37.7076 170.063 41.4882C168.931 42.3743 168.036 42.5515 166.725 41.7245C163.089 39.4797 159.273 37.3532 155.16 34.9312ZM248.692 21.9944C248.692 18.1548 245.473 14.9649 241.598 14.9649C237.724 14.9649 234.504 18.0957 234.445 21.9354C234.385 25.8341 237.664 29.1422 241.658 29.0831C245.473 29.0831 248.692 25.8341 248.692 21.9944Z" fill="#8B909A"/>
<path d="M220.141 106.94C212.928 106.94 206.013 106.94 198.859 106.94C198.859 102.214 198.859 97.6065 198.859 92.7626C205.894 92.7626 212.868 92.7626 220.141 92.7626C220.141 90.3406 220.141 88.155 220.141 85.9693C220.201 81.5389 223.122 78.6444 227.593 78.5853C236.892 78.5262 246.192 78.5262 255.491 78.5853C260.022 78.5853 263.002 81.5389 263.002 86.0875C263.062 95.2436 263.062 104.341 263.002 113.497C263.002 118.045 260.022 120.999 255.491 120.999C246.192 121.058 236.892 121.058 227.593 120.999C223.181 120.999 220.201 117.986 220.141 113.615C220.081 111.547 220.141 109.421 220.141 106.94ZM248.695 99.8512C248.695 96.0116 245.476 92.8217 241.602 92.8217C237.727 92.8217 234.508 95.9525 234.448 99.7922C234.388 103.691 237.667 106.999 241.661 106.94C245.476 106.881 248.695 103.691 248.695 99.8512Z" fill="#8B909A"/>
<path d="M2.36 251L6.56 222.08H10L21.14 244.56L24.36 222.08H27.98L23.78 251H20.58L9.26 228.2L5.98 251H2.36ZM38.3063 251.4C36.4929 251.4 34.9663 250.993 33.7263 250.18C32.4863 249.353 31.5996 248.147 31.0663 246.56C30.5463 244.973 30.4396 243.033 30.7463 240.74C31.0529 238.58 31.6663 236.687 32.5863 235.06C33.5063 233.433 34.6996 232.173 36.1663 231.28C37.6463 230.373 39.3529 229.92 41.2863 229.92C43.0996 229.92 44.6129 230.34 45.8263 231.18C47.0529 232.007 47.9263 233.227 48.4463 234.84C48.9663 236.453 49.0663 238.42 48.7463 240.74C48.4529 242.847 47.8529 244.7 46.9463 246.3C46.0396 247.9 44.8596 249.153 43.4063 250.06C41.9663 250.953 40.2663 251.4 38.3063 251.4ZM38.7463 248.48C39.9063 248.48 40.9263 248.167 41.8063 247.54C42.6996 246.913 43.4329 246.013 44.0063 244.84C44.5796 243.667 44.9729 242.273 45.1863 240.66C45.3863 239.18 45.3796 237.853 45.1663 236.68C44.9663 235.493 44.5129 234.553 43.8063 233.86C43.1129 233.167 42.1329 232.82 40.8663 232.82C39.6796 232.82 38.6396 233.133 37.7463 233.76C36.8529 234.373 36.1196 235.267 35.5463 236.44C34.9729 237.613 34.5729 239.02 34.3463 240.66C34.1596 242.113 34.1663 243.433 34.3663 244.62C34.5796 245.807 35.0396 246.747 35.7463 247.44C36.4529 248.133 37.4529 248.48 38.7463 248.48ZM61.9894 251L66.1694 222.08H83.2694L82.7894 225.32H69.3694L68.0294 234.88H80.0494L79.5694 238.08H67.5494L65.6894 251H61.9894ZM91.7722 251.4C89.9322 251.4 88.3722 250.98 87.0922 250.14C85.8255 249.3 84.9122 248.093 84.3522 246.52C83.8055 244.947 83.6922 243.06 84.0122 240.86C84.3189 238.687 84.9455 236.78 85.8922 235.14C86.8522 233.5 88.0655 232.22 89.5322 231.3C91.0122 230.38 92.7055 229.92 94.6122 229.92C96.4789 229.92 97.9922 230.34 99.1522 231.18C100.312 232.02 101.112 233.207 101.552 234.74C102.006 236.26 102.079 238.067 101.772 240.16L101.572 241.52H87.5522C87.3655 242.827 87.3989 244.013 87.6522 245.08C87.9055 246.133 88.3989 246.973 89.1322 247.6C89.8789 248.227 90.8789 248.54 92.1322 248.54C93.3722 248.54 94.4855 248.233 95.4722 247.62C96.4589 247.007 97.1589 246.12 97.5722 244.96H100.952C100.512 246.36 99.8122 247.54 98.8522 248.5C97.8922 249.46 96.7922 250.187 95.5522 250.68C94.3122 251.16 93.0522 251.4 91.7722 251.4ZM87.9122 239.02H98.4722C98.6455 237.833 98.6122 236.767 98.3722 235.82C98.1322 234.86 97.6655 234.107 96.9722 233.56C96.2922 233 95.3589 232.72 94.1722 232.72C92.9722 232.72 91.9255 233.033 91.0322 233.66C90.1522 234.273 89.4455 235.067 88.9122 236.04C88.3922 237 88.0589 237.993 87.9122 239.02ZM110.496 251.4C109.229 251.4 108.142 251.167 107.236 250.7C106.329 250.22 105.669 249.533 105.256 248.64C104.842 247.747 104.722 246.667 104.896 245.4C105.216 243.107 106.216 241.4 107.896 240.28C109.589 239.16 112.116 238.56 115.476 238.48L118.916 238.38L119.156 236.76C119.342 235.44 119.082 234.427 118.376 233.72C117.682 233 116.669 232.64 115.336 232.64C114.256 232.653 113.229 232.947 112.256 233.52C111.282 234.093 110.596 234.973 110.196 236.16H107.016C107.256 234.96 107.776 233.893 108.576 232.96C109.389 232.013 110.416 231.273 111.656 230.74C112.909 230.193 114.329 229.92 115.916 229.92C117.609 229.92 118.989 230.193 120.056 230.74C121.122 231.287 121.869 232.06 122.296 233.06C122.736 234.047 122.856 235.213 122.656 236.56L120.576 251H117.516L117.756 247.24C116.756 248.853 115.642 249.953 114.416 250.54C113.189 251.113 111.882 251.4 110.496 251.4ZM111.956 248.74C112.609 248.74 113.276 248.613 113.956 248.36C114.636 248.107 115.269 247.767 115.856 247.34C116.442 246.9 116.936 246.413 117.336 245.88C117.736 245.333 117.976 244.773 118.056 244.2L118.576 240.66L115.736 240.72C114.269 240.747 113.016 240.907 111.976 241.2C110.949 241.493 110.142 241.953 109.556 242.58C108.969 243.207 108.596 244.027 108.436 245.04C108.276 246.2 108.529 247.107 109.196 247.76C109.862 248.413 110.782 248.74 111.956 248.74ZM133.2 251.1C131.826 251.1 130.786 250.907 130.08 250.52C129.386 250.133 128.94 249.56 128.74 248.8C128.553 248.04 128.54 247.107 128.7 246L130.56 233.02H127.36L127.78 230.32H131.02L132.56 224.3H135.44L134.58 230.3H139.02L138.62 233.02H134.18L132.36 245.74C132.213 246.847 132.3 247.547 132.62 247.84C132.953 248.133 133.54 248.28 134.38 248.28H136.54L136.18 250.76C135.926 250.853 135.546 250.933 135.04 251C134.546 251.067 133.933 251.1 133.2 251.1ZM148.449 251.4C147.436 251.387 146.496 251.233 145.629 250.94C144.763 250.633 144.016 250.187 143.389 249.6C142.776 249.013 142.329 248.287 142.049 247.42C141.783 246.54 141.729 245.52 141.889 244.36L143.849 230.32H147.489L145.569 243.98C145.369 245.327 145.603 246.42 146.269 247.26C146.936 248.1 148.063 248.52 149.649 248.52C151.076 248.52 152.276 248.127 153.249 247.34C154.236 246.54 154.836 245.353 155.049 243.78L156.949 230.32H160.549L157.629 251H154.789L154.949 247.04C154.576 248.08 154.049 248.92 153.369 249.56C152.703 250.2 151.943 250.673 151.089 250.98C150.249 251.273 149.369 251.413 148.449 251.4ZM163.769 251L166.689 230.32H170.129L169.589 234.3C170.056 233.313 170.629 232.5 171.309 231.86C171.989 231.207 172.736 230.72 173.549 230.4C174.376 230.08 175.209 229.92 176.049 229.92C176.329 229.92 176.603 229.94 176.869 229.98C177.136 230.02 177.336 230.087 177.469 230.18L176.969 233.76C176.796 233.667 176.563 233.607 176.269 233.58C175.989 233.54 175.749 233.52 175.549 233.52C174.496 233.44 173.516 233.553 172.609 233.86C171.716 234.153 170.969 234.653 170.369 235.36C169.769 236.067 169.383 236.993 169.209 238.14L167.409 251H163.769ZM186.577 251.4C184.737 251.4 183.177 250.98 181.897 250.14C180.63 249.3 179.717 248.093 179.157 246.52C178.61 244.947 178.497 243.06 178.817 240.86C179.124 238.687 179.75 236.78 180.697 235.14C181.657 233.5 182.87 232.22 184.337 231.3C185.817 230.38 187.51 229.92 189.417 229.92C191.284 229.92 192.797 230.34 193.957 231.18C195.117 232.02 195.917 233.207 196.357 234.74C196.81 236.26 196.884 238.067 196.577 240.16L196.377 241.52H182.357C182.17 242.827 182.204 244.013 182.457 245.08C182.71 246.133 183.204 246.973 183.937 247.6C184.684 248.227 185.684 248.54 186.937 248.54C188.177 248.54 189.29 248.233 190.277 247.62C191.264 247.007 191.964 246.12 192.377 244.96H195.757C195.317 246.36 194.617 247.54 193.657 248.5C192.697 249.46 191.597 250.187 190.357 250.68C189.117 251.16 187.857 251.4 186.577 251.4ZM182.717 239.02H193.277C193.45 237.833 193.417 236.767 193.177 235.82C192.937 234.86 192.47 234.107 191.777 233.56C191.097 233 190.164 232.72 188.977 232.72C187.777 232.72 186.73 233.033 185.837 233.66C184.957 234.273 184.25 235.067 183.717 236.04C183.197 237 182.864 237.993 182.717 239.02ZM207.799 251L221.879 222.08H225.919L231.619 251H227.959L226.439 243.08H215.319L211.459 251H207.799ZM216.719 239.68H225.979L223.399 225.74L216.719 239.68ZM242.939 251.4C240.379 251.4 238.479 250.48 237.239 248.64C235.999 246.8 235.612 244.113 236.079 240.58C236.519 237.353 237.539 234.773 239.139 232.84C240.752 230.893 242.885 229.92 245.539 229.92C246.472 229.92 247.279 230.047 247.959 230.3C248.652 230.553 249.232 230.873 249.699 231.26C250.179 231.647 250.559 232.047 250.839 232.46C251.132 232.873 251.339 233.253 251.459 233.6L253.119 221.28H256.779L252.779 251H250.039L250.199 246.76C250.025 247.16 249.759 247.627 249.399 248.16C249.052 248.68 248.592 249.193 248.019 249.7C247.445 250.193 246.739 250.6 245.899 250.92C245.072 251.24 244.085 251.4 242.939 251.4ZM243.979 248.56C245.939 248.56 247.425 247.927 248.439 246.66C249.465 245.38 250.172 243.293 250.559 240.4C250.759 238.787 250.745 237.413 250.519 236.28C250.305 235.147 249.845 234.287 249.139 233.7C248.432 233.1 247.439 232.8 246.159 232.8C244.559 232.8 243.172 233.407 241.999 234.62C240.839 235.833 240.085 237.76 239.739 240.4C239.392 242.987 239.579 244.993 240.299 246.42C241.019 247.847 242.245 248.56 243.979 248.56ZM266.064 251.4C263.504 251.4 261.604 250.48 260.364 248.64C259.124 246.8 258.737 244.113 259.204 240.58C259.644 237.353 260.664 234.773 262.264 232.84C263.877 230.893 266.01 229.92 268.664 229.92C269.597 229.92 270.404 230.047 271.084 230.3C271.777 230.553 272.357 230.873 272.824 231.26C273.304 231.647 273.684 232.047 273.964 232.46C274.257 232.873 274.464 233.253 274.584 233.6L276.244 221.28H279.904L275.904 251H273.164L273.324 246.76C273.15 247.16 272.884 247.627 272.524 248.16C272.177 248.68 271.717 249.193 271.144 249.7C270.57 250.193 269.864 250.6 269.024 250.92C268.197 251.24 267.21 251.4 266.064 251.4ZM267.104 248.56C269.064 248.56 270.55 247.927 271.564 246.66C272.59 245.38 273.297 243.293 273.684 240.4C273.884 238.787 273.87 237.413 273.644 236.28C273.43 235.147 272.97 234.287 272.264 233.7C271.557 233.1 270.564 232.8 269.284 232.8C267.684 232.8 266.297 233.407 265.124 234.62C263.964 235.833 263.21 237.76 262.864 240.4C262.517 242.987 262.704 244.993 263.424 246.42C264.144 247.847 265.37 248.56 267.104 248.56ZM290.249 251.4C288.409 251.4 286.849 250.98 285.569 250.14C284.302 249.3 283.389 248.093 282.829 246.52C282.282 244.947 282.169 243.06 282.489 240.86C282.795 238.687 283.422 236.78 284.369 235.14C285.329 233.5 286.542 232.22 288.009 231.3C289.489 230.38 291.182 229.92 293.089 229.92C294.955 229.92 296.469 230.34 297.629 231.18C298.789 232.02 299.589 233.207 300.029 234.74C300.482 236.26 300.555 238.067 300.249 240.16L300.049 241.52H286.029C285.842 242.827 285.875 244.013 286.129 245.08C286.382 246.133 286.875 246.973 287.609 247.6C288.355 248.227 289.355 248.54 290.609 248.54C291.849 248.54 292.962 248.233 293.949 247.62C294.935 247.007 295.635 246.12 296.049 244.96H299.429C298.989 246.36 298.289 247.54 297.329 248.5C296.369 249.46 295.269 250.187 294.029 250.68C292.789 251.16 291.529 251.4 290.249 251.4ZM286.389 239.02H296.949C297.122 237.833 297.089 236.767 296.849 235.82C296.609 234.86 296.142 234.107 295.449 233.56C294.769 233 293.835 232.72 292.649 232.72C291.449 232.72 290.402 233.033 289.509 233.66C288.629 234.273 287.922 235.067 287.389 236.04C286.869 237 286.535 237.993 286.389 239.02ZM310.947 251.4C308.387 251.4 306.487 250.48 305.247 248.64C304.007 246.8 303.62 244.113 304.087 240.58C304.527 237.353 305.547 234.773 307.147 232.84C308.76 230.893 310.893 229.92 313.547 229.92C314.48 229.92 315.287 230.047 315.967 230.3C316.66 230.553 317.24 230.873 317.707 231.26C318.187 231.647 318.567 232.047 318.847 232.46C319.14 232.873 319.347 233.253 319.467 233.6L321.127 221.28H324.787L320.787 251H318.047L318.207 246.76C318.033 247.16 317.767 247.627 317.407 248.16C317.06 248.68 316.6 249.193 316.027 249.7C315.453 250.193 314.747 250.6 313.907 250.92C313.08 251.24 312.093 251.4 310.947 251.4ZM311.987 248.56C313.947 248.56 315.433 247.927 316.447 246.66C317.473 245.38 318.18 243.293 318.567 240.4C318.767 238.787 318.753 237.413 318.527 236.28C318.313 235.147 317.853 234.287 317.147 233.7C316.44 233.1 315.447 232.8 314.167 232.8C312.567 232.8 311.18 233.407 310.007 234.62C308.847 235.833 308.093 237.76 307.747 240.4C307.4 242.987 307.587 244.993 308.307 246.42C309.027 247.847 310.253 248.56 311.987 248.56Z" fill="#8B909A"/>
</svg>
