<svg width="101" height="100" viewBox="0 0 101 100" fill="none" xmlns="http://www.w3.org/2000/svg">
<g id="github">
<path id="Vector" d="M50.4002 9.36133C40.5063 9.36174 30.9354 12.8826 23.4 19.294C15.8646 25.7054 10.8564 34.5889 9.27157 44.355C7.6867 54.1211 9.62859 64.1325 14.7498 72.5978C19.8709 81.0631 27.8372 87.43 37.2232 90.5592C39.3065 90.9239 40.0878 89.6739 40.0878 88.58C40.0878 87.5905 40.0356 84.3092 40.0356 80.8197C29.5668 82.7467 26.8585 78.2677 26.0252 75.924C25.1005 73.6445 23.6347 71.6244 21.7543 70.0384C20.296 69.2572 18.2127 67.3301 21.7022 67.2781C23.0347 67.4227 24.3126 67.8863 25.4278 68.6297C26.543 69.3732 27.4625 70.3745 28.1085 71.5488C28.6784 72.5725 29.4447 73.4738 30.3635 74.2009C31.2823 74.9279 32.3355 75.4666 33.4628 75.7859C34.5901 76.1052 35.7694 76.199 36.933 76.0618C38.0966 75.9246 39.2217 75.5591 40.2438 74.9863C40.4242 72.868 41.3683 70.8875 42.9002 69.4135C33.6293 68.3719 23.9418 64.778 23.9418 48.8406C23.8833 44.6996 25.4114 40.693 28.2127 37.6427C26.9389 34.0436 27.0879 30.0939 28.6293 26.601C28.6293 26.601 32.1188 25.5072 40.0877 30.8719C46.9055 28.9968 54.1031 28.9968 60.921 30.8719C68.8897 25.4552 72.3793 26.601 72.3793 26.601C73.921 30.0938 74.0701 34.0436 72.796 37.6427C75.6058 40.6878 77.1352 44.6978 77.0668 48.8406C77.0668 64.8301 67.3272 68.3719 58.0564 69.4135C59.0508 70.4214 59.8166 71.6314 60.3019 72.9615C60.7872 74.2915 60.9806 75.7105 60.8689 77.1219C60.8689 82.6949 60.8168 87.1739 60.8168 88.5802C60.8168 89.674 61.5981 90.976 63.6814 90.5594C73.0508 87.4046 80.9942 81.0229 86.0936 72.5532C91.1929 64.0835 93.1164 54.0773 91.5205 44.3206C89.9247 34.564 84.9134 25.692 77.3813 19.2885C69.8492 12.8849 60.2865 9.36647 50.4002 9.36133Z" fill="black"/>
</g>
</svg>
