<svg width="12" height="14" viewBox="0 0 12 14" fill="none" xmlns="http://www.w3.org/2000/svg">
<g id="Google" clip-path="url(#clip0_13578_308)">
<path id="Vector" d="M4.19516 0.813677C3.00596 1.26428 1.98039 2.11953 1.2691 3.25382C0.557807 4.38811 0.198283 5.74164 0.243335 7.11559C0.288387 8.48955 0.735641 9.81152 1.5194 10.8873C2.30316 11.9631 3.38212 12.7361 4.59779 13.0926C5.58336 13.3704 6.61594 13.3826 7.60678 13.1281C8.50439 12.9079 9.33424 12.4369 10.0151 11.7611C10.7237 11.0363 11.2381 10.1142 11.5029 9.09407C11.7906 7.98465 11.8418 6.81799 11.6526 5.6836H6.11809V8.19118H9.32329C9.25923 8.59112 9.12196 8.97283 8.91969 9.31348C8.71742 9.65412 8.4543 9.94669 8.1461 10.1737C7.75476 10.4566 7.31354 10.6468 6.85082 10.7323C6.38677 10.8265 5.91079 10.8265 5.44674 10.7323C4.97638 10.6262 4.53143 10.4141 4.1403 10.1097C3.51186 9.62381 3.03999 8.93352 2.79202 8.13735C2.53992 7.32625 2.53992 6.44696 2.79202 5.63586C2.96853 5.06733 3.26032 4.54969 3.64562 4.12157C4.08655 3.62264 4.64477 3.266 5.25906 3.09079C5.87334 2.91557 6.51994 2.92854 7.12791 3.12829C7.60288 3.28746 8.03721 3.56569 8.39623 3.94079C8.75763 3.54808 9.11841 3.15435 9.47858 2.75961C9.66455 2.54735 9.86725 2.34524 10.0504 2.1279C9.50232 1.57084 8.85898 1.13736 8.15726 0.852271C6.87937 0.345464 5.48112 0.331844 4.19516 0.813677Z" fill="#071952"/>
<path id="Vector_2" d="M4.19515 0.813682C5.48101 0.331521 6.87925 0.344783 8.15724 0.85126C8.85909 1.13829 9.50214 1.57386 10.0495 2.13298C9.86352 2.35032 9.66732 2.55345 9.47763 2.7647C9.11685 3.15808 8.75638 3.55011 8.39622 3.94079C8.03719 3.5657 7.60287 3.28746 7.1279 3.12829C6.52013 2.92785 5.87355 2.91412 5.2591 3.08862C4.64466 3.26312 4.08609 3.6191 3.64468 4.11751C3.25938 4.54563 2.96759 5.06328 2.79108 5.63181L0.863495 4.00173C1.55345 2.5073 2.74807 1.36418 4.19515 0.813682Z" fill="#E33629"/>
<path id="Vector_3" d="M0.352085 5.61655C0.455614 5.0557 0.627624 4.51256 0.863503 4.00171L2.79108 5.63585C2.53899 6.44695 2.53899 7.32624 2.79108 8.13733C2.14887 8.679 1.50634 9.22338 0.863503 9.77046C0.273188 8.48703 0.0931516 7.02472 0.352085 5.61655Z" fill="#F8BD00"/>
<path id="Vector_4" d="M6.11809 5.68262H11.6526C11.8418 6.81701 11.7906 7.98367 11.5029 9.09309C11.2381 10.1133 10.7237 11.0353 10.0151 11.7601C9.39302 11.23 8.76816 10.7039 8.14609 10.1737C8.4545 9.9465 8.71774 9.6536 8.92002 9.3126C9.1223 8.97159 9.25946 8.58948 9.32329 8.18918H6.11809C6.11716 7.35434 6.11809 6.51848 6.11809 5.68262Z" fill="#587DBD"/>
<path id="Vector_5" d="M0.862564 9.77045C1.5054 9.22879 2.14793 8.68441 2.79015 8.13733C3.03861 8.93378 3.51116 9.6241 4.14029 10.1097C4.53264 10.4127 4.97855 10.623 5.44952 10.7272C5.91357 10.8214 6.38955 10.8214 6.85359 10.7272C7.31631 10.6417 7.75754 10.4515 8.14888 10.1686C8.77095 10.6987 9.39581 11.2248 10.0179 11.755C9.33712 12.4311 8.50726 12.9025 7.60956 13.123C6.61872 13.3775 5.58614 13.3653 4.60056 13.0875C3.82107 12.8602 3.09297 12.4594 2.46191 11.9104C1.79402 11.3311 1.24848 10.6012 0.862564 9.77045Z" fill="#319F43"/>
</g>
<defs>
<clipPath id="clip0_13578_308">
<rect width="11.9021" height="13" fill="white" transform="translate(0.0489502 0.386108)"/>
</clipPath>
</defs>
</svg>
