<svg width="101" height="100" viewBox="0 0 101 100" fill="none" xmlns="http://www.w3.org/2000/svg">
<g id="google-drive" clip-path="url(#clip0_8945_158877)">
<path id="Vector" d="M33.2004 65.3014L32.3645 81.8879L16.9547 93.5957L0.799805 65.117L34.5111 6.4043L50.2947 17.2383L50.815 34.7998L50.666 34.8855L33.2004 65.3014Z" fill="#28B446"/>
<path id="Vector_2" d="M34.5107 6.4043L44.1037 46.3133L50.8146 34.7998L50.2943 11.6824L34.5107 6.4043Z" fill="#219B38"/>
<path id="Vector_3" d="M67.0855 6.4043L100.799 65.117L82.6191 74.3119L68.2221 65.2053V65.117L50.8146 34.7998L34.5107 6.4043H67.0855Z" fill="#FFD837"/>
<path id="Vector_4" d="M100.8 65.1172L84.6555 93.4115L16.9551 93.5959L33.2008 65.3016L68.2229 65.2055L100.8 65.1172Z" fill="#518EF8"/>
<path id="Vector_5" d="M16.9551 93.5956L45.2824 65.2681L33.2008 65.3013L16.9551 93.5956Z" fill="#3A5BBC"/>
<path id="Vector_6" d="M100.8 65.117L63.8389 57.4824L68.2225 65.2053L100.8 65.117Z" fill="#FBBB00"/>
</g>
<defs>
<clipPath id="clip0_8945_158877">
<rect width="100" height="100" fill="white" transform="translate(0.799805)"/>
</clipPath>
</defs>
</svg>
