<svg width="101" height="100" viewBox="0 0 101 100" fill="none" xmlns="http://www.w3.org/2000/svg">
<g id="google-calendar">
<path id="Vector" d="M68.9502 14.0625V32.8125H31.4502V67.1875H12.7002V20.3125C12.7051 18.6564 13.3651 17.0695 14.5362 15.8985C15.7072 14.7274 17.2941 14.0674 18.9502 14.0625H68.9502Z" fill="#4285F4"/>
<path id="Vector_2" d="M68.9502 85.9375V67.1875H87.7002L68.9502 85.9375Z" fill="#EA4435"/>
<path id="Vector_3" d="M87.7002 29.6875H68.9502V67.1875H87.7002V29.6875Z" fill="#FFBA00"/>
<path id="Vector_4" d="M68.9502 85.9375V67.1875H31.4502V85.9375H68.9502Z" fill="#00AC47"/>
<path id="Vector_5" d="M87.7002 20.3125V32.8125H68.9502V14.0625H81.4502C83.1063 14.0674 84.6932 14.7274 85.8642 15.8985C87.0353 17.0695 87.6953 18.6564 87.7002 20.3125Z" fill="#0066DA"/>
<path id="Vector_6" d="M31.4502 67.1875V85.9375H18.9502C17.2941 85.9326 15.7072 85.2726 14.5362 84.1015C13.3651 82.9305 12.7051 81.3436 12.7002 79.6875V67.1875H31.4502Z" fill="#188038"/>
<path id="Vector_7" d="M49.2314 53.4062C49.2314 56.1875 47.1689 59 42.5127 59C40.8493 59.022 39.21 58.6014 37.7627 57.7812L37.5127 57.5938L38.4189 55.0313L38.8252 55.2813C39.9297 55.95 41.1906 56.3164 42.4814 56.3438C42.9814 56.3757 43.4827 56.3063 43.9553 56.1399C44.4278 55.9734 44.8619 55.7132 45.2314 55.375C45.4963 55.1098 45.7027 54.792 45.8373 54.4421C45.9718 54.0923 46.0316 53.7181 46.0127 53.3437C45.9814 51.0625 43.8877 50.25 41.9189 50.25H40.2314V47.7188H41.9189C43.3252 47.7188 45.4189 47.0312 45.4189 45.1562C45.4189 43.75 44.4502 42.9375 42.7627 42.9375C41.5982 42.9628 40.4673 43.3325 39.5127 44L39.0752 44.3125L38.2002 41.8438L38.4189 41.6562C39.8452 40.7395 41.5047 40.2514 43.2002 40.25C46.9189 40.25 48.5752 42.5312 48.5752 44.7812C48.5794 45.6282 48.3439 46.4591 47.896 47.1779C47.4481 47.8967 46.8061 48.4742 46.0439 48.8438C46.9876 49.1723 47.8036 49.7901 48.3759 50.6093C48.9482 51.4284 49.2476 52.4071 49.2314 53.4062Z" fill="#4285F4"/>
<path id="Vector_8" d="M58.6689 40.5625V58.7188H55.6064V43.75L52.6689 45.3438L52.0127 42.7812L56.2939 40.5625H58.6689Z" fill="#4285F4"/>
</g>
</svg>
