<svg width="34" height="34" viewBox="0 0 34 34" fill="none" xmlns="http://www.w3.org/2000/svg">
<rect width="34" height="34" rx="3" fill="#F3F3F3"/>
<path d="M7.66667 8.33333C7.29848 8.33333 7 8.03485 7 7.66667C7 7.29848 7.29848 7 7.66667 7C8.03485 7 8.33333 7.29848 8.33333 7.66667C8.33333 8.03485 8.03485 8.33333 7.66667 8.33333Z" fill="#2A2C33"/>
<path d="M17 8.33333C16.6319 8.33333 16.3333 8.03485 16.3333 7.66667C16.3333 7.29848 16.6319 7 17 7C17.3681 7 17.6667 7.29848 17.6667 7.66667C17.6667 8.03485 17.3681 8.33333 17 8.33333Z" fill="#2A2C33"/>
<path d="M26.3333 8.33333C25.9652 8.33333 25.6667 8.03485 25.6667 7.66667C25.6667 7.29848 25.9652 7 26.3333 7C26.7015 7 27 7.29848 27 7.66667C27 8.03485 26.7015 8.33333 26.3333 8.33333Z" fill="#2A2C33"/>
<path d="M7.66667 17.6667C7.29848 17.6667 7 17.3682 7 17C7 16.6318 7.29848 16.3333 7.66667 16.3333C8.03485 16.3333 8.33333 16.6318 8.33333 17C8.33333 17.3682 8.03485 17.6667 7.66667 17.6667Z" fill="#2A2C33"/>
<path d="M17 17.6667C16.6319 17.6667 16.3333 17.3682 16.3333 17C16.3333 16.6318 16.6319 16.3333 17 16.3333C17.3681 16.3333 17.6667 16.6318 17.6667 17C17.6667 17.3682 17.3681 17.6667 17 17.6667Z" fill="#2A2C33"/>
<path d="M26.3333 17.6667C25.9652 17.6667 25.6667 17.3682 25.6667 17C25.6667 16.6318 25.9652 16.3333 26.3333 16.3333C26.7015 16.3333 27 16.6318 27 17C27 17.3682 26.7015 17.6667 26.3333 17.6667Z" fill="#2A2C33"/>
<path d="M7.66667 27C7.29848 27 7 26.7015 7 26.3333C7 25.9652 7.29848 25.6667 7.66667 25.6667C8.03485 25.6667 8.33333 25.9652 8.33333 26.3333C8.33333 26.7015 8.03485 27 7.66667 27Z" fill="#2A2C33"/>
<path d="M17 27C16.6319 27 16.3333 26.7015 16.3333 26.3333C16.3333 25.9652 16.6319 25.6667 17 25.6667C17.3681 25.6667 17.6667 25.9652 17.6667 26.3333C17.6667 26.7015 17.3681 27 17 27Z" fill="#2A2C33"/>
<path d="M26.3333 27C25.9652 27 25.6667 26.7015 25.6667 26.3333C25.6667 25.9652 25.9652 25.6667 26.3333 25.6667C26.7015 25.6667 27 25.9652 27 26.3333C27 26.7015 26.7015 27 26.3333 27Z" fill="#2A2C33"/>
<path d="M7.66667 8.33333C7.29848 8.33333 7 8.03485 7 7.66667C7 7.29848 7.29848 7 7.66667 7C8.03485 7 8.33333 7.29848 8.33333 7.66667C8.33333 8.03485 8.03485 8.33333 7.66667 8.33333Z" stroke="#2A2C33" stroke-width="1.5" stroke-linecap="round" stroke-linejoin="round"/>
<path d="M17 8.33333C16.6319 8.33333 16.3333 8.03485 16.3333 7.66667C16.3333 7.29848 16.6319 7 17 7C17.3681 7 17.6667 7.29848 17.6667 7.66667C17.6667 8.03485 17.3681 8.33333 17 8.33333Z" stroke="#2A2C33" stroke-width="1.5" stroke-linecap="round" stroke-linejoin="round"/>
<path d="M26.3333 8.33333C25.9652 8.33333 25.6667 8.03485 25.6667 7.66667C25.6667 7.29848 25.9652 7 26.3333 7C26.7015 7 27 7.29848 27 7.66667C27 8.03485 26.7015 8.33333 26.3333 8.33333Z" stroke="#2A2C33" stroke-width="1.5" stroke-linecap="round" stroke-linejoin="round"/>
<path d="M7.66667 17.6667C7.29848 17.6667 7 17.3682 7 17C7 16.6318 7.29848 16.3333 7.66667 16.3333C8.03485 16.3333 8.33333 16.6318 8.33333 17C8.33333 17.3682 8.03485 17.6667 7.66667 17.6667Z" stroke="#2A2C33" stroke-width="1.5" stroke-linecap="round" stroke-linejoin="round"/>
<path d="M17 17.6667C16.6319 17.6667 16.3333 17.3682 16.3333 17C16.3333 16.6318 16.6319 16.3333 17 16.3333C17.3681 16.3333 17.6667 16.6318 17.6667 17C17.6667 17.3682 17.3681 17.6667 17 17.6667Z" stroke="#2A2C33" stroke-width="1.5" stroke-linecap="round" stroke-linejoin="round"/>
<path d="M26.3333 17.6667C25.9652 17.6667 25.6667 17.3682 25.6667 17C25.6667 16.6318 25.9652 16.3333 26.3333 16.3333C26.7015 16.3333 27 16.6318 27 17C27 17.3682 26.7015 17.6667 26.3333 17.6667Z" stroke="#2A2C33" stroke-width="1.5" stroke-linecap="round" stroke-linejoin="round"/>
<path d="M7.66667 27C7.29848 27 7 26.7015 7 26.3333C7 25.9652 7.29848 25.6667 7.66667 25.6667C8.03485 25.6667 8.33333 25.9652 8.33333 26.3333C8.33333 26.7015 8.03485 27 7.66667 27Z" stroke="#2A2C33" stroke-width="1.5" stroke-linecap="round" stroke-linejoin="round"/>
<path d="M17 27C16.6319 27 16.3333 26.7015 16.3333 26.3333C16.3333 25.9652 16.6319 25.6667 17 25.6667C17.3681 25.6667 17.6667 25.9652 17.6667 26.3333C17.6667 26.7015 17.3681 27 17 27Z" stroke="#2A2C33" stroke-width="1.5" stroke-linecap="round" stroke-linejoin="round"/>
<path d="M26.3333 27C25.9652 27 25.6667 26.7015 25.6667 26.3333C25.6667 25.9652 25.9652 25.6667 26.3333 25.6667C26.7015 25.6667 27 25.9652 27 26.3333C27 26.7015 26.7015 27 26.3333 27Z" stroke="#2A2C33" stroke-width="1.5" stroke-linecap="round" stroke-linejoin="round"/>
</svg>
