<svg width="15" height="16" viewBox="0 0 15 16" fill="none" xmlns="http://www.w3.org/2000/svg">
<path id="Vector" d="M8.52941 11.5294C8.52941 11.6464 8.48293 11.7586 8.4002 11.8414C8.31746 11.9241 8.20524 11.9706 8.08824 11.9706C7.81522 11.9706 7.55338 11.8621 7.36033 11.6691C7.16728 11.476 7.05883 11.2142 7.05883 10.9412V8C7.05883 7.961 7.04333 7.92359 7.01575 7.89601C6.98817 7.86843 6.95077 7.85294 6.91177 7.85294C6.79476 7.85294 6.68254 7.80646 6.59981 7.72372C6.51707 7.64099 6.47059 7.52877 6.47059 7.41176C6.47059 7.29476 6.51707 7.18254 6.59981 7.0998C6.68254 7.01707 6.79476 6.97059 6.91177 6.97059C7.18478 6.97059 7.44662 7.07904 7.63967 7.27209C7.83272 7.46515 7.94118 7.72698 7.94118 8V10.9412C7.94118 10.9802 7.95667 11.0176 7.98425 11.0452C8.01183 11.0727 8.04923 11.0882 8.08824 11.0882C8.20524 11.0882 8.31746 11.1347 8.4002 11.2175C8.48293 11.3002 8.52941 11.4124 8.52941 11.5294ZM7.20588 5.5C7.35131 5.5 7.49347 5.45687 7.61439 5.37608C7.73531 5.29528 7.82955 5.18045 7.88521 5.04609C7.94086 4.91173 7.95542 4.76389 7.92705 4.62126C7.89868 4.47862 7.82865 4.34761 7.72582 4.24477C7.62298 4.14194 7.49197 4.07191 7.34933 4.04354C7.2067 4.01517 7.05886 4.02973 6.9245 4.08538C6.79014 4.14103 6.6753 4.23528 6.59451 4.3562C6.51371 4.47712 6.47059 4.61928 6.47059 4.7647C6.47059 4.95972 6.54806 5.14674 6.68595 5.28464C6.82385 5.42253 7.01087 5.5 7.20588 5.5ZM15 8C15 9.48336 14.5601 10.9334 13.736 12.1668C12.9119 13.4001 11.7406 14.3614 10.3701 14.9291C8.99968 15.4967 7.49168 15.6453 6.03682 15.3559C4.58197 15.0665 3.2456 14.3522 2.1967 13.3033C1.14781 12.2544 0.433503 10.918 0.144114 9.46317C-0.145275 8.00832 0.0032495 6.50032 0.570907 5.12987C1.13856 3.75943 2.09986 2.58809 3.33323 1.76398C4.56659 0.939867 6.01664 0.5 7.5 0.5C9.48841 0.502335 11.3947 1.29326 12.8007 2.69928C14.2067 4.10529 14.9977 6.01159 15 8ZM14.1176 8C14.1176 6.69115 13.7295 5.4117 13.0024 4.32343C12.2752 3.23517 11.2417 2.38696 10.0325 1.88609C8.82325 1.38522 7.49266 1.25417 6.20896 1.50951C4.92527 1.76485 3.74611 2.39512 2.82062 3.32062C1.89513 4.24611 1.26486 5.42526 1.00951 6.70896C0.754169 7.99266 0.88522 9.32325 1.38609 10.5325C1.88697 11.7417 2.73517 12.7752 3.82343 13.5024C4.9117 14.2295 6.19115 14.6176 7.5 14.6176C9.25451 14.6157 10.9366 13.9179 12.1772 12.6772C13.4179 11.4366 14.1157 9.75451 14.1176 8Z" fill="#8B909A"/>
</svg>
