<svg width="76" height="80" viewBox="0 0 76 80" fill="none" xmlns="http://www.w3.org/2000/svg">
<g id="Jira 1" clip-path="url(#clip0_8945_158844)">
<path id="Vector" d="M74.8273 37.7873L40.8116 3.77164L37.5156 0.475586L11.9094 26.0818L0.200294 37.7873C-0.38457 38.3752 -0.712891 39.1708 -0.712891 40C-0.712891 40.8293 -0.38457 41.6248 0.200294 42.2127L23.5938 65.6062L37.5156 79.5244L63.1182 53.9183L63.517 53.523L74.8273 42.2303C75.1204 41.9394 75.3531 41.5933 75.5118 41.212C75.6706 40.8307 75.7523 40.4218 75.7523 40.0088C75.7523 39.5958 75.6706 39.1869 75.5118 38.8057C75.3531 38.4244 75.1204 38.0783 74.8273 37.7873ZM37.5156 51.6879L25.8276 40L37.5156 28.3121L49.2 40L37.5156 51.6879Z" fill="#2684FF"/>
<path id="Vector_2" d="M37.5156 28.312C33.8397 24.637 31.7676 19.6567 31.7517 14.4589C31.7358 9.26106 33.7775 4.26818 37.4309 0.570801L11.8564 26.1346L25.7747 40.0529L37.5156 28.312Z" fill="url(#paint0_linear_8945_158844)"/>
<path id="Vector_3" d="M49.2318 39.9683L37.5156 51.688C41.2054 55.3787 43.2782 60.3839 43.2782 65.6027C43.2782 70.8215 41.2054 75.8266 37.5156 79.5174L63.1606 53.8865L49.2318 39.9683Z" fill="url(#paint1_linear_8945_158844)"/>
</g>
<defs>
<linearGradient id="paint0_linear_8945_158844" x1="35.4229" y1="16.4864" x2="19.1014" y2="32.8044" gradientUnits="userSpaceOnUse">
<stop offset="0.18" stop-color="#0052CC"/>
<stop offset="1" stop-color="#2684FF"/>
</linearGradient>
<linearGradient id="paint1_linear_8945_158844" x1="39.7459" y1="63.3724" x2="56.0356" y2="47.0862" gradientUnits="userSpaceOnUse">
<stop offset="0.18" stop-color="#0052CC"/>
<stop offset="1" stop-color="#2684FF"/>
</linearGradient>
<clipPath id="clip0_8945_158844">
<rect width="75.552" height="80" fill="white" transform="translate(0.200195)"/>
</clipPath>
</defs>
</svg>
