<svg width="11" height="11" viewBox="0 0 11 11" fill="none" xmlns="http://www.w3.org/2000/svg">
<path d="M4.66096 6.33904C4.90494 6.57112 4.90494 6.95196 4.66096 7.18403C4.42888 7.41611 4.04804 7.41611 3.81597 7.18403C3.25862 6.62585 2.94557 5.86928 2.94557 5.08048C2.94557 4.29168 3.25862 3.53511 3.81597 2.97693L5.9225 0.870396C6.48068 0.313046 7.23725 0 8.02605 0C8.81485 0 9.57142 0.313046 10.1296 0.870396C10.687 1.42858 11 2.18515 11 2.97395C11 3.76275 10.687 4.51932 10.1296 5.0775L9.24296 5.96415C9.24891 5.4762 9.17155 4.98824 9.00493 4.52409L9.28461 4.23846C9.45143 4.07344 9.58387 3.87698 9.67425 3.66044C9.76463 3.44389 9.81117 3.21157 9.81117 2.97693C9.81117 2.74228 9.76463 2.50996 9.67425 2.29342C9.58387 2.07687 9.45143 1.88041 9.28461 1.71539C9.11959 1.54857 8.92313 1.41614 8.70658 1.32575C8.49004 1.23537 8.25772 1.18883 8.02307 1.18883C7.78843 1.18883 7.55611 1.23537 7.33956 1.32575C7.12302 1.41614 6.92656 1.54857 6.76154 1.71539L4.66096 3.81597C4.49414 3.98099 4.36171 4.17745 4.27132 4.39399C4.18094 4.61054 4.1344 4.84286 4.1344 5.0775C4.1344 5.31215 4.18094 5.54447 4.27132 5.76101C4.36171 5.97756 4.49414 6.17402 4.66096 6.33904ZM6.33904 3.81597C6.57112 3.58389 6.95196 3.58389 7.18403 3.81597C7.74138 4.37415 8.05443 5.13072 8.05443 5.91952C8.05443 6.70833 7.74138 7.46489 7.18403 8.02307L5.0775 10.1296C4.51932 10.687 3.76275 11 2.97395 11C2.18515 11 1.42858 10.687 0.870396 10.1296C0.313046 9.57142 0 8.81485 0 8.02605C0 7.23725 0.313046 6.48068 0.870396 5.9225L1.75704 5.03585C1.75109 5.5238 1.82845 6.01176 1.99507 6.48186L1.71539 6.76154C1.54857 6.92656 1.41614 7.12302 1.32575 7.33956C1.23537 7.55611 1.18883 7.78843 1.18883 8.02307C1.18883 8.25772 1.23537 8.49004 1.32575 8.70658C1.41614 8.92313 1.54857 9.11959 1.71539 9.28461C1.88041 9.45143 2.07687 9.58387 2.29342 9.67425C2.50996 9.76463 2.74228 9.81117 2.97693 9.81117C3.21157 9.81117 3.44389 9.76463 3.66044 9.67425C3.87698 9.58387 4.07344 9.45143 4.23846 9.28461L6.33904 7.18403C6.50586 7.01901 6.6383 6.82255 6.72868 6.60601C6.81906 6.38946 6.8656 6.15715 6.8656 5.9225C6.8656 5.68785 6.81906 5.45553 6.72868 5.23899C6.6383 5.02244 6.50586 4.82598 6.33904 4.66096C6.28125 4.6068 6.23518 4.54137 6.20369 4.4687C6.17219 4.39603 6.15594 4.31767 6.15594 4.23846C6.15594 4.15926 6.17219 4.0809 6.20369 4.00823C6.23518 3.93556 6.28125 3.87012 6.33904 3.81597Z" fill="#8B909A"/>
</svg>
