<svg width="100" height="100" viewBox="0 0 100 100" fill="none" xmlns="http://www.w3.org/2000/svg">
<g clip-path="url(#clip0_19035_6406)">
<path d="M70.833 45.833H29.1663C24.564 45.833 20.833 49.564 20.833 54.1663V79.1663C20.833 83.7687 24.564 87.4997 29.1663 87.4997H70.833C75.4354 87.4997 79.1663 83.7687 79.1663 79.1663V54.1663C79.1663 49.564 75.4354 45.833 70.833 45.833Z" stroke="#071952" stroke-width="3" stroke-linecap="round" stroke-linejoin="round"/>
<path d="M49.9997 70.8333C52.3009 70.8333 54.1663 68.9679 54.1663 66.6667C54.1663 64.3655 52.3009 62.5 49.9997 62.5C47.6985 62.5 45.833 64.3655 45.833 66.6667C45.833 68.9679 47.6985 70.8333 49.9997 70.8333Z" stroke="#071952" stroke-width="3" stroke-linecap="round" stroke-linejoin="round"/>
<path d="M33.333 45.8333V29.1667C33.333 24.7464 35.089 20.5072 38.2146 17.3816C41.3402 14.2559 45.5794 12.5 49.9997 12.5C54.4199 12.5 58.6592 14.2559 61.7848 17.3816C64.9104 20.5072 66.6663 24.7464 66.6663 29.1667V45.8333" stroke="#071952" stroke-width="3" stroke-linecap="round" stroke-linejoin="round"/>
</g>
<defs>
<clipPath id="clip0_19035_6406">
<rect width="100" height="100" fill="white"/>
</clipPath>
</defs>
</svg>
