<svg width="19" height="19" viewBox="0 0 19 19" fill="none" xmlns="http://www.w3.org/2000/svg">
<path d="M5.99028 4.9875C6.1838 5.21621 6.28056 5.47552 6.28056 5.76545C6.28056 6.05537 6.1838 6.29745 5.99028 6.49167L4.0375 8.44444L11.6111 8.44444C11.9102 8.44444 12.1611 8.54578 12.3637 8.74844C12.5664 8.95111 12.6674 9.20163 12.6667 9.5C12.6667 9.79907 12.5653 10.0499 12.3627 10.2526C12.16 10.4553 11.9095 10.5563 11.6111 10.5556L4.0375 10.5556L5.99028 12.5083C6.20139 12.7194 6.30695 12.9703 6.30695 13.2609C6.30695 13.5516 6.20139 13.8021 5.99028 14.0125C5.79676 14.2236 5.55469 14.3292 5.26406 14.3292C4.97343 14.3292 4.73171 14.2324 4.53889 14.0389L0.738894 10.2389C0.633338 10.1333 0.558392 10.019 0.51406 9.89583C0.469725 9.77268 0.447911 9.64074 0.448615 9.5C0.448615 9.35926 0.470429 9.22731 0.51406 9.10417C0.557689 8.98102 0.632636 8.86667 0.738894 8.76111L4.53889 4.96111C4.7676 4.73241 5.01847 4.63108 5.2915 4.65711C5.56454 4.68315 5.79747 4.79328 5.99028 4.9875ZM16.8889 3.63014e-06C17.4694 3.68089e-06 17.9666 0.206892 18.3804 0.62067C18.7942 1.03445 19.0007 1.53126 19 2.11111L19 16.8889C19 17.4694 18.7931 17.9666 18.3793 18.3804C17.9656 18.7942 17.4687 19.0007 16.8889 19L10.5556 19C10.2565 19 10.0056 18.8987 9.80295 18.696C9.60028 18.4933 9.4993 18.2428 9.5 17.9444C9.5 17.6454 9.60133 17.3945 9.804 17.1918C10.0067 16.9892 10.2572 16.8882 10.5556 16.8889L16.8889 16.8889L16.8889 2.11111L10.5556 2.11111C10.2565 2.11111 10.0056 2.00978 9.80295 1.80711C9.60028 1.60445 9.4993 1.35393 9.5 1.05556C9.5 0.756484 9.60134 0.505614 9.804 0.302949C10.0067 0.100282 10.2572 -0.000700761 10.5556 3.07646e-06L16.8889 3.63014e-06Z" fill="white"/>
</svg>
