<svg width="100" height="100" viewBox="0 0 100 100" fill="none" xmlns="http://www.w3.org/2000/svg">
<g id="microsoft-team">
<path id="Vector" d="M84.0247 35.8812C89.8217 35.8812 94.5377 31.1522 94.5377 25.3412C93.9607 11.3582 74.0877 11.3622 73.5117 25.3412C73.5117 31.1522 78.2287 35.8812 84.0247 35.8812Z" fill="#464EB8"/>
<path id="Vector_2" d="M90.9583 38.71H72.1933H72.1573C72.1523 38.71 72.1543 38.71 72.1483 38.71C71.0253 38.71 56.3433 38.71 51.6103 38.71V35.03C52.3943 35.169 53.2153 35.262 54.0773 35.298C54.1703 35.299 54.2633 35.292 54.3563 35.291C54.7143 35.285 55.0693 35.268 55.4193 35.238C55.5393 35.227 55.6583 35.217 55.7763 35.203C56.1793 35.158 56.5773 35.099 56.9693 35.022C56.9933 35.017 57.0193 35.014 57.0433 35.01C58.9013 34.631 60.6533 33.89 62.2103 32.84C63.6503 31.869 64.8973 30.637 65.9033 29.225C66.1633 28.884 66.4003 28.528 66.6213 28.164C66.6423 28.128 66.6653 28.094 66.6863 28.057C66.8563 27.77 67.0063 27.473 67.1523 27.173C67.2163 27.043 67.2823 26.913 67.3423 26.781C67.4963 26.436 67.6383 26.085 67.7633 25.728C67.7743 25.698 67.7853 25.669 67.7953 25.64C69.2223 21.432 68.5693 16.484 66.1193 12.784C65.4713 11.835 64.7023 10.978 63.8513 10.21C63.6753 10.057 63.5073 9.89603 63.3223 9.75303C62.6083 9.16503 61.8373 8.64403 61.0183 8.20103C60.6083 7.97903 60.1873 7.77603 59.7553 7.59403C59.3213 7.40203 58.8683 7.24403 58.4083 7.10103C58.1443 7.02003 57.8703 6.96003 57.6003 6.89403C57.3613 6.83603 57.1253 6.77303 56.8833 6.72803C56.6833 6.69003 56.4783 6.66603 56.2763 6.63603C55.9243 6.58603 55.5723 6.54003 55.2163 6.51503C55.0943 6.50603 54.9713 6.50303 54.8483 6.49703C54.4863 6.47903 54.1233 6.48003 53.7603 6.49003C51.6803 6.61103 49.8343 7.04803 48.2173 7.73003C47.8873 7.87903 47.5533 8.02403 47.2423 8.20003C44.0003 9.96603 41.5203 12.972 40.3753 16.493C39.5813 19.122 39.5133 21.961 40.1883 24.622C40.1953 24.647 40.2013 24.673 40.2083 24.698C40.2403 24.813 40.2733 24.928 40.3053 25.043C40.3443 25.18 40.3903 25.316 40.4333 25.452C40.4723 25.562 40.5133 25.671 40.5543 25.781H8.7743C5.9283 25.781 3.6123 28.097 3.6123 30.943V68.615C3.6123 71.462 5.9283 73.777 8.7743 73.777H28.8963C28.9223 73.895 28.9553 74.009 28.9833 74.126C31.7533 85.025 41.4463 92.733 52.9003 93.011C62.4033 92.78 70.5663 87.29 74.6533 79.419C74.7143 79.441 74.7773 79.457 74.8383 79.478C85.0203 83.329 96.5903 75.249 96.3843 64.347V44.122C96.3853 41.138 93.9503 38.71 90.9583 38.71Z" fill="#464EB8"/>
<path id="Vector_3" d="M77.444 44.2322C77.513 41.2612 75.157 38.7842 72.193 38.7112C72.181 38.7112 50.761 38.7112 50.761 38.7112C49.972 38.7112 49.332 39.3522 49.332 40.1442V69.2392C49.332 70.5812 48.243 71.6722 46.904 71.6722H30.199C29.77 71.6722 29.363 71.8662 29.092 72.1992C28.821 72.5332 28.713 72.9712 28.8 73.3932C31.167 84.9542 41.048 93.2302 52.9 93.5192C66.756 93.1792 77.766 81.6052 77.444 67.7522V44.2322ZM54.077 35.2982C54.17 35.2992 54.263 35.2922 54.356 35.2912C54.714 35.2862 55.069 35.2682 55.42 35.2382C55.54 35.2272 55.659 35.2172 55.777 35.2032C56.179 35.1582 56.578 35.0992 56.97 35.0222C56.994 35.0172 57.02 35.0142 57.044 35.0092C58.902 34.6302 60.654 33.8892 62.211 32.8392C63.652 31.8682 64.898 30.6362 65.905 29.2242C66.165 28.8832 66.402 28.5272 66.623 28.1632C66.644 28.1272 66.667 28.0932 66.688 28.0562C66.858 27.7692 67.008 27.4712 67.154 27.1722C67.218 27.0422 67.284 26.9132 67.344 26.7802C67.498 26.4352 67.641 26.0842 67.765 25.7272C67.776 25.6972 67.787 25.6682 67.797 25.6392C69.224 21.4312 68.571 16.4822 66.121 12.7832C65.473 11.8342 64.704 10.9772 63.853 10.2092C63.677 10.0562 63.509 9.89519 63.324 9.75219C62.61 9.16419 61.839 8.64319 61.02 8.20019C60.61 7.97819 60.189 7.77519 59.757 7.59319C59.323 7.40119 58.87 7.24319 58.41 7.10019C58.146 7.01919 57.872 6.96019 57.602 6.89319C57.363 6.83519 57.127 6.7722 56.885 6.7272C56.685 6.6892 56.481 6.6652 56.278 6.6352C55.926 6.5852 55.574 6.53919 55.218 6.51419C55.096 6.50519 54.973 6.50219 54.851 6.49619C54.489 6.48019 54.126 6.4812 53.763 6.4912C51.683 6.6122 49.837 7.04819 48.22 7.73119C47.89 7.88019 47.556 8.0252 47.245 8.2012C44.003 9.96819 41.522 12.9742 40.378 16.4952C39.584 19.1242 39.516 21.9632 40.191 24.6242C40.198 24.6492 40.204 24.6752 40.211 24.7002C40.243 24.8152 40.276 24.9302 40.308 25.0452C40.347 25.1822 40.393 25.3182 40.436 25.4542C40.496 25.6252 40.559 25.7942 40.623 25.9642H40.596C42.371 30.9412 46.864 34.9932 54.077 35.2982Z" fill="#7B83EB"/>
<path id="Vector_4" d="M46.4483 25.7832H8.7743C5.9283 25.7832 3.6123 28.0992 3.6123 30.9452V68.6172C3.6123 71.4642 5.9283 73.7792 8.7743 73.7792H46.4483C49.2943 73.7792 51.6093 71.4632 51.6093 68.6172V30.9452C51.6103 28.0992 49.2953 25.7832 46.4483 25.7832Z" fill="#464EB8"/>
<path id="Vector_5" d="M37.1086 36.271H17.8286C17.0576 36.271 16.4336 36.896 16.4336 37.667V41.181C16.4336 41.952 17.0576 42.577 17.8286 42.577H24.0486V62.152C24.0486 62.923 24.6726 63.548 25.4436 63.548H29.5776C30.3486 63.548 30.9726 62.923 30.9726 62.152V42.577H37.1086C37.8796 42.577 38.5036 41.952 38.5036 41.181V37.667C38.5036 36.896 37.8796 36.271 37.1086 36.271Z" fill="white"/>
</g>
</svg>
