<svg width="365" height="257" viewBox="0 0 365 257" fill="none" xmlns="http://www.w3.org/2000/svg">
<path d="M176.762 0C178.573 0 180.31 0.718342 181.59 1.997C182.871 3.27566 183.59 5.00989 183.59 6.81818V27.2727H243.056C246.88 27.2727 250.576 28.6364 253.462 31.1364L282.476 56.1364C284.209 57.6299 285.6 59.4789 286.553 61.5575C287.507 63.6362 288 65.8956 288 68.1818C288 70.4681 287.507 72.7275 286.553 74.8061C285.6 76.8847 284.209 78.7338 282.476 80.2273L253.462 105.227C250.569 107.719 246.876 109.091 243.056 109.091H183.59V193.182C183.59 194.99 182.871 196.724 181.59 198.003C180.31 199.282 178.573 200 176.762 200C174.951 200 173.215 199.282 171.934 198.003C170.654 196.724 169.934 194.99 169.934 193.182V109.091H103.932C99.7063 109.091 95.654 107.415 92.6663 104.431C89.6785 101.448 88 97.4012 88 93.1818V43.1818C88 34.3909 95.1374 27.2727 103.932 27.2727H169.934V6.81818C169.934 5.00989 170.654 3.27566 171.934 1.997C173.215 0.718342 174.951 0 176.762 0ZM243.056 40.9091H103.932C103.328 40.9091 102.749 41.1485 102.322 41.5748C101.896 42.001 101.656 42.5791 101.656 43.1818V93.1818C101.656 94.4364 102.675 95.4545 103.932 95.4545H243.056C243.602 95.4545 244.13 95.2636 244.54 94.9091L273.563 69.9091C273.816 69.6975 274.019 69.4332 274.158 69.1348C274.298 68.8364 274.37 68.5111 274.37 68.1818C274.37 67.8525 274.298 67.5273 274.158 67.2289C274.019 66.9305 273.816 66.6662 273.563 66.4546L244.54 41.4545C244.127 41.1008 243.6 40.9072 243.056 40.9091Z" fill="#8B909A"/>
<path d="M2.36 248L6.56 219.08H10L21.14 241.56L24.36 219.08H27.98L23.78 248H20.58L9.26 225.2L5.98 248H2.36ZM38.3063 248.4C36.4929 248.4 34.9663 247.993 33.7263 247.18C32.4863 246.353 31.5996 245.147 31.0663 243.56C30.5463 241.973 30.4396 240.033 30.7463 237.74C31.0529 235.58 31.6663 233.687 32.5863 232.06C33.5063 230.433 34.6996 229.173 36.1663 228.28C37.6463 227.373 39.3529 226.92 41.2863 226.92C43.0996 226.92 44.6129 227.34 45.8263 228.18C47.0529 229.007 47.9263 230.227 48.4463 231.84C48.9663 233.453 49.0663 235.42 48.7463 237.74C48.4529 239.847 47.8529 241.7 46.9463 243.3C46.0396 244.9 44.8596 246.153 43.4063 247.06C41.9663 247.953 40.2663 248.4 38.3063 248.4ZM38.7463 245.48C39.9063 245.48 40.9263 245.167 41.8063 244.54C42.6996 243.913 43.4329 243.013 44.0063 241.84C44.5796 240.667 44.9729 239.273 45.1863 237.66C45.3863 236.18 45.3796 234.853 45.1663 233.68C44.9663 232.493 44.5129 231.553 43.8063 230.86C43.1129 230.167 42.1329 229.82 40.8663 229.82C39.6796 229.82 38.6396 230.133 37.7463 230.76C36.8529 231.373 36.1196 232.267 35.5463 233.44C34.9729 234.613 34.5729 236.02 34.3463 237.66C34.1596 239.113 34.1663 240.433 34.3663 241.62C34.5796 242.807 35.0396 243.747 35.7463 244.44C36.4529 245.133 37.4529 245.48 38.7463 245.48ZM61.9894 248L66.1494 219.08H71.1694L75.8694 242.96L87.5694 219.08H92.5094L88.3694 248H84.6494L88.0294 224.62L76.7894 248H73.4894L69.0294 224.84L65.6694 248H61.9894ZM95.7709 248L98.6909 227.32H102.191L99.2909 248H95.7709ZM99.1909 222.94L99.7309 219.1H103.431L102.891 222.94H99.1909ZM111.112 248.26C110.046 248.26 109.206 248.107 108.592 247.8C107.979 247.493 107.532 247.08 107.252 246.56C106.972 246.04 106.819 245.447 106.792 244.78C106.766 244.1 106.799 243.4 106.892 242.68L110.432 218.28H113.992L110.512 242.32C110.366 243.36 110.446 244.14 110.752 244.66C111.072 245.18 111.579 245.467 112.272 245.52L113.312 245.54L112.972 247.94C112.639 248.033 112.306 248.107 111.972 248.16C111.639 248.227 111.352 248.26 111.112 248.26ZM125.718 248.4C123.878 248.4 122.318 247.98 121.038 247.14C119.771 246.3 118.858 245.093 118.298 243.52C117.751 241.947 117.638 240.06 117.958 237.86C118.264 235.687 118.891 233.78 119.838 232.14C120.798 230.5 122.011 229.22 123.478 228.3C124.958 227.38 126.651 226.92 128.558 226.92C130.424 226.92 131.938 227.34 133.098 228.18C134.258 229.02 135.058 230.207 135.498 231.74C135.951 233.26 136.024 235.067 135.718 237.16L135.518 238.52H121.498C121.311 239.827 121.344 241.013 121.598 242.08C121.851 243.133 122.344 243.973 123.078 244.6C123.824 245.227 124.824 245.54 126.078 245.54C127.318 245.54 128.431 245.233 129.418 244.62C130.404 244.007 131.104 243.12 131.518 241.96H134.898C134.458 243.36 133.758 244.54 132.798 245.5C131.838 246.46 130.738 247.187 129.498 247.68C128.258 248.16 126.998 248.4 125.718 248.4ZM121.858 236.02H132.418C132.591 234.833 132.558 233.767 132.318 232.82C132.078 231.86 131.611 231.107 130.918 230.56C130.238 230 129.304 229.72 128.118 229.72C126.918 229.72 125.871 230.033 124.978 230.66C124.098 231.273 123.391 232.067 122.858 233.04C122.338 234 122.004 234.993 121.858 236.02ZM146.078 248.4C144.705 248.4 143.458 248.18 142.338 247.74C141.231 247.287 140.351 246.587 139.698 245.64C139.058 244.68 138.745 243.46 138.758 241.98H142.038C142.091 242.793 142.311 243.473 142.698 244.02C143.085 244.553 143.598 244.96 144.238 245.24C144.891 245.507 145.631 245.64 146.458 245.64C147.765 245.64 148.858 245.38 149.738 244.86C150.618 244.34 151.131 243.54 151.278 242.46C151.385 241.7 151.258 241.093 150.898 240.64C150.538 240.173 149.925 239.833 149.058 239.62L145.158 238.56C143.625 238.16 142.445 237.533 141.618 236.68C140.791 235.827 140.478 234.633 140.678 233.1C140.838 231.887 141.265 230.82 141.958 229.9C142.651 228.98 143.591 228.253 144.778 227.72C145.978 227.187 147.405 226.92 149.058 226.92C151.218 226.92 152.885 227.427 154.058 228.44C155.245 229.44 155.731 230.913 155.518 232.86H152.318C152.331 231.873 152.025 231.093 151.398 230.52C150.771 229.933 149.858 229.64 148.658 229.64C147.418 229.64 146.371 229.907 145.518 230.44C144.665 230.96 144.165 231.773 144.018 232.88C143.911 233.613 144.105 234.193 144.598 234.62C145.105 235.033 145.878 235.38 146.918 235.66L150.678 236.7C151.558 236.953 152.271 237.287 152.818 237.7C153.365 238.113 153.771 238.573 154.038 239.08C154.318 239.587 154.491 240.12 154.558 240.68C154.625 241.227 154.618 241.753 154.538 242.26C154.365 243.527 153.911 244.62 153.178 245.54C152.458 246.447 151.491 247.153 150.278 247.66C149.078 248.153 147.678 248.4 146.078 248.4ZM165.583 248.1C164.209 248.1 163.169 247.907 162.463 247.52C161.769 247.133 161.323 246.56 161.123 245.8C160.936 245.04 160.923 244.107 161.083 243L162.943 230.02H159.743L160.163 227.32H163.403L164.943 221.3H167.823L166.963 227.3H171.403L171.003 230.02H166.562L164.743 242.74C164.596 243.847 164.683 244.547 165.003 244.84C165.336 245.133 165.923 245.28 166.763 245.28H168.923L168.563 247.76C168.309 247.853 167.929 247.933 167.423 248C166.929 248.067 166.316 248.1 165.583 248.1ZM181.041 248.4C179.227 248.4 177.701 247.993 176.461 247.18C175.221 246.353 174.334 245.147 173.801 243.56C173.281 241.973 173.174 240.033 173.481 237.74C173.787 235.58 174.401 233.687 175.321 232.06C176.241 230.433 177.434 229.173 178.901 228.28C180.381 227.373 182.087 226.92 184.021 226.92C185.834 226.92 187.347 227.34 188.561 228.18C189.787 229.007 190.661 230.227 191.181 231.84C191.701 233.453 191.801 235.42 191.481 237.74C191.187 239.847 190.587 241.7 189.681 243.3C188.774 244.9 187.594 246.153 186.141 247.06C184.701 247.953 183.001 248.4 181.041 248.4ZM181.481 245.48C182.641 245.48 183.661 245.167 184.541 244.54C185.434 243.913 186.167 243.013 186.741 241.84C187.314 240.667 187.707 239.273 187.921 237.66C188.121 236.18 188.114 234.853 187.901 233.68C187.701 232.493 187.247 231.553 186.541 230.86C185.847 230.167 184.867 229.82 183.601 229.82C182.414 229.82 181.374 230.133 180.481 230.76C179.587 231.373 178.854 232.267 178.281 233.44C177.707 234.613 177.307 236.02 177.081 237.66C176.894 239.113 176.901 240.433 177.101 241.62C177.314 242.807 177.774 243.747 178.481 244.44C179.187 245.133 180.187 245.48 181.481 245.48ZM195.019 248L198.019 227.32H201.499L201.119 230.2C201.559 229.613 202.086 229.08 202.699 228.6C203.326 228.12 204.046 227.74 204.859 227.46C205.686 227.167 206.619 227.02 207.659 227.02C208.913 227.02 210.013 227.307 210.959 227.88C211.919 228.44 212.633 229.267 213.099 230.36C213.566 231.453 213.679 232.8 213.439 234.4L211.479 248H207.859L209.779 234.76C210.019 233.253 209.793 232.1 209.099 231.3C208.419 230.487 207.459 230.08 206.219 230.08C205.353 230.08 204.513 230.227 203.699 230.52C202.899 230.813 202.219 231.26 201.659 231.86C201.113 232.46 200.773 233.207 200.639 234.1L198.619 248H195.019ZM225.561 248.4C223.721 248.4 222.161 247.98 220.881 247.14C219.615 246.3 218.701 245.093 218.141 243.52C217.595 241.947 217.481 240.06 217.801 237.86C218.108 235.687 218.735 233.78 219.681 232.14C220.641 230.5 221.855 229.22 223.321 228.3C224.801 227.38 226.495 226.92 228.401 226.92C230.268 226.92 231.781 227.34 232.941 228.18C234.101 229.02 234.901 230.207 235.341 231.74C235.795 233.26 235.868 235.067 235.561 237.16L235.361 238.52H221.341C221.155 239.827 221.188 241.013 221.441 242.08C221.695 243.133 222.188 243.973 222.921 244.6C223.668 245.227 224.668 245.54 225.921 245.54C227.161 245.54 228.275 245.233 229.261 244.62C230.248 244.007 230.948 243.12 231.361 241.96H234.741C234.301 243.36 233.601 244.54 232.641 245.5C231.681 246.46 230.581 247.187 229.341 247.68C228.101 248.16 226.841 248.4 225.561 248.4ZM221.701 236.02H232.261C232.435 234.833 232.401 233.767 232.161 232.82C231.921 231.86 231.455 231.107 230.761 230.56C230.081 230 229.148 229.72 227.961 229.72C226.761 229.72 225.715 230.033 224.821 230.66C223.941 231.273 223.235 232.067 222.701 233.04C222.181 234 221.848 234.993 221.701 236.02ZM246.783 248L260.863 219.08H264.903L270.603 248H266.943L265.423 240.08H254.303L250.443 248H246.783ZM255.703 236.68H264.963L262.383 222.74L255.703 236.68ZM281.923 248.4C279.363 248.4 277.463 247.48 276.223 245.64C274.983 243.8 274.596 241.113 275.063 237.58C275.503 234.353 276.523 231.773 278.123 229.84C279.736 227.893 281.87 226.92 284.523 226.92C285.456 226.92 286.263 227.047 286.943 227.3C287.636 227.553 288.216 227.873 288.683 228.26C289.163 228.647 289.543 229.047 289.823 229.46C290.116 229.873 290.323 230.253 290.443 230.6L292.103 218.28H295.763L291.763 248H289.023L289.183 243.76C289.01 244.16 288.743 244.627 288.383 245.16C288.036 245.68 287.576 246.193 287.003 246.7C286.43 247.193 285.723 247.6 284.883 247.92C284.056 248.24 283.07 248.4 281.923 248.4ZM282.963 245.56C284.923 245.56 286.41 244.927 287.423 243.66C288.45 242.38 289.156 240.293 289.543 237.4C289.743 235.787 289.73 234.413 289.503 233.28C289.29 232.147 288.83 231.287 288.123 230.7C287.416 230.1 286.423 229.8 285.143 229.8C283.543 229.8 282.156 230.407 280.983 231.62C279.823 232.833 279.07 234.76 278.723 237.4C278.376 239.987 278.563 241.993 279.283 243.42C280.003 244.847 281.23 245.56 282.963 245.56ZM305.048 248.4C302.488 248.4 300.588 247.48 299.348 245.64C298.108 243.8 297.721 241.113 298.188 237.58C298.628 234.353 299.648 231.773 301.248 229.84C302.861 227.893 304.995 226.92 307.648 226.92C308.581 226.92 309.388 227.047 310.068 227.3C310.761 227.553 311.341 227.873 311.808 228.26C312.288 228.647 312.668 229.047 312.948 229.46C313.241 229.873 313.448 230.253 313.568 230.6L315.228 218.28H318.888L314.888 248H312.148L312.308 243.76C312.135 244.16 311.868 244.627 311.508 245.16C311.161 245.68 310.701 246.193 310.128 246.7C309.555 247.193 308.848 247.6 308.008 247.92C307.181 248.24 306.195 248.4 305.048 248.4ZM306.088 245.56C308.048 245.56 309.535 244.927 310.548 243.66C311.575 242.38 312.281 240.293 312.668 237.4C312.868 235.787 312.855 234.413 312.628 233.28C312.415 232.147 311.955 231.287 311.248 230.7C310.541 230.1 309.548 229.8 308.268 229.8C306.668 229.8 305.281 230.407 304.108 231.62C302.948 232.833 302.195 234.76 301.848 237.4C301.501 239.987 301.688 241.993 302.408 243.42C303.128 244.847 304.355 245.56 306.088 245.56ZM329.233 248.4C327.393 248.4 325.833 247.98 324.553 247.14C323.286 246.3 322.373 245.093 321.813 243.52C321.266 241.947 321.153 240.06 321.473 237.86C321.78 235.687 322.406 233.78 323.353 232.14C324.313 230.5 325.526 229.22 326.993 228.3C328.473 227.38 330.166 226.92 332.073 226.92C333.94 226.92 335.453 227.34 336.613 228.18C337.773 229.02 338.573 230.207 339.013 231.74C339.466 233.26 339.54 235.067 339.233 237.16L339.033 238.52H325.013C324.826 239.827 324.86 241.013 325.113 242.08C325.366 243.133 325.86 243.973 326.593 244.6C327.34 245.227 328.34 245.54 329.593 245.54C330.833 245.54 331.946 245.233 332.933 244.62C333.92 244.007 334.62 243.12 335.033 241.96H338.413C337.973 243.36 337.273 244.54 336.313 245.5C335.353 246.46 334.253 247.187 333.013 247.68C331.773 248.16 330.513 248.4 329.233 248.4ZM325.373 236.02H335.933C336.106 234.833 336.073 233.767 335.833 232.82C335.593 231.86 335.126 231.107 334.433 230.56C333.753 230 332.82 229.72 331.633 229.72C330.433 229.72 329.386 230.033 328.493 230.66C327.613 231.273 326.906 232.067 326.373 233.04C325.853 234 325.52 234.993 325.373 236.02ZM349.931 248.4C347.371 248.4 345.471 247.48 344.231 245.64C342.991 243.8 342.604 241.113 343.071 237.58C343.511 234.353 344.531 231.773 346.131 229.84C347.744 227.893 349.878 226.92 352.531 226.92C353.464 226.92 354.271 227.047 354.951 227.3C355.644 227.553 356.224 227.873 356.691 228.26C357.171 228.647 357.551 229.047 357.831 229.46C358.124 229.873 358.331 230.253 358.451 230.6L360.111 218.28H363.771L359.771 248H357.031L357.191 243.76C357.018 244.16 356.751 244.627 356.391 245.16C356.044 245.68 355.584 246.193 355.011 246.7C354.438 247.193 353.731 247.6 352.891 247.92C352.064 248.24 351.078 248.4 349.931 248.4ZM350.971 245.56C352.931 245.56 354.418 244.927 355.431 243.66C356.458 242.38 357.164 240.293 357.551 237.4C357.751 235.787 357.738 234.413 357.511 233.28C357.298 232.147 356.838 231.287 356.131 230.7C355.424 230.1 354.431 229.8 353.151 229.8C351.551 229.8 350.164 230.407 348.991 231.62C347.831 232.833 347.078 234.76 346.731 237.4C346.384 239.987 346.571 241.993 347.291 243.42C348.011 244.847 349.238 245.56 350.971 245.56Z" fill="#8B909A"/>
</svg>
