<svg width="161" height="155" viewBox="0 0 161 155" fill="none" xmlns="http://www.w3.org/2000/svg">
<path d="M12.4192 148.019H9.80857L3.89732 139.086V148.019H1.28668V134.984H3.89732L9.80857 143.935V134.984H12.4192V148.019ZM19.5864 148.186C18.5919 148.186 17.6968 147.969 16.9012 147.534C16.1055 147.086 15.4777 146.458 15.0178 145.65C14.5702 144.842 14.3465 143.91 14.3465 142.853C14.3465 141.797 14.5765 140.864 15.0364 140.056C15.5088 139.248 16.1491 138.626 16.9571 138.191C17.7652 137.744 18.6665 137.52 19.661 137.52C20.6555 137.52 21.5568 137.744 22.3649 138.191C23.1729 138.626 23.807 139.248 24.2669 140.056C24.7393 140.864 24.9755 141.797 24.9755 142.853C24.9755 143.91 24.7331 144.842 24.2483 145.65C23.7759 146.458 23.1294 147.086 22.3089 147.534C21.5009 147.969 20.5934 148.186 19.5864 148.186ZM19.5864 145.911C20.0588 145.911 20.5001 145.8 20.9104 145.576C21.3331 145.34 21.6687 144.991 21.9173 144.531C22.166 144.072 22.2903 143.512 22.2903 142.853C22.2903 141.871 22.0292 141.119 21.5071 140.597C20.9974 140.062 20.3696 139.795 19.6237 139.795C18.8778 139.795 18.25 140.062 17.7403 140.597C17.243 141.119 16.9944 141.871 16.9944 142.853C16.9944 143.835 17.2368 144.594 17.7217 145.128C18.2189 145.65 18.8405 145.911 19.5864 145.911ZM38.047 148.019L35.1753 142.946H33.9445V148.019H31.3339V135.003H36.2195C37.2265 135.003 38.0843 135.183 38.7929 135.543C39.5015 135.891 40.0298 136.37 40.3779 136.979C40.7384 137.576 40.9187 138.247 40.9187 138.993C40.9187 139.851 40.6701 140.628 40.1728 141.324C39.6755 142.008 38.9358 142.48 37.9537 142.741L41.0679 148.019H38.047ZM33.9445 140.988H36.1263C36.8349 140.988 37.3632 140.821 37.7113 140.485C38.0594 140.137 38.2335 139.658 38.2335 139.049C38.2335 138.452 38.0594 137.992 37.7113 137.669C37.3632 137.334 36.8349 137.166 36.1263 137.166H33.9445V140.988ZM52.8834 142.629C52.8834 143.002 52.8585 143.338 52.8088 143.636H45.2566C45.3187 144.382 45.5798 144.967 46.0398 145.389C46.4997 145.812 47.0654 146.023 47.7367 146.023C48.7063 146.023 49.3963 145.607 49.8065 144.774H52.6223C52.324 145.768 51.7521 146.589 50.9067 147.235C50.0614 147.869 49.0234 148.186 47.7926 148.186C46.7981 148.186 45.903 147.969 45.1074 147.534C44.3242 147.086 43.7088 146.458 43.2613 145.65C42.8262 144.842 42.6086 143.91 42.6086 142.853C42.6086 141.784 42.8262 140.845 43.2613 140.037C43.6964 139.229 44.3055 138.608 45.0887 138.173C45.8719 137.738 46.7732 137.52 47.7926 137.52C48.7747 137.52 49.6512 137.731 50.4219 138.154C51.2051 138.577 51.808 139.18 52.2307 139.963C52.6658 140.734 52.8834 141.622 52.8834 142.629ZM50.1795 141.884C50.1671 141.212 49.9246 140.678 49.4522 140.28C48.9798 139.87 48.4018 139.664 47.718 139.664C47.0716 139.664 46.5246 139.863 46.0771 140.261C45.6419 140.647 45.3747 141.187 45.2752 141.884H50.1795ZM54.1176 142.853C54.1176 141.784 54.3352 140.852 54.7703 140.056C55.2054 139.248 55.8083 138.626 56.5791 138.191C57.3498 137.744 58.2325 137.52 59.227 137.52C60.5075 137.52 61.5642 137.843 62.3971 138.49C63.2424 139.124 63.8081 140.019 64.094 141.175H61.2782C61.1291 140.727 60.8742 140.379 60.5137 140.131C60.1656 139.87 59.7305 139.739 59.2084 139.739C58.4625 139.739 57.872 140.013 57.4369 140.56C57.0018 141.094 56.7842 141.859 56.7842 142.853C56.7842 143.835 57.0018 144.6 57.4369 145.147C57.872 145.681 58.4625 145.949 59.2084 145.949C60.2651 145.949 60.955 145.476 61.2782 144.531H64.094C63.8081 145.65 63.2424 146.539 62.3971 147.198C61.5517 147.857 60.495 148.186 59.227 148.186C58.2325 148.186 57.3498 147.969 56.5791 147.534C55.8083 147.086 55.2054 146.465 54.7703 145.669C54.3352 144.861 54.1176 143.922 54.1176 142.853ZM70.5938 148.186C69.5993 148.186 68.7042 147.969 67.9086 147.534C67.113 147.086 66.4852 146.458 66.0252 145.65C65.5776 144.842 65.3539 143.91 65.3539 142.853C65.3539 141.797 65.5839 140.864 66.0438 140.056C66.5162 139.248 67.1565 138.626 67.9645 138.191C68.7726 137.744 69.6739 137.52 70.6684 137.52C71.6629 137.52 72.5642 137.744 73.3723 138.191C74.1804 138.626 74.8144 139.248 75.2743 140.056C75.7467 140.864 75.9829 141.797 75.9829 142.853C75.9829 143.91 75.7405 144.842 75.2557 145.65C74.7833 146.458 74.1368 147.086 73.3164 147.534C72.5083 147.969 71.6008 148.186 70.5938 148.186ZM70.5938 145.911C71.0662 145.911 71.5075 145.8 71.9178 145.576C72.3405 145.34 72.6761 144.991 72.9248 144.531C73.1734 144.072 73.2977 143.512 73.2977 142.853C73.2977 141.871 73.0366 141.119 72.5145 140.597C72.0048 140.062 71.377 139.795 70.6311 139.795C69.8852 139.795 69.2574 140.062 68.7477 140.597C68.2505 141.119 68.0018 141.871 68.0018 142.853C68.0018 143.835 68.2442 144.594 68.7291 145.128C69.2263 145.65 69.8479 145.911 70.5938 145.911ZM80.5086 139.292C80.8443 138.745 81.2794 138.316 81.8139 138.005C82.3609 137.694 82.9825 137.539 83.6787 137.539V140.28H82.9887C82.1682 140.28 81.5466 140.473 81.124 140.858C80.7137 141.243 80.5086 141.915 80.5086 142.872V148.019H77.898V137.688H80.5086V139.292ZM84.7658 142.816C84.7658 141.772 84.9709 140.845 85.3811 140.037C85.8038 139.229 86.3757 138.608 87.0967 138.173C87.8177 137.738 88.6196 137.52 89.5022 137.52C90.1735 137.52 90.8138 137.669 91.4229 137.968C92.0321 138.253 92.5169 138.639 92.8774 139.124V134.219H95.5254V148.019H92.8774V146.489C92.5542 146.999 92.1004 147.409 91.5162 147.72C90.9319 148.031 90.2543 148.186 89.4836 148.186C88.6134 148.186 87.8177 147.963 87.0967 147.515C86.3757 147.068 85.8038 146.44 85.3811 145.632C84.9709 144.811 84.7658 143.873 84.7658 142.816ZM92.8961 142.853C92.8961 142.219 92.7718 141.678 92.5231 141.231C92.2745 140.771 91.9388 140.423 91.5162 140.187C91.0935 139.938 90.6397 139.814 90.1549 139.814C89.6701 139.814 89.2225 139.932 88.8123 140.168C88.402 140.404 88.0664 140.752 87.8053 141.212C87.5567 141.66 87.4324 142.194 87.4324 142.816C87.4324 143.437 87.5567 143.984 87.8053 144.457C88.0664 144.917 88.402 145.271 88.8123 145.52C89.2349 145.768 89.6825 145.893 90.1549 145.893C90.6397 145.893 91.0935 145.775 91.5162 145.538C91.9388 145.29 92.2745 144.942 92.5231 144.494C92.7718 144.034 92.8961 143.487 92.8961 142.853ZM110.556 135.003V137.11H105.129V140.448H109.287V142.518H105.129V148.019H102.518V135.003H110.556ZM116.994 148.186C115.999 148.186 115.104 147.969 114.309 147.534C113.513 147.086 112.885 146.458 112.425 145.65C111.978 144.842 111.754 143.91 111.754 142.853C111.754 141.797 111.984 140.864 112.444 140.056C112.916 139.248 113.557 138.626 114.365 138.191C115.173 137.744 116.074 137.52 117.069 137.52C118.063 137.52 118.964 137.744 119.772 138.191C120.581 138.626 121.215 139.248 121.675 140.056C122.147 140.864 122.383 141.797 122.383 142.853C122.383 143.91 122.141 144.842 121.656 145.65C121.183 146.458 120.537 147.086 119.717 147.534C118.908 147.969 118.001 148.186 116.994 148.186ZM116.994 145.911C117.466 145.911 117.908 145.8 118.318 145.576C118.741 145.34 119.076 144.991 119.325 144.531C119.574 144.072 119.698 143.512 119.698 142.853C119.698 141.871 119.437 141.119 118.915 140.597C118.405 140.062 117.777 139.795 117.031 139.795C116.285 139.795 115.658 140.062 115.148 140.597C114.651 141.119 114.402 141.871 114.402 142.853C114.402 143.835 114.644 144.594 115.129 145.128C115.627 145.65 116.248 145.911 116.994 145.911ZM134.051 137.688V148.019H131.421V146.713C131.086 147.161 130.644 147.515 130.097 147.776C129.563 148.025 128.979 148.149 128.345 148.149C127.537 148.149 126.822 147.981 126.2 147.646C125.579 147.298 125.088 146.794 124.727 146.135C124.379 145.464 124.205 144.668 124.205 143.748V137.688H126.816V143.375C126.816 144.196 127.021 144.83 127.431 145.277C127.841 145.712 128.401 145.93 129.109 145.93C129.83 145.93 130.396 145.712 130.806 145.277C131.216 144.83 131.421 144.196 131.421 143.375V137.688H134.051ZM142.351 137.539C143.582 137.539 144.577 137.93 145.335 138.713C146.093 139.484 146.472 140.566 146.472 141.958V148.019H143.862V142.312C143.862 141.492 143.657 140.864 143.246 140.429C142.836 139.981 142.277 139.758 141.568 139.758C140.847 139.758 140.275 139.981 139.853 140.429C139.442 140.864 139.237 141.492 139.237 142.312V148.019H136.627V137.688H139.237V138.975C139.585 138.527 140.027 138.179 140.561 137.93C141.108 137.669 141.705 137.539 142.351 137.539ZM148.284 142.816C148.284 141.772 148.489 140.845 148.899 140.037C149.322 139.229 149.894 138.608 150.615 138.173C151.336 137.738 152.138 137.52 153.02 137.52C153.692 137.52 154.332 137.669 154.941 137.968C155.55 138.253 156.035 138.639 156.395 139.124V134.219H159.043V148.019H156.395V146.489C156.072 146.999 155.618 147.409 155.034 147.72C154.45 148.031 153.772 148.186 153.002 148.186C152.131 148.186 151.336 147.963 150.615 147.515C149.894 147.068 149.322 146.44 148.899 145.632C148.489 144.811 148.284 143.873 148.284 142.816ZM156.414 142.853C156.414 142.219 156.29 141.678 156.041 141.231C155.792 140.771 155.457 140.423 155.034 140.187C154.611 139.938 154.158 139.814 153.673 139.814C153.188 139.814 152.74 139.932 152.33 140.168C151.92 140.404 151.584 140.752 151.323 141.212C151.075 141.66 150.95 142.194 150.95 142.816C150.95 143.437 151.075 143.984 151.323 144.457C151.584 144.917 151.92 145.271 152.33 145.52C152.753 145.768 153.2 145.893 153.673 145.893C154.158 145.893 154.611 145.775 155.034 145.538C155.457 145.29 155.792 144.942 156.041 144.494C156.29 144.034 156.414 143.487 156.414 142.853Z" fill="#CACACA"/>
<g style="mix-blend-mode:luminosity" opacity="0.5">
<path d="M40.9982 26.3515L28.802 87.5132C27.9737 91.6671 30.7281 95.7898 34.8847 96.6175L36.7481 96.9886L96.0874 108.806C100.244 109.633 104.37 106.881 105.198 102.727L120.05 28.2443L120.45 26.239C121.279 22.0851 118.524 17.9624 114.368 17.1347L68.5013 8.00072" fill="#C2CDD6"/>
<path d="M40.9982 26.3515L28.802 87.5132C27.9737 91.6671 30.7281 95.7898 34.8847 96.6175L36.7481 96.9886L96.0874 108.806C100.244 109.633 104.37 106.881 105.198 102.727L120.05 28.2443L120.45 26.239C121.279 22.0851 118.524 17.9624 114.368 17.1347L68.5013 8.00072" stroke="#A4B6C6" stroke-width="2.29464" stroke-miterlimit="10" stroke-linecap="round" stroke-linejoin="round"/>
<path d="M68.5063 8.00171L63.9363 30.9195L41.0032 26.3525L68.5063 8.00171Z" fill="#A4B6C6" stroke="#A4B6C6" stroke-width="2.29464" stroke-miterlimit="10" stroke-linecap="round" stroke-linejoin="round"/>
<path d="M92.6396 22.6753L107.725 83.1901C108.749 87.3001 106.194 91.5487 102.081 92.5725L100.237 93.0315L41.5257 107.648C37.413 108.672 33.1616 106.118 32.137 102.008L13.7662 28.3128L13.2716 26.3287C12.2471 22.2188 14.8027 17.9702 18.9154 16.9463L64.2965 5.64876" fill="#EAEEF9"/>
<path d="M92.6396 22.6753L107.725 83.1901C108.749 87.3001 106.194 91.5487 102.081 92.5725L100.237 93.0315L41.5257 107.648C37.413 108.672 33.1616 106.118 32.137 102.008L13.7662 28.3128L13.2716 26.3287C12.2471 22.2188 14.8027 17.9702 18.9154 16.9463L64.2965 5.64876" stroke="#A4B6C6" stroke-width="2.29464" stroke-miterlimit="10" stroke-linecap="round" stroke-linejoin="round"/>
<path d="M64.2944 5.65015L69.947 28.3255L92.6375 22.6767L64.2944 5.65015Z" fill="#A4B6C6" stroke="#A4B6C6" stroke-width="2.29464" stroke-miterlimit="10" stroke-linecap="round" stroke-linejoin="round"/>
<path d="M107.478 31.3923V93.7566C107.478 97.9921 103.97 101.497 99.7319 101.497H97.8319H37.3258C33.0874 101.497 29.5798 97.9921 29.5798 93.7566V17.8094V15.7647C29.5798 11.5292 33.0874 8.02393 37.3258 8.02393H84.0938" fill="white"/>
<path d="M107.478 31.3923V93.7566C107.478 97.9921 103.97 101.497 99.7319 101.497H97.8319H37.3258C33.0874 101.497 29.5798 97.9921 29.5798 93.7566V17.8094V15.7647C29.5798 11.5292 33.0874 8.02393 37.3258 8.02393H84.0938" stroke="#A4B6C6" stroke-width="2.29464" stroke-miterlimit="10" stroke-linecap="round" stroke-linejoin="round"/>
<path d="M84.0938 8.02393V31.3923H107.478L84.0938 8.02393Z" fill="#A4B6C6" stroke="#A4B6C6" stroke-width="2.29464" stroke-miterlimit="10" stroke-linecap="round" stroke-linejoin="round"/>
<path d="M116.466 92.1727L95.6948 79.367L98.6355 74.6078L119.396 87.4299L116.466 92.1727Z" fill="#C2CDD6" stroke="#A4B6C6" stroke-width="1.31942" stroke-miterlimit="10"/>
<path d="M126.831 98.6221L110.901 88.7926C109.571 87.9718 109.156 86.2198 109.978 84.8905C110.799 83.5612 112.552 83.1469 113.882 83.9677L129.812 93.7972C131.142 94.618 131.557 96.37 130.735 97.6993C129.914 99.0286 128.161 99.4429 126.831 98.6221Z" fill="#A4B6C6" stroke="#A4B6C6" stroke-width="1.31942" stroke-miterlimit="10"/>
<path d="M126.104 99.6609L105.61 87.0142C105.133 86.7204 104.986 86.0966 105.277 85.6074L108.511 80.3722C108.805 79.8963 109.43 79.7487 109.919 80.0395L130.414 92.6861C130.89 92.98 131.038 93.6038 130.747 94.093L127.512 99.3282C127.205 99.8072 126.581 99.9548 126.104 99.6609Z" fill="#C2CDD6" stroke="#A4B6C6" stroke-width="1.31942" stroke-miterlimit="10"/>
<path d="M63.882 29.8022C46.2977 33.958 35.4171 51.5672 39.5757 69.1398C43.7311 86.6991 61.3553 97.5856 78.9263 93.433C96.5107 89.2772 107.391 71.668 103.233 54.0954C99.0741 36.5228 81.4531 25.6495 63.882 29.8022ZM77.5451 87.5369C63.4271 90.8735 49.2436 81.9627 45.8546 67.6418C42.4655 53.321 51.1555 39.0184 65.2735 35.6818C79.3914 32.3452 93.5749 41.256 96.9639 55.5769C100.353 69.8978 91.6497 84.2035 77.5451 87.5369Z" fill="#C2CDD6" stroke="#A4B6C6" stroke-width="1.31942" stroke-miterlimit="10"/>
<ellipse cx="25.6327" cy="25.825" rx="25.6327" ry="25.825" transform="matrix(0.973191 -0.229999 0.230291 0.973122 40.4602 42.181)" fill="white"/>
<path d="M81.5745 62.2673C83.5184 62.2602 85.1785 60.5891 85.1714 58.6465C85.1643 56.7039 83.492 55.0449 81.5481 55.052C79.6042 55.0591 77.9441 56.7303 77.9512 58.6728C77.9588 60.7542 79.4917 62.2749 81.5745 62.2673Z" fill="#C2CDD6"/>
<path d="M79.4641 71.9134L77.6591 71.92C76.1196 68.5955 72.0884 67.3614 68.9009 69.0381C67.6533 69.5977 66.5466 70.7118 65.9957 71.9627L64.1907 71.9692C65.7023 67.6622 70.6928 65.4239 74.8643 67.0737C76.8113 67.8991 78.6224 69.5576 79.4641 71.9134Z" fill="#C2CDD6"/>
<path d="M60.924 62.366C62.8678 62.3589 64.5279 60.6877 64.5208 58.7451C64.5137 56.8025 62.8415 55.1435 60.8976 55.1506C58.9537 55.1577 57.2936 56.8289 57.3007 58.7715C57.4471 60.8523 58.9801 62.3731 60.924 62.366Z" fill="#C2CDD6"/>
</g>
</svg>
