<svg width="200" height="189" viewBox="0 0 200 189" fill="none" xmlns="http://www.w3.org/2000/svg">
<g style="mix-blend-mode:luminosity" opacity="0.5">
<g filter="url(#filter0_d_2337_41148)">
<path d="M54 46H189C190.326 46 191.598 46.5268 192.536 47.4645C193.473 48.4021 194 49.6739 194 51V76C194 77.3261 193.473 78.5979 192.536 79.5355C191.598 80.4732 190.326 81 189 81H54C52.6739 81 51.4021 80.4732 50.4645 79.5355C49.5268 78.5979 49 77.3261 49 76V51C49 49.6739 49.5268 48.4021 50.4645 47.4645C51.4021 46.5268 52.6739 46 54 46V46Z" fill="white"/>
</g>
<path d="M128 54H102C100.343 54 99 55.3431 99 57C99 58.6569 100.343 60 102 60H128C129.657 60 131 58.6569 131 57C131 55.3431 129.657 54 128 54Z" fill="#B4DAFF"/>
<path d="M146 67H102C100.343 67 99 68.3431 99 70C99 71.6569 100.343 73 102 73H146C147.657 73 149 71.6569 149 70C149 68.3431 147.657 67 146 67Z" fill="#DEE9FC"/>
<path d="M79.5 73C84.7467 73 89 68.7467 89 63.5C89 58.2533 84.7467 54 79.5 54C74.2533 54 70 58.2533 70 63.5C70 68.7467 74.2533 73 79.5 73Z" fill="#1485FD"/>
<g filter="url(#filter1_d_2337_41148)">
<path d="M11 89H146C147.326 89 148.598 89.5268 149.536 90.4645C150.473 91.4021 151 92.6739 151 94V119C151 120.326 150.473 121.598 149.536 122.536C148.598 123.473 147.326 124 146 124H11C9.67392 124 8.40215 123.473 7.46447 122.536C6.52678 121.598 6 120.326 6 119V94C6 92.6739 6.52678 91.4021 7.46447 90.4645C8.40215 89.5268 9.67392 89 11 89V89Z" fill="white"/>
</g>
<path d="M85 97H59C57.3431 97 56 98.3431 56 100C56 101.657 57.3431 103 59 103H85C86.6569 103 88 101.657 88 100C88 98.3431 86.6569 97 85 97Z" fill="#B4DAFF"/>
<path d="M103 110H59C57.3431 110 56 111.343 56 113C56 114.657 57.3431 116 59 116H103C104.657 116 106 114.657 106 113C106 111.343 104.657 110 103 110Z" fill="#DEE9FC"/>
<path d="M23.5 116C28.7467 116 33 111.747 33 106.5C33 101.253 28.7467 97 23.5 97C18.2533 97 14 101.253 14 106.5C14 111.747 18.2533 116 23.5 116Z" fill="#1485FD"/>
<g filter="url(#filter2_d_2337_41148)">
<path d="M146 3H11C8.23858 3 6 5.23858 6 8V33C6 35.7614 8.23858 38 11 38H146C148.761 38 151 35.7614 151 33V8C151 5.23858 148.761 3 146 3Z" fill="white"/>
</g>
<path d="M83 11H57C55.3431 11 54 12.3431 54 14C54 15.6569 55.3431 17 57 17H83C84.6569 17 86 15.6569 86 14C86 12.3431 84.6569 11 83 11Z" fill="#B4DAFF"/>
<path d="M101 24H57C55.3431 24 54 25.3431 54 27C54 28.6569 55.3431 30 57 30H101C102.657 30 104 28.6569 104 27C104 25.3431 102.657 24 101 24Z" fill="#DEE9FC"/>
<path d="M36.5 30C41.7467 30 46 25.7467 46 20.5C46 15.2533 41.7467 11 36.5 11C31.2533 11 27 15.2533 27 20.5C27 25.7467 31.2533 30 36.5 30Z" fill="#1485FD"/>
<path d="M39.0917 24.0005L36.3643 21.2731L33.6368 24.0005L32.7277 23.0914L35.4551 20.364L32.7277 17.6365L33.6368 16.7274L36.3643 19.4548L39.0917 16.7274L40.0008 17.6365L37.2734 20.364L40.0008 23.0914L39.0917 24.0005Z" fill="white"/>
<path d="M82.0917 67.0005L79.3643 64.2731L76.6368 67.0005L75.7277 66.0914L78.4551 63.364L75.7277 60.6365L76.6368 59.7274L79.3643 62.4548L82.0917 59.7274L83.0008 60.6365L80.2734 63.364L83.0008 66.0914L82.0917 67.0005Z" fill="white"/>
<path d="M26.0917 110.001L23.3643 107.273L20.6368 110.001L19.7277 109.091L22.4551 106.364L19.7277 103.637L20.6368 102.727L23.3643 105.455L26.0917 102.727L27.0008 103.637L24.2734 106.364L27.0008 109.091L26.0917 110.001Z" fill="white"/>
</g>
<path d="M42.1236 177H37.9236L28.4136 162.63V177H24.2136V156.03H28.4136L37.9236 170.43V156.03H42.1236V177ZM53.6541 177.27C52.0541 177.27 50.6141 176.92 49.3341 176.22C48.0541 175.5 47.0441 174.49 46.3041 173.19C45.5841 171.89 45.2241 170.39 45.2241 168.69C45.2241 166.99 45.5941 165.49 46.3341 164.19C47.0941 162.89 48.1241 161.89 49.4241 161.19C50.7241 160.47 52.1741 160.11 53.7741 160.11C55.3741 160.11 56.8241 160.47 58.1241 161.19C59.4241 161.89 60.4441 162.89 61.1841 164.19C61.9441 165.49 62.3241 166.99 62.3241 168.69C62.3241 170.39 61.9341 171.89 61.1541 173.19C60.3941 174.49 59.3541 175.5 58.0341 176.22C56.7341 176.92 55.2741 177.27 53.6541 177.27ZM53.6541 173.61C54.4141 173.61 55.1241 173.43 55.7841 173.07C56.4641 172.69 57.0041 172.13 57.4041 171.39C57.8041 170.65 58.0041 169.75 58.0041 168.69C58.0041 167.11 57.5841 165.9 56.7441 165.06C55.9241 164.2 54.9141 163.77 53.7141 163.77C52.5141 163.77 51.5041 164.2 50.6841 165.06C49.8841 165.9 49.4841 167.11 49.4841 168.69C49.4841 170.27 49.8741 171.49 50.6541 172.35C51.4541 173.19 52.4541 173.61 53.6541 173.61ZM83.3534 177L78.7334 168.84H76.7534V177H72.5534V156.06H80.4134C82.0334 156.06 83.4134 156.35 84.5534 156.93C85.6934 157.49 86.5434 158.26 87.1034 159.24C87.6834 160.2 87.9734 161.28 87.9734 162.48C87.9734 163.86 87.5734 165.11 86.7734 166.23C85.9734 167.33 84.7834 168.09 83.2034 168.51L88.2134 177H83.3534ZM76.7534 165.69H80.2634C81.4034 165.69 82.2534 165.42 82.8134 164.88C83.3734 164.32 83.6534 163.55 83.6534 162.57C83.6534 161.61 83.3734 160.87 82.8134 160.35C82.2534 159.81 81.4034 159.54 80.2634 159.54H76.7534V165.69ZM107.222 168.33C107.222 168.93 107.182 169.47 107.102 169.95H94.9521C95.0521 171.15 95.4721 172.09 96.2121 172.77C96.9521 173.45 97.8621 173.79 98.9421 173.79C100.502 173.79 101.612 173.12 102.272 171.78H106.802C106.322 173.38 105.402 174.7 104.042 175.74C102.682 176.76 101.012 177.27 99.0321 177.27C97.4321 177.27 95.9921 176.92 94.7121 176.22C93.4521 175.5 92.4621 174.49 91.7421 173.19C91.0421 171.89 90.6921 170.39 90.6921 168.69C90.6921 166.97 91.0421 165.46 91.7421 164.16C92.4421 162.86 93.4221 161.86 94.6821 161.16C95.9421 160.46 97.3921 160.11 99.0321 160.11C100.612 160.11 102.022 160.45 103.262 161.13C104.522 161.81 105.492 162.78 106.172 164.04C106.872 165.28 107.222 166.71 107.222 168.33ZM102.872 167.13C102.852 166.05 102.462 165.19 101.702 164.55C100.942 163.89 100.012 163.56 98.9121 163.56C97.8721 163.56 96.9921 163.88 96.2721 164.52C95.5721 165.14 95.1421 166.01 94.9821 167.13H102.872ZM109.208 168.69C109.208 166.97 109.558 165.47 110.258 164.19C110.958 162.89 111.928 161.89 113.168 161.19C114.408 160.47 115.828 160.11 117.428 160.11C119.488 160.11 121.188 160.63 122.528 161.67C123.888 162.69 124.798 164.13 125.258 165.99H120.728C120.488 165.27 120.078 164.71 119.498 164.31C118.938 163.89 118.238 163.68 117.398 163.68C116.198 163.68 115.248 164.12 114.548 165C113.848 165.86 113.498 167.09 113.498 168.69C113.498 170.27 113.848 171.5 114.548 172.38C115.248 173.24 116.198 173.67 117.398 173.67C119.098 173.67 120.208 172.91 120.728 171.39H125.258C124.798 173.19 123.888 174.62 122.528 175.68C121.168 176.74 119.468 177.27 117.428 177.27C115.828 177.27 114.408 176.92 113.168 176.22C111.928 175.5 110.958 174.5 110.258 173.22C109.558 171.92 109.208 170.41 109.208 168.69ZM135.715 177.27C134.115 177.27 132.675 176.92 131.395 176.22C130.115 175.5 129.105 174.49 128.365 173.19C127.645 171.89 127.285 170.39 127.285 168.69C127.285 166.99 127.655 165.49 128.395 164.19C129.155 162.89 130.185 161.89 131.485 161.19C132.785 160.47 134.235 160.11 135.835 160.11C137.435 160.11 138.885 160.47 140.185 161.19C141.485 161.89 142.505 162.89 143.245 164.19C144.005 165.49 144.385 166.99 144.385 168.69C144.385 170.39 143.995 171.89 143.215 173.19C142.455 174.49 141.415 175.5 140.095 176.22C138.795 176.92 137.335 177.27 135.715 177.27ZM135.715 173.61C136.475 173.61 137.185 173.43 137.845 173.07C138.525 172.69 139.065 172.13 139.465 171.39C139.865 170.65 140.065 169.75 140.065 168.69C140.065 167.11 139.645 165.9 138.805 165.06C137.985 164.2 136.975 163.77 135.775 163.77C134.575 163.77 133.565 164.2 132.745 165.06C131.945 165.9 131.545 167.11 131.545 168.69C131.545 170.27 131.935 171.49 132.715 172.35C133.515 173.19 134.515 173.61 135.715 173.61ZM151.666 162.96C152.206 162.08 152.906 161.39 153.766 160.89C154.646 160.39 155.646 160.14 156.766 160.14V164.55H155.656C154.336 164.55 153.336 164.86 152.656 165.48C151.996 166.1 151.666 167.18 151.666 168.72V177H147.466V160.38H151.666V162.96ZM158.514 168.63C158.514 166.95 158.844 165.46 159.504 164.16C160.184 162.86 161.104 161.86 162.264 161.16C163.424 160.46 164.714 160.11 166.134 160.11C167.214 160.11 168.244 160.35 169.224 160.83C170.204 161.29 170.984 161.91 171.564 162.69V154.8H175.824V177H171.564V174.54C171.044 175.36 170.314 176.02 169.374 176.52C168.434 177.02 167.344 177.27 166.104 177.27C164.704 177.27 163.424 176.91 162.264 176.19C161.104 175.47 160.184 174.46 159.504 173.16C158.844 171.84 158.514 170.33 158.514 168.63ZM171.594 168.69C171.594 167.67 171.394 166.8 170.994 166.08C170.594 165.34 170.054 164.78 169.374 164.4C168.694 164 167.964 163.8 167.184 163.8C166.404 163.8 165.684 163.99 165.024 164.37C164.364 164.75 163.824 165.31 163.404 166.05C163.004 166.77 162.804 167.63 162.804 168.63C162.804 169.63 163.004 170.51 163.404 171.27C163.824 172.01 164.364 172.58 165.024 172.98C165.704 173.38 166.424 173.58 167.184 173.58C167.964 173.58 168.694 173.39 169.374 173.01C170.054 172.61 170.594 172.05 170.994 171.33C171.394 170.59 171.594 169.71 171.594 168.69Z" fill="#CACACA"/>
<defs>
<filter id="filter0_d_2337_41148" x="43" y="43" width="157" height="47" filterUnits="userSpaceOnUse" color-interpolation-filters="sRGB">
<feFlood flood-opacity="0" result="BackgroundImageFix"/>
<feColorMatrix in="SourceAlpha" type="matrix" values="0 0 0 0 0 0 0 0 0 0 0 0 0 0 0 0 0 0 127 0" result="hardAlpha"/>
<feOffset dy="3"/>
<feGaussianBlur stdDeviation="3"/>
<feColorMatrix type="matrix" values="0 0 0 0 0 0 0 0 0 0 0 0 0 0 0 0 0 0 0.161 0"/>
<feBlend mode="normal" in2="BackgroundImageFix" result="effect1_dropShadow_2337_41148"/>
<feBlend mode="normal" in="SourceGraphic" in2="effect1_dropShadow_2337_41148" result="shape"/>
</filter>
<filter id="filter1_d_2337_41148" x="0" y="86" width="157" height="47" filterUnits="userSpaceOnUse" color-interpolation-filters="sRGB">
<feFlood flood-opacity="0" result="BackgroundImageFix"/>
<feColorMatrix in="SourceAlpha" type="matrix" values="0 0 0 0 0 0 0 0 0 0 0 0 0 0 0 0 0 0 127 0" result="hardAlpha"/>
<feOffset dy="3"/>
<feGaussianBlur stdDeviation="3"/>
<feColorMatrix type="matrix" values="0 0 0 0 0 0 0 0 0 0 0 0 0 0 0 0 0 0 0.161 0"/>
<feBlend mode="normal" in2="BackgroundImageFix" result="effect1_dropShadow_2337_41148"/>
<feBlend mode="normal" in="SourceGraphic" in2="effect1_dropShadow_2337_41148" result="shape"/>
</filter>
<filter id="filter2_d_2337_41148" x="0" y="0" width="157" height="47" filterUnits="userSpaceOnUse" color-interpolation-filters="sRGB">
<feFlood flood-opacity="0" result="BackgroundImageFix"/>
<feColorMatrix in="SourceAlpha" type="matrix" values="0 0 0 0 0 0 0 0 0 0 0 0 0 0 0 0 0 0 127 0" result="hardAlpha"/>
<feOffset dy="3"/>
<feGaussianBlur stdDeviation="3"/>
<feColorMatrix type="matrix" values="0 0 0 0 0 0 0 0 0 0 0 0 0 0 0 0 0 0 0.161 0"/>
<feBlend mode="normal" in2="BackgroundImageFix" result="effect1_dropShadow_2337_41148"/>
<feBlend mode="normal" in="SourceGraphic" in2="effect1_dropShadow_2337_41148" result="shape"/>
</filter>
</defs>
</svg>
