<svg xmlns="http://www.w3.org/2000/svg" width="20" height="20" viewBox="0 0 20 20" fill="none">
<path d="M14.75 7.14992C14.75 5.80615 14.2496 4.51743 13.3587 3.56725C12.4679 2.61706 11.2598 2.08325 10 2.08325C8.74022 2.08325 7.53204 2.61706 6.64124 3.56725C5.75044 4.51743 5.25 5.80615 5.25 7.14992C5.25 13.0611 2.875 14.7499 2.875 14.7499H17.125C17.125 14.7499 14.75 13.0611 14.75 7.14992Z" stroke="#071952" stroke-width="1.5" stroke-linecap="round" stroke-linejoin="round"/>
<path d="M11.3695 17.125C11.2304 17.365 11.0306 17.5641 10.7902 17.7025C10.5498 17.841 10.2774 17.9139 9.99995 17.9139C9.72255 17.9139 9.45006 17.841 9.20971 17.7025C8.96936 17.5641 8.76955 17.365 8.63037 17.125" stroke="#071952" stroke-width="1.5" stroke-linecap="round" stroke-linejoin="round"/>
</svg>