<svg width="101" height="100" viewBox="0 0 101 100" fill="none" xmlns="http://www.w3.org/2000/svg">
<g id="One Drive" clip-path="url(#clip0_8945_158864)">
<g id="Group">
<path id="Vector" d="M5.20898 70.4687L57.2402 48.8281L31.0684 33.3594C31.0684 33.3594 28.7246 32.0313 25.0527 31.5625C11.5371 31.875 0.677734 42.8906 0.677734 56.4844C0.677734 61.875 2.39648 66.875 5.28711 70.9375L5.20898 70.4687Z" fill="#0078D4"/>
<path id="Vector_2" d="M97.0059 72.5001C99.1934 69.2188 100.521 65.3126 100.521 61.0938C100.521 50.3126 92.084 41.5626 81.5371 40.8594C81.5371 40.7813 81.5371 40.7032 81.459 40.6251C77.709 40.2344 74.2715 41.7188 74.2715 41.7188L57.2402 48.8282L97.0059 72.5001Z" fill="#1490DF"/>
<path id="Vector_3" d="M57.2402 48.9062L74.2715 41.7969C74.2715 41.7969 77.7871 40.3125 81.459 40.7031C78.1777 27.2656 65.9902 17.1875 51.5371 17.1875C40.5996 17.1875 30.9902 22.8906 25.4434 31.4844C25.2871 31.4844 25.209 31.4844 25.0527 31.4844C28.8027 31.9531 31.0684 33.2812 31.0684 33.2812L57.2402 48.9062Z" fill="#0364B8"/>
<path id="Vector_4" d="M57.3184 48.9062L5.28711 70.4687L5.36523 70.9375C9.89648 77.2656 17.3184 81.4062 25.6777 81.4062C26.459 81.4062 27.2402 81.3281 28.0215 81.3281H79.5059C79.8184 81.3281 80.0527 81.3281 80.3652 81.3281C80.6777 81.3281 80.9121 81.3281 81.2246 81.3281H81.3027C87.8652 81.0156 93.6465 77.5781 97.084 72.5L57.3184 48.9062Z" fill="#28A8EA"/>
</g>
</g>
<defs>
<clipPath id="clip0_8945_158864">
<rect width="100" height="100" fill="white" transform="translate(0.599609)"/>
</clipPath>
</defs>
</svg>
