<svg width="17" height="16" viewBox="0 0 17 16" fill="none" xmlns="http://www.w3.org/2000/svg">
<path d="M10.9262 0.393966L15.7896 5.25743C15.9478 5.41545 16.064 5.61041 16.1277 5.82467C16.1915 6.03893 16.2008 6.26572 16.1549 6.48449C16.1089 6.70326 16.0091 6.9071 15.8644 7.07756C15.7198 7.24802 15.5349 7.3797 15.3266 7.46069L14.0748 7.94681C13.4491 8.19034 12.8881 8.57527 12.4359 9.07151C11.9836 9.56776 11.6522 10.1619 11.4676 10.8074L10.599 13.8478C10.5347 14.0728 10.4128 14.2772 10.2453 14.4406C10.0778 14.604 9.87056 14.7209 9.64402 14.7796C9.41749 14.8384 9.17954 14.8369 8.95373 14.7754C8.72793 14.714 8.52209 14.5946 8.35659 14.4291L5.46293 11.5355L1.16622 15.8314C1.11277 15.8849 1.04931 15.9273 0.979478 15.9562C0.909642 15.9851 0.834792 16 0.759202 16C0.683612 16 0.608762 15.9851 0.538926 15.9562C0.46909 15.9273 0.405636 15.8849 0.352185 15.8314C0.298735 15.778 0.256336 15.7145 0.227409 15.6447C0.198482 15.5748 0.183594 15.5 0.183594 15.4244C0.183594 15.3488 0.198482 15.274 0.227409 15.2041C0.256336 15.1343 0.298735 15.0708 0.352185 15.0174L4.64813 10.7207L1.75447 7.82701C1.58901 7.66151 1.46964 7.45567 1.40816 7.22986C1.34669 7.00405 1.34524 6.76611 1.40397 6.53957C1.4627 6.31303 1.57957 6.10576 1.743 5.93826C1.90644 5.77076 2.11079 5.64885 2.33581 5.58458L5.37615 4.71602C6.02181 4.53163 6.61604 4.20031 7.11232 3.748C7.6086 3.29568 7.99346 2.73465 8.23679 2.10881L8.7229 0.857043C8.80389 0.648679 8.93557 0.46381 9.10603 0.319176C9.27649 0.174543 9.48034 0.0747158 9.69911 0.0287351C9.91788 -0.0172455 10.1447 -0.00792682 10.3589 0.0558472C10.5732 0.119621 10.7681 0.235836 10.9262 0.393966ZM2.56927 7.01221L9.17139 13.6143C9.19502 13.6379 9.22441 13.655 9.25665 13.6637C9.28889 13.6725 9.32286 13.6727 9.3552 13.6643C9.38754 13.656 9.41714 13.6393 9.44107 13.616C9.46499 13.5927 9.48242 13.5635 9.49162 13.5314L10.3602 10.491C10.5936 9.67464 11.0126 8.92327 11.5845 8.29566C12.1564 7.66805 12.8657 7.18122 13.657 6.87321L14.9088 6.38632C14.9384 6.3747 14.9647 6.35589 14.9853 6.33159C15.0058 6.30728 15.02 6.27825 15.0266 6.2471C15.0331 6.21595 15.0318 6.18365 15.0228 6.15313C15.0137 6.1226 14.9973 6.0948 14.9748 6.07223L10.1114 1.20877C10.0888 1.18632 10.061 1.16984 10.0305 1.16081C9.99994 1.15178 9.96765 1.15049 9.9365 1.15704C9.90534 1.16359 9.87631 1.17778 9.85201 1.19834C9.8277 1.2189 9.8089 1.24518 9.79727 1.27481L9.31039 2.52658C9.00238 3.31785 8.51554 4.02717 7.88794 4.59909C7.26033 5.17101 6.50896 5.59004 5.69255 5.82341L2.65221 6.69197C2.6201 6.70117 2.59094 6.7186 2.56762 6.74253C2.5443 6.76645 2.52763 6.79605 2.51925 6.82839C2.51087 6.86074 2.51108 6.8947 2.51986 6.92694C2.52863 6.95918 2.54566 6.98857 2.56927 7.01221Z" fill="#11103D"/>
</svg>
