<svg width="11" height="12" viewBox="0 0 11 12" fill="none" xmlns="http://www.w3.org/2000/svg">
<path d="M6.11111 5.38889H10.3889C10.551 5.38889 10.7064 5.45327 10.821 5.56788C10.9356 5.68248 11 5.83792 11 6C11 6.16208 10.9356 6.31752 10.821 6.43212C10.7064 6.54673 10.551 6.61111 10.3889 6.61111H6.11111V10.8889C6.11111 11.051 6.04673 11.2064 5.93212 11.321C5.81752 11.4356 5.66208 11.5 5.5 11.5C5.33792 11.5 5.18248 11.4356 5.06788 11.321C4.95327 11.2064 4.88889 11.051 4.88889 10.8889V6.61111H0.611111C0.449034 6.61111 0.293596 6.54673 0.17899 6.43212C0.0643847 6.31752 0 6.16208 0 6C0 5.83792 0.0643847 5.68248 0.17899 5.56788C0.293596 5.45327 0.449034 5.38889 0.611111 5.38889H4.88889V1.11111C4.88889 0.949034 4.95327 0.793596 5.06788 0.67899C5.18248 0.564385 5.33792 0.5 5.5 0.5C5.66208 0.5 5.81752 0.564385 5.93212 0.67899C6.04673 0.793596 6.11111 0.949034 6.11111 1.11111V5.38889Z" fill="#11103D"/>
</svg>
