<svg width="260" height="78" viewBox="0 0 260 78" fill="none" xmlns="http://www.w3.org/2000/svg">
<path fill-rule="evenodd" clip-rule="evenodd" d="M40.4482 1.0772C40.241 0.752984 39.7367 0.906086 39.7457 1.29334L39.8628 6.39517C39.9529 10.3443 39.8583 14.3204 40.1015 18.2604C40.2681 20.9127 40.5517 23.5019 41.5289 25.983C42.506 28.4641 43.8929 30.585 45.6941 32.4357C48.0491 34.8538 51.0256 36.6099 54.2587 37.56C57.69 38.5687 61.3418 38.276 64.8857 38.285C69.2265 38.294 73.5718 38.2715 77.9127 38.267C78.2999 38.267 78.4395 37.7537 78.1063 37.5555L60.4097 27.0096C60.3557 26.9781 60.2927 26.9556 60.2251 26.9556C59.4641 26.9286 58.3564 26.807 57.1136 26.3342C55.7177 25.8029 54.727 25.0554 54.1416 24.533C53.6103 24.0692 52.6467 23.1011 52.0298 21.5611C51.5389 20.3318 51.4669 19.2331 51.4804 18.5441C51.4804 18.4676 51.4624 18.3955 51.4219 18.3325C47.761 12.5822 44.1046 6.83196 40.4437 1.0817L40.4482 1.0772Z" fill="#11103D"/>
<path fill-rule="evenodd" clip-rule="evenodd" d="M64.593 13.879C62.2289 11.4159 58.3158 11.3348 55.8527 13.6989C53.3896 16.0629 53.3086 19.976 55.6726 22.4391C58.0367 24.9022 61.9497 24.9832 64.4128 22.6192C66.8759 20.2552 66.957 16.3421 64.593 13.879Z" fill="#11103D"/>
<path fill-rule="evenodd" clip-rule="evenodd" d="M37.8456 1.07714C38.0527 0.752923 38.5571 0.906025 38.5481 1.29328L38.431 6.39511C38.3409 10.3442 38.4355 14.3203 38.1923 18.2604C38.0257 20.9126 37.742 23.5018 36.7649 25.9829C35.8148 28.383 34.4009 30.5849 32.5997 32.4356C30.2446 34.8537 27.2682 36.6099 24.0351 37.56C20.6038 38.5686 16.9519 38.276 13.4081 38.285C9.06729 38.294 4.72195 38.2715 0.381108 38.267C-0.00614547 38.267 -0.145737 37.7536 0.187481 37.5555L17.8841 27.0096C17.9381 26.9781 18.0011 26.9556 18.0687 26.9556C18.8297 26.9285 19.9374 26.807 21.1802 26.3341C22.5761 25.8028 23.5668 25.0553 24.1521 24.533C24.6835 24.0692 25.6471 23.101 26.264 21.561C26.7549 20.3317 26.8269 19.233 26.8134 18.5441C26.8134 18.4675 26.8314 18.3955 26.8719 18.3324C30.5328 12.5822 34.1892 6.8319 37.8501 1.08164L37.8456 1.07714Z" fill="#11103D"/>
<path fill-rule="evenodd" clip-rule="evenodd" d="M13.7007 13.8789C16.0647 11.4158 19.9778 11.3348 22.4409 13.6988C24.904 16.0629 24.9851 19.9759 22.621 22.439C20.257 24.9021 16.3439 24.9832 13.8808 22.6191C11.4177 20.2551 11.3367 16.342 13.7007 13.8789Z" fill="#11103D"/>
<path fill-rule="evenodd" clip-rule="evenodd" d="M40.4482 77.1004C40.241 77.4246 39.7367 77.2715 39.7457 76.8843L39.8628 71.7824C39.9529 67.8333 39.8583 63.8573 40.1015 59.9172C40.2681 57.2649 40.5517 54.6757 41.5289 52.1946C42.479 49.7946 43.8929 47.5926 45.6941 45.7419C48.0491 43.3238 51.0256 41.5677 54.2587 40.6176C57.69 39.6089 61.3418 39.9016 64.8857 39.8926C69.2265 39.8836 73.5718 39.9061 77.9127 39.9106C78.2999 39.9106 78.4395 40.4239 78.1063 40.6221L60.4097 51.168C60.3557 51.1995 60.2927 51.222 60.2251 51.222C59.4641 51.249 58.3564 51.3706 57.1136 51.8434C55.7177 52.3747 54.727 53.1222 54.1416 53.6446C53.6103 54.1084 52.6467 55.0765 52.0298 56.6165C51.5389 57.8458 51.4669 58.9445 51.4804 59.6335C51.4804 59.71 51.4624 59.7821 51.4219 59.8451C47.761 65.5954 44.1046 71.3456 40.4437 77.0959L40.4482 77.1004Z" fill="#11103D"/>
<path fill-rule="evenodd" clip-rule="evenodd" d="M64.593 64.2984C62.2289 66.7615 58.3158 66.8426 55.8527 64.4785C53.3896 62.1145 53.3086 58.2014 55.6726 55.7383C58.0367 53.2752 61.9497 53.1941 64.4128 55.5582C66.8759 57.9222 66.957 61.8353 64.593 64.2984Z" fill="#11103D"/>
<path fill-rule="evenodd" clip-rule="evenodd" d="M37.8456 77.1005C38.0527 77.4247 38.5571 77.2716 38.5481 76.8843L38.431 71.7825C38.3409 67.8334 38.4355 63.8573 38.1923 59.9172C38.0257 57.265 37.742 54.6758 36.7649 52.1947C35.7878 49.7136 34.4009 47.5927 32.5997 45.742C30.2446 43.3239 27.2682 41.5677 24.0351 40.6176C20.6038 39.609 16.9519 39.9017 13.4081 39.8926C9.06729 39.8836 4.72195 39.9062 0.381108 39.9107C-0.00614547 39.9107 -0.145737 40.424 0.187481 40.6221L17.8841 51.168C17.9381 51.1995 18.0011 51.222 18.0687 51.222C18.8297 51.2491 19.9374 51.3706 21.1802 51.8435C22.5761 52.3748 23.5668 53.1223 24.1521 53.6446C24.6835 54.1084 25.6471 55.0766 26.264 56.6166C26.7549 57.8459 26.8269 58.9446 26.8134 59.6336C26.8134 59.7101 26.8314 59.7821 26.8719 59.8452C30.5328 65.5954 34.1892 71.3457 37.8501 77.096L37.8456 77.1005Z" fill="#11103D"/>
<path fill-rule="evenodd" clip-rule="evenodd" d="M13.7007 64.2985C16.0647 66.7616 19.9778 66.8426 22.4409 64.4786C24.904 62.1145 24.9851 58.2015 22.621 55.7384C20.257 53.2753 16.3439 53.1942 13.8808 55.5582C11.4177 57.9223 11.3367 61.8353 13.7007 64.2985Z" fill="#11103D"/>
<path d="M116.026 7.44332C116.026 10.78 113.436 13.2971 109.996 13.2971H106.209V18.7772H102.35V1.59399H109.996C113.432 1.59399 116.026 4.11114 116.026 7.44782V7.44332ZM112.067 7.44332C112.067 6.17349 111.144 5.22787 109.924 5.22787H106.214V9.66327H109.924C111.144 9.66327 112.067 8.69063 112.067 7.44782V7.44332Z" fill="#090921"/>
<path d="M125.54 5.87604V9.61348H124.991C122.775 9.61348 121.555 10.8833 121.555 12.8511V18.777H117.917V6.07417H121.555V7.51961C122.451 6.47493 123.622 5.87604 124.991 5.87604H125.54Z" fill="#090921"/>
<path d="M126.36 12.4285C126.36 8.64152 129.3 5.77765 133.209 5.77765C137.117 5.77765 140.058 8.64152 140.058 12.4285C140.058 16.2155 137.117 19.0793 133.209 19.0793C129.3 19.0793 126.36 16.2155 126.36 12.4285ZM136.32 12.4285C136.32 10.6363 135.001 9.28995 133.209 9.28995C131.417 9.28995 130.097 10.6363 130.097 12.4285C130.097 14.2207 131.417 15.567 133.209 15.567C135.001 15.567 136.32 14.2207 136.32 12.4285Z" fill="#090921"/>
<path d="M139.959 23.5099V20.2452C140.332 20.3938 140.706 20.4929 141.08 20.4929C141.904 20.4929 142.327 20.0696 142.327 19.2726V6.06997H145.966V19.6959C145.966 22.114 144.646 23.8071 141.755 23.8071C141.057 23.8071 140.486 23.708 139.963 23.5099H139.959ZM141.877 2.21545C141.877 0.945619 142.85 0 144.142 0C145.434 0 146.384 0.945619 146.384 2.21545C146.384 3.48528 145.412 4.45791 144.142 4.45791C142.872 4.45791 141.877 3.5123 141.877 2.21545Z" fill="#090921"/>
<path d="M161.478 13.6215H152.013C152.463 15.0399 153.684 15.9135 155.278 15.9135C156.723 15.9135 157.867 15.2425 158.466 14.4951L160.906 16.6114C159.56 18.1289 157.52 19.0791 155.179 19.0791C151.144 19.0791 148.104 16.1882 148.104 12.3562C148.104 8.52415 151.018 5.78186 154.877 5.78186C158.736 5.78186 161.55 8.62322 161.55 12.4822C161.55 12.829 161.523 13.3063 161.474 13.626L161.478 13.6215ZM151.991 11.2034H157.696C157.299 9.78498 156.201 8.9114 154.832 8.9114C153.463 8.9114 152.364 9.80749 151.991 11.2034Z" fill="#090921"/>
<path d="M162.896 12.4285C162.896 8.64152 165.837 5.77765 169.745 5.77765C172.312 5.77765 174.451 6.99795 175.622 8.93872L172.461 10.857C171.938 9.91135 170.943 9.28995 169.745 9.28995C167.953 9.28995 166.634 10.6363 166.634 12.4285C166.634 14.2207 167.953 15.567 169.745 15.567C170.943 15.567 171.938 14.9456 172.461 14L175.622 15.9183C174.451 17.859 172.308 19.0793 169.745 19.0793C165.837 19.0793 162.896 16.2155 162.896 12.4285Z" fill="#090921"/>
<path d="M182.124 9.38838V14.0444C182.124 15.0171 182.646 15.5619 183.718 15.5619C184.367 15.5619 184.916 15.3638 185.389 15.1116V18.5248C184.641 18.8986 183.921 19.0742 182.948 19.0742C179.859 19.0742 178.49 17.255 178.49 14.6388V9.38387H176.572V6.0697H178.49V2.93115H182.129V6.0697H185.393V9.38387H182.129L182.124 9.38838Z" fill="#090921"/>
<path d="M121.249 28.5219V45.7096H117.39V34.6774L113.058 42.8232H110.865L106.533 34.6774V45.7096H102.674V28.5219H107.456L111.991 37.0144L116.548 28.5219H121.253H121.249Z" fill="#090921"/>
<path d="M137.239 33.0065V45.7093H133.601V44.4395C132.628 45.4347 131.309 46.0065 129.764 46.0065C126.279 46.0065 123.635 43.1427 123.635 39.3557C123.635 35.5687 126.274 32.7048 129.764 32.7048C131.309 32.7048 132.628 33.2767 133.601 34.2719V33.002H137.239V33.0065ZM133.601 39.3557C133.601 37.5635 132.281 36.2171 130.489 36.2171C128.697 36.2171 127.4 37.5635 127.4 39.3557C127.4 41.1479 128.719 42.4942 130.489 42.4942C132.259 42.4942 133.601 41.1479 133.601 39.3557Z" fill="#090921"/>
<path d="M152.481 37.5365V45.7048H148.843V38.7568C148.843 37.2123 147.87 36.2171 146.375 36.2171C144.88 36.2171 143.759 37.2393 143.759 38.8063V45.7048H140.121V33.002H143.759V34.2719C144.754 33.2497 146.051 32.7048 147.618 32.7048C150.532 32.7048 152.477 34.6231 152.477 37.5365H152.481Z" fill="#090921"/>
<path d="M168.048 33.0065V45.7093H164.41V44.4395C163.437 45.4347 162.118 46.0065 160.573 46.0065C157.088 46.0065 154.445 43.1427 154.445 39.3557C154.445 35.5687 157.083 32.7048 160.573 32.7048C162.118 32.7048 163.437 33.2767 164.41 34.2719V33.002H168.048V33.0065ZM164.41 39.3557C164.41 37.5635 163.09 36.2171 161.298 36.2171C159.506 36.2171 158.209 37.5635 158.209 39.3557C158.209 41.1479 159.528 42.4942 161.298 42.4942C163.068 42.4942 164.41 41.1479 164.41 39.3557Z" fill="#090921"/>
<path d="M183.889 49.4424L180.152 50.4646C180.053 49.6405 179.355 49.0957 178.333 49.0957H174.375C171.907 49.0957 170.291 47.6772 170.291 45.5608C170.291 44.2145 170.961 42.9221 172.033 42.2737C170.988 41.2785 170.363 39.8826 170.363 38.3156C170.363 35.1005 172.929 32.7094 176.365 32.7094C177.338 32.7094 178.234 32.9076 179.031 33.2318C179.404 31.8629 180.674 30.9893 182.417 30.9893H183.489V34.353H182.593C181.994 34.353 181.521 34.6502 181.395 35.123C182.016 36.0191 182.39 37.0908 182.39 38.3111C182.39 41.5262 179.801 43.9173 176.361 43.9173C175.712 43.9173 175.091 43.8407 174.492 43.6696C174.118 43.9173 173.92 44.2685 173.92 44.6422C173.92 45.2141 174.393 45.5879 175.064 45.5879H179.022C181.588 45.5879 183.403 47.0063 183.88 49.4469L183.889 49.4424ZM174.1 38.3111C174.1 39.5584 175.073 40.477 176.365 40.477C177.657 40.477 178.657 39.5539 178.657 38.3111C178.657 37.0683 177.662 36.1452 176.365 36.1452C175.068 36.1452 174.1 37.0683 174.1 38.3111Z" fill="#090921"/>
<path d="M197.488 40.5534H188.023C188.473 41.9719 189.694 42.8454 191.288 42.8454C192.733 42.8454 193.877 42.1745 194.476 41.427L196.916 43.5434C195.57 45.0609 193.53 46.011 191.189 46.011C187.154 46.011 184.115 43.1201 184.115 39.2881C184.115 35.4561 187.028 32.7138 190.887 32.7138C194.746 32.7138 197.56 35.5552 197.56 39.4142C197.56 39.7609 197.533 40.2382 197.484 40.5579L197.488 40.5534ZM188.001 38.1354H193.706C193.31 36.7169 192.211 35.8434 190.842 35.8434C189.473 35.8434 188.374 36.7394 188.001 38.1354Z" fill="#090921"/>
<path d="M219.728 37.4147V45.7091H216.09V38.5089C216.09 37.14 215.216 36.2169 213.875 36.2169C212.533 36.2169 211.511 37.1625 211.511 38.5585V45.7046H207.872V38.5044C207.872 37.1355 206.999 36.2124 205.657 36.2124C204.315 36.2124 203.293 37.158 203.293 38.554V45.7001H199.654V32.9973H203.293V34.2176C204.216 33.2225 205.436 32.7001 206.904 32.7001C208.624 32.7001 209.993 33.4206 210.79 34.6679C211.812 33.3711 213.258 32.7001 215.023 32.7001C217.887 32.7001 219.728 34.5689 219.728 37.4057V37.4147Z" fill="#090921"/>
<path d="M235.02 40.5534H225.555C226.005 41.9719 227.226 42.8454 228.82 42.8454C230.265 42.8454 231.409 42.1745 232.008 41.427L234.448 43.5434C233.102 45.0609 231.062 46.011 228.721 46.011C224.686 46.011 221.646 43.1201 221.646 39.2881C221.646 35.4561 224.56 32.7138 228.419 32.7138C232.278 32.7138 235.092 35.5552 235.092 39.4142C235.092 39.7609 235.065 40.2382 235.016 40.5579L235.02 40.5534ZM225.533 38.1354H231.238C230.841 36.7169 229.743 35.8434 228.374 35.8434C227.005 35.8434 225.906 36.7394 225.533 38.1354Z" fill="#090921"/>
<path d="M249.542 37.5365V45.7048H245.904V38.7568C245.904 37.2123 244.931 36.2171 243.436 36.2171C241.941 36.2171 240.82 37.2393 240.82 38.8063V45.7048H237.182V33.002H240.82V34.2719C241.815 33.2497 243.112 32.7048 244.679 32.7048C247.592 32.7048 249.538 34.6231 249.538 37.5365H249.542Z" fill="#090921"/>
<path d="M256.468 36.3162V40.9722C256.468 41.9448 256.99 42.4897 258.062 42.4897C258.71 42.4897 259.26 42.2916 259.733 42.0394V45.4526C258.985 45.8264 258.265 46.002 257.292 46.002C254.203 46.002 252.834 44.1828 252.834 41.5666V36.3117H250.916V32.9975H252.834V29.8589H256.472V32.9975H259.737V36.3117H256.472L256.468 36.3162Z" fill="#090921"/>
<path d="M102.985 70.5747L104.98 67.6343C106.376 68.9311 108.442 69.8272 110.262 69.8272C111.806 69.8272 113.126 69.1563 113.126 68.1341C113.126 66.9363 111.482 66.5401 109.663 66.0898C106.227 65.2657 103.66 63.6492 103.66 60.6097C103.66 57.5702 106.326 55.4808 110.284 55.4808C112.923 55.4808 115.093 56.3769 116.363 57.5972L114.571 60.5376C113.576 59.592 111.883 58.9166 110.262 58.9166C108.641 58.9166 107.623 59.565 107.623 60.4611C107.623 61.5823 109.19 62.1047 110.761 62.4289C112.279 62.7531 117.088 63.9464 117.088 67.9585C117.088 71.1196 114.125 73.263 110.289 73.263C107.623 73.263 104.786 72.1913 102.989 70.5747H102.985Z" fill="#090921"/>
<path d="M131.155 60.2626L125.103 75.0098C124.383 76.8515 122.789 77.9997 121.019 77.9997C119.821 77.9997 118.43 77.4999 117.534 76.7029L118.93 73.8615C119.304 74.2353 119.875 74.4829 120.425 74.4829C120.974 74.4829 121.47 74.2082 121.794 73.5373L122.167 72.7403L117.088 60.2626H121.249L124.189 68.3319L127.103 60.2626H131.164H131.155Z" fill="#090921"/>
<path d="M131.354 71.3446L133.047 69.003C134.019 69.8271 135.213 70.3719 136.685 70.3719C137.878 70.3719 138.702 70.0252 138.702 69.3498C138.702 68.6293 137.73 68.3771 136.437 68.0799C134.42 67.6296 131.754 67.0352 131.754 64.0453C131.754 61.3075 134.145 59.9611 137.036 59.9611C139.279 59.9611 140.895 60.7581 142.093 61.6317L140.4 63.9732C139.454 63.3248 138.41 62.852 137.162 62.852C136.19 62.852 135.393 63.1267 135.393 63.7751C135.393 64.4956 136.365 64.7207 137.658 64.9954C139.648 65.4187 142.341 66.0401 142.341 69.0075C142.341 71.7994 139.9 73.2673 136.811 73.2673C134.393 73.2673 132.601 72.3712 131.358 71.3491L131.354 71.3446Z" fill="#090921"/>
<path d="M148.865 63.5772V68.2332C148.865 69.2058 149.388 69.7507 150.459 69.7507C151.108 69.7507 151.657 69.5526 152.13 69.3004V72.7136C151.383 73.0874 150.662 73.263 149.689 73.263C146.6 73.263 145.231 71.4438 145.231 68.8276V63.5727H143.313V60.2585H145.231V57.1199H148.87V60.2585H152.134V63.5727H148.87L148.865 63.5772Z" fill="#090921"/>
<path d="M166.67 67.8097H157.205C157.655 69.2281 158.875 70.1017 160.469 70.1017C161.915 70.1017 163.059 69.4308 163.657 68.6833L166.098 70.7997C164.752 72.3172 162.712 73.2673 160.37 73.2673C156.336 73.2673 153.296 70.3764 153.296 66.5444C153.296 62.7124 156.21 59.9701 160.069 59.9701C163.928 59.9701 166.742 62.8115 166.742 66.6705C166.742 67.0172 166.715 67.4945 166.665 67.8142L166.67 67.8097ZM157.182 65.3916H162.887C162.491 63.9732 161.392 63.0996 160.024 63.0996C158.655 63.0996 157.556 63.9957 157.182 65.3916Z" fill="#090921"/>
<path d="M188.914 64.6709V72.9654H185.276V65.7652C185.276 64.3963 184.403 63.4732 183.061 63.4732C181.719 63.4732 180.697 64.4188 180.697 65.8147V72.9609H177.058V65.7607C177.058 64.3918 176.185 63.4687 174.843 63.4687C173.501 63.4687 172.479 64.4143 172.479 65.8102V72.9564H168.84V60.2536H172.479V61.4738C173.402 60.4787 174.622 59.9564 176.09 59.9564C177.81 59.9564 179.179 60.6768 179.976 61.9241C180.998 60.6273 182.444 59.9564 184.209 59.9564C187.073 59.9564 188.914 61.8251 188.914 64.6619V64.6709Z" fill="#090921"/>
<path d="M91.4623 0.90094H89.5215V77.2799H91.4623V0.90094Z" fill="#11103D"/>
</svg>
