<svg width="28" height="26" viewBox="0 0 28 26" fill="none" xmlns="http://www.w3.org/2000/svg">
<g id="Group 1000004688">
<path id="Vector" d="M7.875 25H20.625M1.5 2.84615V17.6154C1.5 18.105 1.6919 18.5746 2.03348 18.9208C2.37507 19.267 2.83836 19.4615 3.32143 19.4615H25.1786C25.6616 19.4615 26.1249 19.267 26.4665 18.9208C26.8081 18.5746 27 18.105 27 17.6154V2.84615C27 2.35652 26.8081 1.88695 26.4665 1.54073C26.1249 1.1945 25.6616 1 25.1786 1H3.32143C2.83836 1 2.37507 1.1945 2.03348 1.54073C1.6919 1.88695 1.5 2.35652 1.5 2.84615Z" stroke="#071952" stroke-width="1.5"/>
<circle id="Ellipse 656" cx="14.25" cy="10.75" r="3.25" fill="#E02B2B" stroke="#071952"/>
</g>
</svg>
