<svg width="62" height="46" viewBox="0 0 62 46" fill="none" xmlns="http://www.w3.org/2000/svg">
<path d="M21.2107 19.8679C21.5072 19.868 21.7934 19.9768 22.015 20.1739C22.2366 20.3709 22.3782 20.6425 22.4129 20.937L22.4214 21.0786V22.2893C22.4213 24.1688 23.1497 25.9751 24.4535 27.3288C25.7573 28.6825 27.535 29.4781 29.4131 29.5486L29.6855 29.5535H34.0271L33.067 28.5934C32.8499 28.3755 32.7238 28.0832 32.7144 27.7757C32.705 27.4682 32.813 27.1687 33.0165 26.938C33.2199 26.7073 33.5035 26.5627 33.8097 26.5335C34.1159 26.5043 34.4218 26.5928 34.6651 26.781L34.7789 26.8815L37.8057 29.9082C37.9882 30.0899 38.1074 30.3255 38.1459 30.5801L38.1604 30.7763C38.1582 31.0424 38.0679 31.3004 37.9037 31.5099L37.8008 31.625L34.7789 34.6468C34.5611 34.864 34.2687 34.99 33.9612 34.9994C33.6538 35.0088 33.3543 34.9008 33.1236 34.6974C32.8929 34.494 32.7482 34.2103 32.7191 33.9041C32.6899 33.5979 32.7784 33.2921 32.9665 33.0487L33.067 32.9349L34.0271 31.9748H29.6855C27.1692 31.9748 24.7517 30.9955 22.9448 29.2442C21.1379 27.4929 20.0835 25.1071 20.0048 22.592L20 22.2893V21.0786C20 20.7575 20.1276 20.4496 20.3546 20.2225C20.5817 19.9955 20.8896 19.8679 21.2107 19.8679ZM27.0135 12.3532C27.2314 12.136 27.5238 12.01 27.8312 12.0006C28.1387 11.9912 28.4382 12.0992 28.6689 12.3026C28.8996 12.506 29.0442 12.7897 29.0734 13.0959C29.1026 13.4021 29.0141 13.7079 28.8259 13.9513L28.7255 14.0651L27.7654 15.0252H32.1069C34.6233 15.0252 37.0408 16.0045 38.8477 17.7558C40.6546 19.5071 41.709 21.8929 41.7876 24.408L41.7925 24.7107V25.9214C41.7921 26.23 41.674 26.5268 41.4621 26.7512C41.2503 26.9755 40.9608 27.1106 40.6527 27.1287C40.3447 27.1467 40.0413 27.0465 39.8047 26.8485C39.5681 26.6504 39.416 26.3695 39.3796 26.063L39.3711 25.9214V24.7107C39.3712 22.8312 38.6428 21.0249 37.339 19.6712C36.0352 18.3175 34.2575 17.5219 32.3793 17.4514L32.1069 17.4465H27.7654L28.7255 18.4066C28.9426 18.6245 29.0687 18.9168 29.078 19.2243C29.0874 19.5318 28.9794 19.8313 28.776 20.062C28.5726 20.2927 28.2889 20.4373 27.9827 20.4665C27.6765 20.4957 27.3707 20.4072 27.1273 20.219L27.0135 20.1185L23.9868 17.0918C23.7784 16.8833 23.6531 16.606 23.6346 16.3117C23.6161 16.0175 23.7056 15.7266 23.8863 15.4937L23.9868 15.3799L27.0135 12.3532Z" fill="#11103D"/>
<rect x="0.5" y="0.5" width="61" height="45" rx="4.5" stroke="#11103D"/>
</svg>
