<svg width="82" height="82" viewBox="0 0 82 82" fill="none" xmlns="http://www.w3.org/2000/svg">
<mask id="path-1-outside-1_3633_51970" maskUnits="userSpaceOnUse" x="0" y="0" width="82" height="82" fill="black">
<rect fill="white" width="82" height="82"/>
<path d="M41.923 80.9823C41.0229 80.9823 40.1203 81.0132 39.2202 80.9771C36.8346 80.8791 35.1273 79.226 34.9184 76.8456C34.9107 76.7605 34.9081 76.6754 34.903 76.5877C34.8385 75.5251 35.1531 74.1531 34.6064 73.4852C34.0596 72.8146 32.6257 72.9229 31.6354 72.549C29.3143 71.6747 27.0061 70.754 24.7341 69.7637C24.0816 69.4774 23.6638 69.4258 23.1815 69.9855C22.676 70.5683 22.1164 71.1073 21.5542 71.636C19.6199 73.4491 17.1286 73.4723 15.2047 71.6567C13.9565 70.4781 12.7418 69.2608 11.5529 68.0229C9.6728 66.0629 9.70632 63.5587 11.5967 61.5832C13.3788 59.7237 13.2524 59.7882 12.1099 57.5548C10.903 55.1976 9.8559 52.7398 8.97131 50.246C8.56126 49.0906 8.0893 48.616 6.90297 48.7991C6.40007 48.8765 5.87396 48.8327 5.36074 48.812C2.93392 48.7063 1.14926 46.9887 1.05384 44.5567C0.981629 42.7128 0.984208 40.8585 1.04868 39.0145C1.13637 36.5051 2.99323 34.7953 5.59543 34.7179C8.12025 34.6405 7.98614 34.5941 8.84236 32.2163C9.78369 29.6038 10.9597 27.0687 12.1383 24.549C12.4658 23.8501 12.5638 23.4349 11.9294 22.9191C11.3672 22.46 10.8669 21.9158 10.3743 21.3794C8.59478 19.44 8.58705 17.0622 10.3975 15.1383C11.5735 13.8875 12.8063 12.6883 14.0442 11.4993C15.9784 9.64247 18.3794 9.61668 20.391 11.3988C21.1544 12.0745 21.8559 13.2144 22.6863 13.3124C23.5245 13.4129 24.4504 12.4046 25.3943 12.0203C27.6535 11.1048 29.9281 10.2073 32.2389 9.43874C33.0925 9.15505 33.4381 8.81462 33.3685 7.91971C33.3014 7.06607 33.3478 6.20211 33.3814 5.34331C33.4845 2.86233 35.2795 1.07252 37.7528 1.02352C39.5529 0.987414 41.3582 0.995151 43.1583 1.03126C45.482 1.08026 47.2073 2.67665 47.4987 4.98483C47.5142 5.11378 47.5245 5.24015 47.5322 5.3691C47.5941 6.59928 47.2331 8.13635 47.8366 8.97194C48.4014 9.75079 50.021 9.71211 51.1222 10.166C53.0229 10.95 54.9417 11.7263 56.7315 12.7218C57.7037 13.2634 58.2247 13.1422 58.8823 12.3762C59.5219 11.6283 60.2492 10.95 60.9713 10.2769C62.7637 8.60315 65.2189 8.53351 67.0165 10.1815C68.4401 11.4864 69.8147 12.8507 71.1299 14.264C72.6618 15.9094 72.6232 18.4213 71.0835 20.1286C70.3072 20.9874 69.4742 21.7998 68.6206 22.5838C68.1074 23.0532 68.1641 23.422 68.44 24.028C69.7038 26.7901 70.8643 29.6012 72.1228 32.3659C72.2879 32.7269 72.7959 33.1267 73.1725 33.155C74.4078 33.2505 75.6586 33.1499 76.9017 33.1834C79.5838 33.2608 81.3092 34.9758 81.3762 37.6631C81.4201 39.4245 81.4201 41.1886 81.3607 42.9474C81.2808 45.3897 79.5322 47.1409 77.1054 47.2492C75.95 47.3008 74.7792 47.1976 73.6341 47.3265C73.2241 47.373 72.6747 47.814 72.5174 48.206C71.4033 50.9861 70.4104 53.8153 69.2937 56.5928C69.0255 57.2634 69.0332 57.6657 69.5696 58.1531C70.4259 58.932 71.2279 59.7727 72.0274 60.6109C73.7863 62.4497 73.8456 64.8688 72.1048 66.7411C70.8204 68.1235 69.482 69.4645 68.0919 70.7411C66.3562 72.3375 63.8727 72.273 62.1319 70.6921C61.157 69.8049 60.2544 68.3581 59.1738 68.206C58.1654 68.0641 56.9997 69.3794 55.8391 69.9107C53.972 70.7669 52.0687 71.5509 50.1448 72.273C49.3969 72.5541 49.0048 72.8791 49.0513 73.7302C49.1054 74.7566 49.0796 75.7933 49.0203 76.8224C48.8836 79.146 47.2073 80.8224 44.8836 80.9539C43.901 81.0106 42.9107 80.9642 41.923 80.9642C41.923 80.9668 41.923 80.9694 41.923 80.9745V80.9823ZM40.5123 3.60766C40.5123 3.60766 40.5123 3.59992 40.5123 3.59734C39.6973 3.59734 38.8823 3.58187 38.0674 3.59992C36.6541 3.63087 36.0119 4.23435 35.9733 5.62958C35.9346 7.00418 35.9346 8.38135 35.9629 9.75595C35.9836 10.785 35.5297 11.3884 34.5316 11.5716C30.5007 12.304 26.8308 13.9081 23.442 16.1802C22.627 16.7269 21.9359 16.6135 21.2679 15.9197C20.4916 15.1177 19.6896 14.3414 18.8875 13.5625C17.6805 12.3865 16.8836 12.3607 15.6921 13.5058C14.578 14.5761 13.4845 15.6696 12.4065 16.7759C11.3595 17.8514 11.3749 18.6844 12.44 19.7779C13.2498 20.6083 14.0725 21.4258 14.9056 22.2279C15.6302 22.9268 15.7566 23.6515 15.1763 24.518C12.8759 27.9558 11.3543 31.716 10.6605 35.7959C10.4723 36.8946 9.8688 37.3459 8.80626 37.3227C7.86235 37.302 6.91844 37.2917 5.97454 37.302C4.24146 37.3201 3.6354 37.9158 3.61993 39.6154C3.60961 41.0777 3.60703 42.5374 3.61993 43.9997C3.6354 45.5651 4.24662 46.197 5.78885 46.2202C6.90297 46.2356 8.01967 46.2253 9.13637 46.2047C10.0906 46.1892 10.6863 46.6199 10.8901 47.5587C11.7953 51.6902 13.5026 55.4555 16.0222 58.8494C16.6103 59.6412 16.5613 60.3246 15.8443 61.0106C14.9778 61.8436 14.119 62.6895 13.3092 63.5741C12.5561 64.3942 12.5535 65.3098 13.3195 66.1118C14.5368 67.3833 15.7927 68.6186 17.0719 69.8256C17.9281 70.6328 18.854 70.5993 19.705 69.7869C20.636 68.8971 21.549 67.9893 22.4465 67.0661C23.1093 66.3852 23.8082 66.2511 24.636 66.7566C28.1615 68.9126 31.981 70.2614 36.0635 70.8546C37.0435 70.9964 37.4794 71.5483 37.4794 72.5155C37.4794 73.7611 37.4691 75.0093 37.5052 76.255C37.5464 77.7688 38.1499 78.3826 39.6225 78.4033C41.2086 78.4265 42.7972 78.4239 44.3833 78.4033C45.7863 78.3826 46.4078 77.7663 46.4439 76.3504C46.4774 74.932 46.4723 73.5135 46.4646 72.0951C46.4594 71.1022 46.8617 70.5245 47.8804 70.264C51.6148 69.3072 55.0783 67.7263 58.1938 65.4413C59.197 64.7063 59.9681 64.8404 60.7753 65.6992C61.6573 66.638 62.578 67.538 63.5039 68.4355C64.7108 69.6064 65.5361 69.6244 66.7096 68.4948C67.8211 67.422 68.9223 66.3362 69.9952 65.2221C71.0526 64.1235 71.0448 63.3266 69.9745 62.2227C68.8991 61.1138 67.8108 60.0151 66.6863 58.9552C65.9126 58.2227 65.7682 57.4981 66.3459 56.5619C68.3034 53.382 69.6161 49.9442 70.217 46.2537C70.3949 45.1679 70.9597 44.6857 72.0403 44.696C73.5851 44.7089 75.1299 44.7037 76.6747 44.6728C78.1834 44.6393 78.7508 44.0616 78.7818 42.5296C78.8127 41.0261 78.8153 39.52 78.7972 38.0164C78.7792 36.4149 78.1396 35.7959 76.4994 35.783C74.9133 35.7701 73.3246 35.7676 71.7386 35.7985C70.7121 35.8191 70.1448 35.342 69.9178 34.3594C69.0642 30.6792 67.5967 27.2647 65.4484 24.1544C64.8604 23.3033 64.912 22.5967 65.6651 21.8772C66.7508 20.8404 67.8108 19.7727 68.8578 18.6947C69.8843 17.6399 69.8998 16.7011 68.8991 15.6721C67.7927 14.5322 66.6683 13.4078 65.5206 12.3117C64.4968 11.3343 63.638 11.3394 62.6012 12.3272C61.451 13.4207 60.3292 14.5477 59.215 15.6799C58.5368 16.3685 57.8533 16.4536 57.0358 15.912C53.776 13.7534 50.2015 12.3478 46.3769 11.569C45.3762 11.3652 44.9017 10.8133 44.9275 9.77916C44.9584 8.48967 44.9558 7.20018 44.9429 5.91069C44.9275 4.25498 44.3214 3.63861 42.7018 3.61797C41.972 3.60766 41.2421 3.61797 40.5148 3.61797L40.5123 3.60766Z"/>
<path d="M36.177 47.1382C36.7547 50.1504 37.2473 52.7113 37.7373 55.2723C38.2222 57.8023 38.707 60.3348 39.1867 62.8648C39.5091 64.5721 39.0939 65.1111 37.4021 65.1369C35.9011 65.1601 34.3975 65.1033 32.8992 65.1524C31.6612 65.191 31.1351 64.5643 30.9237 63.427C29.9849 58.3593 29.0255 53.2942 28.0378 48.2368C27.9475 47.7778 27.7206 47.2052 27.3647 46.9576C23.2228 44.0743 21.8018 39.9119 23.4085 35.1846C24.5639 31.7803 26.8618 30.1298 30.4465 30.1246C32.0326 30.1246 33.6264 30.0395 35.2073 30.1504C36.667 30.251 37.9075 29.8487 39.032 28.9796C42.8979 25.9879 46.7612 22.9912 50.6193 19.9892C51.1274 19.5947 51.5529 19.066 52.1074 18.7694C52.6155 18.496 53.3866 18.1762 53.7837 18.38C54.199 18.594 54.5136 19.4038 54.5213 19.9583C54.5832 24.2961 54.5626 28.6366 54.56 32.977C54.56 41.0105 54.5523 49.0466 54.5497 57.0801C54.5497 57.2529 54.6064 57.4464 54.5445 57.5908C54.3279 58.1117 54.1783 58.9061 53.7992 59.0479C53.3376 59.2233 52.5355 59.0118 52.1074 58.6765C48.7006 55.9995 45.3711 53.2246 41.9694 50.5398C40.7264 49.5598 39.3698 48.7191 38.0313 47.868C37.5929 47.5895 37.0513 47.4709 36.1796 47.133L36.177 47.1382ZM51.8572 22.5063C51.4781 22.7616 51.2357 22.9086 51.0113 23.0763C47.0655 26.0266 43.1093 28.9667 39.1944 31.9583C38.8695 32.2059 38.6658 32.8068 38.6606 33.2478C38.6193 36.8996 38.6039 40.5515 38.6761 44.2007C38.6864 44.7139 39.0861 45.3793 39.5117 45.6991C41.8069 47.4244 44.1951 49.0234 46.4955 50.741C48.2647 52.0614 49.9514 53.4902 51.8598 55.0195V22.5089L51.8572 22.5063ZM30.7044 38.7745H30.6915C30.6915 37.3613 30.6915 35.948 30.6915 34.5347C30.6915 32.6804 30.0081 32.2162 28.3086 33.0157C27.7515 33.2787 27.2254 33.7275 26.8437 34.2149C24.9533 36.6262 24.9249 40.6443 26.7251 43.1304C27.4137 44.0821 28.306 44.6494 29.5026 44.7552C30.3589 44.8326 30.7586 44.6108 30.7199 43.6514C30.6554 42.0266 30.7019 40.3993 30.7019 38.772L30.7044 38.7745ZM36.2776 62.5579C36.3137 62.2097 36.3705 62.0369 36.3395 61.8796C35.473 57.2916 34.609 52.7036 33.6935 48.1259C33.6342 47.8345 33.1751 47.4631 32.8605 47.4141C32.1616 47.3058 31.4369 47.3806 30.7663 47.3806C30.6967 47.6153 30.6425 47.6978 30.6554 47.77C31.5271 52.4431 32.3911 57.1188 33.3066 61.7842C33.3659 62.0834 33.8121 62.4728 34.1267 62.5244C34.8205 62.6353 35.5452 62.5605 36.2776 62.5605V62.5579ZM36.0481 44.7526C36.0481 40.8429 36.1048 37.1214 36.0146 33.4025C35.9862 32.2574 34.9004 32.8661 34.2815 32.7552C33.6032 32.634 33.2834 32.9254 33.2886 33.6836C33.3144 37.0698 33.2783 40.456 33.3169 43.8397C33.3195 44.1466 33.6625 44.6598 33.9179 44.7113C34.5626 44.8377 35.2486 44.7526 36.0481 44.7526Z"/>
</mask>
<path d="M41.923 80.9823C41.0229 80.9823 40.1203 81.0132 39.2202 80.9771C36.8346 80.8791 35.1273 79.226 34.9184 76.8456C34.9107 76.7605 34.9081 76.6754 34.903 76.5877C34.8385 75.5251 35.1531 74.1531 34.6064 73.4852C34.0596 72.8146 32.6257 72.9229 31.6354 72.549C29.3143 71.6747 27.0061 70.754 24.7341 69.7637C24.0816 69.4774 23.6638 69.4258 23.1815 69.9855C22.676 70.5683 22.1164 71.1073 21.5542 71.636C19.6199 73.4491 17.1286 73.4723 15.2047 71.6567C13.9565 70.4781 12.7418 69.2608 11.5529 68.0229C9.6728 66.0629 9.70632 63.5587 11.5967 61.5832C13.3788 59.7237 13.2524 59.7882 12.1099 57.5548C10.903 55.1976 9.8559 52.7398 8.97131 50.246C8.56126 49.0906 8.0893 48.616 6.90297 48.7991C6.40007 48.8765 5.87396 48.8327 5.36074 48.812C2.93392 48.7063 1.14926 46.9887 1.05384 44.5567C0.981629 42.7128 0.984208 40.8585 1.04868 39.0145C1.13637 36.5051 2.99323 34.7953 5.59543 34.7179C8.12025 34.6405 7.98614 34.5941 8.84236 32.2163C9.78369 29.6038 10.9597 27.0687 12.1383 24.549C12.4658 23.8501 12.5638 23.4349 11.9294 22.9191C11.3672 22.46 10.8669 21.9158 10.3743 21.3794C8.59478 19.44 8.58705 17.0622 10.3975 15.1383C11.5735 13.8875 12.8063 12.6883 14.0442 11.4993C15.9784 9.64247 18.3794 9.61668 20.391 11.3988C21.1544 12.0745 21.8559 13.2144 22.6863 13.3124C23.5245 13.4129 24.4504 12.4046 25.3943 12.0203C27.6535 11.1048 29.9281 10.2073 32.2389 9.43874C33.0925 9.15505 33.4381 8.81462 33.3685 7.91971C33.3014 7.06607 33.3478 6.20211 33.3814 5.34331C33.4845 2.86233 35.2795 1.07252 37.7528 1.02352C39.5529 0.987414 41.3582 0.995151 43.1583 1.03126C45.482 1.08026 47.2073 2.67665 47.4987 4.98483C47.5142 5.11378 47.5245 5.24015 47.5322 5.3691C47.5941 6.59928 47.2331 8.13635 47.8366 8.97194C48.4014 9.75079 50.021 9.71211 51.1222 10.166C53.0229 10.95 54.9417 11.7263 56.7315 12.7218C57.7037 13.2634 58.2247 13.1422 58.8823 12.3762C59.5219 11.6283 60.2492 10.95 60.9713 10.2769C62.7637 8.60315 65.2189 8.53351 67.0165 10.1815C68.4401 11.4864 69.8147 12.8507 71.1299 14.264C72.6618 15.9094 72.6232 18.4213 71.0835 20.1286C70.3072 20.9874 69.4742 21.7998 68.6206 22.5838C68.1074 23.0532 68.1641 23.422 68.44 24.028C69.7038 26.7901 70.8643 29.6012 72.1228 32.3659C72.2879 32.7269 72.7959 33.1267 73.1725 33.155C74.4078 33.2505 75.6586 33.1499 76.9017 33.1834C79.5838 33.2608 81.3092 34.9758 81.3762 37.6631C81.4201 39.4245 81.4201 41.1886 81.3607 42.9474C81.2808 45.3897 79.5322 47.1409 77.1054 47.2492C75.95 47.3008 74.7792 47.1976 73.6341 47.3265C73.2241 47.373 72.6747 47.814 72.5174 48.206C71.4033 50.9861 70.4104 53.8153 69.2937 56.5928C69.0255 57.2634 69.0332 57.6657 69.5696 58.1531C70.4259 58.932 71.2279 59.7727 72.0274 60.6109C73.7863 62.4497 73.8456 64.8688 72.1048 66.7411C70.8204 68.1235 69.482 69.4645 68.0919 70.7411C66.3562 72.3375 63.8727 72.273 62.1319 70.6921C61.157 69.8049 60.2544 68.3581 59.1738 68.206C58.1654 68.0641 56.9997 69.3794 55.8391 69.9107C53.972 70.7669 52.0687 71.5509 50.1448 72.273C49.3969 72.5541 49.0048 72.8791 49.0513 73.7302C49.1054 74.7566 49.0796 75.7933 49.0203 76.8224C48.8836 79.146 47.2073 80.8224 44.8836 80.9539C43.901 81.0106 42.9107 80.9642 41.923 80.9642C41.923 80.9668 41.923 80.9694 41.923 80.9745V80.9823ZM40.5123 3.60766C40.5123 3.60766 40.5123 3.59992 40.5123 3.59734C39.6973 3.59734 38.8823 3.58187 38.0674 3.59992C36.6541 3.63087 36.0119 4.23435 35.9733 5.62958C35.9346 7.00418 35.9346 8.38135 35.9629 9.75595C35.9836 10.785 35.5297 11.3884 34.5316 11.5716C30.5007 12.304 26.8308 13.9081 23.442 16.1802C22.627 16.7269 21.9359 16.6135 21.2679 15.9197C20.4916 15.1177 19.6896 14.3414 18.8875 13.5625C17.6805 12.3865 16.8836 12.3607 15.6921 13.5058C14.578 14.5761 13.4845 15.6696 12.4065 16.7759C11.3595 17.8514 11.3749 18.6844 12.44 19.7779C13.2498 20.6083 14.0725 21.4258 14.9056 22.2279C15.6302 22.9268 15.7566 23.6515 15.1763 24.518C12.8759 27.9558 11.3543 31.716 10.6605 35.7959C10.4723 36.8946 9.8688 37.3459 8.80626 37.3227C7.86235 37.302 6.91844 37.2917 5.97454 37.302C4.24146 37.3201 3.6354 37.9158 3.61993 39.6154C3.60961 41.0777 3.60703 42.5374 3.61993 43.9997C3.6354 45.5651 4.24662 46.197 5.78885 46.2202C6.90297 46.2356 8.01967 46.2253 9.13637 46.2047C10.0906 46.1892 10.6863 46.6199 10.8901 47.5587C11.7953 51.6902 13.5026 55.4555 16.0222 58.8494C16.6103 59.6412 16.5613 60.3246 15.8443 61.0106C14.9778 61.8436 14.119 62.6895 13.3092 63.5741C12.5561 64.3942 12.5535 65.3098 13.3195 66.1118C14.5368 67.3833 15.7927 68.6186 17.0719 69.8256C17.9281 70.6328 18.854 70.5993 19.705 69.7869C20.636 68.8971 21.549 67.9893 22.4465 67.0661C23.1093 66.3852 23.8082 66.2511 24.636 66.7566C28.1615 68.9126 31.981 70.2614 36.0635 70.8546C37.0435 70.9964 37.4794 71.5483 37.4794 72.5155C37.4794 73.7611 37.4691 75.0093 37.5052 76.255C37.5464 77.7688 38.1499 78.3826 39.6225 78.4033C41.2086 78.4265 42.7972 78.4239 44.3833 78.4033C45.7863 78.3826 46.4078 77.7663 46.4439 76.3504C46.4774 74.932 46.4723 73.5135 46.4646 72.0951C46.4594 71.1022 46.8617 70.5245 47.8804 70.264C51.6148 69.3072 55.0783 67.7263 58.1938 65.4413C59.197 64.7063 59.9681 64.8404 60.7753 65.6992C61.6573 66.638 62.578 67.538 63.5039 68.4355C64.7108 69.6064 65.5361 69.6244 66.7096 68.4948C67.8211 67.422 68.9223 66.3362 69.9952 65.2221C71.0526 64.1235 71.0448 63.3266 69.9745 62.2227C68.8991 61.1138 67.8108 60.0151 66.6863 58.9552C65.9126 58.2227 65.7682 57.4981 66.3459 56.5619C68.3034 53.382 69.6161 49.9442 70.217 46.2537C70.3949 45.1679 70.9597 44.6857 72.0403 44.696C73.5851 44.7089 75.1299 44.7037 76.6747 44.6728C78.1834 44.6393 78.7508 44.0616 78.7818 42.5296C78.8127 41.0261 78.8153 39.52 78.7972 38.0164C78.7792 36.4149 78.1396 35.7959 76.4994 35.783C74.9133 35.7701 73.3246 35.7676 71.7386 35.7985C70.7121 35.8191 70.1448 35.342 69.9178 34.3594C69.0642 30.6792 67.5967 27.2647 65.4484 24.1544C64.8604 23.3033 64.912 22.5967 65.6651 21.8772C66.7508 20.8404 67.8108 19.7727 68.8578 18.6947C69.8843 17.6399 69.8998 16.7011 68.8991 15.6721C67.7927 14.5322 66.6683 13.4078 65.5206 12.3117C64.4968 11.3343 63.638 11.3394 62.6012 12.3272C61.451 13.4207 60.3292 14.5477 59.215 15.6799C58.5368 16.3685 57.8533 16.4536 57.0358 15.912C53.776 13.7534 50.2015 12.3478 46.3769 11.569C45.3762 11.3652 44.9017 10.8133 44.9275 9.77916C44.9584 8.48967 44.9558 7.20018 44.9429 5.91069C44.9275 4.25498 44.3214 3.63861 42.7018 3.61797C41.972 3.60766 41.2421 3.61797 40.5148 3.61797L40.5123 3.60766Z" fill="#11103D"/>
<path d="M36.177 47.1382C36.7547 50.1504 37.2473 52.7113 37.7373 55.2723C38.2222 57.8023 38.707 60.3348 39.1867 62.8648C39.5091 64.5721 39.0939 65.1111 37.4021 65.1369C35.9011 65.1601 34.3975 65.1033 32.8992 65.1524C31.6612 65.191 31.1351 64.5643 30.9237 63.427C29.9849 58.3593 29.0255 53.2942 28.0378 48.2368C27.9475 47.7778 27.7206 47.2052 27.3647 46.9576C23.2228 44.0743 21.8018 39.9119 23.4085 35.1846C24.5639 31.7803 26.8618 30.1298 30.4465 30.1246C32.0326 30.1246 33.6264 30.0395 35.2073 30.1504C36.667 30.251 37.9075 29.8487 39.032 28.9796C42.8979 25.9879 46.7612 22.9912 50.6193 19.9892C51.1274 19.5947 51.5529 19.066 52.1074 18.7694C52.6155 18.496 53.3866 18.1762 53.7837 18.38C54.199 18.594 54.5136 19.4038 54.5213 19.9583C54.5832 24.2961 54.5626 28.6366 54.56 32.977C54.56 41.0105 54.5523 49.0466 54.5497 57.0801C54.5497 57.2529 54.6064 57.4464 54.5445 57.5908C54.3279 58.1117 54.1783 58.9061 53.7992 59.0479C53.3376 59.2233 52.5355 59.0118 52.1074 58.6765C48.7006 55.9995 45.3711 53.2246 41.9694 50.5398C40.7264 49.5598 39.3698 48.7191 38.0313 47.868C37.5929 47.5895 37.0513 47.4709 36.1796 47.133L36.177 47.1382ZM51.8572 22.5063C51.4781 22.7616 51.2357 22.9086 51.0113 23.0763C47.0655 26.0266 43.1093 28.9667 39.1944 31.9583C38.8695 32.2059 38.6658 32.8068 38.6606 33.2478C38.6193 36.8996 38.6039 40.5515 38.6761 44.2007C38.6864 44.7139 39.0861 45.3793 39.5117 45.6991C41.8069 47.4244 44.1951 49.0234 46.4955 50.741C48.2647 52.0614 49.9514 53.4902 51.8598 55.0195V22.5089L51.8572 22.5063ZM30.7044 38.7745H30.6915C30.6915 37.3613 30.6915 35.948 30.6915 34.5347C30.6915 32.6804 30.0081 32.2162 28.3086 33.0157C27.7515 33.2787 27.2254 33.7275 26.8437 34.2149C24.9533 36.6262 24.9249 40.6443 26.7251 43.1304C27.4137 44.0821 28.306 44.6494 29.5026 44.7552C30.3589 44.8326 30.7586 44.6108 30.7199 43.6514C30.6554 42.0266 30.7019 40.3993 30.7019 38.772L30.7044 38.7745ZM36.2776 62.5579C36.3137 62.2097 36.3705 62.0369 36.3395 61.8796C35.473 57.2916 34.609 52.7036 33.6935 48.1259C33.6342 47.8345 33.1751 47.4631 32.8605 47.4141C32.1616 47.3058 31.4369 47.3806 30.7663 47.3806C30.6967 47.6153 30.6425 47.6978 30.6554 47.77C31.5271 52.4431 32.3911 57.1188 33.3066 61.7842C33.3659 62.0834 33.8121 62.4728 34.1267 62.5244C34.8205 62.6353 35.5452 62.5605 36.2776 62.5605V62.5579ZM36.0481 44.7526C36.0481 40.8429 36.1048 37.1214 36.0146 33.4025C35.9862 32.2574 34.9004 32.8661 34.2815 32.7552C33.6032 32.634 33.2834 32.9254 33.2886 33.6836C33.3144 37.0698 33.2783 40.456 33.3169 43.8397C33.3195 44.1466 33.6625 44.6598 33.9179 44.7113C34.5626 44.8377 35.2486 44.7526 36.0481 44.7526Z" fill="#11103D"/>
<path d="M41.923 80.9823C41.0229 80.9823 40.1203 81.0132 39.2202 80.9771C36.8346 80.8791 35.1273 79.226 34.9184 76.8456C34.9107 76.7605 34.9081 76.6754 34.903 76.5877C34.8385 75.5251 35.1531 74.1531 34.6064 73.4852C34.0596 72.8146 32.6257 72.9229 31.6354 72.549C29.3143 71.6747 27.0061 70.754 24.7341 69.7637C24.0816 69.4774 23.6638 69.4258 23.1815 69.9855C22.676 70.5683 22.1164 71.1073 21.5542 71.636C19.6199 73.4491 17.1286 73.4723 15.2047 71.6567C13.9565 70.4781 12.7418 69.2608 11.5529 68.0229C9.6728 66.0629 9.70632 63.5587 11.5967 61.5832C13.3788 59.7237 13.2524 59.7882 12.1099 57.5548C10.903 55.1976 9.8559 52.7398 8.97131 50.246C8.56126 49.0906 8.0893 48.616 6.90297 48.7991C6.40007 48.8765 5.87396 48.8327 5.36074 48.812C2.93392 48.7063 1.14926 46.9887 1.05384 44.5567C0.981629 42.7128 0.984208 40.8585 1.04868 39.0145C1.13637 36.5051 2.99323 34.7953 5.59543 34.7179C8.12025 34.6405 7.98614 34.5941 8.84236 32.2163C9.78369 29.6038 10.9597 27.0687 12.1383 24.549C12.4658 23.8501 12.5638 23.4349 11.9294 22.9191C11.3672 22.46 10.8669 21.9158 10.3743 21.3794C8.59478 19.44 8.58705 17.0622 10.3975 15.1383C11.5735 13.8875 12.8063 12.6883 14.0442 11.4993C15.9784 9.64247 18.3794 9.61668 20.391 11.3988C21.1544 12.0745 21.8559 13.2144 22.6863 13.3124C23.5245 13.4129 24.4504 12.4046 25.3943 12.0203C27.6535 11.1048 29.9281 10.2073 32.2389 9.43874C33.0925 9.15505 33.4381 8.81462 33.3685 7.91971C33.3014 7.06607 33.3478 6.20211 33.3814 5.34331C33.4845 2.86233 35.2795 1.07252 37.7528 1.02352C39.5529 0.987414 41.3582 0.995151 43.1583 1.03126C45.482 1.08026 47.2073 2.67665 47.4987 4.98483C47.5142 5.11378 47.5245 5.24015 47.5322 5.3691C47.5941 6.59928 47.2331 8.13635 47.8366 8.97194C48.4014 9.75079 50.021 9.71211 51.1222 10.166C53.0229 10.95 54.9417 11.7263 56.7315 12.7218C57.7037 13.2634 58.2247 13.1422 58.8823 12.3762C59.5219 11.6283 60.2492 10.95 60.9713 10.2769C62.7637 8.60315 65.2189 8.53351 67.0165 10.1815C68.4401 11.4864 69.8147 12.8507 71.1299 14.264C72.6618 15.9094 72.6232 18.4213 71.0835 20.1286C70.3072 20.9874 69.4742 21.7998 68.6206 22.5838C68.1074 23.0532 68.1641 23.422 68.44 24.028C69.7038 26.7901 70.8643 29.6012 72.1228 32.3659C72.2879 32.7269 72.7959 33.1267 73.1725 33.155C74.4078 33.2505 75.6586 33.1499 76.9017 33.1834C79.5838 33.2608 81.3092 34.9758 81.3762 37.6631C81.4201 39.4245 81.4201 41.1886 81.3607 42.9474C81.2808 45.3897 79.5322 47.1409 77.1054 47.2492C75.95 47.3008 74.7792 47.1976 73.6341 47.3265C73.2241 47.373 72.6747 47.814 72.5174 48.206C71.4033 50.9861 70.4104 53.8153 69.2937 56.5928C69.0255 57.2634 69.0332 57.6657 69.5696 58.1531C70.4259 58.932 71.2279 59.7727 72.0274 60.6109C73.7863 62.4497 73.8456 64.8688 72.1048 66.7411C70.8204 68.1235 69.482 69.4645 68.0919 70.7411C66.3562 72.3375 63.8727 72.273 62.1319 70.6921C61.157 69.8049 60.2544 68.3581 59.1738 68.206C58.1654 68.0641 56.9997 69.3794 55.8391 69.9107C53.972 70.7669 52.0687 71.5509 50.1448 72.273C49.3969 72.5541 49.0048 72.8791 49.0513 73.7302C49.1054 74.7566 49.0796 75.7933 49.0203 76.8224C48.8836 79.146 47.2073 80.8224 44.8836 80.9539C43.901 81.0106 42.9107 80.9642 41.923 80.9642C41.923 80.9668 41.923 80.9694 41.923 80.9745V80.9823ZM40.5123 3.60766C40.5123 3.60766 40.5123 3.59992 40.5123 3.59734C39.6973 3.59734 38.8823 3.58187 38.0674 3.59992C36.6541 3.63087 36.0119 4.23435 35.9733 5.62958C35.9346 7.00418 35.9346 8.38135 35.9629 9.75595C35.9836 10.785 35.5297 11.3884 34.5316 11.5716C30.5007 12.304 26.8308 13.9081 23.442 16.1802C22.627 16.7269 21.9359 16.6135 21.2679 15.9197C20.4916 15.1177 19.6896 14.3414 18.8875 13.5625C17.6805 12.3865 16.8836 12.3607 15.6921 13.5058C14.578 14.5761 13.4845 15.6696 12.4065 16.7759C11.3595 17.8514 11.3749 18.6844 12.44 19.7779C13.2498 20.6083 14.0725 21.4258 14.9056 22.2279C15.6302 22.9268 15.7566 23.6515 15.1763 24.518C12.8759 27.9558 11.3543 31.716 10.6605 35.7959C10.4723 36.8946 9.8688 37.3459 8.80626 37.3227C7.86235 37.302 6.91844 37.2917 5.97454 37.302C4.24146 37.3201 3.6354 37.9158 3.61993 39.6154C3.60961 41.0777 3.60703 42.5374 3.61993 43.9997C3.6354 45.5651 4.24662 46.197 5.78885 46.2202C6.90297 46.2356 8.01967 46.2253 9.13637 46.2047C10.0906 46.1892 10.6863 46.6199 10.8901 47.5587C11.7953 51.6902 13.5026 55.4555 16.0222 58.8494C16.6103 59.6412 16.5613 60.3246 15.8443 61.0106C14.9778 61.8436 14.119 62.6895 13.3092 63.5741C12.5561 64.3942 12.5535 65.3098 13.3195 66.1118C14.5368 67.3833 15.7927 68.6186 17.0719 69.8256C17.9281 70.6328 18.854 70.5993 19.705 69.7869C20.636 68.8971 21.549 67.9893 22.4465 67.0661C23.1093 66.3852 23.8082 66.2511 24.636 66.7566C28.1615 68.9126 31.981 70.2614 36.0635 70.8546C37.0435 70.9964 37.4794 71.5483 37.4794 72.5155C37.4794 73.7611 37.4691 75.0093 37.5052 76.255C37.5464 77.7688 38.1499 78.3826 39.6225 78.4033C41.2086 78.4265 42.7972 78.4239 44.3833 78.4033C45.7863 78.3826 46.4078 77.7663 46.4439 76.3504C46.4774 74.932 46.4723 73.5135 46.4646 72.0951C46.4594 71.1022 46.8617 70.5245 47.8804 70.264C51.6148 69.3072 55.0783 67.7263 58.1938 65.4413C59.197 64.7063 59.9681 64.8404 60.7753 65.6992C61.6573 66.638 62.578 67.538 63.5039 68.4355C64.7108 69.6064 65.5361 69.6244 66.7096 68.4948C67.8211 67.422 68.9223 66.3362 69.9952 65.2221C71.0526 64.1235 71.0448 63.3266 69.9745 62.2227C68.8991 61.1138 67.8108 60.0151 66.6863 58.9552C65.9126 58.2227 65.7682 57.4981 66.3459 56.5619C68.3034 53.382 69.6161 49.9442 70.217 46.2537C70.3949 45.1679 70.9597 44.6857 72.0403 44.696C73.5851 44.7089 75.1299 44.7037 76.6747 44.6728C78.1834 44.6393 78.7508 44.0616 78.7818 42.5296C78.8127 41.0261 78.8153 39.52 78.7972 38.0164C78.7792 36.4149 78.1396 35.7959 76.4994 35.783C74.9133 35.7701 73.3246 35.7676 71.7386 35.7985C70.7121 35.8191 70.1448 35.342 69.9178 34.3594C69.0642 30.6792 67.5967 27.2647 65.4484 24.1544C64.8604 23.3033 64.912 22.5967 65.6651 21.8772C66.7508 20.8404 67.8108 19.7727 68.8578 18.6947C69.8843 17.6399 69.8998 16.7011 68.8991 15.6721C67.7927 14.5322 66.6683 13.4078 65.5206 12.3117C64.4968 11.3343 63.638 11.3394 62.6012 12.3272C61.451 13.4207 60.3292 14.5477 59.215 15.6799C58.5368 16.3685 57.8533 16.4536 57.0358 15.912C53.776 13.7534 50.2015 12.3478 46.3769 11.569C45.3762 11.3652 44.9017 10.8133 44.9275 9.77916C44.9584 8.48967 44.9558 7.20018 44.9429 5.91069C44.9275 4.25498 44.3214 3.63861 42.7018 3.61797C41.972 3.60766 41.2421 3.61797 40.5148 3.61797L40.5123 3.60766Z" stroke="#11103D" stroke-width="0.4" mask="url(#path-1-outside-1_3633_51970)"/>
<path d="M36.177 47.1382C36.7547 50.1504 37.2473 52.7113 37.7373 55.2723C38.2222 57.8023 38.707 60.3348 39.1867 62.8648C39.5091 64.5721 39.0939 65.1111 37.4021 65.1369C35.9011 65.1601 34.3975 65.1033 32.8992 65.1524C31.6612 65.191 31.1351 64.5643 30.9237 63.427C29.9849 58.3593 29.0255 53.2942 28.0378 48.2368C27.9475 47.7778 27.7206 47.2052 27.3647 46.9576C23.2228 44.0743 21.8018 39.9119 23.4085 35.1846C24.5639 31.7803 26.8618 30.1298 30.4465 30.1246C32.0326 30.1246 33.6264 30.0395 35.2073 30.1504C36.667 30.251 37.9075 29.8487 39.032 28.9796C42.8979 25.9879 46.7612 22.9912 50.6193 19.9892C51.1274 19.5947 51.5529 19.066 52.1074 18.7694C52.6155 18.496 53.3866 18.1762 53.7837 18.38C54.199 18.594 54.5136 19.4038 54.5213 19.9583C54.5832 24.2961 54.5626 28.6366 54.56 32.977C54.56 41.0105 54.5523 49.0466 54.5497 57.0801C54.5497 57.2529 54.6064 57.4464 54.5445 57.5908C54.3279 58.1117 54.1783 58.9061 53.7992 59.0479C53.3376 59.2233 52.5355 59.0118 52.1074 58.6765C48.7006 55.9995 45.3711 53.2246 41.9694 50.5398C40.7264 49.5598 39.3698 48.7191 38.0313 47.868C37.5929 47.5895 37.0513 47.4709 36.1796 47.133L36.177 47.1382ZM51.8572 22.5063C51.4781 22.7616 51.2357 22.9086 51.0113 23.0763C47.0655 26.0266 43.1093 28.9667 39.1944 31.9583C38.8695 32.2059 38.6658 32.8068 38.6606 33.2478C38.6193 36.8996 38.6039 40.5515 38.6761 44.2007C38.6864 44.7139 39.0861 45.3793 39.5117 45.6991C41.8069 47.4244 44.1951 49.0234 46.4955 50.741C48.2647 52.0614 49.9514 53.4902 51.8598 55.0195V22.5089L51.8572 22.5063ZM30.7044 38.7745H30.6915C30.6915 37.3613 30.6915 35.948 30.6915 34.5347C30.6915 32.6804 30.0081 32.2162 28.3086 33.0157C27.7515 33.2787 27.2254 33.7275 26.8437 34.2149C24.9533 36.6262 24.9249 40.6443 26.7251 43.1304C27.4137 44.0821 28.306 44.6494 29.5026 44.7552C30.3589 44.8326 30.7586 44.6108 30.7199 43.6514C30.6554 42.0266 30.7019 40.3993 30.7019 38.772L30.7044 38.7745ZM36.2776 62.5579C36.3137 62.2097 36.3705 62.0369 36.3395 61.8796C35.473 57.2916 34.609 52.7036 33.6935 48.1259C33.6342 47.8345 33.1751 47.4631 32.8605 47.4141C32.1616 47.3058 31.4369 47.3806 30.7663 47.3806C30.6967 47.6153 30.6425 47.6978 30.6554 47.77C31.5271 52.4431 32.3911 57.1188 33.3066 61.7842C33.3659 62.0834 33.8121 62.4728 34.1267 62.5244C34.8205 62.6353 35.5452 62.5605 36.2776 62.5605V62.5579ZM36.0481 44.7526C36.0481 40.8429 36.1048 37.1214 36.0146 33.4025C35.9862 32.2574 34.9004 32.8661 34.2815 32.7552C33.6032 32.634 33.2834 32.9254 33.2886 33.6836C33.3144 37.0698 33.2783 40.456 33.3169 43.8397C33.3195 44.1466 33.6625 44.6598 33.9179 44.7113C34.5626 44.8377 35.2486 44.7526 36.0481 44.7526Z" stroke="#11103D" stroke-width="0.4" mask="url(#path-1-outside-1_3633_51970)"/>
</svg>
