<svg width="10" height="11" viewBox="0 0 10 11" fill="none" xmlns="http://www.w3.org/2000/svg">
<path id="Remove Link" d="M5 6.2L6.45 7.65C6.54167 7.74167 6.65833 7.7875 6.8 7.7875C6.94167 7.7875 7.05833 7.74167 7.15 7.65C7.24167 7.55833 7.2875 7.44167 7.2875 7.3C7.2875 7.15833 7.24167 7.04167 7.15 6.95L5.7 5.5L7.15 4.05C7.24167 3.95833 7.2875 3.84167 7.2875 3.7C7.2875 3.55833 7.24167 3.44167 7.15 3.35C7.05833 3.25833 6.94167 3.2125 6.8 3.2125C6.65833 3.2125 6.54167 3.25833 6.45 3.35L5 4.8L3.55 3.35C3.45833 3.25833 3.34167 3.2125 3.2 3.2125C3.05833 3.2125 2.94167 3.25833 2.85 3.35C2.75833 3.44167 2.7125 3.55833 2.7125 3.7C2.7125 3.84167 2.75833 3.95833 2.85 4.05L4.3 5.5L2.85 6.95C2.75833 7.04167 2.7125 7.15833 2.7125 7.3C2.7125 7.44167 2.75833 7.55833 2.85 7.65C2.94167 7.74167 3.05833 7.7875 3.2 7.7875C3.34167 7.7875 3.45833 7.74167 3.55 7.65L5 6.2ZM5 10.5C4.30833 10.5 3.65833 10.3687 3.05 10.106C2.44167 9.84333 1.9125 9.48717 1.4625 9.0375C1.0125 8.5875 0.656333 8.05833 0.394 7.45C0.131667 6.84167 0.000333333 6.19167 0 5.5C0 4.80833 0.131333 4.15833 0.394 3.55C0.656667 2.94167 1.01283 2.4125 1.4625 1.9625C1.9125 1.5125 2.44167 1.15633 3.05 0.894C3.65833 0.631667 4.30833 0.500333 5 0.5C5.69167 0.5 6.34167 0.631333 6.95 0.894C7.55833 1.15667 8.0875 1.51283 8.5375 1.9625C8.9875 2.4125 9.34383 2.94167 9.6065 3.55C9.86917 4.15833 10.0003 4.80833 10 5.5C10 6.19167 9.86867 6.84167 9.606 7.45C9.34333 8.05833 8.98717 8.5875 8.5375 9.0375C8.0875 9.4875 7.55833 9.84383 6.95 10.1065C6.34167 10.3692 5.69167 10.5003 5 10.5Z" fill="#11103D"/>
</svg>
