<svg width="61" height="60" viewBox="0 0 61 60" fill="none" xmlns="http://www.w3.org/2000/svg">
<path d="M52.3565 25.0006L57.66 30.3038M47.0532 30.3038L52.3565 25.0006L47.0532 30.3038ZM57.66 19.6973L52.3565 25.0006L57.66 19.6973ZM52.3565 25.0006L47.0532 19.6973L52.3565 25.0006Z" stroke="#F80101" stroke-width="4" stroke-linecap="round" stroke-linejoin="round"/>
<path d="M3 50V47.5C3 37.835 10.835 30 20.5 30C30.165 30 38 37.835 38 47.5V50" stroke="#F80101" stroke-width="4" stroke-linecap="round" stroke-linejoin="round"/>
<path d="M20.5 30C26.0228 30 30.5 25.5228 30.5 20C30.5 14.4771 26.0228 10 20.5 10C14.9771 10 10.5 14.4771 10.5 20C10.5 25.5228 14.9771 30 20.5 30Z" stroke="#F80101" stroke-width="4" stroke-linecap="round" stroke-linejoin="round"/>
</svg>
