<svg width="17" height="16" viewBox="0 0 17 16" fill="none" xmlns="http://www.w3.org/2000/svg">
<path d="M6.9002 0H10.0986C10.2506 4.65941e-05 10.3969 0.0577957 10.508 0.161578C10.6191 0.265361 10.6867 0.407439 10.697 0.559104C10.7074 0.710769 10.6598 0.860714 10.5638 0.978639C10.4679 1.09656 10.3308 1.17368 10.1802 1.1944L10.0986 1.2H9.10019V14.8H10.0962C10.2412 14.8 10.3813 14.8525 10.4905 14.9478C10.5998 15.0431 10.6709 15.1748 10.6906 15.3184L10.6962 15.4C10.6962 15.545 10.6437 15.6851 10.5484 15.7943C10.4531 15.9036 10.3214 15.9747 10.1778 15.9944L10.0962 16H6.9002C6.74818 16 6.60184 15.9422 6.49076 15.8384C6.37968 15.7346 6.31214 15.5926 6.30177 15.4409C6.29141 15.2892 6.33901 15.1393 6.43494 15.0214C6.53087 14.9034 6.66799 14.8263 6.81859 14.8056L6.9002 14.8H7.9002V1.2H6.9002C6.75521 1.19999 6.61512 1.14749 6.50585 1.05219C6.39658 0.956887 6.32551 0.825243 6.30579 0.6816L6.30019 0.6C6.3002 0.45501 6.35271 0.314926 6.44801 0.205655C6.54331 0.0963846 6.67495 0.0253186 6.81859 0.00559998L6.9002 0ZM13.697 2.3976C14.3864 2.39824 15.0473 2.67237 15.5348 3.15982C16.0222 3.64728 16.2964 4.30823 16.297 4.9976L16.3002 11.0008C16.3007 11.6648 16.0469 12.3039 15.5911 12.7868C15.1353 13.2697 14.512 13.5598 13.849 13.5976L13.7002 13.6016H9.90419V12.4016H13.7466C14.11 12.3898 14.4545 12.2369 14.7072 11.9754C14.9598 11.714 15.1008 11.3644 15.1002 11.0008L15.0978 4.9968C15.0972 4.62542 14.9492 4.26945 14.6865 4.00699C14.4237 3.74453 14.0676 3.59701 13.6962 3.5968H9.90419V2.3968H13.6962L13.697 2.3976ZM7.10019 2.3976V3.5976H3.3002C2.92889 3.5976 2.5728 3.7451 2.31025 4.00765C2.0477 4.2702 1.9002 4.6263 1.9002 4.9976V11.0008C1.9002 11.7744 2.5274 12.4008 3.3002 12.4008H7.09619V13.6008H3.3002C2.61063 13.6008 1.94931 13.3269 1.46172 12.8393C0.974123 12.3517 0.700195 11.6904 0.700195 11.0008V4.9976C0.700195 4.30804 0.974123 3.64672 1.46172 3.15912C1.94931 2.67153 2.61063 2.3976 3.3002 2.3976H7.10019Z" fill="#11103D"/>
</svg>
