<svg width="19" height="15" viewBox="0 0 19 15" fill="none" xmlns="http://www.w3.org/2000/svg">
<g clip-path="url(#clip0_2192_1299)">
<path d="M13.5534 11.2888V11.058C13.5534 7.68863 13.5534 4.31898 13.5537 0.949617C13.5537 0.505053 13.7939 0.161446 14.1816 0.0439583C14.7702 -0.134635 15.3502 0.276867 15.3541 0.887921C15.3607 1.88155 15.3562 2.87518 15.3565 3.8688C15.3565 6.27405 15.3565 8.6796 15.3565 11.0849V11.3003C15.4182 11.2478 15.4581 11.218 15.4935 11.1834C15.8509 10.8328 16.2024 10.4759 16.5658 10.1314C17.0333 9.68828 17.7779 9.83499 18.0237 10.4109C18.1722 10.7587 18.0882 11.1277 17.7853 11.4214C17.1658 12.0218 16.5436 12.6193 15.9223 13.2179C15.6509 13.4795 15.382 13.7434 15.107 14.0011C14.8311 14.2597 14.5121 14.3907 14.1375 14.2372C13.9984 14.1803 13.8634 14.0899 13.7561 13.9854C12.8715 13.1244 11.9932 12.2574 11.1146 11.3904C10.7338 11.0146 10.7209 10.4611 11.0798 10.1095C11.4412 9.75588 11.995 9.76917 12.3806 10.1444C12.7252 10.4797 13.0664 10.8189 13.4095 11.156C13.4442 11.1902 13.4811 11.2221 13.5537 11.2894L13.5534 11.2888Z" fill="#11103D"/>
<path d="M6.31546 0.000592764C7.82466 0.000592764 9.33387 -0.000588017 10.8431 0.00147835C11.3067 0.00206874 11.6563 0.264793 11.7607 0.679542C11.8932 1.20765 11.5094 1.73073 10.9579 1.77235C10.9132 1.7756 10.868 1.7756 10.823 1.7756C7.80937 1.7756 4.79605 1.7756 1.78244 1.77619C1.39801 1.77619 1.10085 1.62446 0.927829 1.28351C0.770701 0.973261 0.795589 0.66124 0.998896 0.375491C1.18841 0.108929 1.46098 -0.000588017 1.78783 2.37332e-06C2.89223 0.00177354 3.99662 0.000592764 5.10131 0.000297569C5.50613 0.000297569 5.91094 0.000297569 6.31576 0.000297569L6.31546 0.000592764Z" fill="#11103D"/>
<path d="M5.10916 5.89547C6.21356 5.89547 7.31795 5.89399 8.42234 5.89606C8.88803 5.89694 9.23257 6.13399 9.35012 6.52423C9.52404 7.10341 9.10183 7.66369 8.47632 7.66959C7.73176 7.67638 6.9872 7.67136 6.24264 7.67136C4.74843 7.67136 3.25422 7.67313 1.76 7.67018C1.1069 7.66871 0.670002 7.07241 0.883204 6.4832C1.01185 6.12749 1.3378 5.90137 1.75131 5.89724C2.31085 5.89163 2.87069 5.89517 3.43054 5.89488C3.99038 5.89488 4.54992 5.89488 5.10976 5.89488V5.89547H5.10916Z" fill="#11103D"/>
<path d="M3.30876 13.5451C2.7843 13.5451 2.25985 13.5483 1.73539 13.5442C1.2733 13.5407 0.888274 13.2106 0.841796 12.7873C0.787821 12.2973 1.07239 11.8955 1.55007 11.7901C1.60315 11.7783 1.65892 11.7727 1.7132 11.7724C2.77201 11.7713 3.83112 11.7654 4.88994 11.7748C5.27136 11.778 5.55953 11.9673 5.71876 12.3109C5.86899 12.635 5.81681 12.947 5.59132 13.2233C5.4153 13.4388 5.17841 13.5436 4.89714 13.5442C4.36758 13.5454 3.83802 13.5445 3.30876 13.5448V13.5451Z" fill="#11103D"/>
</g>
<defs>
<clipPath id="clip0_2192_1299">
<rect width="17.2688" height="14.3025" fill="white" transform="translate(0.82605)"/>
</clipPath>
</defs>
</svg>
