<svg width="17" height="18" viewBox="0 0 17 18" fill="none" xmlns="http://www.w3.org/2000/svg">
<path d="M6.13961 13.9061C5.40588 13.9061 4.81377 13.3276 4.81377 12.6693L4.81377 9.4547L4.81377 9.45466H4.86377L6.13961 13.9061ZM6.13961 13.9061H11.0922C11.4274 13.9061 11.749 13.7749 11.9863 13.5412C12.2236 13.3075 12.357 12.9904 12.357 12.6596V9.45467M6.13961 13.9061L12.357 9.45467M12.357 9.45467C12.357 9.45467 12.357 9.45467 12.357 9.45466V9.45467ZM6.14975 8.13741C6.14975 8.13741 6.14975 8.13741 6.14974 8.13741L12.307 9.45466C12.307 9.28825 12.2738 9.12346 12.2091 8.96972C12.1444 8.81598 12.0496 8.6763 11.9301 8.55867C11.8106 8.44104 11.6687 8.34777 11.5125 8.28419C11.3564 8.2206 11.1891 8.18795 11.0201 8.1881V8.1381H11.0201H10.3856V6.98745C10.3856 6.45328 10.219 6.01702 9.91163 5.7143C9.60433 5.41167 9.16178 5.24785 8.62014 5.24785C8.07851 5.24785 7.63601 5.41173 7.32877 5.71439C7.02144 6.01714 6.85488 6.4534 6.85488 6.98745V8.13741H6.14975ZM5.97472 9.04045C6.03011 9.01785 6.08951 9.00621 6.14951 9.00621H10.9494C11.0094 9.00621 11.0688 9.01785 11.1242 9.04045C11.1796 9.06304 11.2299 9.09615 11.2722 9.13782C11.3145 9.1795 11.348 9.22894 11.3709 9.2833C11.3938 9.33765 11.4055 9.39588 11.4055 9.45466V12.6596C11.4055 12.7783 11.3576 12.8923 11.2722 12.9764C11.1867 13.0606 11.0706 13.108 10.9494 13.108H6.14951C6.0283 13.108 5.91221 13.0606 5.82673 12.9764C5.74128 12.8923 5.69341 12.7783 5.69341 12.6596V9.45466C5.69341 9.39588 5.70517 9.33765 5.72803 9.2833C5.75089 9.22894 5.78441 9.1795 5.82673 9.13783C5.86905 9.09615 5.91933 9.06304 5.97472 9.04045ZM9.43532 6.98745V8.13742L7.73476 8.13809V6.98745C7.73476 6.68042 7.80759 6.46476 7.94068 6.32571C8.07337 6.18708 8.27429 6.11596 8.5497 6.11596C8.86193 6.11596 9.08054 6.18783 9.2216 6.32676C9.3625 6.46553 9.43532 6.68039 9.43532 6.98745Z" fill="#11103D" stroke="#11103D" stroke-width="0.1"/>
<path d="M8.46047 17.0495L8.46041 17.05C4.04712 17.05 0.45 13.5083 0.45 9.16C0.45 4.81173 4.04712 1.27 8.46041 1.27C10.295 1.27 11.9736 1.88343 13.4196 2.95929L13.1231 1.57226L13.122 1.56712L13.1222 1.56709L8.46047 17.0495ZM8.46047 17.0495C12.8722 17.0485 16.5545 13.5086 16.55 9.1595C16.5498 8.85137 16.5291 8.54079 16.4984 8.28131C16.4687 8.03057 16.4292 7.82273 16.3879 7.7116V7.70999L16.3854 7.70237C16.3344 7.54759 16.2706 7.42017 16.1842 7.33104C16.0962 7.24016 15.9865 7.19113 15.8511 7.19113H15.7698V7.19082L15.7642 7.19145C15.6262 7.20698 15.5327 7.25406 15.4702 7.30538C15.4084 7.35616 15.3794 7.40902 15.3673 7.4323C15.352 7.46057 15.3422 7.49141 15.3383 7.52328L15.3378 7.52323L15.3379 7.5298C15.3385 7.59567 15.3461 7.6613 15.3607 7.72558C15.366 7.75119 15.372 7.77875 15.3781 7.80705C15.3933 7.87751 15.4095 7.95256 15.4194 8.01354C15.4745 8.3524 15.4771 8.69818 15.4771 9.10477C15.4781 13.0965 12.0757 16.2998 8.028 16.0569C4.11691 15.8223 1.06597 12.4236 1.48158 8.43235C1.8116 5.26471 4.30547 2.71752 7.51247 2.30781C9.5896 2.04459 11.6336 2.65275 13.1446 4.0074L11.1352 4.38891C11.0805 4.39049 11.031 4.41735 10.9888 4.44853C10.9453 4.48061 10.9026 4.52265 10.8631 4.56162L10.8616 4.56309C10.8097 4.61417 10.787 4.68679 10.7762 4.75037C10.7654 4.81451 10.7654 4.87793 10.7654 4.91773V4.91872C10.7654 5.02286 10.8425 5.11585 10.9279 5.1789C11.0148 5.24313 11.1266 5.28873 11.2216 5.28873H11.3045V5.28964L11.3139 5.28783L14.2311 4.72897C14.4253 4.72582 14.601 4.53783 14.601 4.27918V4.20234L8.46047 17.0495ZM13.1326 1.3917C13.122 1.45457 13.122 1.51675 13.122 1.55657L14.6008 4.19275L14.601 4.19273L14.6001 4.18781L14.0326 1.31479C14.0301 1.21266 13.9542 1.12172 13.8702 1.05973C13.7832 0.995526 13.6715 0.95 13.5765 0.95H13.4964C13.4384 0.95 13.3861 0.978673 13.3401 1.02379C13.2952 1.06791 13.2528 1.1311 13.212 1.21062C13.1641 1.2612 13.1428 1.3306 13.1326 1.3917ZM13.4589 3.05137C13.4618 3.05356 13.4652 3.05483 13.4688 3.05501C13.4724 3.0552 13.4759 3.05429 13.479 3.05241C13.482 3.05054 13.4844 3.04778 13.4858 3.04452C13.4872 3.04126 13.4875 3.03765 13.4867 3.0342L13.4836 3.01949L13.4835 3.01899L13.4809 3.00705C13.4779 3.00592 13.4747 3.00525 13.4714 3.00508C13.4649 3.00474 13.4583 3.00639 13.4527 3.00987C13.447 3.01337 13.4425 3.01858 13.4398 3.0249C13.4384 3.02812 13.4376 3.03153 13.4373 3.03499C13.4406 3.03753 13.444 3.04007 13.4474 3.04262C13.4475 3.0427 13.4476 3.04278 13.4477 3.04286C13.4515 3.0457 13.4552 3.04853 13.4589 3.05137ZM13.4697 3.03741L13.4697 3.03743L13.4697 3.03741Z" fill="#11103D" stroke="#11103D" stroke-width="0.1"/>
</svg>
