<svg width="16" height="16" viewBox="0 0 16 16" fill="none" xmlns="http://www.w3.org/2000/svg">
<path d="M5.63937 12.8551C4.93065 12.8551 4.36353 12.2965 4.36353 11.6684V8.45369C4.3634 8.28729 4.39657 8.12251 4.46115 7.96875C4.52572 7.81499 4.62043 7.67527 4.73986 7.55758C4.85929 7.43988 5.0011 7.34653 5.15718 7.28285C5.31326 7.21916 5.48056 7.1864 5.6495 7.18643H6.39474C6.39737 7.18643 6.39989 7.1854 6.40174 7.18358C6.4036 7.18175 6.40464 7.17927 6.40464 7.17668V5.98647C6.40464 4.93944 7.05682 4.29688 8.1199 4.29688C9.18299 4.29687 9.8354 4.9392 9.8354 5.98647V7.17738C9.8354 7.17997 9.83644 7.18244 9.8383 7.18427C9.84015 7.1861 9.84267 7.18713 9.84529 7.18713H10.5199C10.6888 7.18697 10.8562 7.21962 11.0123 7.28321C11.1684 7.34679 11.3103 7.44007 11.4299 7.5577C11.5494 7.67533 11.6442 7.815 11.7089 7.96874C11.7735 8.12248 11.8068 8.28727 11.8068 8.45369V11.6586C11.8068 11.9759 11.6788 12.2803 11.451 12.5046C11.2231 12.729 10.9141 12.8551 10.592 12.8551H5.63937ZM5.64926 7.95523C5.5828 7.95523 5.51699 7.96812 5.45559 7.99317C5.39419 8.01822 5.3384 8.05494 5.2914 8.10123C5.2444 8.14751 5.20713 8.20246 5.18169 8.26294C5.15626 8.32341 5.14317 8.38823 5.14317 8.45369V11.6586C5.14317 11.7908 5.19649 11.9176 5.2914 12.0111C5.38631 12.1045 5.51504 12.1571 5.64926 12.1571H10.4492C10.5834 12.1571 10.7121 12.1045 10.807 12.0111C10.9019 11.9176 10.9553 11.7908 10.9553 11.6586V8.45369C10.9553 8.38823 10.9422 8.32341 10.9167 8.26294C10.8913 8.20246 10.854 8.14751 10.807 8.10123C10.76 8.05494 10.7042 8.01822 10.6428 7.99317C10.5814 7.96812 10.5156 7.95523 10.4492 7.95523H5.64926ZM8.97518 7.18643C8.9778 7.18643 8.98032 7.1854 8.98217 7.18358C8.98403 7.18175 8.98507 7.17927 8.98507 7.17668V5.98647C8.98507 5.3583 8.68726 5.06498 8.04945 5.06498C7.48233 5.06498 7.18452 5.3583 7.18452 5.98647V7.17738C7.18452 7.17997 7.18556 7.18244 7.18742 7.18427C7.18927 7.1861 7.19179 7.18713 7.19441 7.18713L8.97518 7.18643Z" fill="#11103D"/>
<path d="M7.96042 16C3.57401 16 0 12.4799 0 8.16C0 3.84006 3.57401 0.320005 7.96042 0.320005C9.81257 0.320005 11.5052 0.949107 12.9589 2.05137C12.9618 2.05356 12.9652 2.05483 12.9688 2.05501C12.9724 2.0552 12.9759 2.05429 12.979 2.05241C12.982 2.05054 12.9844 2.04778 12.9858 2.04452C12.9872 2.04126 12.9875 2.03765 12.9867 2.0342L12.672 0.561807C12.6718 0.560649 12.6718 0.559483 12.672 0.558326C12.672 0.478267 12.672 0.321629 12.7514 0.241802L12.7542 0.237857C12.8348 0.0792856 12.9155 0 12.9964 0H13.0765C13.2388 0 13.4827 0.159886 13.4827 0.320005L14.051 3.19749C14.0511 3.19857 14.0511 3.19966 14.051 3.20074V3.27918C14.051 3.51912 13.8884 3.67901 13.7261 3.67901L10.8045 4.23873H10.7216C10.5592 4.23873 10.3154 4.07861 10.3154 3.91872C10.3154 3.83866 10.3154 3.67878 10.3967 3.59872C10.4779 3.51866 10.559 3.43883 10.6403 3.43883L12.7181 3.04434C12.7214 3.04375 12.7244 3.04228 12.7268 3.04011C12.7292 3.03793 12.731 3.03513 12.7319 3.03202C12.7328 3.02892 12.7328 3.02562 12.7319 3.02251C12.731 3.0194 12.7293 3.01659 12.7269 3.0144C11.1999 1.61859 9.11939 0.990413 7.00618 1.25821C3.7764 1.6708 1.2643 4.23617 0.931849 7.42717C0.513165 11.448 3.58673 14.8706 7.525 15.1068C11.6011 15.3514 15.0281 12.1256 15.0272 8.10477C15.0272 7.69868 15.0246 7.34897 14.9687 7.00553C14.9546 6.9185 14.9277 6.80248 14.9096 6.71499C14.8957 6.65404 14.8885 6.59181 14.8879 6.52935C14.8911 6.5036 14.899 6.47865 14.9115 6.45579C14.9327 6.41494 15.0121 6.27014 15.2698 6.24113H15.3511C15.5945 6.24113 15.738 6.41471 15.8379 6.71801V6.72079C15.9178 6.925 15.9995 7.54738 16 8.15954C16.0045 12.4802 12.3449 15.9995 7.95853 15.9995L7.96042 16Z" fill="#11103D"/>
</svg>
