<svg width="11" height="11" viewBox="0 0 11 11" fill="none" xmlns="http://www.w3.org/2000/svg">
<path id="Vector" d="M2.96135 0.15202C3.00955 0.200203 3.04778 0.257408 3.07386 0.320368C3.09995 0.383328 3.11337 0.450811 3.11337 0.51896C3.11337 0.58711 3.09995 0.654592 3.07386 0.717552C3.04778 0.780512 3.00955 0.837718 2.96135 0.8859L1.7717 2.07555H6.53778C9.00217 2.07555 11 4.07338 11 6.53778C11 9.00217 9.00217 11 6.53778 11C4.07338 11 2.07555 9.00217 2.07555 6.53778C2.07555 6.40016 2.13022 6.26819 2.22752 6.17088C2.32483 6.07358 2.4568 6.01891 2.59441 6.01891C2.73202 6.01891 2.864 6.07358 2.96131 6.17088C3.05861 6.26819 3.11328 6.40016 3.11328 6.53778C3.11328 7.21508 3.31412 7.87717 3.69041 8.44032C4.0667 9.00348 4.60153 9.44241 5.22728 9.7016C5.85302 9.96079 6.54157 10.0286 7.20586 9.89647C7.87015 9.76434 8.48034 9.43819 8.95926 8.95926C9.43819 8.48034 9.76434 7.87015 9.89647 7.20586C10.0286 6.54157 9.96079 5.85302 9.7016 5.22728C9.44241 4.60153 9.00348 4.0667 8.44032 3.69041C7.87717 3.31412 7.21508 3.11328 6.53778 3.11328H1.7717L2.96135 4.30293C3.05867 4.40025 3.11335 4.53224 3.11335 4.66987C3.11335 4.8075 3.05867 4.93949 2.96135 5.03681C2.86404 5.13413 2.73204 5.1888 2.59441 5.1888C2.45678 5.1888 2.32479 5.13413 2.22747 5.03681L0.15202 2.96135C0.103824 2.91317 0.0655931 2.85597 0.0395092 2.79301C0.0134253 2.73005 0 2.66256 0 2.59441C0 2.52626 0.0134253 2.45878 0.0395092 2.39582C0.0655931 2.33286 0.103824 2.27566 0.15202 2.22747L2.22747 0.15202C2.27566 0.103825 2.33286 0.0655931 2.39582 0.0395092C2.45878 0.0134254 2.52626 0 2.59441 0C2.66256 0 2.73005 0.0134254 2.79301 0.0395092C2.85597 0.0655931 2.91317 0.103825 2.96135 0.15202Z" fill="#11103D"/>
</svg>
