<svg width="37" height="30" viewBox="0 0 37 30" fill="none" xmlns="http://www.w3.org/2000/svg">
<g id="Group 1000004689">
<rect id="Rectangle 36" x="0.675139" y="0.532561" width="35.3634" height="28.9349" rx="4.79305" stroke="#11103D" stroke-width="1.06512"/>
<path id="Vector" d="M14.1644 7.22112C14.2345 7.2912 14.2901 7.37441 14.328 7.46599C14.3659 7.55757 14.3855 7.65572 14.3855 7.75485C14.3855 7.85398 14.3659 7.95213 14.328 8.04371C14.2901 8.13529 14.2345 8.2185 14.1644 8.28858L12.434 10.019H19.3664C22.951 10.019 25.8569 12.9249 25.8569 16.5095C25.8569 20.0941 22.951 23 19.3664 23C15.7819 23 12.8759 20.0941 12.8759 16.5095C12.8759 16.3093 12.9554 16.1174 13.097 15.9758C13.2385 15.8343 13.4305 15.7548 13.6306 15.7548C13.8308 15.7548 14.0228 15.8343 14.1643 15.9758C14.3058 16.1174 14.3853 16.3093 14.3853 16.5095C14.3853 17.4947 14.6775 18.4577 15.2248 19.2768C15.7721 20.096 16.5501 20.7344 17.4602 21.1114C18.3704 21.4884 19.372 21.5871 20.3382 21.3949C21.3044 21.2027 22.192 20.7283 22.8886 20.0317C23.5852 19.335 24.0596 18.4475 24.2518 17.4813C24.444 16.515 24.3454 15.5135 23.9683 14.6033C23.5913 13.6931 22.9529 12.9152 22.1338 12.3679C21.3146 11.8205 20.3516 11.5284 19.3664 11.5284H12.434L14.1644 13.2588C14.3059 13.4004 14.3854 13.5923 14.3854 13.7925C14.3854 13.9927 14.3059 14.1847 14.1644 14.3263C14.0228 14.4678 13.8308 14.5473 13.6306 14.5473C13.4304 14.5473 13.2384 14.4678 13.0969 14.3263L10.0781 11.3074C10.008 11.2373 9.95234 11.1541 9.9144 11.0626C9.87646 10.971 9.85693 10.8728 9.85693 10.7737C9.85693 10.6746 9.87646 10.5764 9.9144 10.4848C9.95234 10.3933 10.008 10.31 10.0781 10.24L13.0969 7.22112C13.167 7.15102 13.2502 7.09541 13.3418 7.05747C13.4333 7.01953 13.5315 7 13.6306 7C13.7298 7 13.8279 7.01953 13.9195 7.05747C14.0111 7.09541 14.0943 7.15102 14.1644 7.22112Z" fill="#11103D"/>
</g>
</svg>
