<svg width="14" height="14" viewBox="0 0 14 14" fill="none" xmlns="http://www.w3.org/2000/svg">
<path d="M7.77778 6.68889L9.72222 8.63333C9.86481 8.77593 9.93611 8.95741 9.93611 9.17778C9.93611 9.39815 9.86481 9.57963 9.72222 9.72222C9.57963 9.86481 9.39815 9.93611 9.17778 9.93611C8.95741 9.93611 8.77593 9.86481 8.63333 9.72222L6.45556 7.54444C6.37778 7.46667 6.31944 7.37904 6.28056 7.28156C6.24167 7.18459 6.22222 7.08426 6.22222 6.98056V3.88889C6.22222 3.66852 6.29689 3.48367 6.44622 3.33433C6.59504 3.18552 6.77963 3.11111 7 3.11111C7.22037 3.11111 7.40522 3.18552 7.55456 3.33433C7.70337 3.48367 7.77778 3.66852 7.77778 3.88889V6.68889ZM7 14C5.43148 14 4.025 13.5364 2.78056 12.6093C1.53611 11.6827 0.7 10.4741 0.272222 8.98333C0.207407 8.75 0.230222 8.52963 0.340667 8.32222C0.450593 8.11481 0.622222 7.98519 0.855555 7.93333C1.07593 7.88148 1.27374 7.92996 1.449 8.07878C1.62374 8.22811 1.74352 8.41296 1.80833 8.63333C2.14537 9.77407 2.79689 10.6944 3.76289 11.3944C4.72837 12.0944 5.80741 12.4444 7 12.4444C8.51667 12.4444 9.80311 11.9161 10.8593 10.8593C11.9161 9.80311 12.4444 8.51667 12.4444 7C12.4444 5.48333 11.9161 4.19663 10.8593 3.13989C9.80311 2.08367 8.51667 1.55556 7 1.55556C6.10556 1.55556 5.26944 1.76296 4.49167 2.17778C3.71389 2.59259 3.05926 3.16296 2.52778 3.88889H3.88889C4.10926 3.88889 4.29411 3.9633 4.44344 4.11211C4.59226 4.26144 4.66667 4.4463 4.66667 4.66667C4.66667 4.88704 4.59226 5.07163 4.44344 5.22044C4.29411 5.36978 4.10926 5.44444 3.88889 5.44444H0.777778C0.557407 5.44444 0.372815 5.36978 0.224 5.22044C0.0746668 5.07163 0 4.88704 0 4.66667V1.55556C0 1.33519 0.0746668 1.15033 0.224 1.001C0.372815 0.852185 0.557407 0.777778 0.777778 0.777778C0.998148 0.777778 1.183 0.852185 1.33233 1.001C1.48115 1.15033 1.55556 1.33519 1.55556 1.55556V2.60556C2.21667 1.77593 3.02374 1.13426 3.97678 0.680556C4.9293 0.226852 5.93704 0 7 0C7.97222 0 8.883 0.184593 9.73233 0.553778C10.5811 0.923481 11.32 1.42256 11.949 2.051C12.5774 2.67996 13.0765 3.41885 13.4462 4.26767C13.8154 5.117 14 6.02778 14 7C14 7.97222 13.8154 8.88274 13.4462 9.73156C13.0765 10.5809 12.5774 11.3198 11.949 11.9482C11.32 12.5772 10.5811 13.0765 9.73233 13.4462C8.883 13.8154 7.97222 14 7 14Z" fill="#11103D"/>
</svg>
