<svg width="26" height="26" viewBox="0 0 26 26" fill="none" xmlns="http://www.w3.org/2000/svg">
<path d="M0.75 5.8C0.75 4.52696 1.25571 3.30606 2.15589 2.40589C3.05606 1.50571 4.27696 1 5.55 1H19.95C21.223 1 22.4439 1.50571 23.3441 2.40589C24.2443 3.30606 24.75 4.52696 24.75 5.8V20.2C24.75 21.473 24.2443 22.6939 23.3441 23.5941C22.4439 24.4943 21.223 25 19.95 25H5.55C4.27696 25 3.05606 24.4943 2.15589 23.5941C1.25571 22.6939 0.75 21.473 0.75 20.2V5.8Z" stroke="#11103D" stroke-width="1.5" stroke-linecap="round" stroke-linejoin="round"/>
<path d="M8.54883 11.7988C10.2057 11.7988 11.5488 10.4557 11.5488 8.79883C11.5488 7.14197 10.2057 5.79883 8.54883 5.79883C6.89197 5.79883 5.54883 7.14197 5.54883 8.79883C5.54883 10.4557 6.89197 11.7988 8.54883 11.7988Z" stroke="#11103D" stroke-width="1.5" stroke-linecap="round" stroke-linejoin="round"/>
<path d="M15.78 13.7444L5.54883 24.9992H20.1084C21.3391 24.9992 22.5194 24.5103 23.3897 23.64C24.2599 22.7698 24.7488 21.5895 24.7488 20.3588V20.1992C24.7488 19.64 24.5388 19.4252 24.1608 19.0112L19.3248 13.7372C19.0994 13.4913 18.8253 13.2951 18.5198 13.1612C18.2144 13.0272 17.8844 12.9583 17.5508 12.959C17.2173 12.9597 16.8876 13.0299 16.5827 13.1651C16.2778 13.3003 16.0044 13.4976 15.78 13.7444Z" stroke="#11103D" stroke-width="1.5" stroke-linecap="round" stroke-linejoin="round"/>
</svg>
