<svg width="20" height="20" viewBox="0 0 20 20" fill="none" xmlns="http://www.w3.org/2000/svg">
<mask id="path-1-outside-1_2192_1259" maskUnits="userSpaceOnUse" x="0" y="0" width="20" height="20" fill="black">
<rect fill="#071952" width="20" height="20"/>
<path fill-rule="evenodd" clip-rule="evenodd" d="M14.5068 2.16922C14.5784 2.12722 14.6409 2.07146 14.6907 2.00516C14.7406 1.93885 14.7768 1.86332 14.7974 1.78293C14.8179 1.70254 14.8222 1.61888 14.8102 1.53679C14.7982 1.4547 14.77 1.37581 14.7273 1.30467C14.6846 1.23354 14.6282 1.17158 14.5614 1.12237C14.4946 1.07315 14.4187 1.03767 14.3381 1.01796C14.2575 0.998259 14.1738 0.994724 14.0919 1.00756C14.0099 1.0204 13.9313 1.04936 13.8606 1.09276L11.8985 2.2705C11.3055 1.98619 10.6561 1.83913 9.9984 1.84026C9.34103 1.83926 8.69187 1.98631 8.09911 2.2705L6.1362 1.09276C5.99354 1.00902 5.82358 0.984981 5.66329 1.02586C5.50299 1.06674 5.36531 1.16923 5.28016 1.31106C5.19502 1.4529 5.1693 1.6226 5.20859 1.7833C5.24788 1.94399 5.34901 2.08268 5.48999 2.16922L6.96573 3.05483C6.53481 3.46472 6.19184 3.95804 5.9577 4.50475C5.72356 5.05145 5.60316 5.64009 5.60383 6.23482V6.47757C5.38871 6.59057 5.1853 6.72367 4.99696 6.8735C4.93784 6.8157 4.86786 6.77018 4.79105 6.73957L3.11693 6.06992C2.96324 6.01199 2.79297 6.0166 2.64264 6.08275C2.49231 6.1489 2.37389 6.27133 2.31278 6.42378C2.25167 6.57623 2.25273 6.74656 2.31574 6.89823C2.37876 7.0499 2.4987 7.17084 2.64985 7.23511L4.13312 7.82859C3.7397 8.43964 3.51118 9.16788 3.51118 9.94886V11.0471H1.6278C1.46129 11.0471 1.30161 11.1132 1.18388 11.231C1.06614 11.3487 1 11.5084 1 11.6749C1 11.8414 1.06614 12.0011 1.18388 12.1188C1.30161 12.2365 1.46129 12.3027 1.6278 12.3027H3.51118V12.5128C3.51118 13.5842 3.77067 14.5937 4.23022 15.4843L2.64985 16.1155C2.57328 16.1462 2.50351 16.1916 2.44451 16.2492C2.38552 16.3069 2.33845 16.3756 2.306 16.4514C2.27354 16.5272 2.25635 16.6087 2.25538 16.6912C2.25442 16.7736 2.2697 16.8555 2.30037 16.932C2.33104 17.0086 2.37649 17.0784 2.43412 17.1374C2.49176 17.1964 2.56045 17.2434 2.63627 17.2759C2.7121 17.3083 2.79357 17.3255 2.87604 17.3265C2.95851 17.3275 3.04036 17.3122 3.11693 17.2815L4.79105 16.6119C4.83501 16.5943 4.87685 16.5719 4.91577 16.5449C5.5227 17.3112 6.29526 17.9302 7.1755 18.3554C8.05575 18.7806 9.02084 19.001 9.9984 19C10.976 19.0009 11.9412 18.7803 12.8214 18.355C13.7017 17.9297 14.4742 17.3105 15.081 16.5441C15.1202 16.5711 15.1623 16.5935 15.2066 16.611L16.8807 17.2807C17.0337 17.3352 17.2018 17.3283 17.3498 17.2614C17.4979 17.1946 17.6142 17.073 17.6744 16.9222C17.7347 16.7713 17.7341 16.6031 17.6729 16.4526C17.6117 16.3022 17.4946 16.1814 17.3461 16.1155L15.7674 15.4835C16.241 14.565 16.4873 13.5462 16.4856 12.5128V12.3035H18.369C18.5355 12.3035 18.6952 12.2374 18.8129 12.1196C18.9307 12.0019 18.9968 11.8422 18.9968 11.6757C18.9968 11.5092 18.9307 11.3495 18.8129 11.2318C18.6952 11.1141 18.5355 11.0479 18.369 11.0479H16.4856V9.9497C16.4856 9.16788 16.2571 8.44048 15.8637 7.82942L17.3461 7.23595C17.4946 7.17006 17.6117 7.04922 17.6729 6.8988C17.7341 6.74838 17.7347 6.58008 17.6744 6.42927C17.6142 6.27845 17.4979 6.15685 17.3498 6.09C17.2018 6.02314 17.0337 6.01625 16.8807 6.07076L15.2066 6.74041C15.1295 6.77092 15.0592 6.81644 14.9998 6.87434C14.8102 6.72394 14.607 6.5914 14.393 6.47841V6.23482C14.3938 5.63995 14.2734 5.05115 14.0393 4.50429C13.8051 3.95744 13.4621 3.46398 13.0311 3.05399L14.5068 2.16922ZM4.76677 12.5128V9.9497C4.76666 9.59923 4.83561 9.25217 4.96968 8.92836C5.10375 8.60455 5.30031 8.31032 5.54813 8.0625C5.79595 7.81469 6.09017 7.61812 6.41398 7.48406C6.73779 7.34999 7.08485 7.28104 7.43532 7.28115H12.5615C13.2692 7.28115 13.948 7.5623 14.4484 8.06275C14.9489 8.5632 15.23 9.24195 15.23 9.9497V12.5128C15.2301 13.7917 14.7618 15.0263 13.9135 15.9835C13.0653 16.9406 11.8958 17.5539 10.6262 17.7076V12.5128C10.6262 12.3463 10.5601 12.1866 10.4423 12.0689C10.3246 11.9511 10.1649 11.885 9.9984 11.885C9.8319 11.885 9.67222 11.9511 9.55448 12.0689C9.43675 12.1866 9.37061 12.3463 9.37061 12.5128V17.7076C8.10096 17.5539 6.93154 16.9406 6.0833 15.9835C5.23505 15.0263 4.76672 13.7917 4.76677 12.5128ZM9.9984 3.09585C10.802 3.09577 11.575 3.40389 12.1582 3.95671C12.7414 4.50954 13.0903 5.26498 13.1332 6.06741C12.9442 6.0397 12.7534 6.02571 12.5623 6.02556H7.43365C7.24259 6.02551 7.05178 6.0395 6.86277 6.06741C6.90564 5.26484 7.25472 4.50928 7.8381 3.95643C8.42147 3.40358 9.19468 3.09556 9.9984 3.09585Z"/>
</mask>
<path fill-rule="evenodd" clip-rule="evenodd" d="M14.5068 2.16922C14.5784 2.12722 14.6409 2.07146 14.6907 2.00516C14.7406 1.93885 14.7768 1.86332 14.7974 1.78293C14.8179 1.70254 14.8222 1.61888 14.8102 1.53679C14.7982 1.4547 14.77 1.37581 14.7273 1.30467C14.6846 1.23354 14.6282 1.17158 14.5614 1.12237C14.4946 1.07315 14.4187 1.03767 14.3381 1.01796C14.2575 0.998259 14.1738 0.994724 14.0919 1.00756C14.0099 1.0204 13.9313 1.04936 13.8606 1.09276L11.8985 2.2705C11.3055 1.98619 10.6561 1.83913 9.9984 1.84026C9.34103 1.83926 8.69187 1.98631 8.09911 2.2705L6.1362 1.09276C5.99354 1.00902 5.82358 0.984981 5.66329 1.02586C5.50299 1.06674 5.36531 1.16923 5.28016 1.31106C5.19502 1.4529 5.1693 1.6226 5.20859 1.7833C5.24788 1.94399 5.34901 2.08268 5.48999 2.16922L6.96573 3.05483C6.53481 3.46472 6.19184 3.95804 5.9577 4.50475C5.72356 5.05145 5.60316 5.64009 5.60383 6.23482V6.47757C5.38871 6.59057 5.1853 6.72367 4.99696 6.8735C4.93784 6.8157 4.86786 6.77018 4.79105 6.73957L3.11693 6.06992C2.96324 6.01199 2.79297 6.0166 2.64264 6.08275C2.49231 6.1489 2.37389 6.27133 2.31278 6.42378C2.25167 6.57623 2.25273 6.74656 2.31574 6.89823C2.37876 7.0499 2.4987 7.17084 2.64985 7.23511L4.13312 7.82859C3.7397 8.43964 3.51118 9.16788 3.51118 9.94886V11.0471H1.6278C1.46129 11.0471 1.30161 11.1132 1.18388 11.231C1.06614 11.3487 1 11.5084 1 11.6749C1 11.8414 1.06614 12.0011 1.18388 12.1188C1.30161 12.2365 1.46129 12.3027 1.6278 12.3027H3.51118V12.5128C3.51118 13.5842 3.77067 14.5937 4.23022 15.4843L2.64985 16.1155C2.57328 16.1462 2.50351 16.1916 2.44451 16.2492C2.38552 16.3069 2.33845 16.3756 2.306 16.4514C2.27354 16.5272 2.25635 16.6087 2.25538 16.6912C2.25442 16.7736 2.2697 16.8555 2.30037 16.932C2.33104 17.0086 2.37649 17.0784 2.43412 17.1374C2.49176 17.1964 2.56045 17.2434 2.63627 17.2759C2.7121 17.3083 2.79357 17.3255 2.87604 17.3265C2.95851 17.3275 3.04036 17.3122 3.11693 17.2815L4.79105 16.6119C4.83501 16.5943 4.87685 16.5719 4.91577 16.5449C5.5227 17.3112 6.29526 17.9302 7.1755 18.3554C8.05575 18.7806 9.02084 19.001 9.9984 19C10.976 19.0009 11.9412 18.7803 12.8214 18.355C13.7017 17.9297 14.4742 17.3105 15.081 16.5441C15.1202 16.5711 15.1623 16.5935 15.2066 16.611L16.8807 17.2807C17.0337 17.3352 17.2018 17.3283 17.3498 17.2614C17.4979 17.1946 17.6142 17.073 17.6744 16.9222C17.7347 16.7713 17.7341 16.6031 17.6729 16.4526C17.6117 16.3022 17.4946 16.1814 17.3461 16.1155L15.7674 15.4835C16.241 14.565 16.4873 13.5462 16.4856 12.5128V12.3035H18.369C18.5355 12.3035 18.6952 12.2374 18.8129 12.1196C18.9307 12.0019 18.9968 11.8422 18.9968 11.6757C18.9968 11.5092 18.9307 11.3495 18.8129 11.2318C18.6952 11.1141 18.5355 11.0479 18.369 11.0479H16.4856V9.9497C16.4856 9.16788 16.2571 8.44048 15.8637 7.82942L17.3461 7.23595C17.4946 7.17006 17.6117 7.04922 17.6729 6.8988C17.7341 6.74838 17.7347 6.58008 17.6744 6.42927C17.6142 6.27845 17.4979 6.15685 17.3498 6.09C17.2018 6.02314 17.0337 6.01625 16.8807 6.07076L15.2066 6.74041C15.1295 6.77092 15.0592 6.81644 14.9998 6.87434C14.8102 6.72394 14.607 6.5914 14.393 6.47841V6.23482C14.3938 5.63995 14.2734 5.05115 14.0393 4.50429C13.8051 3.95744 13.4621 3.46398 13.0311 3.05399L14.5068 2.16922ZM4.76677 12.5128V9.9497C4.76666 9.59923 4.83561 9.25217 4.96968 8.92836C5.10375 8.60455 5.30031 8.31032 5.54813 8.0625C5.79595 7.81469 6.09017 7.61812 6.41398 7.48406C6.73779 7.34999 7.08485 7.28104 7.43532 7.28115H12.5615C13.2692 7.28115 13.948 7.5623 14.4484 8.06275C14.9489 8.5632 15.23 9.24195 15.23 9.9497V12.5128C15.2301 13.7917 14.7618 15.0263 13.9135 15.9835C13.0653 16.9406 11.8958 17.5539 10.6262 17.7076V12.5128C10.6262 12.3463 10.5601 12.1866 10.4423 12.0689C10.3246 11.9511 10.1649 11.885 9.9984 11.885C9.8319 11.885 9.67222 11.9511 9.55448 12.0689C9.43675 12.1866 9.37061 12.3463 9.37061 12.5128V17.7076C8.10096 17.5539 6.93154 16.9406 6.0833 15.9835C5.23505 15.0263 4.76672 13.7917 4.76677 12.5128ZM9.9984 3.09585C10.802 3.09577 11.575 3.40389 12.1582 3.95671C12.7414 4.50954 13.0903 5.26498 13.1332 6.06741C12.9442 6.0397 12.7534 6.02571 12.5623 6.02556H7.43365C7.24259 6.02551 7.05178 6.0395 6.86277 6.06741C6.90564 5.26484 7.25472 4.50928 7.8381 3.95643C8.42147 3.40358 9.19468 3.09556 9.9984 3.09585Z" fill="#071952"/>
<path fill-rule="evenodd" clip-rule="evenodd" d="M14.5068 2.16922C14.5784 2.12722 14.6409 2.07146 14.6907 2.00516C14.7406 1.93885 14.7768 1.86332 14.7974 1.78293C14.8179 1.70254 14.8222 1.61888 14.8102 1.53679C14.7982 1.4547 14.77 1.37581 14.7273 1.30467C14.6846 1.23354 14.6282 1.17158 14.5614 1.12237C14.4946 1.07315 14.4187 1.03767 14.3381 1.01796C14.2575 0.998259 14.1738 0.994724 14.0919 1.00756C14.0099 1.0204 13.9313 1.04936 13.8606 1.09276L11.8985 2.2705C11.3055 1.98619 10.6561 1.83913 9.9984 1.84026C9.34103 1.83926 8.69187 1.98631 8.09911 2.2705L6.1362 1.09276C5.99354 1.00902 5.82358 0.984981 5.66329 1.02586C5.50299 1.06674 5.36531 1.16923 5.28016 1.31106C5.19502 1.4529 5.1693 1.6226 5.20859 1.7833C5.24788 1.94399 5.34901 2.08268 5.48999 2.16922L6.96573 3.05483C6.53481 3.46472 6.19184 3.95804 5.9577 4.50475C5.72356 5.05145 5.60316 5.64009 5.60383 6.23482V6.47757C5.38871 6.59057 5.1853 6.72367 4.99696 6.8735C4.93784 6.8157 4.86786 6.77018 4.79105 6.73957L3.11693 6.06992C2.96324 6.01199 2.79297 6.0166 2.64264 6.08275C2.49231 6.1489 2.37389 6.27133 2.31278 6.42378C2.25167 6.57623 2.25273 6.74656 2.31574 6.89823C2.37876 7.0499 2.4987 7.17084 2.64985 7.23511L4.13312 7.82859C3.7397 8.43964 3.51118 9.16788 3.51118 9.94886V11.0471H1.6278C1.46129 11.0471 1.30161 11.1132 1.18388 11.231C1.06614 11.3487 1 11.5084 1 11.6749C1 11.8414 1.06614 12.0011 1.18388 12.1188C1.30161 12.2365 1.46129 12.3027 1.6278 12.3027H3.51118V12.5128C3.51118 13.5842 3.77067 14.5937 4.23022 15.4843L2.64985 16.1155C2.57328 16.1462 2.50351 16.1916 2.44451 16.2492C2.38552 16.3069 2.33845 16.3756 2.306 16.4514C2.27354 16.5272 2.25635 16.6087 2.25538 16.6912C2.25442 16.7736 2.2697 16.8555 2.30037 16.932C2.33104 17.0086 2.37649 17.0784 2.43412 17.1374C2.49176 17.1964 2.56045 17.2434 2.63627 17.2759C2.7121 17.3083 2.79357 17.3255 2.87604 17.3265C2.95851 17.3275 3.04036 17.3122 3.11693 17.2815L4.79105 16.6119C4.83501 16.5943 4.87685 16.5719 4.91577 16.5449C5.5227 17.3112 6.29526 17.9302 7.1755 18.3554C8.05575 18.7806 9.02084 19.001 9.9984 19C10.976 19.0009 11.9412 18.7803 12.8214 18.355C13.7017 17.9297 14.4742 17.3105 15.081 16.5441C15.1202 16.5711 15.1623 16.5935 15.2066 16.611L16.8807 17.2807C17.0337 17.3352 17.2018 17.3283 17.3498 17.2614C17.4979 17.1946 17.6142 17.073 17.6744 16.9222C17.7347 16.7713 17.7341 16.6031 17.6729 16.4526C17.6117 16.3022 17.4946 16.1814 17.3461 16.1155L15.7674 15.4835C16.241 14.565 16.4873 13.5462 16.4856 12.5128V12.3035H18.369C18.5355 12.3035 18.6952 12.2374 18.8129 12.1196C18.9307 12.0019 18.9968 11.8422 18.9968 11.6757C18.9968 11.5092 18.9307 11.3495 18.8129 11.2318C18.6952 11.1141 18.5355 11.0479 18.369 11.0479H16.4856V9.9497C16.4856 9.16788 16.2571 8.44048 15.8637 7.82942L17.3461 7.23595C17.4946 7.17006 17.6117 7.04922 17.6729 6.8988C17.7341 6.74838 17.7347 6.58008 17.6744 6.42927C17.6142 6.27845 17.4979 6.15685 17.3498 6.09C17.2018 6.02314 17.0337 6.01625 16.8807 6.07076L15.2066 6.74041C15.1295 6.77092 15.0592 6.81644 14.9998 6.87434C14.8102 6.72394 14.607 6.5914 14.393 6.47841V6.23482C14.3938 5.63995 14.2734 5.05115 14.0393 4.50429C13.8051 3.95744 13.4621 3.46398 13.0311 3.05399L14.5068 2.16922ZM4.76677 12.5128V9.9497C4.76666 9.59923 4.83561 9.25217 4.96968 8.92836C5.10375 8.60455 5.30031 8.31032 5.54813 8.0625C5.79595 7.81469 6.09017 7.61812 6.41398 7.48406C6.73779 7.34999 7.08485 7.28104 7.43532 7.28115H12.5615C13.2692 7.28115 13.948 7.5623 14.4484 8.06275C14.9489 8.5632 15.23 9.24195 15.23 9.9497V12.5128C15.2301 13.7917 14.7618 15.0263 13.9135 15.9835C13.0653 16.9406 11.8958 17.5539 10.6262 17.7076V12.5128C10.6262 12.3463 10.5601 12.1866 10.4423 12.0689C10.3246 11.9511 10.1649 11.885 9.9984 11.885C9.8319 11.885 9.67222 11.9511 9.55448 12.0689C9.43675 12.1866 9.37061 12.3463 9.37061 12.5128V17.7076C8.10096 17.5539 6.93154 16.9406 6.0833 15.9835C5.23505 15.0263 4.76672 13.7917 4.76677 12.5128ZM9.9984 3.09585C10.802 3.09577 11.575 3.40389 12.1582 3.95671C12.7414 4.50954 13.0903 5.26498 13.1332 6.06741C12.9442 6.0397 12.7534 6.02571 12.5623 6.02556H7.43365C7.24259 6.02551 7.05178 6.0395 6.86277 6.06741C6.90564 5.26484 7.25472 4.50928 7.8381 3.95643C8.42147 3.40358 9.19468 3.09556 9.9984 3.09585Z" stroke="#071952" stroke-width="0.4" mask="url(#path-1-outside-1_2192_1259)"/>
</svg>
