<svg width="24" height="25" viewBox="0 0 24 25" fill="none" xmlns="http://www.w3.org/2000/svg">
	<path d="M19 15.8182V12.7562C19 11.712 18.5852 10.7105 17.8469 9.972C17.1086 9.23351 16.1072 8.8185 15.063 8.81824H8.936C7.89192 8.81877 6.89079 9.2339 6.15271 9.97236C5.41462 10.7108 5 11.7122 5 12.7562V15.8182C5 16.7375 5.18106 17.6477 5.53284 18.497C5.88463 19.3463 6.40024 20.118 7.05025 20.768C7.70026 21.418 8.47194 21.9336 9.32122 22.2854C10.1705 22.6372 11.0807 22.8182 12 22.8182C12.9193 22.8182 13.8295 22.6372 14.6788 22.2854C15.5281 21.9336 16.2997 21.418 16.9497 20.768C17.5998 20.118 18.1154 19.3463 18.4672 18.497C18.8189 17.6477 19 16.7375 19 15.8182Z" stroke="white" stroke-width="1.5" />
	<path d="M16.5 9.31824V8.31824C16.5 7.12476 16.0259 5.98017 15.182 5.13626C14.3381 4.29234 13.1935 3.81824 12 3.81824C10.8065 3.81824 9.66193 4.29234 8.81802 5.13626C7.97411 5.98017 7.5 7.12476 7.5 8.31824V9.31824" stroke="white" stroke-width="1.5" />
	<path d="M19 14.8182H22M5 14.8182H2M14.5 4.31824L17 2.81824M9.5 4.31824L7 2.81824M20.5 20.8182L18.5 20.0182M20.5 8.81824L18.5 9.61824M3.5 20.8182L5.5 20.0182M3.5 8.81824L5.5 9.61824M12 22.3182V15.8182" stroke="white" stroke-width="1.5" stroke-linecap="round" />
</svg>
