<svg width="13" height="13" viewBox="0 0 13 13" fill="none" xmlns="http://www.w3.org/2000/svg">
<path d="M5.44186 1.63971C5.4748 1.27741 5.77857 1 6.14234 1H6.85767C7.22144 1 7.5252 1.27741 7.55814 1.63971C7.5852 1.93716 7.79927 2.17999 8.07894 2.2848C8.15083 2.31174 8.22188 2.34048 8.29201 2.37095C8.56871 2.49121 8.89421 2.46816 9.12598 2.275C9.41242 2.03631 9.8336 2.05542 10.0972 2.31906L10.6021 2.82393C10.8535 3.07529 10.8717 3.47686 10.6441 3.74996C10.4546 3.97742 10.4369 4.2986 10.5643 4.56588C10.6195 4.68162 10.6699 4.80009 10.7152 4.92104C10.82 5.20072 11.0629 5.4148 11.3603 5.44186C11.7226 5.4748 12 5.77857 12 6.14234V6.85767C12 7.22144 11.7226 7.5252 11.3603 7.55814C11.0629 7.5852 10.82 7.79927 10.7152 8.07894C10.6745 8.18751 10.6297 8.2941 10.5811 8.39849C10.4629 8.65215 10.4821 8.95504 10.6612 9.17003C10.8791 9.4315 10.8617 9.816 10.621 10.0567L10.0567 10.621C9.816 10.8617 9.4315 10.8791 9.17003 10.6612C8.95504 10.4821 8.65215 10.4629 8.39849 10.5811C8.2941 10.6297 8.18751 10.6745 8.07894 10.7152C7.79927 10.82 7.5852 11.0629 7.55814 11.3603C7.5252 11.7226 7.22144 12 6.85767 12H6.14234C5.77857 12 5.4748 11.7226 5.44186 11.3603C5.4148 11.0629 5.20072 10.82 4.92104 10.7152C4.8001 10.6699 4.68163 10.6195 4.56589 10.5643C4.2986 10.4369 3.97743 10.4546 3.74996 10.6441C3.47686 10.8717 3.07529 10.8535 2.82392 10.6021L2.31906 10.0972C2.05541 9.8336 2.03631 9.41242 2.275 9.12598C2.46816 8.89421 2.49121 8.56871 2.37095 8.29201C2.34048 8.22188 2.31175 8.15088 2.2848 8.07894C2.17999 7.79927 1.93716 7.5852 1.63971 7.55814C1.27741 7.5252 1 7.22144 1 6.85767V6.14234C1 5.77857 1.27741 5.4748 1.63971 5.44186C1.93716 5.4148 2.17999 5.20072 2.28481 4.92104C2.31648 4.83653 2.35062 4.75321 2.38715 4.67119C2.51641 4.38094 2.49492 4.03741 2.29152 3.79332C2.04347 3.49567 2.06333 3.05798 2.3373 2.78401L2.784 2.3373C3.05798 2.06333 3.49566 2.04347 3.79332 2.29152C4.03741 2.49493 4.38093 2.51641 4.67118 2.38715C4.75321 2.35062 4.83652 2.31648 4.92104 2.28481C5.20072 2.17999 5.4148 1.93716 5.44186 1.63971Z" stroke="#11103D" stroke-width="0.75" stroke-linecap="round" stroke-linejoin="round"/>
<path d="M8.14961 6.5001C8.14961 7.41139 7.4109 8.1501 6.49961 8.1501C5.58831 8.1501 4.84961 7.41139 4.84961 6.5001C4.84961 5.5888 5.58831 4.8501 6.49961 4.8501C7.4109 4.8501 8.14961 5.5888 8.14961 6.5001Z" stroke="#11103D" stroke-width="0.75" stroke-linecap="round" stroke-linejoin="round"/>
</svg>
