<svg width="20" height="20" viewBox="0 0 20 20" fill="none" xmlns="http://www.w3.org/2000/svg">
<path d="M7.92666 12.5594L1.89988 8.72368C1.62409 8.54806 1.39705 8.30573 1.23975 8.01909C1.08246 7.73245 1 7.41077 1 7.08381C1 6.75686 1.08246 6.43518 1.23975 6.14854C1.39705 5.8619 1.62409 5.61957 1.89988 5.44395L7.92666 1.60819C8.55064 1.21098 9.27497 1 10.0147 1C10.7543 1 11.4787 1.21098 12.1026 1.60819L18.1294 5.44395C18.4052 5.61957 18.6323 5.8619 18.7895 6.14854C18.9468 6.43518 19.0293 6.75686 19.0293 7.08381C19.0293 7.41077 18.9468 7.73245 18.7895 8.01909C18.6323 8.30573 18.4052 8.54806 18.1294 8.72368L12.1026 12.5594C11.4787 12.9566 10.7543 13.1676 10.0147 13.1676C9.27497 13.1676 8.55064 12.9566 7.92666 12.5594Z" stroke="#11103D" stroke-width="1.6"/>
<path d="M16.125 10L18.1304 11.2763C18.4062 11.4519 18.6332 11.6943 18.7905 11.9809C18.9478 12.2675 19.0303 12.5892 19.0303 12.9162C19.0303 13.2431 18.9478 13.5648 18.7905 13.8515C18.6332 14.1381 18.4062 14.3804 18.1304 14.5561L12.1026 18.3918C11.4787 18.789 10.7543 19 10.0147 19C9.27497 19 8.55064 18.789 7.92666 18.3918L1.89988 14.5561C1.62409 14.3804 1.39705 14.1381 1.23975 13.8515C1.08246 13.5648 1 13.2431 1 12.9162C1 12.5892 1.08246 12.2675 1.23975 11.9809C1.39705 11.6943 1.62409 11.4519 1.89988 11.2763L3.90427 10" stroke="#11103D" stroke-width="1.6"/>
</svg>
