<svg width="24" height="25" viewBox="0 0 24 25" fill="none" xmlns="http://www.w3.org/2000/svg">
	<path d="M8.47159 15.2873C8.1787 15.5802 8.1787 16.055 8.47159 16.3479C8.76449 16.6408 9.23936 16.6408 9.53225 16.3479L8.47159 15.2873ZM15.0019 9.81761H15.7519C15.7519 9.40339 15.4161 9.06761 15.0019 9.06761V9.81761ZM10.5019 9.06761C10.0877 9.06761 9.75192 9.40339 9.75192 9.81761C9.75192 10.2318 10.0877 10.5676 10.5019 10.5676V9.06761ZM14.2519 14.3176C14.2519 14.7318 14.5877 15.0676 15.0019 15.0676C15.4161 15.0676 15.7519 14.7318 15.7519 14.3176H14.2519ZM9.53225 16.3479L15.5322 10.3479L14.4716 9.28728L8.47159 15.2873L9.53225 16.3479ZM15.0019 9.06761H10.5019V10.5676H15.0019V9.06761ZM14.2519 9.81761V14.3176H15.7519V9.81761H14.2519ZM21.25 12.8182C21.25 17.9268 17.1086 22.0682 12 22.0682V23.5682C17.9371 23.5682 22.75 18.7552 22.75 12.8182H21.25ZM12 22.0682C6.89137 22.0682 2.75 17.9268 2.75 12.8182H1.25C1.25 18.7552 6.06294 23.5682 12 23.5682V22.0682ZM2.75 12.8182C2.75 7.70954 6.89137 3.56818 12 3.56818V2.06818C6.06294 2.06818 1.25 6.88111 1.25 12.8182H2.75ZM12 3.56818C17.1086 3.56818 21.25 7.70954 21.25 12.8182H22.75C22.75 6.88111 17.9371 2.06818 12 2.06818V3.56818Z" fill="white" />
</svg>
