<svg width="32" height="30" viewBox="0 0 32 30" fill="none" xmlns="http://www.w3.org/2000/svg">
<rect x="0.771763" y="0.642857" width="29.6498" height="28.7143" rx="1.92857" stroke="#D6D6D6" stroke-width="1.28571"/>
<path d="M12.9792 20.99C12.6556 20.9899 12.3453 20.8611 12.1165 20.6317L8.45582 16.9634C8.23354 16.7328 8.11055 16.4239 8.11333 16.1033C8.11611 15.7827 8.24444 15.476 8.47068 15.2493C8.69692 15.0226 9.00297 14.894 9.32292 14.8912C9.64286 14.8884 9.95109 15.0116 10.1812 15.2344L12.9792 18.0382L20.6582 10.3432C20.8883 10.1205 21.1966 9.99726 21.5165 10C21.8365 10.0028 22.1425 10.1314 22.3688 10.3581C22.595 10.5849 22.7233 10.8915 22.7261 11.2122C22.7289 11.5328 22.6059 11.8416 22.3836 12.0723L13.8419 20.6317C13.6132 20.8611 13.3028 20.9899 12.9792 20.99Z" fill="#34C369"/>
</svg>
