<svg width="31" height="30" viewBox="0 0 31 30" fill="none" xmlns="http://www.w3.org/2000/svg">
<rect width="30.9356" height="30" rx="2.57143" fill="#34C369"/>
<path d="M12.8494 20.99C12.5258 20.9899 12.2154 20.8611 11.9866 20.6317L8.32593 16.9634C8.10366 16.7328 7.98066 16.4239 7.98344 16.1033C7.98622 15.7827 8.11456 15.476 8.3408 15.2493C8.56704 15.0226 8.87309 14.894 9.19303 14.8912C9.51298 14.8884 9.82121 15.0116 10.0514 15.2344L12.8494 18.0382L20.5283 10.3432C20.7585 10.1205 21.0667 9.99726 21.3866 10C21.7066 10.0028 22.0126 10.1314 22.2389 10.3581C22.4651 10.5849 22.5934 10.8915 22.5962 11.2122C22.599 11.5328 22.476 11.8416 22.2537 12.0723L13.7121 20.6317C13.4833 20.8611 13.173 20.9899 12.8494 20.99Z" fill="white"/>
</svg>
