<svg width="22" height="15" viewBox="0 0 22 15" fill="none" xmlns="http://www.w3.org/2000/svg">
<path d="M5.25192 4.83205L4.97457 4.41602L4.97456 4.41603L5.25192 4.83205ZM9.4453 2.03647L9.16796 1.62044L9.16795 1.62044L9.4453 2.03647ZM9.4453 13.9635L9.72266 13.5475L9.72265 13.5475L9.4453 13.9635ZM5.25192 11.1679L5.52927 10.7519L5.52926 10.7519L5.25192 11.1679ZM15.8536 3.14645C15.6583 2.95118 15.3417 2.95118 15.1464 3.14645C14.9512 3.34171 14.9512 3.65829 15.1464 3.85355L15.8536 3.14645ZM15.1464 11.1464C14.9512 11.3417 14.9512 11.6583 15.1464 11.8536C15.3417 12.0488 15.6583 12.0488 15.8536 11.8536L15.1464 11.1464ZM18.8536 0.146447C18.6583 -0.0488155 18.3417 -0.0488155 18.1464 0.146447C17.9512 0.341709 17.9512 0.658291 18.1464 0.853553L18.8536 0.146447ZM18.1464 14.1464C17.9512 14.3417 17.9512 14.6583 18.1464 14.8536C18.3417 15.0488 18.6583 15.0488 18.8536 14.8536L18.1464 14.1464ZM1.5 10V6H0.5V10H1.5ZM1.5 6C1.5 5.72386 1.72386 5.5 2 5.5V4.5C1.17158 4.5 0.5 5.17158 0.5 6H1.5ZM2 5.5H4.69722V4.5H2V5.5ZM4.69722 5.5C4.99336 5.5 5.28288 5.41234 5.52928 5.24807L4.97456 4.41603C4.89244 4.47078 4.79594 4.5 4.69722 4.5V5.5ZM5.52927 5.24808L9.72265 2.4525L9.16795 1.62044L4.97457 4.41602L5.52927 5.24808ZM9.72264 2.4525C10.055 2.23096 10.5 2.46917 10.5 2.86852H11.5C11.5 1.67047 10.1648 0.955897 9.16796 1.62044L9.72264 2.4525ZM10.5 2.86852V13.1315H11.5V2.86852H10.5ZM10.5 13.1315C10.5 13.5309 10.055 13.769 9.72266 13.5475L9.16794 14.3795C10.1648 15.0442 11.5 14.3295 11.5 13.1315H10.5ZM9.72265 13.5475L5.52927 10.7519L4.97457 11.5839L9.16795 14.3795L9.72265 13.5475ZM5.52926 10.7519C5.28281 10.5876 4.99329 10.5 4.69722 10.5V11.5C4.79601 11.5 4.89251 11.5292 4.97458 11.5839L5.52926 10.7519ZM4.69722 10.5H2V11.5H4.69722V10.5ZM2 10.5C1.72386 10.5 1.5 10.2762 1.5 10H0.5C0.5 10.8284 1.17158 11.5 2 11.5V10.5ZM15.5 3.5C15.1464 3.85355 15.1463 3.85342 15.1462 3.85328C15.1461 3.85325 15.146 3.85312 15.1459 3.85304C15.1458 3.8529 15.1457 3.85277 15.1456 3.85267C15.1454 3.85246 15.1452 3.85235 15.1452 3.85232C15.1452 3.85226 15.1455 3.85256 15.1461 3.85321C15.1474 3.85452 15.15 3.85723 15.1539 3.86133C15.1616 3.86954 15.1745 3.8833 15.1916 3.9025C15.226 3.94092 15.2775 4.00095 15.3406 4.08159C15.467 4.2431 15.6386 4.48585 15.8111 4.80193C16.156 5.43424 16.5 6.35225 16.5 7.5H17.5C17.5 6.14775 17.094 5.06576 16.6889 4.32307C16.4864 3.95165 16.283 3.66315 16.1281 3.46528C16.0506 3.36624 15.985 3.28955 15.9373 3.23617C15.9134 3.20947 15.894 3.18857 15.8798 3.17358C15.8727 3.16609 15.8669 3.16007 15.8625 3.15555C15.8603 3.15328 15.8585 3.15139 15.857 3.14987C15.8562 3.14912 15.8555 3.14845 15.855 3.14788C15.8547 3.14759 15.8544 3.14733 15.8542 3.14709C15.8541 3.14697 15.8539 3.14681 15.8539 3.14675C15.8537 3.1466 15.8536 3.14645 15.5 3.5ZM16.5 7.5C16.5 8.64775 16.156 9.56576 15.8111 10.1981C15.6386 10.5142 15.467 10.7569 15.3406 10.9184C15.2775 10.9991 15.226 11.0591 15.1916 11.0975C15.1745 11.1167 15.1616 11.1305 15.1539 11.1387C15.15 11.1428 15.1474 11.1455 15.1461 11.1468C15.1455 11.1474 15.1452 11.1477 15.1452 11.1477C15.1452 11.1477 15.1454 11.1475 15.1456 11.1473C15.1457 11.1472 15.1458 11.1471 15.1459 11.147C15.146 11.1469 15.1461 11.1468 15.1462 11.1467C15.1463 11.1466 15.1464 11.1464 15.5 11.5C15.8536 11.8536 15.8537 11.8534 15.8539 11.8532C15.8539 11.8532 15.8541 11.853 15.8542 11.8529C15.8544 11.8527 15.8547 11.8524 15.855 11.8521C15.8555 11.8516 15.8562 11.8509 15.857 11.8501C15.8585 11.8486 15.8603 11.8467 15.8625 11.8445C15.8669 11.8399 15.8727 11.8339 15.8798 11.8264C15.894 11.8114 15.9134 11.7905 15.9373 11.7638C15.985 11.7105 16.0506 11.6338 16.1281 11.5347C16.283 11.3368 16.4864 11.0483 16.6889 10.6769C17.094 9.93424 17.5 8.85225 17.5 7.5H16.5ZM18.5 0.5C18.1464 0.853553 18.1463 0.853407 18.1462 0.853271C18.1461 0.853238 18.146 0.85311 18.1459 0.853044C18.1458 0.852912 18.1457 0.852818 18.1457 0.85276C18.1455 0.852646 18.1456 0.852681 18.1458 0.852866C18.1461 0.853236 18.1471 0.854204 18.1486 0.855768C18.1516 0.858896 18.1569 0.864407 18.1644 0.872285C18.1792 0.888043 18.2026 0.913258 18.2332 0.947804C18.2944 1.01692 18.3847 1.12325 18.4943 1.26579C18.7137 1.55105 19.0101 1.98023 19.3075 2.54537C19.902 3.67485 20.5 5.34541 20.5 7.5H21.5C21.5 5.15459 20.848 3.32515 20.1925 2.07963C19.8649 1.45727 19.5363 0.980204 19.2869 0.656082C19.1622 0.493942 19.0571 0.369803 18.9816 0.284617C18.9439 0.242015 18.9135 0.209125 18.8918 0.186065C18.8809 0.174534 18.8722 0.165457 18.8657 0.15885C18.8625 0.155546 18.8599 0.15286 18.8579 0.150792C18.8568 0.149758 18.856 0.148879 18.8553 0.148155C18.8549 0.147792 18.8546 0.147469 18.8543 0.147184C18.8541 0.147042 18.854 0.146857 18.8539 0.146786C18.8537 0.146612 18.8536 0.146447 18.5 0.5ZM20.5 7.5C20.5 9.65459 19.902 11.3252 19.3075 12.4546C19.0101 13.0198 18.7137 13.449 18.4943 13.7342C18.3847 13.8768 18.2944 13.9831 18.2332 14.0522C18.2026 14.0867 18.1792 14.112 18.1644 14.1277C18.1569 14.1356 18.1516 14.1411 18.1486 14.1442C18.1471 14.1458 18.1461 14.1468 18.1458 14.1471C18.1456 14.1473 18.1455 14.1474 18.1457 14.1472C18.1457 14.1472 18.1458 14.1471 18.1459 14.147C18.146 14.1469 18.1461 14.1468 18.1462 14.1467C18.1463 14.1466 18.1464 14.1464 18.5 14.5C18.8536 14.8536 18.8537 14.8534 18.8539 14.8532C18.854 14.8531 18.8541 14.853 18.8543 14.8528C18.8546 14.8525 18.8549 14.8522 18.8553 14.8518C18.856 14.8511 18.8568 14.8502 18.8579 14.8492C18.8599 14.8471 18.8625 14.8445 18.8657 14.8412C18.8722 14.8345 18.8809 14.8255 18.8918 14.8139C18.9135 14.7909 18.9439 14.758 18.9816 14.7154C19.0571 14.6302 19.1622 14.5061 19.2869 14.3439C19.5363 14.0198 19.8649 13.5427 20.1925 12.9204C20.848 11.6748 21.5 9.84541 21.5 7.5H20.5Z" fill="#2A2C33"/>
</svg>
