<svg width="20" height="21" viewBox="0 0 20 21" fill="none" xmlns="http://www.w3.org/2000/svg">
<path d="M8.18805 10.5416C10.173 10.5416 11.7821 8.93252 11.7821 6.94757C11.7821 4.96263 10.173 3.35352 8.18805 3.35352C6.20311 3.35352 4.59399 4.96263 4.59399 6.94757C4.59399 8.93252 6.20311 10.5416 8.18805 10.5416Z" stroke="#11103D" stroke-width="1.6" stroke-linecap="round" stroke-linejoin="round"/>
<path d="M15.3098 8.45774C17.175 7.77885 18.1368 5.71643 17.4579 3.85119C16.779 1.98596 14.7166 1.02423 12.8513 1.70312" stroke="#11103D" stroke-width="1.6" stroke-linecap="round" stroke-linejoin="round"/>
<path d="M1 19.5278V15.9337C1 14.9412 1.80456 14.1367 2.79703 14.1367H13.5792C14.5717 14.1367 15.3762 14.9412 15.3762 15.9337V19.5278" stroke="#11103D" stroke-width="1.6" stroke-linecap="round" stroke-linejoin="round"/>
<path d="M16 11.5273H17.3478C18.3403 11.5273 19.1448 12.3319 19.1448 13.3244V16.1784V17.6054" stroke="#11103D" stroke-width="1.6" stroke-linecap="round" stroke-linejoin="round"/>
</svg>
