<svg width="90" height="80" viewBox="0 0 90 80" fill="none" xmlns="http://www.w3.org/2000/svg">
<path d="M88.5207 65.6356L53.541 4.88822C52.6669 3.39993 51.419 2.16592 49.9211 1.30849C48.4231 0.451067 46.7271 0 45.0011 0C43.2751 0 41.5791 0.451067 40.0811 1.30849C38.5832 2.16592 37.3353 3.39993 36.4612 4.88822L1.48154 65.6356C0.640496 67.0751 0.197266 68.7124 0.197266 70.3796C0.197266 72.0468 0.640496 73.684 1.48154 75.1235C2.34446 76.6208 3.5902 77.8615 5.09095 78.7184C6.5917 79.5753 8.29341 80.0174 10.0215 79.9995H79.9808C81.7075 80.016 83.4075 79.5732 84.9067 78.7164C86.406 77.8596 87.6504 76.6196 88.5127 75.1235C89.3549 73.6847 89.7996 72.0479 89.801 70.3807C89.8024 68.7135 89.3605 67.0758 88.5207 65.6356ZM82.9727 71.9196C82.6678 72.4397 82.23 72.8695 81.7042 73.1647C81.1785 73.4599 80.5836 73.61 79.9808 73.5995H10.0215C9.41857 73.61 8.82376 73.4599 8.29799 73.1647C7.77223 72.8695 7.33443 72.4397 7.02949 71.9196C6.75327 71.4519 6.60756 70.9187 6.60756 70.3756C6.60756 69.8324 6.75327 69.2992 7.02949 68.8316L42.0091 8.08418C42.3202 7.56648 42.76 7.13809 43.2857 6.84069C43.8114 6.54328 44.4051 6.38698 45.0091 6.38698C45.6131 6.38698 46.2068 6.54328 46.7325 6.84069C47.2582 7.13809 47.698 7.56648 48.0091 8.08418L82.9887 68.8316C83.2625 69.3007 83.4055 69.8346 83.4027 70.3778C83.3999 70.9209 83.2514 71.4533 82.9727 71.9196ZM41.8011 47.9998V31.9999C41.8011 31.1513 42.1383 30.3373 42.7384 29.7372C43.3385 29.1371 44.1524 28.8 45.0011 28.8C45.8498 28.8 46.6637 29.1371 47.2638 29.7372C47.8639 30.3373 48.2011 31.1513 48.2011 31.9999V47.9998C48.2011 48.8485 47.8639 49.6624 47.2638 50.2625C46.6637 50.8626 45.8498 51.1998 45.0011 51.1998C44.1524 51.1998 43.3385 50.8626 42.7384 50.2625C42.1383 49.6624 41.8011 48.8485 41.8011 47.9998ZM49.8011 62.3997C49.8011 63.349 49.5196 64.277 48.9921 65.0664C48.4647 65.8557 47.715 66.4709 46.838 66.8342C45.9609 67.1975 44.9958 67.2926 44.0647 67.1074C43.1336 66.9222 42.2783 66.465 41.607 65.7937C40.9357 65.1224 40.4786 64.2672 40.2934 63.3361C40.1082 62.405 40.2032 61.4399 40.5665 60.5628C40.9298 59.6857 41.5451 58.9361 42.3344 58.4086C43.1238 57.8812 44.0518 57.5997 45.0011 57.5997C46.2741 57.5997 47.495 58.1054 48.3952 59.0056C49.2954 59.9057 49.8011 61.1266 49.8011 62.3997Z" fill="#E02B2B"/>
</svg>
