<svg width="44" height="57" viewBox="0 0 44 57" fill="none" xmlns="http://www.w3.org/2000/svg">
<path d="M25.36 31C16.86 20.6533 8.40667 10.36 0 0.12L0.13 0L22.35 21L23.65 19.44C25.4 17.32 27.14 15.2 28.9 13.1C29.1151 12.838 29.4233 12.6695 29.76 12.63C33.14 12.63 36.52 12.63 39.9 12.63C40.05 12.63 40.19 12.63 40.46 12.7L25.36 31Z" fill="white"/>
<path d="M21.64 35.64C20.64 36.82 19.73 37.93 18.81 39.05C17.55 40.57 16.3 42.1 15 43.61C14.811 43.8351 14.5423 43.9784 14.25 44.01C10.78 44.01 7.31004 44.01 3.84004 44.01C3.73993 44.0139 3.63967 44.0106 3.54004 44L18.63 25.67C27.11 36.0034 35.5667 46.29 44 56.53L43.89 56.65L21.64 35.64Z" fill="white"/>
</svg>
